<?xml version="1.0" standalone="no"?><!DOCTYPE svg PUBLIC "-//W3C//DTD SVG 1.1//EN" "http://www.w3.org/Graphics/SVG/1.1/DTD/svg11.dtd"><svg width="200" height="200" viewBox="0 0 200 200" version="1.1" xmlns="http://www.w3.org/2000/svg" xmlns:xlink="http://www.w3.org/1999/xlink"><defs><style type="text/css"><![CDATA[
@font-face { font-family: ifont; src: url("//at.alicdn.com/t/font_1442373896_4754455.eot?#iefix") format("embedded-opentype"), url("//at.alicdn.com/t/font_1442373896_4754455.woff") format("woff"), url("//at.alicdn.com/t/font_1442373896_4754455.ttf") format("truetype"), url("//at.alicdn.com/t/font_1442373896_4754455.svg#ifont") format("svg"); }

]]></style></defs><g class="transform-group"><g transform="scale(0.1953125, 0.1953125)"><path d="M864.711111 250.311111 159.288889 250.311111c-12.583822 0-22.755556-10.171733-22.755556-22.755556 0-12.561067 10.171733-22.755556 22.755556-22.755556l705.422222 0c12.583822 0 22.755556 10.194489 22.755556 22.755556C887.466667 240.139378 877.294933 250.311111 864.711111 250.311111zM637.155556 159.288889 386.844444 159.288889c-12.583822 0-22.755556-10.171733-22.755556-22.755556 0-12.561067 10.171733-22.755556 22.755556-22.755556l250.311111 0c12.583822 0 22.755556 10.194489 22.755556 22.755556C659.911111 149.117156 649.739378 159.288889 637.155556 159.288889zM409.6 750.933333 409.6 364.088889c0-12.561067 10.171733-22.755556 22.755556-22.755556s22.755556 10.194489 22.755556 22.755556l0 386.844444c0 12.583822-10.171733 22.755556-22.755556 22.755556S409.6 763.517156 409.6 750.933333zM568.888889 750.933333 568.888889 364.088889c0-12.561067 10.171733-22.755556 22.755556-22.755556s22.755556 10.194489 22.755556 22.755556l0 386.844444c0 12.583822-10.171733 22.755556-22.755556 22.755556S568.888889 763.517156 568.888889 750.933333zM250.311111 318.577778c12.583822 0 22.755556 10.194489 22.755556 22.755556l0 26.942578L273.066667 455.111111l0 364.088889c0 25.122133 20.388978 45.511111 45.511111 45.511111l386.844444 0c25.122133 0 45.511111-20.388978 45.511111-45.511111L750.933333 455.111111l0-86.8352L750.933333 341.333333c0-12.561067 10.171733-22.755556 22.755556-22.755556s22.755556 10.194489 22.755556 22.755556l0 91.022222 0 22.755556 0 386.844444c0 37.705956-30.560711 68.266667-68.266667 68.266667L295.822222 910.222222c-37.705956 0-68.266667-30.560711-68.266667-68.266667L227.555556 496.867556 227.555556 455.111111l0-22.755556 0-91.022222C227.555556 328.772267 237.727289 318.577778 250.311111 318.577778z" fill="#333"></path></g></g></svg>
