<?xml version="1.0" encoding="utf-8"?>
<!-- Generator: Adobe Illustrator 19.0.0, SVG Export Plug-In . SVG Version: 6.00 Build 0)  -->
<svg version="1.1" id="图层_1" xmlns="http://www.w3.org/2000/svg" xmlns:xlink="http://www.w3.org/1999/xlink" x="0px" y="0px"
	 viewBox="0 0 44 44" style="enable-background:new 0 0 44 44;" xml:space="preserve">
<style type="text/css">
	.st0{fill:#FF973A;}
</style>
<g id="XMLID_6_">
	<path id="XMLID_54_" class="st0" d="M42.3,8.5h-6V1.4c0-0.8-0.6-1.4-1.4-1.4H1.7C1,0,0.4,0.6,0.4,1.4v41.2C0.4,43.4,1,44,1.7,44
		h31.4h1.7h7.4c0.8,0,1.4-0.6,1.4-1.4V9.9C43.6,9.1,43,8.5,42.3,8.5z M27.8,32.8h-19v-1.5h19V32.8z M27.8,21.7h-19v-1.5h19V21.7z
		 M27.8,10.7h-19V9.2h19V10.7z M42.1,42.5h-5.9V10h5.9V42.5z"/>
</g>
</svg>
