<?xml version="1.0" encoding="utf-8"?>
<!-- Generator: Adobe Illustrator 19.0.0, SVG Export Plug-In . SVG Version: 6.00 Build 0)  -->
<svg version="1.1" id="图层_1" xmlns="http://www.w3.org/2000/svg" xmlns:xlink="http://www.w3.org/1999/xlink" x="0px" y="0px"
	 viewBox="0 0 44 44" style="enable-background:new 0 0 44 44;" xml:space="preserve">
<style type="text/css">
	.st0{fill:#82ADE4;}
</style>
<g id="XMLID_469_">
	<g id="XMLID_478_" transform="scale(0.1953125, 0.1953125)">
		<path id="XMLID_479_" class="st0" d="M112.6,0C65.4,0,27.2,37.8,27.2,84.5c0,46.7,85.5,140.8,85.5,140.8s85.5-94.2,85.5-140.8
			C198.1,37.8,159.8,0,112.6,0z M112.6,140.8c-31.5,0-57-25.2-57-56.3c0-31.1,25.5-56.3,57-56.3c31.5,0,57,25.2,57,56.3
			C169.6,115.6,144.1,140.8,112.6,140.8z M112.6,56.3c-15.7,0-28.5,12.6-28.5,28.2c0,15.6,12.8,28.2,28.5,28.2s28.5-12.6,28.5-28.2
			C141.1,68.9,128.4,56.3,112.6,56.3z"/>
	</g>
</g>
</svg>
