<?xml version="1.0" standalone="no"?><!DOCTYPE svg PUBLIC "-//W3C//DTD SVG 1.1//EN" "http://www.w3.org/Graphics/SVG/1.1/DTD/svg11.dtd"><svg width="200" height="200" viewBox="0 0 200 200" version="1.1" xmlns="http://www.w3.org/2000/svg" xmlns:xlink="http://www.w3.org/1999/xlink"><defs><style type="text/css"><![CDATA[
@font-face { font-family: ifont; src: url("//at.alicdn.com/t/font_1442373896_4754455.eot?#iefix") format("embedded-opentype"), url("//at.alicdn.com/t/font_1442373896_4754455.woff") format("woff"), url("//at.alicdn.com/t/font_1442373896_4754455.ttf") format("truetype"), url("//at.alicdn.com/t/font_1442373896_4754455.svg#ifont") format("svg"); }

]]></style></defs><g class="transform-group"><g transform="scale(0.1953125, 0.1953125)"><path d="M514.034844 99.758028c-228.189096 0-413.18853 184.998411-413.18853 413.189553 0 228.189096 184.999434 413.187507 413.18853 413.187507 228.190119 0 413.18853-184.998411 413.18853-413.187507C927.223375 284.756439 742.224963 99.758028 514.034844 99.758028zM765.629 521.403161l-198.384279 180.419116c-0.667196 0.665149-1.474584 1.087774-2.192945 1.64957-0.947582 0.981351-2.122337 1.667989-3.263323 2.421142-0.070608 0.053212-0.141216 0.103354-0.209778 0.155543l0-0.016373c-2.807952 1.807159-5.946432 3.122107-9.528004 3.122107-9.911744 0-17.96414-8.05035-17.96414-17.966187l0-122.295324c-1.000793 0.086981-1.966795 0.298805-3.000334 0.298805l-230.541677 0c-19.841907 0-35.928281-16.089443-35.928281-35.930327l0-68.859297c0-19.840884 16.087397-35.927257 35.928281-35.927257l230.541677 0c1.033539 0 1.99954 0.209778 3.000334 0.297782l0-122.280997c0-9.92914 8.052396-17.965164 17.96414-17.965164 3.824095 0 7.175423 1.456165 10.086729 3.492544l0-0.210801c1.75497 1.158383 3.563152 2.26253 5.106298 3.808746l198.384279 180.418093C778.155291 488.561172 778.155291 508.876869 765.629 521.403161z" fill="#fff"></path></g></g></svg>
