<?xml version="1.0" encoding="utf-8"?>
<!-- Generator: Adobe Illustrator 19.0.0, SVG Export Plug-In . SVG Version: 6.00 Build 0)  -->
<svg version="1.1" id="图层_1" xmlns="http://www.w3.org/2000/svg" xmlns:xlink="http://www.w3.org/1999/xlink" x="0px" y="0px"
	 viewBox="0 0 44 44" style="enable-background:new 0 0 44 44;" xml:space="preserve">
<style type="text/css">
	.st0{fill:#999;}
</style>
<g id="XMLID_832_">
	<g id="XMLID_853_" transform="scale(0.1953125, 0.1953125)">
		<path id="XMLID_886_" class="st0" d="M117,224.9c-30.6,0-77.8-9.9-106.5-64.4l-4.1-7.7h136.3v10.5H24.3
			c38,61.9,104.5,51.4,117.8,48.6l2.2,10.3C139.8,223.2,129.9,224.9,117,224.9z M153.3,218.8V82.6h10.5v118.6
			c61.9-38,51.4-104.4,48.6-117.8l10.2-2.2c3.2,15.2,15.5,93.1-61.7,133.6L153.3,218.8z M142.9,200.6H82.5v-10.5H143L142.9,200.6
			L142.9,200.6z M142.9,180.7H81.4v-10.5h61.4V180.7z M181.1,144h-10.5V82.6h10.5V144z M2.7,143.3C-0.5,128.1-12.8,50.2,64.4,9.6
			l7.7-4V142H61.6V23.3C-0.3,61.3,10.2,127.8,13,141.1L2.7,143.3z M201.1,142.9h-10.5V82.6h10.5V142.9z M143.8,142.8H82V82.9h61.7
			V142.8z M92.5,132.3h40.7V93.4H92.5V132.3z M54.7,141.9H44.2V80.5h10.5V141.9z M34.8,141.9H24.3V81.5h10.5V141.9z M218.9,72.3
			H82.5V61.8h118.7C163.2-0.1,96.8,10.4,83.4,13.2L81.2,3c15.2-3.2,93.1-15.4,133.7,61.7L218.9,72.3z M144.1,55H82.5V44.5h61.5V55z
			 M143,35.1H82.5V24.6H143V35.1z"/>
	</g>
</g>
</svg>
