<?xml version="1.0" encoding="utf-8"?>
<!-- Generator: Adobe Illustrator 19.0.0, SVG Export Plug-In . SVG Version: 6.00 Build 0)  -->
<svg version="1.1" id="图层_1" xmlns="http://www.w3.org/2000/svg" xmlns:xlink="http://www.w3.org/1999/xlink" x="0px" y="0px"
	 viewBox="0 0 44 44" style="enable-background:new 0 0 44 44;" xml:space="preserve">
<style type="text/css">
	.st0{fill:#ED594E;}
</style>
<g id="XMLID_8_">
	<g id="XMLID_76_">
		<path id="XMLID_77_" class="st0" d="M42.8,6.6H1.3C0.6,6.6,0,7.2,0,8v28.1c0,0.7,0.6,1.3,1.3,1.3h41.4c0.7,0,1.3-0.6,1.3-1.3V8
			C44.1,7.2,43.5,6.6,42.8,6.6z M6.9,33.1c0,0.1-0.1,0.3-0.3,0.3H4.4c-0.1,0-0.3-0.1-0.3-0.3v-4.7c0-0.1,0.1-0.3,0.3-0.3h2.3
			c0.1,0,0.3,0.1,0.3,0.3v4.7H6.9z M12.6,33.1c0,0.1-0.1,0.3-0.3,0.3H10c-0.1,0-0.3-0.1-0.3-0.3v-4.7c0-0.1,0.1-0.3,0.3-0.3h2.3
			c0.1,0,0.3,0.1,0.3,0.3V33.1z M18.2,33.1c0,0.1-0.1,0.3-0.3,0.3h-2.3c-0.1,0-0.3-0.1-0.3-0.3v-4.7c0-0.1,0.1-0.3,0.3-0.3H18
			c0.1,0,0.3,0.1,0.3,0.3v4.7H18.2z M42.8,20.7c0,0.4-0.3,0.7-0.7,0.7H2c-0.4,0-0.7-0.3-0.7-0.7v-6.4c0-0.4,0.3-0.7,0.7-0.7h40.1
			c0.4,0,0.7,0.3,0.7,0.7V20.7z"/>
	</g>
</g>
</svg>
