<?xml version="1.0" encoding="utf-8"?>
<!-- Generator: Adobe Illustrator 19.0.0, SVG Export Plug-In . SVG Version: 6.00 Build 0)  -->
<svg version="1.1" id="图层_1" xmlns="http://www.w3.org/2000/svg" xmlns:xlink="http://www.w3.org/1999/xlink" x="0px" y="0px"
	 viewBox="0 0 44 44" style="enable-background:new 0 0 44 44;" xml:space="preserve">
<style type="text/css">
	.st0{fill:#FF973A;}
</style>
<g id="XMLID_121_">
	<g id="XMLID_128_">
		<path id="XMLID_18_" class="st0" d="M0,32.4l3.9-2.6c0.2-0.1,0.4-0.3,0.5-0.5c0.8-1.1,3.9-4.9,5.9-6.6c1.6-1.3,3.4-2.9,7.2-4.2
			c3.8-1.3,5.8,1.7,6.9,4.6c1.1,3,1.2,7.2,0.6,7.8c-0.5,0.5-3.9,2.7-5.9,2.5c-2.1-0.2-3.2-2.6-2.9-4.9c0.1-1.1,1-1.7,1-1.7
			s-1.7,0.6-1.7,1.6c0,0.7,0,0.5-0.3,3.4c-0.4,3.8-5.6,3.3-6.7,2.9C7.8,34.5,5.5,38,5.5,38L0,32.4z"/>
	</g>
	<g id="XMLID_123_">
		<path id="XMLID_15_" class="st0" d="M11.2,17.6c0,0,0.3,1.2,2.2,0.9s5.4-2.9,7.1-2.8c1.7,0.2,4.9,3.1,5.6,6.2
			c0.8,3.1,0.2,5.5,1.3,7.4c0.9,1.7,1.1,2.7,6.3,3.9c2.6,0.6,5.6,4.4,5.6,4.4l4.7-5.8c0,0-5.5-3.8-6-4.8c-0.6-1.1-2.3-11-2.8-12.5
			C34.1,11,29.3,6.7,24.4,6C19.4,5.4,9.5,11.7,11.2,17.6z"/>
	</g>
</g>
</svg>
