<?xml version="1.0" encoding="utf-8"?>
<!-- Generator: Adobe Illustrator 19.0.0, SVG Export Plug-In . SVG Version: 6.00 Build 0)  -->
<svg version="1.1" id="图层_1" xmlns="http://www.w3.org/2000/svg" xmlns:xlink="http://www.w3.org/1999/xlink" x="0px" y="0px"
	 viewBox="0 0 30 30" style="enable-background:new 0 0 30 30;" xml:space="preserve">
<style type="text/css">
	.st0{fill:#ccc;}
</style>
<g id="XMLID_290_">
	<polygon id="XMLID_293_" class="st0" points="24.5,4.6 24.5,3.6 15.5,3.6 15.5,1.3 14.5,1.3 14.5,3.6 5.5,3.6 5.5,4.6 14.5,4.6
		14.5,27.7 9.9,27.7 9.9,28.7 20.1,28.7 20.1,27.7 15.5,27.7 15.5,4.6 	"/>
	<path id="XMLID_308_" class="st0" d="M5.9,4.9L0,17.4c0,3.2,2.6,5.9,5.9,5.9s5.9-2.6,5.9-5.9L5.9,4.9z M10.6,17.1H1.2l4.7-9.8
		L10.6,17.1z M5.9,22.3c-2.5,0-4.5-1.8-4.8-4.2h9.7C10.4,20.5,8.4,22.3,5.9,22.3z"/>
	<path id="XMLID_313_" class="st0" d="M24.1,4.9l-5.9,12.5c0,3.2,2.6,5.9,5.9,5.9s5.9-2.6,5.9-5.9L24.1,4.9z M28.8,17.1h-9.3
		l4.7-9.8L28.8,17.1z M24.1,22.3c-2.5,0-4.5-1.8-4.8-4.2h9.7C28.6,20.5,26.6,22.3,24.1,22.3z"/>
</g>
</svg>
