<?xml version="1.0" standalone="no"?><!DOCTYPE svg PUBLIC "-//W3C//DTD SVG 1.1//EN" "http://www.w3.org/Graphics/SVG/1.1/DTD/svg11.dtd"><svg width="200" height="200" viewBox="0 0 200 200" version="1.1" xmlns="http://www.w3.org/2000/svg" xmlns:xlink="http://www.w3.org/1999/xlink"><defs><style type="text/css"><![CDATA[
@font-face { font-family: ifont; src: url("//at.alicdn.com/t/font_1442373896_4754455.eot?#iefix") format("embedded-opentype"), url("//at.alicdn.com/t/font_1442373896_4754455.woff") format("woff"), url("//at.alicdn.com/t/font_1442373896_4754455.ttf") format("truetype"), url("//at.alicdn.com/t/font_1442373896_4754455.svg#ifont") format("svg"); }

]]></style></defs><g class="transform-group"><g transform="scale(0.1953125, 0.1953125)"><path d="M832 512l0 320-192 0L640 512 832 512M832 448l-192 0C601.6 448 576 473.6 576 512l0 320c0 38.4 25.6 64 64 64l192 0c38.4 0 64-25.6 64-64L896 512C896 473.6 870.4 448 832 448L832 448zM384 448 192 448C153.6 448 128 473.6 128 512l0 64 64 0L192 512l192 0 0 128L256 640l0 64 128 0 0 128L192 832l0-64L128 768l0 64c0 38.4 25.6 64 64 64l192 0c38.4 0 64-25.6 64-64L448 512C448 473.6 422.4 448 384 448zM320 0 320 0c38.4 0 64 25.6 64 64l0 128c0 38.4-25.6 64-64 64l0 0C281.6 256 256 230.4 256 192L256 64C256 25.6 281.6 0 320 0zM704 0 704 0c38.4 0 64 25.6 64 64l0 128c0 38.4-25.6 64-64 64l0 0c-38.4 0-64-25.6-64-64L640 64C640 25.6 665.6 0 704 0zM896 128l-64 0 0 64c0 70.4-57.6 128-128 128S576 262.4 576 192L576 128 448 128l0 64c0 70.4-57.6 128-128 128S192 262.4 192 192L192 128 128 128C57.6 128 0 185.6 0 256l0 128 0 512c0 70.4 57.6 128 128 128l768 0c70.4 0 128-57.6 128-128L1024 384 1024 256C1024 185.6 966.4 128 896 128zM960 896c0 38.4-25.6 64-64 64L128 960c-38.4 0-64-25.6-64-64L64 384l896 0L960 896z" fill="#ff973a"></path></g></g></svg>
