<?xml version="1.0" encoding="utf-8"?>
<!-- Generator: Adobe Illustrator 19.0.0, SVG Export Plug-In . SVG Version: 6.00 Build 0)  -->
<svg version="1.1" id="图层_1" xmlns="http://www.w3.org/2000/svg" xmlns:xlink="http://www.w3.org/1999/xlink" x="0px" y="0px"
	 viewBox="0 0 44 44" style="enable-background:new 0 0 44 44;" xml:space="preserve">
<style type="text/css">
	.st0{fill:#fff;}
</style>
<path id="XMLID_201_" class="st0" d="M36.1,4.3H7.9c-1,0-1.9,0.6-2.3,1.5L0.2,17.7C0.1,18,0,18.3,0,18.7v16.2v3.4
	c0,0.8,0.7,1.5,1.5,1.5h4.3c0.8,0,1.5-0.7,1.5-1.5v-3.4h29.4v3.4c0,0.8,0.7,1.5,1.5,1.5h4.3c0.8,0,1.5-0.7,1.5-1.5v-3.4V18.7
	c0-0.4-0.1-0.7-0.2-1l-5.5-12C38,4.8,37.1,4.3,36.1,4.3z M7.9,6.8h28.1l4,8.9H3.9L7.9,6.8z M11,28.3c-2.1,0-3.8-1.7-3.8-3.8
	S9,20.7,11,20.7s3.8,1.7,3.8,3.8S13.1,28.3,11,28.3z M33,28.3c-2.1,0-3.8-1.7-3.8-3.8s1.7-3.8,3.8-3.8s3.8,1.7,3.8,3.8
	S35,28.3,33,28.3z"/>
</svg>
