<?xml version="1.0" encoding="utf-8"?>
<!-- Generator: Adobe Illustrator 19.0.0, SVG Export Plug-In . SVG Version: 6.00 Build 0)  -->
<svg version="1.1" id="图层_1" xmlns="http://www.w3.org/2000/svg" xmlns:xlink="http://www.w3.org/1999/xlink" x="0px" y="0px"
	 viewBox="0 0 30 30" style="enable-background:new 0 0 30 30;" xml:space="preserve">
<style type="text/css">
	.st0{fill:#FF973A;}
</style>
<g id="XMLID_118_">
	<g id="XMLID_244_">
		<path id="XMLID_223_" class="st0" d="M15,2.7c6.6,0,12,5.4,12,12s-5.4,12-12,12s-12-5.4-12-12S8.4,2.7,15,2.7 M15,1.7
			c-7.2,0-13,5.8-13,13s5.8,13,13,13s13-5.8,13-13S22.2,1.7,15,1.7L15,1.7z"/>
	</g>
	<g id="XMLID_243_">
		<polygon id="XMLID_242_" class="st0" points="19.9,15.2 14.5,15.2 14.5,7 15.5,7 15.5,14.2 19.9,14.2 		"/>
	</g>
	<g id="XMLID_239_">
		<g id="XMLID_241_">

				<rect id="XMLID_248_" x="2.3" y="1.6" transform="matrix(0.7619 0.6476 -0.6476 0.7619 4.1365 -0.5601)" class="st0" width="1" height="7.6"/>
		</g>
		<g id="XMLID_240_">

				<rect id="XMLID_247_" x="23.4" y="4.8" transform="matrix(0.6475 0.7621 -0.7621 0.6475 13.652 -18.8204)" class="st0" width="7.6" height="1"/>
		</g>
	</g>
	<g id="XMLID_224_">
		<g id="XMLID_238_">

				<rect id="XMLID_246_" x="5.8" y="24.6" transform="matrix(0.7339 0.6793 -0.6793 0.7339 19.7152 2.7816)" class="st0" width="1" height="3.9"/>
		</g>
		<g id="XMLID_228_">

				<rect id="XMLID_245_" x="21.7" y="26.1" transform="matrix(0.6792 0.7339 -0.7339 0.6792 27.0884 -8.8709)" class="st0" width="3.9" height="1"/>
		</g>
	</g>
</g>
</svg>
