<?xml version="1.0" encoding="utf-8"?>
<!-- Generator: Adobe Illustrator 19.0.0, SVG Export Plug-In . SVG Version: 6.00 Build 0)  -->
<svg version="1.1" id="图层_1" xmlns="http://www.w3.org/2000/svg" xmlns:xlink="http://www.w3.org/1999/xlink" x="0px" y="0px"
	 viewBox="0 0 44 44" style="enable-background:new 0 0 44 44;" xml:space="preserve">
<style type="text/css">
	.st0{fill:#FF973A;}
</style>
<g id="XMLID_1398_">
	<g id="XMLID_1416_">
		<path id="XMLID_26_" class="st0" d="M3,44H1.3C0.6,44,0,43.4,0,42.7V36h3V44z"/>
	</g>
	<g id="XMLID_1408_">
		<rect id="XMLID_24_" x="0" y="24" class="st0" width="3" height="8"/>
	</g>
	<g id="XMLID_1404_">
		<rect id="XMLID_23_" x="0" y="12" class="st0" width="3" height="8"/>
	</g>
	<g id="XMLID_1399_">
		<path id="XMLID_25_" class="st0" d="M3,8H0V1.3C0,0.6,0.6,0,1.3,0H3V8z"/>
	</g>
	<g id="XMLID_1712_">
		<g id="XMLID_56_">
			<path id="XMLID_57_" class="st0" d="M42.7,0H5v44h37.7c0.7,0,1.3-0.6,1.3-1.3V1.3C44,0.6,43.4,0,42.7,0z M24.5,8.5
				c4.1,0,7.4,3.3,7.4,7.4c0,4.1-3.3,7.4-7.4,7.4c-4.1,0-7.4-3.3-7.4-7.4C17.1,11.8,20.4,8.5,24.5,8.5z M34.8,35.5H14.2
				c-1.1,0-1.9-1-1.7-2.1l1-5.2c0.1-0.6,0.6-1.1,1.1-1.3l3.5-1.2c0.5-0.2,1.1-0.1,1.5,0.2c0.9,0.6,2.7,1.4,4.9,1.4s4-0.9,4.9-1.4
				c0.5-0.3,1-0.4,1.5-0.2l3.5,1.2c0.6,0.2,1,0.7,1.1,1.3l1,5.2C36.8,34.5,35.9,35.5,34.8,35.5z"/>
		</g>
	</g>
</g>
</svg>
