<?xml version="1.0" encoding="utf-8"?>
<!-- Generator: Adobe Illustrator 19.0.0, SVG Export Plug-In . SVG Version: 6.00 Build 0)  -->
<svg version="1.1" id="图层_1" xmlns="http://www.w3.org/2000/svg" xmlns:xlink="http://www.w3.org/1999/xlink" x="0px" y="0px"
	 viewBox="0 0 44 44" style="enable-background:new 0 0 44 44;" xml:space="preserve">
<style type="text/css">
	.st0{fill:#FF973A;}
	.st1{fill:#FFFFFF;}
</style>
<g id="XMLID_1_">
	<path id="XMLID_2_" class="st0" d="M6.7,37.5h30.5c2.2,0,4-1.8,4-4l0-29.4c0-1.1-0.4-2.1-1.2-2.8C39.4,0.4,38.3,0,37.3,0H6.7
		c-2.2,0-4,1.8-4,4v35.7h0c0,0.1,0,0.2,0,0.3c0,2.2,1.8,4,4,4h34.5v-1.5H6.7c-1.4,0-2.5-1.1-2.5-2.5C4.2,38.6,5.3,37.5,6.7,37.5z"/>
	<polygon id="XMLID_6_" class="st1" points="11,0 11,12.5 15.6,9.2 20.1,12.5 20.1,0 	"/>
</g>
</svg>
