<?xml version="1.0" encoding="utf-8"?>
<!-- Generator: Adobe Illustrator 19.0.0, SVG Export Plug-In . SVG Version: 6.00 Build 0)  -->
<svg version="1.1" id="图层_1" xmlns="http://www.w3.org/2000/svg" xmlns:xlink="http://www.w3.org/1999/xlink" x="0px" y="0px"
	 viewBox="0 0 44 44" style="enable-background:new 0 0 44 44;" xml:space="preserve">
<style type="text/css">
	.st0{fill:#82ADE4;}
</style>
<g id="XMLID_1146_">
	<g id="XMLID_1149_" transform="scale(0.1953125, 0.1953125)">
		<path id="XMLID_1150_" class="st0" d="M112.6,220.6C50.4,220.6,0,205.5,0,186.9l0-40.5c0,18.6,50.4,33.7,112.6,33.7
			c62.2,0,112.6-15.1,112.6-33.7l0,40.5C225.3,205.5,174.9,220.6,112.6,220.6z M112.6,159.9C50.4,159.9,0,144.8,0,126.1l0-40.5
			c0,18.6,50.4,33.7,112.6,33.7c62.2,0,112.6-15.1,112.6-33.7v40.5C225.3,144.8,174.9,159.9,112.6,159.9z M112.6,99.1
			C50.4,99.1,0,84,0,65.4l0-27C0,19.8,50.4,4.7,112.6,4.7c62.2,0,112.6,15.1,112.6,33.7v27C225.3,84,174.9,99.1,112.6,99.1z"/>
	</g>
</g>
</svg>
