<?xml version="1.0" standalone="no"?><!DOCTYPE svg PUBLIC "-//W3C//DTD SVG 1.1//EN" "http://www.w3.org/Graphics/SVG/1.1/DTD/svg11.dtd"><svg width="200" height="200" viewBox="0 0 200 200" version="1.1" xmlns="http://www.w3.org/2000/svg" xmlns:xlink="http://www.w3.org/1999/xlink"><defs><style type="text/css"><![CDATA[
@font-face { font-family: ifont; src: url("//at.alicdn.com/t/font_1442373896_4754455.eot?#iefix") format("embedded-opentype"), url("//at.alicdn.com/t/font_1442373896_4754455.woff") format("woff"), url("//at.alicdn.com/t/font_1442373896_4754455.ttf") format("truetype"), url("//at.alicdn.com/t/font_1442373896_4754455.svg#ifont") format("svg"); }

]]></style></defs><g class="transform-group"><g transform="scale(0.1953125, 0.1953125)"><path d="M723.948203 377.912096c-10.238179-10.239202-26.837228-10.239202-37.075407 0l-86.510306 86.510306-86.510306-86.510306c-10.238179-10.239202-26.838252-10.239202-37.075407 0-10.238179 10.238179-10.238179 26.838252 0 37.075407l86.510306 86.509283-86.510306 86.510306c-10.238179 10.238179-10.238179 26.838252 0 37.075407 10.238179 10.238179 26.837228 10.238179 37.075407 0l86.510306-86.510306 86.510306 86.510306c10.238179 10.238179 26.837228 10.238179 37.075407 0s10.238179-26.838252 0-37.075407l-86.510306-86.510306 86.510306-86.509283C734.186382 404.750347 734.186382 388.150274 723.948203 377.912096zM890.129037 196.759269 383.27729 196.759269c-1.552356 0-3.00545 0.357134-4.53427 0.457418-16.057721-2.706645-33.128515 2.034333-45.51973 14.435781L79.216179 471.889467c-20.342304 20.360723-20.342304 48.454572 0 68.813249l244.226351 250.993474c7.751544 12.979616 19.400862 23.298636 33.550117 29.051663 7.713682 3.665483 16.056698 5.363148 24.417109 5.018294 0.635473 0.016373 1.227967 0.187265 1.867534 0.187265l506.851747 0c38.611389 0 69.911256-31.299867 69.911256-69.910233L960.040293 266.668479C960.039269 228.059136 928.739403 196.759269 890.129037 196.759269zM925.084153 727.917608c0 34.20708-27.730575 61.938678-61.939701 61.938678L414.08904 789.856285c-0.566912 0-1.090844-0.151449-1.653663-0.166799-7.407714 0.305969-22.470781-1.198292-29.30442-4.446265-12.535501-5.099135-29.133527-14.240329-36.001959-25.738198L119.692033 530.48398c-18.023492-18.037818-15.232936-30.54569 2.789533-48.583508l235.404428-236.297774c10.978029-10.988262 19.128663-15.188934 33.355689-12.790304 1.352811-0.089028 21.471011-0.404206 22.847357-0.404206l449.056436 0c34.208103 0 61.939701 27.730575 61.939701 61.938678L925.085176 727.917608z" fill="#333"></path></g></g></svg>
