<?xml version="1.0" encoding="utf-8"?>
<!-- Generator: Adobe Illustrator 19.0.0, SVG Export Plug-In . SVG Version: 6.00 Build 0)  -->
<svg version="1.1" id="图层_1" xmlns="http://www.w3.org/2000/svg" xmlns:xlink="http://www.w3.org/1999/xlink" x="0px" y="0px"
	 viewBox="0 0 44 44" style="enable-background:new 0 0 44 44;" xml:space="preserve">
<style type="text/css">
	.st0{fill:#FF973A;}
</style>
<g id="XMLID_753_">
	<path id="XMLID_764_" class="st0" d="M31.3,20.4c3.6,0,6.6,3,6.6,6.6s-3,6.6-6.6,6.6s-6.6-3-6.6-6.6S27.7,20.4,31.3,20.4
		 M31.3,18.2c-4.9,0-8.8,3.9-8.8,8.8s3.9,8.8,8.8,8.8s8.8-3.9,8.8-8.8S36.2,18.2,31.3,18.2L31.3,18.2z"/>
	<path id="XMLID_760_" class="st0" d="M31.3,38c-3.4,0-6.4-1.5-8.4-3.9H8.2v-2.2h13.3c-0.7-1.5-1.2-3.1-1.2-4.9
		c0-0.7,0.1-1.5,0.2-2.2H8.2v-2.2h13c1.7-3.9,5.6-6.6,10.1-6.6c0.4,0,0.7,0,1.1,0.1v-4.4L20.8,0H2.4C1.7,0,1.1,0.6,1.1,1.3v41.4
		c0,0.7,0.6,1.3,1.3,1.3h28.7c0.7,0,1.3-0.6,1.3-1.3v-4.8C32.1,37.9,31.7,38,31.3,38z M22.7,4l5.7,5.7c0.2,0.2,0,0.5-0.2,0.5h-5.7
		c-0.1,0-0.3-0.1-0.3-0.3V4.2C22.2,3.9,22.5,3.8,22.7,4z M8.2,13.4h14v2.2h-14V13.4z"/>

		<rect id="XMLID_759_" x="38.5" y="31.6" transform="matrix(0.7071 -0.7071 0.7071 0.7071 -13.3163 38.3026)" class="st0" width="2.2" height="7.2"/>
</g>
</svg>
