<?xml version="1.0" encoding="utf-8"?>
<!-- Generator: Adobe Illustrator 19.0.0, SVG Export Plug-In . SVG Version: 6.00 Build 0)  -->
<svg version="1.1" id="图层_1" xmlns="http://www.w3.org/2000/svg" xmlns:xlink="http://www.w3.org/1999/xlink" x="0px" y="0px"
	 viewBox="0 0 44 44" style="enable-background:new 0 0 44 44;" xml:space="preserve">
<style type="text/css">
	.st0{fill:#FF973A;}
</style>
<path id="XMLID_1843_" class="st0" d="M40,9.2h-5.6V5.3c0-2.9-2.4-5.3-5.3-5.3H14.8c-2.9,0-5.3,2.4-5.3,5.3v3.9H4
	c-0.8,0-1.4,0.6-1.4,1.4v22.1v4.6c0,3.7,3,6.6,6.6,6.6h25.6c3.7,0,6.6-3,6.6-6.6v-4.6V10.7C41.4,9.9,40.8,9.2,40,9.2z M11.6,5.3
	C11.6,3.5,13,2,14.8,2h14.3c1.8,0,3.3,1.5,3.3,3.3v3.9H11.6V5.3z M38.2,34.7H5.8V12.8h3.7V15c-0.6,0.4-1,1-1,1.8c0,1.1,0.9,2,2,2
	s2-0.9,2-2c0-0.8-0.4-1.4-1-1.8v-2.1h20.9V15c-0.6,0.4-1,1-1,1.8c0,1.1,0.9,2,2,2c1.1,0,2-0.9,2-2c0-0.8-0.4-1.4-1-1.8v-2.1h3.7
	V34.7z"/>
</svg>
