<?xml version="1.0" encoding="utf-8"?>
<!-- Generator: Adobe Illustrator 19.0.0, SVG Export Plug-In . SVG Version: 6.00 Build 0)  -->
<svg version="1.1" id="图层_1" xmlns="http://www.w3.org/2000/svg" xmlns:xlink="http://www.w3.org/1999/xlink" x="0px" y="0px"
	 viewBox="0 0 41.3 41.3" style="enable-background:new 0 0 41.3 41.3;" xml:space="preserve">
<style type="text/css">
	.st0{fill:#ed594e;}
	.st1{fill:#FFFFFF;}
</style>
<g id="XMLID_1543_">
	<path id="XMLID_1549_" class="st0" d="M38.9,41.3H2.4c-1.3,0-2.4-1.1-2.4-2.4V2.4C0,1.1,1.1,0,2.4,0h36.5c1.3,0,2.4,1.1,2.4,2.4
		v36.5C41.3,40.2,40.2,41.3,38.9,41.3z"/>
	<path id="XMLID_1544_" class="st1" d="M4.3,37.8L8,27.4l6.1,6.4L4.3,37.8z M15.3,32.6l-6.1-6.4L25.9,8.8l6.1,6.4L15.3,32.6z
		 M33.1,13.9L27,7.5l3.1-3.2c1-1.1,2.7-1.1,3.7,0l2.4,2.6c1,1.1,1,2.8,0,3.9L33.1,13.9z"/>
</g>
</svg>
