<?xml version="1.0" encoding="utf-8"?>
<!-- Generator: Adobe Illustrator 19.0.0, SVG Export Plug-In . SVG Version: 6.00 Build 0)  -->
<svg version="1.1" id="图层_1" xmlns="http://www.w3.org/2000/svg" xmlns:xlink="http://www.w3.org/1999/xlink" x="0px" y="0px"
	 viewBox="0 0 44 44" style="enable-background:new 0 0 44 44;" xml:space="preserve">
<style type="text/css">
	.st0{fill:#FF973A;}
</style>
<g id="XMLID_1_">
	<rect id="XMLID_6_" x="13" y="6.6" class="st0" width="18" height="1.5"/>
	<rect id="XMLID_8_" x="13" y="13.8" class="st0" width="18" height="1.5"/>
	<path id="XMLID_12_" class="st0" d="M41.5,19.7h-3V1.4c0-0.8-0.6-1.4-1.4-1.4H6.9C6.1,0,5.5,0.6,5.5,1.4v18.3h-3
		c-0.8,0-1.4,0.6-1.4,1.4v21.5c0,0.8,0.6,1.4,1.4,1.4h38.9c0.8,0,1.4-0.6,1.4-1.4V21.1C42.8,20.3,42.2,19.7,41.5,19.7z M7,1.5h30
		v18.2H7V1.5z"/>
</g>
</svg>
