<?xml version="1.0" encoding="utf-8"?>
<!-- Generator: Adobe Illustrator 19.0.0, SVG Export Plug-In . SVG Version: 6.00 Build 0)  -->
<svg version="1.1" id="图层_1" xmlns="http://www.w3.org/2000/svg" xmlns:xlink="http://www.w3.org/1999/xlink" x="0px" y="0px"
	 viewBox="0 0 65.5 54.9" style="enable-background:new 0 0 65.5 54.9;" xml:space="preserve">
<style type="text/css">
	.st0{fill-rule:evenodd;clip-rule:evenodd;fill:#999;stroke:#999;stroke-width:1.5;stroke-miterlimit:10;}
</style>
<g id="XMLID_1568_">
	<path id="XMLID_1576_" class="st0" d="M20.8,27.4c-4.4-2.2-7.3-7-7.3-12.6c0-7.7,5.6-13.9,12.6-13.9c7,0,12.6,6.2,12.6,13.9
		c0,5.6-2.9,10.4-7.3,12.6c10.8,2.6,19,12.9,19.5,25.5l-49.6,0C1.9,40.5,10.1,30,20.8,27.4L20.8,27.4 M36.5,2.5
		c2.9,3.1,4.7,7.5,4.7,12.3c0,4.4-1.5,8.5-4.1,11.5l0,0C45,30,51,37.7,52.9,47.1v0l11.2,0c-0.5-11.2-7.7-20.3-17.3-22.7
		c3.9-1.9,6.5-6.2,6.5-11.2c0-6.8-5-12.4-11.2-12.4c-2.1,0-4,0.6-5.6,1.7L36.5,2.5z"/>
</g>
</svg>
