<?xml version="1.0" standalone="no"?><!DOCTYPE svg PUBLIC "-//W3C//DTD SVG 1.1//EN" "http://www.w3.org/Graphics/SVG/1.1/DTD/svg11.dtd"><svg width="200" height="200" viewBox="0 0 200 200" version="1.1" xmlns="http://www.w3.org/2000/svg" xmlns:xlink="http://www.w3.org/1999/xlink"><defs><style type="text/css"><![CDATA[
@font-face { font-family: ifont; src: url("//at.alicdn.com/t/font_1442373896_4754455.eot?#iefix") format("embedded-opentype"), url("//at.alicdn.com/t/font_1442373896_4754455.woff") format("woff"), url("//at.alicdn.com/t/font_1442373896_4754455.ttf") format("truetype"), url("//at.alicdn.com/t/font_1442373896_4754455.svg#ifont") format("svg"); }

]]></style></defs><g class="transform-group"><g transform="scale(0.1953125, 0.1953125)"><path d="M513.209548 959.221648c-246.904343 0-447.056895-200.152553-447.056895-447.056895 0-246.899226 200.152553-447.056895 447.056895-447.056895s447.056895 200.157669 447.056895 447.056895C960.266443 759.069095 760.113891 959.221648 513.209548 959.221648zM513.209548 114.781186c-219.470527 0-397.383566 177.919179-397.383566 397.383566 0 219.470527 177.914062 397.383566 397.383566 397.383566S910.593114 731.635279 910.593114 512.164752C910.593114 292.699342 732.679052 114.781186 513.209548 114.781186zM513.209548 760.529353c-27.434839 0-49.673329-22.23849-49.673329-49.673329s22.23849-49.673329 49.673329-49.673329c27.434839 0 49.673329 22.23849 49.673329 49.673329S540.643364 760.529353 513.209548 760.529353zM485.158678 611.510388l-20.847817-347.71126 97.944729 0L540.375258 611.510388 485.158678 611.510388z" fill="#ff973a"></path></g></g></svg>
