<?xml version="1.0" encoding="utf-8"?>
<!-- Generator: Adobe Illustrator 19.0.0, SVG Export Plug-In . SVG Version: 6.00 Build 0)  -->
<svg version="1.1" id="图层_1" xmlns="http://www.w3.org/2000/svg" xmlns:xlink="http://www.w3.org/1999/xlink" x="0px" y="0px"
	 viewBox="0 0 44 44" style="enable-background:new 0 0 44 44;" xml:space="preserve">
<style type="text/css">
	.st0{fill:#6FB39C;}
	.st1{fill:#7DCDB4;}
</style>
<g id="XMLID_923_">
	<g id="XMLID_957_">
		<g id="XMLID_961_">
			<g id="XMLID_962_">
				<ellipse id="XMLID_20_" class="st0" cx="28.8" cy="17.4" rx="9.3" ry="9.2"/>
			</g>
		</g>
		<g id="XMLID_958_">
			<path id="XMLID_18_" class="st0" d="M36.6,29.5l4.8,1.7c0.6,0.2,1,0.7,1.1,1.3l1.4,7.3c0.2,1.1-0.6,2.1-1.7,2.1H15.4
				c-1.1,0-1.9-1-1.7-2.1l1.4-7.3c0.1-0.6,0.6-1.1,1.1-1.3l4.8-1.7c0.5-0.2,1.1-0.1,1.5,0.2c1.1,0.7,3.3,1.9,6.3,1.9
				s5.2-1.2,6.3-1.9C35.6,29.4,36.1,29.3,36.6,29.5z"/>
		</g>
	</g>
	<g id="XMLID_924_">
		<g id="XMLID_934_">
			<g id="XMLID_936_">
				<ellipse id="XMLID_17_" class="st1" cx="17.8" cy="13" rx="10.9" ry="10.8"/>
			</g>
		</g>
		<g id="XMLID_926_">
			<path id="XMLID_19_" class="st1" d="M27.2,27.4l5.1,1.8c0.9,0.3,1.5,1,1.7,2l1.5,7.7c0.3,1.6-0.9,3.1-2.5,3.1H2.6
				c-1.6,0-2.8-1.5-2.5-3.1l1.5-7.7c0.2-0.9,0.8-1.6,1.7-2l5.1-1.8c0.7-0.3,1.6-0.2,2.2,0.3c1.3,0.8,3.9,2.1,7.2,2.1
				s5.9-1.3,7.2-2.1C25.6,27.2,26.5,27.1,27.2,27.4z"/>
		</g>
	</g>
</g>
</svg>
