<?xml version="1.0" encoding="utf-8"?>
<!-- Generator: Adobe Illustrator 19.0.0, SVG Export Plug-In . SVG Version: 6.00 Build 0)  -->
<svg version="1.1" id="图层_1" xmlns="http://www.w3.org/2000/svg" xmlns:xlink="http://www.w3.org/1999/xlink" x="0px" y="0px"
	 viewBox="0 0 44 44" style="enable-background:new 0 0 44 44;" xml:space="preserve">
<style type="text/css">
	.st0{fill:#FF973A;}
</style>
<g id="XMLID_601_">
	<path id="XMLID_665_" class="st0" d="M19.1,5.6c-0.7,0.6-1.4,1.3-2.2,2.1c-0.6,0.7-1.4,1.7-2.2,2.8c-0.8,1.1-1.6,2.4-2.4,4
		c-0.8,1.5-1.5,3-1.9,4.5c-0.4,1.4-0.7,2.7-0.9,3.9c-0.2,1.3-0.3,2.6-0.3,3.7c-0.3-0.3-0.7-0.5-1-0.7c-0.3-0.2-0.7-0.3-1.1-0.5
		C6.8,25.2,6.4,25,5.9,25c-0.9-0.1-1.8-0.1-2.5,0.1c-0.8,0.2-1.4,0.4-1.9,0.7c-0.4,0.3-0.8,0.5-1.1,0.6c-0.3,0-0.4-0.2-0.4-0.6
		c0-1.1,0.2-2.2,0.5-3.3s0.7-2.2,1.2-3.1c0.4-1,0.9-1.8,1.4-2.6c0.5-0.8,0.8-1.3,1.1-1.7c1.4-2,3-3.6,4.7-4.8s3.3-2.1,4.9-2.8
		C15.5,6.5,17.3,5.9,19.1,5.6z M24.8,5.6c1.8,0.3,3.6,0.9,5.3,1.7c1.5,0.7,3.1,1.6,4.9,2.8s3.3,2.8,4.8,4.8c0.3,0.4,0.7,1,1.1,1.7
		c0.4,0.8,0.9,1.6,1.3,2.6c0.4,1,0.8,2,1.2,3.1c0.3,1.1,0.5,2.2,0.5,3.3c0,0.6-0.2,0.9-0.5,0.8c-0.3-0.1-0.7-0.3-1.1-0.7
		c-0.4-0.3-0.9-0.5-1.6-0.7c-0.7-0.2-1.5-0.2-2.6-0.1c-0.5,0.1-0.9,0.2-1.4,0.4c-0.4,0.2-0.8,0.3-1.2,0.5c-0.4,0.2-0.8,0.4-1.1,0.7
		c0-1.2-0.1-2.4-0.3-3.7c-0.2-1.1-0.5-2.4-0.9-3.8c-0.4-1.4-1-2.9-1.9-4.5c-0.8-1.5-1.6-2.9-2.4-3.9s-1.5-2-2.1-2.7
		C26.2,6.9,25.5,6.2,24.8,5.6z M22,0.7c0.6,0,1.1,0.4,1.4,1.3c0.1,0.3,0.2,0.6,0.4,1c0.2,0.4,0.3,0.8,0.5,1.2
		c0.2,0.4,0.4,0.9,0.6,1.4c-0.4-0.2-0.8-0.4-1.1-0.6c-0.3-0.2-0.6-0.3-1-0.5S22.2,4.3,22,4.3c-0.2,0-0.5,0.1-0.8,0.2
		c-0.3,0.1-0.6,0.3-0.9,0.4c-0.4,0.2-0.7,0.4-1.1,0.7c0.2-0.5,0.4-1,0.5-1.4c0.2-0.4,0.3-0.8,0.5-1.2c0.1-0.4,0.3-0.8,0.4-1
		c0.2-0.4,0.4-0.8,0.7-0.9C21.4,0.8,21.7,0.7,22,0.7z M22,5.6c0.1,0,0.2,0,0.3,0c0.1,0,0.3,0.1,0.6,0.4c0.3,0.2,0.7,0.6,1.2,1.2
		c0.5,0.5,1.1,1.3,2,2.4s1.5,2.1,2.1,3.2c0.6,1,1.1,2,1.5,3c0.4,0.9,0.8,1.8,1,2.6c0.3,0.8,0.4,1.4,0.6,1.9c0.1,0.4,0.2,0.8,0.4,1.4
		c0.2,0.6,0.3,1.2,0.4,1.8c0.1,0.6,0.2,1.2,0.3,1.7c0.1,0.5,0,0.8-0.1,1c-0.4,0.4-0.7,0.6-1.1,0.4s-0.9-0.5-1.7-1
		c-0.4-0.2-0.9-0.4-1.5-0.6c-0.6-0.2-1.3-0.4-1.9-0.5c-0.7-0.1-1.4-0.3-2.1-0.3c-0.7-0.1-1.3-0.1-1.9-0.1c-1.2,0-2.4,0.1-3.7,0.4
		c-1.3,0.3-2.4,0.6-3.2,1c-0.8,0.4-1.3,0.7-1.6,1c-0.3,0.3-0.6,0.4-1,0.3c-0.4-0.1-0.6-0.6-0.6-1.5c0-0.9,0.3-2.4,0.9-4.6
		c0.4-1.4,0.8-2.7,1.2-3.8c0.4-1.1,0.9-2,1.3-2.8c0.4-0.8,0.9-1.5,1.3-2.2c0.4-0.6,0.8-1.2,1.2-1.8s0.8-1.1,1.2-1.6s0.8-1,1.2-1.3
		c0.4-0.4,0.7-0.7,1-0.9C21.7,5.7,21.9,5.6,22,5.6z"/>
	<g id="XMLID_644_">
		<path id="XMLID_663_" class="st0" d="M19.7,43.3c-1.8,0-3.2-1.4-3.2-3.2v-1.2H18v1.2c0,0.9,0.8,1.7,1.7,1.7c0.9,0,1.7-0.8,1.7-1.7
			V25.4h1.5v14.6C22.9,41.8,21.4,43.3,19.7,43.3z"/>
	</g>
</g>
</svg>
