<?xml version="1.0" encoding="utf-8"?>
<!-- Generator: Adobe Illustrator 19.0.0, SVG Export Plug-In . SVG Version: 6.00 Build 0)  -->
<svg version="1.1" id="图层_1" xmlns="http://www.w3.org/2000/svg" xmlns:xlink="http://www.w3.org/1999/xlink" x="0px" y="0px"
	 viewBox="0 0 30 30" style="enable-background:new 0 0 30 30;" xml:space="preserve">
<style type="text/css">
	.st0{fill:#ccc;}
</style>
<g id="XMLID_285_">
	<path id="XMLID_301_" class="st0" d="M29.2,19.5l0.8-0.6L15.8,1.7c-0.4-0.5-1.2-0.5-1.6,0L0,18.9l0.8,0.6l3.3-4v12.1H1.8v1h26.4v-1
		h-2.3V15.5L29.2,19.5z M24.9,27.6H5.1V14.3l9.9-12l9.9,12V27.6z"/>
	<path id="XMLID_288_" class="st0" d="M17.1,17.7c0.7,0,1.4,0,2.1,0c0.2,0,0.3,0.1,0.3,0.3c0,0.3,0,0.6,0,1c0,0.1-0.1,0.2-0.2,0.2
		H16v2h3.2c0.1,0,0.2,0.1,0.2,0.2v1c0,0.1-0.1,0.2-0.2,0.2h-3.2c0,0.1,0,0.2,0,0.3c0,0.8,0,1.6,0,2.3c0,0.2-0.1,0.3-0.3,0.3
		c-0.4,0-0.9,0-1.3,0c-0.2,0-0.3-0.1-0.3-0.3c0-0.8,0-1.6,0-2.3v-0.3h-3.4c-0.1,0-0.2-0.1-0.2-0.2v-1c0-0.1,0.1-0.2,0.2-0.2h3.3v-2
		h-3.4c-0.1,0-0.2-0.1-0.2-0.2c0-0.4,0-0.8,0-1.1c0,0,0.2-0.1,0.2-0.1c0.8,0,1.6,0,2.5,0c0.1,0,0.2,0,0.3,0
		c-1.3-2.2-2.5-4.3-3.7-6.5c0.1,0,0.2,0,0.3,0c0.5,0,1,0,1.4,0c0.2,0,0.4,0.1,0.5,0.3c1,1.9,2,3.9,3,5.8c0,0,0,0,0,0
		c1-2,2.1-3.9,3.1-5.9c0.1-0.2,0.2-0.3,0.4-0.2c0.5,0,0.9,0,1.4,0c0.1,0,0.2,0,0.3,0c-1.3,2.2-2.5,4.3-3.8,6.5
		C16.7,17.7,16.9,17.7,17.1,17.7z"/>
</g>
</svg>
