<?xml version="1.0" encoding="utf-8"?>
<!-- Generator: Adobe Illustrator 19.0.0, SVG Export Plug-In . SVG Version: 6.00 Build 0)  -->
<svg version="1.1" id="图层_1" xmlns="http://www.w3.org/2000/svg" xmlns:xlink="http://www.w3.org/1999/xlink" x="0px" y="0px"
	 viewBox="0 0 44 44" style="enable-background:new 0 0 44 44;" xml:space="preserve">
<style type="text/css">
	.st0{fill:#fff;}
</style>
<path id="XMLID_224_" class="st0" d="M33.1,17.5V1.9c0-0.7-0.6-1.3-1.3-1.3H13.3c-0.7,0-1.3,0.6-1.3,1.3v8.5H1.3
	C0.6,10.4,0,11,0,11.7v30.4c0,0.7,0.6,1.3,1.3,1.3h10.6H13h6.4v-6.9h6.1v6.9h7.4h0.2h9.6c0.7,0,1.3-0.6,1.3-1.3V18.8
	c0-0.7-0.6-1.3-1.3-1.3H33.1z M10.9,31.4H3v-5h7.9V31.4z M10.9,22.1H3v-5h7.9V22.1z M27.9,31.4H17.1v-5h10.8V31.4z M27.9,22.1H17.1
	v-5h10.8V22.1z M27.9,12.9H17.1v-5h10.8V12.9z M40.7,31.4H34v-8.6h6.8V31.4z"/>
</svg>
