<?xml version="1.0" encoding="utf-8"?>
<!-- Generator: Adobe Illustrator 19.0.0, SVG Export Plug-In . SVG Version: 6.00 Build 0)  -->
<svg version="1.1" id="图层_1" xmlns="http://www.w3.org/2000/svg" xmlns:xlink="http://www.w3.org/1999/xlink" x="0px" y="0px"
	 viewBox="0 0 44 44" style="enable-background:new 0 0 44 44;" xml:space="preserve">
<style type="text/css">
	.st0{fill:#FF973A;}
	.st1{fill:#FFFFFF;}
</style>
<g id="XMLID_443_">
	<path id="XMLID_492_" class="st0" d="M42.3,21.4H35V1.5C35,0.7,34.3,0,33.4,0H10.6C9.7,0,9,0.7,9,1.5v19.8H1.7c-1,0-1.5,1.2-0.8,2
		l20.3,20.3c0.4,0.4,1.2,0.4,1.6,0l20.3-20.3C43.9,22.6,43.4,21.4,42.3,21.4z"/>
	<path id="XMLID_445_" class="st1" d="M22,17.7C22,17.7,22,17.7,22,17.7c-1.5-2.7-3-5.3-4.4-7.9c-0.2-0.3-0.3-0.4-0.7-0.4
		c-0.7,0-1.4,0-2.1,0c-0.1,0-0.3,0-0.5,0c1.8,3,3.6,5.9,5.5,8.9c-0.2,0-0.4,0-0.5,0c-1.2,0-2.4,0-3.6,0c-0.1,0-0.3,0.1-0.4,0.2
		c0,0.6,0,1.2,0,1.9h5.2V23l-5.2,0V25h5.2v0.4c0,1.1,0,2.1,0,3.2c0,0.3,0.1,0.4,0.4,0.4c0.6,0,1.3,0,1.9,0c0.3,0,0.4-0.1,0.4-0.4
		c0-1.1,0-2.1,0-3.2c0-0.1,0-0.3,0-0.4h5v-2l-5,0v-2.7h5c0-0.6,0-1.1,0-1.7c0-0.3-0.1-0.4-0.4-0.4c-1,0-2,0-3,0c-0.3,0-0.6,0-0.9,0
		c1.9-3,3.7-5.9,5.5-8.9c-0.2,0-0.3,0-0.4,0c-0.7,0-1.3,0-2,0c-0.3,0-0.5,0.1-0.6,0.3C25.1,12.3,23.5,15,22,17.7L22,17.7z"/>
</g>
</svg>
