<?xml version="1.0" encoding="utf-8"?>
<!-- Generator: Adobe Illustrator 19.0.0, SVG Export Plug-In . SVG Version: 6.00 Build 0)  -->
<svg version="1.1" id="图层_1" xmlns="http://www.w3.org/2000/svg" xmlns:xlink="http://www.w3.org/1999/xlink" x="0px" y="0px"
	 viewBox="0 0 44 44" style="enable-background:new 0 0 44 44;" xml:space="preserve">
<style type="text/css">
	.st0{fill:#999;}
</style>
<path id="XMLID_1573_" class="st0" d="M22,0C9.9,0,0,9.9,0,22c0,12.1,9.9,22,22,22c12.1,0,22-9.9,22-22C44,9.9,34.2,0,22,0z
	 M25.5,20.7c1.2,0,2.3,0,3.5,0c0.3,0,0.5,0.2,0.5,0.5c0,0.5,0,1.1,0,1.6c0,0.2-0.2,0.4-0.4,0.4h-5.4v3.3H29c0.2,0,0.4,0.2,0.4,0.4
	v1.7c0,0.2-0.2,0.4-0.4,0.4h-5.4c0,0.2,0,0.4,0,0.5c0,1.3,0,2.6,0,3.9c0,0.3-0.2,0.5-0.5,0.5c-0.7,0-1.5,0-2.2,0
	c-0.3,0-0.5-0.2-0.5-0.5c0-1.3,0-2.6,0-3.9V29h-5.7c-0.2,0-0.4-0.2-0.4-0.4v-1.7c0-0.2,0.2-0.4,0.4-0.4h5.7v-3.3h-5.7
	c-0.2,0-0.4-0.2-0.4-0.4c0-0.7,0-1.3,0-1.9c0-0.1,0.3-0.2,0.4-0.2c1.4,0,2.8,0,4.2,0c0.2,0,0.3,0,0.6,0c-2.1-3.7-4.2-7.2-6.3-10.9
	c0.2,0,0.4,0,0.5,0c0.8,0,1.6,0,2.4,0c0.3,0,0.7,0.2,0.8,0.5c1.7,3.2,3.4,6.5,5.1,9.7c0,0,0,0,0,0c1.8-3.3,3.5-6.5,5.3-9.8
	c0.1-0.3,0.4-0.4,0.7-0.4c0.8,0,1.6,0,2.3,0c0.1,0,0.3,0,0.5,0c-2.1,3.7-4.3,7.2-6.4,10.9C24.9,20.7,25.2,20.7,25.5,20.7z"/>
</svg>
