<?xml version="1.0" encoding="utf-8"?>
<!-- Generator: Adobe Illustrator 19.0.0, SVG Export Plug-In . SVG Version: 6.00 Build 0)  -->
<svg version="1.1" id="图层_1" xmlns="http://www.w3.org/2000/svg" xmlns:xlink="http://www.w3.org/1999/xlink" x="0px" y="0px"
	 viewBox="0 0 30 30" style="enable-background:new 0 0 30 30;" xml:space="preserve">
<style type="text/css">
	.st0{fill:#ff973a;}
</style>
<g id="XMLID_855_">
	<path id="XMLID_977_" class="st0" d="M15,1.5c7.4,0,13.5,6.1,13.5,13.5S22.4,28.5,15,28.5S1.5,22.4,1.5,15S7.6,1.5,15,1.5 M15,0
		C6.7,0,0,6.7,0,15c0,8.3,6.7,15,15,15c8.3,0,15-6.7,15-15C30,6.7,23.3,0,15,0L15,0z"/>
	<g id="XMLID_879_">
		<path id="XMLID_882_" class="st0" d="M14,7.1h2v2.2h-2V7.1z M14,11.4h2v11.5h-2V11.4z"/>
	</g>
</g>
</svg>
