<?xml version="1.0" encoding="utf-8"?>
<!-- Generator: Adobe Illustrator 19.0.0, SVG Export Plug-In . SVG Version: 6.00 Build 0)  -->
<svg version="1.1" id="图层_1" xmlns="http://www.w3.org/2000/svg" xmlns:xlink="http://www.w3.org/1999/xlink" x="0px" y="0px"
	 viewBox="0 0 39.2 41.4" style="enable-background:new 0 0 39.2 41.4;" xml:space="preserve">
<style type="text/css">
	.st0{fill:#FF973A;}
	.st1{fill-rule:evenodd;clip-rule:evenodd;fill:#FF973A;}
</style>
<g id="XMLID_324_">
	<path id="XMLID_1532_" class="st0" d="M38.6,30.5h-3.2v-8.7c0-0.4-0.3-0.7-0.7-0.7h-10c-0.4,0-0.7,0.3-0.7,0.7v8.7h-3.2
		c-0.4,0-0.7,0.5-0.4,0.9l8.9,8.9c0.2,0.2,0.5,0.2,0.7,0l8.9-8.9C39.3,31.1,39.1,30.5,38.6,30.5z"/>
	<path id="XMLID_1521_" class="st1" d="M13,25.5c0.7-1.8,1.7-3.4,3.1-4.9c-9-0.3-16-2.9-16-6.9v4.4C0.1,21.6,5.5,24.5,13,25.5
		L13,25.5z"/>
	<path id="XMLID_1520_" class="st1" d="M18.2,18.1c0.4,0,0.7,0,1.1,0c2.7-1.6,5.9-2.5,9.4-2.5c0.8,0,1.6,0.1,2.4,0.2
		c3.2-1.4,5.1-3.3,5.1-5.4V7.8c0-4.3-8.1-7.7-18.1-7.7c-10,0-18.1,3.5-18.1,7.7v2.6C0.1,14.7,8.2,18.1,18.2,18.1L18.2,18.1z"/>
	<path id="XMLID_566_" class="st1" d="M12.7,33.2c-0.3-1.1-0.6-2.3-0.6-3.5c0-0.6,0.1-1.1,0.2-1.6c-7.1-0.8-12.3-3.2-12.3-6.6v4.4
		C0.1,29.3,5.4,32.2,12.7,33.2L12.7,33.2z"/>
	<path id="XMLID_340_" class="st1" d="M14.4,36.8c-0.2-0.3-0.3-0.5-0.5-0.8C6,35.3,0.1,32.9,0.1,29.2v4.4c0,1.1,0.6,2.2,1.6,3.2
		c2.8,2.7,9.2,4.5,16.5,4.5c0.3,0,0.7,0,1,0C17.2,40.1,15.6,38.6,14.4,36.8L14.4,36.8z"/>
</g>
</svg>
