<?xml version="1.0" encoding="utf-8"?>
<!-- Generator: Adobe Illustrator 19.0.0, SVG Export Plug-In . SVG Version: 6.00 Build 0)  -->
<svg version="1.1" id="图层_1" xmlns="http://www.w3.org/2000/svg" xmlns:xlink="http://www.w3.org/1999/xlink" x="0px" y="0px"
	 viewBox="0 0 44 44" style="enable-background:new 0 0 44 44;" xml:space="preserve">
<style type="text/css">
	.st0{fill:#FF973A;}
</style>
<g id="XMLID_987_">
	<path id="XMLID_1010_" class="st0" d="M0,21.4v9.8h3.5c0,0,2.4,3.1,4,3.2s6.3,0.3,7.5,0.3s4.9-2.6,5.4-2.8c0.6-0.2,1.1-1,4.5-1.1
		s5.6-0.1,5.6-2.9c0-2.9-2.3-2.3-6.5-2.5c-4.5-0.2-7-0.6-7.2-1.6s-0.1,0.7,5.7,0.7c0.1,0,0-9.1,0-9.1s-2.7-1.9-7.3-0.6
		C11.6,16,7.6,19,3.5,21.4L0,21.4z"/>
	<path id="XMLID_1005_" class="st0" d="M42,9.4v25.2H26V9.4H42 M42,7.4H26c-1.1,0-2,0.9-2,2v25.2c0,1.1,0.9,2,2,2h16
		c1.1,0,2-0.9,2-2V9.4C44,8.3,43.1,7.4,42,7.4L42,7.4z"/>
	<g id="XMLID_993_">
		<path id="XMLID_1002_" class="st0" d="M34.6,19c0,0.2,0,0.4,0,0.6c0.6,1.8,1.9,3.1,4.1,3.6c-0.3,0.2-0.6,0.7-0.7,1.1
			c-1.8-0.5-3-1.5-3.8-3c-0.5,1.1-1.6,2.3-3.9,3c-0.1-0.3-0.5-0.7-0.8-0.9c3.5-1.1,3.9-3.1,3.9-4.3v-0.7h1.2V19z M32,17.7
			c-0.4,0.9-0.9,1.6-1.3,2.2c-0.2-0.2-0.8-0.6-1.1-0.7c0.9-1,1.7-2.5,2.1-4.2l1.3,0.3c-0.1,0.4-0.3,0.9-0.4,1.3h4.8l0.2,0l0.9,0.3
			C38,17.9,37.5,19.1,37,20l-1-0.4c0.3-0.5,0.6-1.2,0.8-1.8H32z"/>
	</g>
</g>
</svg>
