<?xml version="1.0" encoding="utf-8"?>
<!-- Generator: Adobe Illustrator 19.0.0, SVG Export Plug-In . SVG Version: 6.00 Build 0)  -->
<svg version="1.1" id="图层_1" xmlns="http://www.w3.org/2000/svg" xmlns:xlink="http://www.w3.org/1999/xlink" x="0px" y="0px"
	 viewBox="0 0 44 44" style="enable-background:new 0 0 44 44;" xml:space="preserve">
<style type="text/css">
	.st0{fill:#FF6B6C;}
</style>
<g id="XMLID_712_">
	<g id="XMLID_713_" transform="scale(0.1953125, 0.1953125)">
		<path id="XMLID_714_" class="st0" d="M170.7,91.1V79.7h-42.4v11.4h18v10.8c0,2-0.4,3-1,3.6c-0.7,0.6-1.8,0.9-3.2,1v3.4
			c3.6-0.1,6.3-0.9,8-2.4c1.7-1.5,2.5-3.7,2.5-6.7v-9.6L170.7,91.1L170.7,91.1L170.7,91.1L170.7,91.1z M164.6,87.5h-30.2v-4.3h30.2
			V87.5L164.6,87.5L164.6,87.5z M152.7,71.1h-6.4v2.7h-19.6v3.5h45.5v-3.5h-19.6L152.7,71.1L152.7,71.1z M126.7,109.7h3.6
			c7.7-6.7,9.7-16.3,9.7-16.3h-7C132.3,100.2,129.4,105.9,126.7,109.7L126.7,109.7L126.7,109.7z M158.9,93.4c0,0,2,9.6,9.7,16.3h3.6
			c-2.7-3.8-5.5-9.5-6.4-16.3L158.9,93.4L158.9,93.4L158.9,93.4z M179,109.7h3.6c7.7-6.7,9.7-16.3,9.7-16.3h-7
			C184.5,100.2,181.6,105.9,179,109.7L179,109.7L179,109.7z M211.1,93.4c0,0,2,9.6,9.7,16.3h3.6c-2.7-3.8-5.5-9.5-6.4-16.3
			L211.1,93.4L211.1,93.4L211.1,93.4z M195,73.8l1.2-2.7h-6.4l-1.3,2.7h-9.6v3.5h8l-6.4,13.8H199v10.8c0,2.1-0.3,3-1,3.6
			s-1.8,0.9-3.2,1v3.4c3.6-0.1,6.3-0.9,8-2.4c1.7-1.5,2.5-3.7,2.5-6.7v-9.6h17.6v-3.5h-17.6v-7.6H199v7.6h-10.4l4.7-10.2h31.2V74
			H195V73.8L195,73.8z M100.1,80.9c-8-7-19.9-10.6-35.1-10.6H47V155h18c15.3,0,27.1-3.6,35.2-10.6c8-7,12.2-18,12.2-31.7
			C112.4,98.9,108.1,87.9,100.1,80.9 M90.9,135.3c-5.4,4.9-13.6,7.4-24.4,7.4h-6.3V82.6h6.3c10.8,0,19,2.5,24.4,7.4
			c5.3,4.8,8.1,12.6,8.1,22.6C99,122.7,96.2,130.5,90.9,135.3L90.9,135.3L90.9,135.3z M23.7,121.4c0,5.6-0.4,9.5-1.1,11.7
			c-0.7,2.1-1.9,3.8-3.6,5.1c-2,1.5-4.5,2.7-7.3,3.4c-2.8,0.7-6.2,1.1-10.3,1.1H0V155h1.4c0.3,0,0.6,0,0.7,0c11.8,0,21-2.5,26.7-7.4
			c5.8-5,8.8-12.6,8.8-22.6V70.3H23.7V121.4L23.7,121.4L23.7,121.4z M171.2,120.5c-9.3,0-16.9,7.6-16.9,16.9
			c0,9.3,7.6,16.9,16.9,16.9s16.9-7.6,16.9-16.9C188.1,128.1,180.6,120.5,171.2,120.5 M171.2,149.3c-6.5,0-11.8-5.3-11.8-11.8
			s5.3-11.8,11.8-11.8c6.5,0,11.8,5.3,11.8,11.8C183.1,144,177.8,149.3,171.2,149.3L171.2,149.3L171.2,149.3z M116.1,141.8
			c-1.8,0-3.2,1.5-3.2,3.2c0,1.8,1.5,3.2,3.2,3.2c1.8,0,3.2-1.5,3.2-3.2C119.4,143.2,117.9,141.8,116.1,141.8L116.1,141.8
			L116.1,141.8z M220,121.5l-11.4,21.4l-11.4-21.4h-5.3v31.9h5v-21.5l11.7,21.1l11.7-21.1v21.5h5v-31.9L220,121.5L220,121.5z
			 M150.4,146.3c-2.2,1.9-4.9,3-7.8,3c-6.5,0-11.8-5.3-11.8-11.8s5.3-11.8,11.8-11.8c2.9,0,5.7,1,7.8,3l0.4,0.3l3.6-3.6L154,125
			c-3.1-2.8-7.2-4.4-11.4-4.4c-9.3,0-16.9,7.6-16.9,16.9c0,9.3,7.6,16.9,16.9,16.9c4.2,0,8.3-1.6,11.4-4.4l0.4-0.4l-3.6-3.6
			L150.4,146.3L150.4,146.3L150.4,146.3z"/>
	</g>
</g>
</svg>
