<?xml version="1.0" encoding="utf-8"?>
<!-- Generator: Adobe Illustrator 19.0.0, SVG Export Plug-In . SVG Version: 6.00 Build 0)  -->
<svg version="1.1" id="图层_1" xmlns="http://www.w3.org/2000/svg" xmlns:xlink="http://www.w3.org/1999/xlink" x="0px" y="0px"
	 viewBox="0 0 41.3 44" style="enable-background:new 0 0 41.3 44;" xml:space="preserve">
<style type="text/css">
	.st0{fill:#F2923F;}
</style>
<g id="XMLID_1468_">
	<g id="XMLID_1482_" transform="scale(0.1953125, 0.1953125)">
		<path id="XMLID_1528_" class="st0" d="M200.3,225.3H10.9c-6,0-10.9-4.7-10.9-10.6l0-183c0-5.8,4.9-10.6,10.9-10.6h18.2v10.6
			c0,11.7,9.8,21.1,21.8,21.1c12.1,0,21.8-9.5,21.8-21.1V21.1h10.9v10.6c0,11.7,9.8,21.1,21.8,21.1c12.1,0,21.8-9.5,21.8-21.1V21.1
			h10.9v10.6c0,11.7,9.8,21.1,21.8,21.1c12.1,0,21.8-9.5,21.8-21.1V21.1h18.2c6,0,10.9,4.7,10.9,10.6v183
			C211.2,220.6,206.3,225.3,200.3,225.3z M171.1,81H40.1c-6,0-10.9,4.7-10.9,10.6s4.9,10.6,10.9,10.6l131.1,0
			c6,0,10.9-4.7,10.9-10.6S177.2,81,171.1,81z M171.1,126.7H40.1c-6,0-10.9,4.7-10.9,10.6c0,5.8,4.9,10.6,10.9,10.6l131.1,0
			c6,0,10.9-4.7,10.9-10.6C182.1,131.4,177.2,126.7,171.1,126.7z M173,172.5H38.2c-5,0-9.1,3.9-9.1,8.8c0,4.9,4.1,8.8,9.1,8.8H173
			c5,0,9.1-3.9,9.1-8.8C182.1,176.4,178,172.5,173,172.5z M160.2,42.2c-6,0-10.9-4.7-10.9-10.6V10.6c0-5.8,4.9-10.6,10.9-10.6
			c6,0,10.9,4.7,10.9,10.6v21.1C171.1,37.5,166.3,42.2,160.2,42.2z M105.6,42.2c-6,0-10.9-4.7-10.9-10.6V10.6
			C94.7,4.7,99.6,0,105.6,0c6,0,10.9,4.7,10.9,10.6v21.1C116.5,37.5,111.6,42.2,105.6,42.2z M51,42.2c-6,0-10.9-4.7-10.9-10.6V10.6
			C40.1,4.7,44.9,0,51,0s10.9,4.7,10.9,10.6v21.1C61.9,37.5,57,42.2,51,42.2z"/>
	</g>
</g>
</svg>
