<?xml version="1.0" encoding="utf-8"?>
<!-- Generator: Adobe Illustrator 19.0.0, SVG Export Plug-In . SVG Version: 6.00 Build 0)  -->
<svg version="1.1" id="图层_1" xmlns="http://www.w3.org/2000/svg" xmlns:xlink="http://www.w3.org/1999/xlink" x="0px" y="0px"
	 viewBox="0 0 200 200" style="enable-background:new 0 0 200 200;" xml:space="preserve">
<style type="text/css">
	.st0{opacity:0.4;fill:#FF973A;}
	.st1{fill:#6798CC;}
	.st2{fill:#264D70;}
	.st3{fill:#FFFFFF;}
	.st4{fill:#FFF576;}
</style>
<circle id="XMLID_1499_" class="st0" cx="100" cy="100" r="90"/>
<path id="XMLID_1611_" class="st1" d="M182.3,59.8v59.7c0,3.4-2.7,6.1-6.1,6.1h-40.1c-3.4,0-6.1-2.7-6.1-6.1V59.8
	c0-3.4,2.7-6.1,6.1-6.1h40.1C179.6,53.7,182.3,56.5,182.3,59.8z"/>
<path id="XMLID_1608_" class="st2" d="M176.2,126.8h-40.1c-4,0-7.2-3.2-7.2-7.2V59.8c0-4,3.2-7.2,7.2-7.2h40.1c4,0,7.2,3.2,7.2,7.2
	v59.7C183.5,123.5,180.2,126.8,176.2,126.8z M136.1,54.9c-2.7,0-4.9,2.2-4.9,4.9v59.7c0,2.7,2.2,4.9,4.9,4.9h40.1
	c2.7,0,4.9-2.2,4.9-4.9V59.8c0-2.7-2.2-4.9-4.9-4.9H136.1z"/>
<rect id="XMLID_1607_" x="157.6" y="53.7" class="st2" width="16.2" height="71.9"/>
<path id="XMLID_1606_" class="st2" d="M141.5,63.3v20.2c0,0.9-0.7,1.6-1.6,1.6l0,0c-0.9,0-1.6-0.7-1.6-1.6V63.3
	c0-0.9,0.7-1.6,1.6-1.6l0,0C140.7,61.6,141.5,62.4,141.5,63.3z"/>
<rect id="XMLID_1605_" x="28.3" y="88.8" class="st3" width="145.5" height="9"/>
<path id="XMLID_1602_" class="st2" d="M174.9,98.9H27.2V87.6h147.7V98.9z M29.5,96.6h143.2v-6.7H29.5V96.6z"/>
<rect id="XMLID_1601_" x="28.3" y="97.7" class="st3" width="145.5" height="9"/>
<path id="XMLID_1598_" class="st2" d="M174.9,107.9H27.2V96.6h147.7V107.9z M29.5,105.6h143.2v-6.7H29.5V105.6z"/>
<rect id="XMLID_1597_" x="28.3" y="106.7" class="st3" width="145.5" height="9"/>
<path id="XMLID_1594_" class="st2" d="M174.9,116.8H27.2v-11.3h147.7V116.8z M29.5,114.5h143.2v-6.7H29.5V114.5z"/>
<rect id="XMLID_1593_" x="28.3" y="115.7" class="st3" width="145.5" height="9"/>
<path id="XMLID_1590_" class="st2" d="M174.9,125.8H27.2v-11.3h147.7V125.8z M29.5,123.5h143.2v-6.7H29.5V123.5z"/>
<rect id="XMLID_1589_" x="28.3" y="124.7" class="st3" width="145.5" height="9"/>
<path id="XMLID_1586_" class="st2" d="M174.9,134.8H27.2v-11.3h147.7V134.8z M29.5,132.5h143.2v-6.7H29.5V132.5z"/>
<rect id="XMLID_1585_" x="28.3" y="133.6" class="st3" width="145.5" height="9"/>
<path id="XMLID_1582_" class="st2" d="M174.9,143.7H27.2v-11.3h147.7V143.7z M29.5,141.5h143.2v-6.7H29.5V141.5z"/>
<rect id="XMLID_1581_" x="28.3" y="142.6" class="st3" width="145.5" height="9"/>
<path id="XMLID_1578_" class="st2" d="M174.9,152.7H27.2v-11.3h147.7V152.7z M29.5,150.4h143.2v-6.7H29.5V150.4z"/>
<rect id="XMLID_1577_" x="8.6" y="133.6" class="st4" width="19.8" height="9"/>
<path id="XMLID_1574_" class="st2" d="M29.6,143.7H7.5v-11.3h22.1V143.7z M9.8,141.5h17.5v-6.7H9.8V141.5z"/>
<rect id="XMLID_1573_" x="8.6" y="142.6" class="st4" width="19.8" height="9"/>
<path id="XMLID_1570_" class="st2" d="M29.6,152.7H7.5v-11.3h22.1V152.7z M9.8,150.4h17.5v-6.7H9.8V150.4z"/>
<rect id="XMLID_1569_" x="173.3" y="133.6" class="st4" width="18" height="9"/>
<path id="XMLID_1566_" class="st2" d="M192.5,143.7h-20.3v-11.3h20.3V143.7z M174.5,141.5h15.7v-6.7h-15.7V141.5z"/>
<rect id="XMLID_1565_" x="173.3" y="124.7" class="st4" width="18" height="9"/>
<path id="XMLID_1562_" class="st2" d="M192.5,134.8h-20.3v-11.3h20.3V134.8z M174.5,132.5h15.7v-6.7h-15.7V132.5z"/>
<rect id="XMLID_1561_" x="173.3" y="142.6" class="st4" width="18" height="9"/>
<path id="XMLID_1558_" class="st2" d="M192.5,152.7h-20.3v-11.3h20.3V152.7z M174.5,150.4h15.7v-6.7h-15.7V150.4z"/>
<path id="XMLID_1557_" class="st1" d="M120.2,78.5c-3.5-4-11.1-13.6-11.8-21c-0.9-9.7,6.4-23.8,6.4-23.8l-11-5.9l-8.7,5.9L86.9,28
	l-8.2,5.7L70,27.8l-11,5.9c0,0,7.3,14.1,6.4,23.8s-13.6,23-13.6,23h0c-10.4,9.7-17,23.5-17,38.9c0,29.2,23.4,52.8,52.3,52.8
	c28.9,0,52.3-23.7,52.3-52.8C139.4,102.9,131.9,88.2,120.2,78.5z"/>
<path id="XMLID_1554_" class="st2" d="M87.1,173.3c-29.5,0-53.5-24.2-53.5-54c0-15,6.3-29.5,17.3-39.7c0.1-0.1,12.4-13.1,13.2-22.3
	c0.8-9.2-6.2-23-6.3-23.1c-0.3-0.6-0.1-1.2,0.5-1.5l11-5.9c0.4-0.2,0.8-0.2,1.2,0.1l8.1,5.4l7.5-5.3c0.4-0.3,0.9-0.3,1.3,0l7.5,5.3
	l8.1-5.4c0.4-0.2,0.8-0.3,1.2-0.1l11,5.9c0.6,0.3,0.8,1,0.5,1.5c-0.1,0.1-7.1,13.9-6.3,23.1c0.6,7.1,8.2,16.5,11.5,20.3
	c12.4,10.3,19.5,25.5,19.5,41.7C140.6,149.1,116.6,173.3,87.1,173.3z M52.6,81.2c0,0-0.1,0.1-0.1,0.1c-10.5,9.8-16.6,23.7-16.6,38.1
	c0,28.5,23,51.7,51.2,51.7s51.2-23.2,51.2-51.7c0-15.6-6.8-30.1-18.8-40c0,0-0.1-0.1-0.1-0.1c-4.2-4.9-11.4-14.1-12.1-21.7
	c-0.8-8.5,4.3-19.9,6-23.4l-9.5-5l-8.1,5.5c-0.4,0.3-0.9,0.3-1.3,0l-7.5-5.2l-7.5,5.2c-0.4,0.3-0.9,0.3-1.3,0l-8.1-5.5l-9.5,5
	c1.7,3.5,6.8,14.9,6,23.4C65.6,67.3,53.7,80.1,52.6,81.2z"/>
<path id="XMLID_1553_" class="st4" d="M109.8,61.5H64.4c-2.1,0-3.8-1.7-3.8-3.8v0c0-2.1,1.7-3.8,3.8-3.8h45.4c2.1,0,3.8,1.7,3.8,3.8
	v0C113.6,59.8,111.9,61.5,109.8,61.5z"/>
<path id="XMLID_287_" class="st2" d="M109.8,62.6H64.4c-2.7,0-4.9-2.2-4.9-4.9c0-2.7,2.2-5,4.9-5h45.4c2.7,0,4.9,2.2,4.9,4.9
	C114.7,60.4,112.5,62.6,109.8,62.6z M64.4,55.1c-1.4,0-2.6,1.2-2.6,2.6c0,1.5,1.2,2.7,2.6,2.7h45.4c1.4,0,2.6-1.2,2.6-2.6
	c0-1.5-1.2-2.7-2.6-2.7H64.4z"/>
<g id="XMLID_285_">
	<path id="XMLID_286_" class="st2" d="M118.1,151.5c-0.3,0-0.6-0.1-0.8-0.4c-0.4-0.5-0.4-1.2,0-1.6c8.3-7.8,13-18.8,13-30.3
		c0-8.6-2.6-16.8-7.4-23.8c-0.4-0.5-0.2-1.2,0.3-1.6c0.5-0.4,1.2-0.2,1.6,0.3c5.1,7.4,7.8,16,7.8,25.1c0,12.1-5,23.7-13.8,31.9
		C118.7,151.4,118.4,151.5,118.1,151.5z"/>
</g>
<g id="XMLID_283_">
	<path id="XMLID_284_" class="st2" d="M121.2,92.5c-0.3,0-0.6-0.1-0.9-0.4c-1-1.2-2.1-2.3-3.2-3.3c-0.5-0.4-0.5-1.2-0.1-1.6
		c0.4-0.5,1.2-0.5,1.6-0.1c1.2,1.1,2.3,2.3,3.4,3.5c0.4,0.5,0.4,1.2-0.1,1.6C121.7,92.4,121.5,92.5,121.2,92.5z"/>
</g>
<g id="XMLID_147_">
	<path id="XMLID_268_" class="st4" d="M90.5,124.8h11.9c1.6,0,2.4,0.8,2.4,2.4c0,1.6-0.8,2.3-2.4,2.3H90.5v10.2c0,1.2-0.2,2-0.5,2.5
		c-0.3,0.4-1,0.6-2.1,0.6c-1,0-1.7-0.2-2.1-0.6c-0.4-0.4-0.6-1.2-0.6-2.5v-10.2H73.4c-1.6,0-2.4-0.8-2.4-2.3c0-1.6,0.8-2.4,2.3-2.4
		h11.9v-7.1H73.4c-1.6,0-2.4-0.8-2.4-2.3c0-1.6,0.8-2.4,2.3-2.4H82c-1.7-2.9-3.5-5.8-5.2-8.6c-1.7-2.8-3.5-5.7-5.2-8.6
		c-0.9-1.6-0.7-2.8,0.5-3.7c0.6-0.4,1.2-0.6,1.7-0.5c0.5,0.1,1.1,0.6,1.6,1.5l11.9,19.9h1.4c1.9-3.2,3.8-6.5,5.7-9.8
		c1.9-3.3,3.9-6.6,5.7-9.8c0.7-1.1,1.3-1.7,1.8-1.7c0.5,0,1.1,0.2,1.7,0.6c0.7,0.4,1,0.9,1.1,1.5c0,0.5-0.2,1.2-0.7,2.1l-10.2,17.1
		h8.5c1.6,0,2.4,0.8,2.4,2.4c0,1.6-0.8,2.3-2.4,2.3H90.5V124.8z"/>
</g>
<g id="XMLID_128_">
	<path id="XMLID_135_" class="st2" d="M95.8,55.1H79.6L76,43.9c-0.2-0.6,0.1-1.2,0.7-1.4c0.6-0.2,1.2,0.1,1.4,0.7l3.1,9.6h12.9
		l2.4-6.9c0.2-0.6,0.9-0.9,1.5-0.7c0.6,0.2,0.9,0.9,0.7,1.5L95.8,55.1z"/>
</g>
</svg>
