<?xml version="1.0" encoding="utf-8"?>
<!-- Generator: Adobe Illustrator 19.0.0, SVG Export Plug-In . SVG Version: 6.00 Build 0)  -->
<svg version="1.1" id="图层_1" xmlns="http://www.w3.org/2000/svg" xmlns:xlink="http://www.w3.org/1999/xlink" x="0px" y="0px"
	 viewBox="0 0 44 44" style="enable-background:new 0 0 44 44;" xml:space="preserve">
<style type="text/css">
	.st0{fill:#FF973A;}
</style>
<g id="XMLID_1060_">
	<path id="XMLID_1123_" class="st0" d="M28.7,12.9C28.7,12.9,28.6,12.9,28.7,12.9C27,9.9,25.3,7,23.7,4c-0.2-0.3-0.4-0.4-0.8-0.4
		c-0.8,0-1.6,0-2.4,0c-0.1,0-0.3,0-0.5,0c2.1,3.3,4.1,6.6,6.1,10c-0.2,0-0.4,0-0.5,0c-1.3,0-2.7,0-4,0c-0.1,0-0.4,0.1-0.4,0.2
		c0,0.7,0,1.4,0,2.1h5.9v3l-5.8,0v2.3h5.9v0.5c0,1.2,0,2.4,0,3.5c0,0.3,0.1,0.4,0.5,0.4c0.7,0,1.4,0,2.1,0c0.3,0,0.5-0.1,0.5-0.4
		c0-1.2,0-2.4,0-3.5c0-0.2,0-0.3,0-0.5h5.6v-2.3l-5.6,0v-3h5.6c0-0.7,0-1.3,0-1.9c0-0.3-0.1-0.4-0.4-0.4c-1.1,0-2.2,0-3.4,0
		c-0.3,0-0.6,0-1,0c2.1-3.4,4.1-6.6,6.2-10c-0.2,0-0.3,0-0.5,0c-0.8,0-1.5,0-2.3,0c-0.3,0-0.5,0.1-0.7,0.4C32.1,7,30.4,10,28.7,12.9
		L28.7,12.9z"/>
	<rect id="XMLID_1122_" x="0" y="23.9" class="st0" width="1.7" height="13.3"/>
	<path id="XMLID_1088_" class="st0" d="M43.5,26.3c-1.1-1.9-3.6-2.6-5.5-1.5l-8.8,5.1c0,1.3-0.8,2.5-1.5,3.1
		c-0.6,0.5-1.1,0.7-1.6,0.7c-0.5,0-1.1-0.2-1.6-0.4l-6.5-2.7v-1.2c0,0,0,0,0.1,0l6.8,2.9c1,0.4,1.5,0.5,2.1-0.1
		c0.2-0.2,1.7-1.6,0.8-3.3c-0.2-0.2-0.5-0.4-0.8-0.5L13.7,23c-0.4-0.2-0.9-0.2-1.3-0.2v0l-0.1,0c-0.1,0-0.2,0-0.2,0l-7.3,1v13.6h1.4
		h4.6l14.6,3h0c0.9,0.1,1.8,0,2.7-0.5l14-8.1C43.9,30.7,44.6,28.2,43.5,26.3z"/>
</g>
</svg>
