<?xml version="1.0" encoding="utf-8"?>
<!-- Generator: Adobe Illustrator 19.0.0, SVG Export Plug-In . SVG Version: 6.00 Build 0)  -->
<svg version="1.1" id="图层_1" xmlns="http://www.w3.org/2000/svg" xmlns:xlink="http://www.w3.org/1999/xlink" x="0px" y="0px"
	 viewBox="0 0 100 100" style="enable-background:new 0 0 100 100;" xml:space="preserve">
<style type="text/css">
	.st0{fill:#3D79A5;}
	.st1{fill:#FFFFFF;}
	.st2{fill:#C5CAD0;}
	.st3{fill:#F0F3F8;}
	.st4{clip-path:url(#XMLID_2_);}
	.st5{fill:#FF973A;}
	.st6{fill:#9AC4F8;}
	.st7{fill:#FCFCFC;}
	.st8{clip-path:url(#XMLID_3_);}
	.st9{clip-path:url(#XMLID_4_);}
	.st10{opacity:0.4;fill:#C5CAD0;}
	.st11{clip-path:url(#XMLID_5_);}
</style>
<g id="XMLID_1700_">
	<polygon id="XMLID_1699_" class="st0" points="90.7,55.1 93.9,58.3 90.5,60 	"/>
	<polygon id="XMLID_1698_" class="st0" points="6.4,58.2 9.7,55.3 9.7,59.6 	"/>
	<polygon id="XMLID_1702_" class="st1" points="19.5,0 19.5,10.7 8.8,10.7 8.8,98.8 91.2,98.8 91.2,0 	"/>
	<path id="XMLID_500_" class="st2" d="M38.6,100H6.2c-0.1,0-0.3-0.1-0.3-0.2V58.4c0-0.4,0.5-0.6,0.9-0.4l33.4,16.3L38.6,100z"/>
	<path id="XMLID_501_" class="st2" d="M61.4,100h32.4c0.1,0,0.3-0.1,0.3-0.2V58.4c0-0.4-0.5-0.6-0.9-0.4l-34,16.8L61.4,100z"/>
	<path id="XMLID_1697_" class="st3" d="M61.4,100h32.4c0.1,0,0.3-0.1,0.3-0.2V58.4c0-0.4-0.5-0.6-0.9-0.4L61.4,75.3V100z"/>
	<g id="XMLID_1688_">
		<defs>
			<path id="XMLID_1689_" d="M61.4,100h32.4c0.1,0,0.3-0.1,0.3-0.2V58.4c0-0.4-0.5-0.6-0.9-0.4L61.4,75.3V100z"/>
		</defs>
		<clipPath id="XMLID_2_">
			<use xlink:href="#XMLID_1689_"  style="overflow:visible;"/>
		</clipPath>
		<g id="XMLID_1690_" class="st4">
			<polygon id="XMLID_1696_" class="st5" points="92.5,63.7 94.1,65.1 94.1,60.4 92.5,58.9 			"/>
			<polygon id="XMLID_1695_" class="st6" points="92.5,70.7 94.1,72.1 94.1,67.3 92.5,65.9 			"/>
			<polygon id="XMLID_1694_" class="st5" points="92.5,77.6 94.1,79.1 94.1,74.3 92.5,72.9 			"/>
			<polygon id="XMLID_1693_" class="st6" points="92.5,84.6 94.1,86.1 94.1,81.3 92.5,79.9 			"/>
			<polygon id="XMLID_1692_" class="st5" points="92.5,91.6 94.1,93 94.1,88.3 92.5,86.8 			"/>
			<polygon id="XMLID_1691_" class="st6" points="92.5,98.6 94.1,100 94.1,95.2 92.5,93.8 			"/>
		</g>
	</g>
	<path id="XMLID_1642_" class="st3" d="M38.6,100H6.2c-0.1,0-0.3-0.1-0.3-0.2V58.4c0-0.4,0.5-0.6,0.9-0.4l31.8,17.3V100z"/>
	<path id="XMLID_1650_" class="st5" d="M93.8,100H6.4l42.4-34c0.7-0.5,1.7-0.5,2.3,0L93.8,100z"/>
	<path id="XMLID_1662_" class="st7" d="M93.8,100H6.4l1.7-1.2l40.7-31.3c0.6-0.5,1.6-0.5,2.3,0l41,31.3L93.8,100z"/>
	<g id="XMLID_1667_">
		<defs>
			<path id="XMLID_1666_" d="M38.6,100H6.2c-0.1,0-0.3-0.1-0.3-0.2V58.4c0-0.4,0.5-0.6,0.9-0.4l31.8,17.3V100z"/>
		</defs>
		<clipPath id="XMLID_3_">
			<use xlink:href="#XMLID_1666_"  style="overflow:visible;"/>
		</clipPath>
		<g id="XMLID_1647_" class="st8">
			<polygon id="XMLID_1633_" class="st5" points="7.5,63.7 5.9,65.1 5.9,60.4 7.5,58.9 			"/>
			<polygon id="XMLID_1641_" class="st6" points="7.5,70.7 5.9,72.1 5.9,67.3 7.5,65.9 			"/>
			<polygon id="XMLID_1644_" class="st5" points="7.5,77.6 5.9,79.1 5.9,74.3 7.5,72.9 			"/>
			<polygon id="XMLID_1643_" class="st6" points="7.5,84.6 5.9,86.1 5.9,81.3 7.5,79.9 			"/>
			<polygon id="XMLID_1646_" class="st5" points="7.5,91.6 5.9,93 5.9,88.3 7.5,86.8 			"/>
			<polygon id="XMLID_1645_" class="st6" points="7.5,98.6 5.9,100 5.9,95.2 7.5,93.8 			"/>
		</g>
	</g>
	<g id="XMLID_271_">
		<defs>
			<path id="XMLID_310_" d="M38.6,100H6.2c-0.1,0-0.3-0.1-0.3-0.2V58.4c0-0.4,0.5-0.6,0.9-0.4l31.8,17.3V100z"/>
		</defs>
		<clipPath id="XMLID_4_">
			<use xlink:href="#XMLID_310_"  style="overflow:visible;"/>
		</clipPath>
		<g id="XMLID_415_" class="st9">
			<polygon id="XMLID_498_" class="st5" points="7.5,63.7 5.9,65.1 5.9,60.4 7.5,58.9 			"/>
			<polygon id="XMLID_481_" class="st6" points="7.5,70.7 5.9,72.1 5.9,67.3 7.5,65.9 			"/>
			<polygon id="XMLID_475_" class="st5" points="7.5,77.6 5.9,79.1 5.9,74.3 7.5,72.9 			"/>
			<polygon id="XMLID_474_" class="st6" points="7.5,84.6 5.9,86.1 5.9,81.3 7.5,79.9 			"/>
			<polygon id="XMLID_473_" class="st5" points="7.5,91.6 5.9,93 5.9,88.3 7.5,86.8 			"/>
			<polygon id="XMLID_457_" class="st6" points="7.5,98.6 5.9,100 5.9,95.2 7.5,93.8 			"/>
		</g>
	</g>
	<polygon id="XMLID_1485_" class="st10" points="20.4,11.6 8.8,10.7 19.5,0 	"/>
	<polygon id="XMLID_1680_" class="st5" points="19.5,10.7 8.8,10.7 19.5,0 	"/>
	<g id="XMLID_1443_">
		<defs>
			<path id="XMLID_1663_" d="M93.8,100H6.4l1.7-1.2l40.7-31.3c0.6-0.5,1.6-0.5,2.3,0l41,31.3L93.8,100z"/>
		</defs>
		<clipPath id="XMLID_5_">
			<use xlink:href="#XMLID_1663_"  style="overflow:visible;"/>
		</clipPath>
		<g id="XMLID_1665_" class="st11">
			<polygon id="XMLID_1656_" class="st5" points="12.4,100 14.2,98.8 8.9,98.8 7.1,100 			"/>
			<polygon id="XMLID_1655_" class="st6" points="21.4,100 23.2,98.8 17.2,98.8 15.4,100 			"/>
			<polygon id="XMLID_1654_" class="st5" points="30.3,100 32.1,98.8 26.1,98.8 24.3,100 			"/>
			<polygon id="XMLID_1653_" class="st6" points="39.3,100 41.1,98.8 35.1,98.8 33.3,100 			"/>
			<polygon id="XMLID_1652_" class="st5" points="48.2,100 50,98.8 44,98.8 42.2,100 			"/>
			<polygon id="XMLID_1651_" class="st6" points="57.2,100 59,98.8 53,98.8 51.2,100 			"/>
			<polygon id="XMLID_1679_" class="st5" points="66.1,100 67.9,98.8 62,98.8 60.1,100 			"/>
			<polygon id="XMLID_1676_" class="st6" points="75.1,100 76.9,98.8 70.9,98.8 69.1,100 			"/>
			<polygon id="XMLID_1675_" class="st5" points="84,100 85.9,98.8 79.9,98.8 78.1,100 			"/>
			<polygon id="XMLID_1649_" class="st6" points="90.4,100 92.3,98.8 88.8,98.8 87,100 			"/>
		</g>
	</g>
</g>
</svg>
