<?xml version="1.0" standalone="no"?><!DOCTYPE svg PUBLIC "-//W3C//DTD SVG 1.1//EN" "http://www.w3.org/Graphics/SVG/1.1/DTD/svg11.dtd"><svg width="200" height="200" viewBox="0 0 200 200" version="1.1" xmlns="http://www.w3.org/2000/svg" xmlns:xlink="http://www.w3.org/1999/xlink"><defs><style type="text/css"><![CDATA[
@font-face { font-family: ifont; src: url("//at.alicdn.com/t/font_1442373896_4754455.eot?#iefix") format("embedded-opentype"), url("//at.alicdn.com/t/font_1442373896_4754455.woff") format("woff"), url("//at.alicdn.com/t/font_1442373896_4754455.ttf") format("truetype"), url("//at.alicdn.com/t/font_1442373896_4754455.svg#ifont") format("svg"); }

]]></style></defs><g class="transform-group"><g transform="scale(0.1953125, 0.1953125)"><path d="M82 720c-38 0-72 32-72 70s34 72 72 72 70-34 70-72S120 720 82 720zM82 376c-38 0-72 32-72 70s34 70 72 70 70-32 70-70S120 376 82 376zM338 166l606 0c36 0 66-28 66-64s-30-66-66-66L338 36c-36 0-66 30-66 66S302 166 338 166zM82 30C44 30 10 64 10 102s34 70 72 70 70-32 70-70S120 30 82 30zM944 380 338 380c-36 0-66 30-66 66s30 66 66 66l606 0c36 0 66-30 66-66S980 380 944 380zM944 724 338 724c-36 0-66 30-66 66s30 66 66 66l606 0c36 0 66-30 66-66S980 724 944 724z" fill="#fff"></path></g></g></svg>
