<?xml version="1.0" encoding="utf-8"?>
<!-- Generator: Adobe Illustrator 19.0.0, SVG Export Plug-In . SVG Version: 6.00 Build 0)  -->
<svg version="1.1" id="图层_1" xmlns="http://www.w3.org/2000/svg" xmlns:xlink="http://www.w3.org/1999/xlink" x="0px" y="0px"
	 viewBox="0 0 30 30" style="enable-background:new 0 0 30 30;" xml:space="preserve">
<style type="text/css">
	.st0{fill:#ccc;}
</style>
<g id="XMLID_249_">
	<g id="XMLID_295_">
		<path id="XMLID_284_" class="st0" d="M27,22.4l-0.8-0.6c1.5-2.2,2.3-4.8,2.3-7.5C28.4,7,22.4,1,15,1C7.6,1,1.6,7,1.6,14.4
			c0,1.3,0.2,2.7,0.6,3.9l-1,0.3c-0.4-1.4-0.6-2.8-0.6-4.2C0.6,6.5,7,0,15,0c8,0,14.4,6.5,14.4,14.4C29.4,17.3,28.6,20.1,27,22.4z"
			/>
	</g>
	<g id="XMLID_294_">
		<path id="XMLID_283_" class="st0" d="M23.5,14.9H15c-0.2,0-0.3-0.1-0.4-0.2l-3.3-5.6l0.9-0.5l3.2,5.3h8.2V14.9z"/>
	</g>
	<path id="XMLID_256_" class="st0" d="M26.6,26.5c0.8-0.4,1.2-0.8,1.2-1.3c0-1.2-2.8-2.2-6.3-2.2s-6.3,1-6.3,2.2
		c0,0.5,0.5,0.9,1.2,1.3c-0.8,0.4-1.2,0.8-1.2,1.3c0,1.2,2.8,2.2,6.3,2.2s6.3-1,6.3-2.2C27.9,27.3,27.4,26.9,26.6,26.5z M21.6,24.1
		c3.1,0,4.9,0.8,5.2,1.2c-0.4,0.4-2.1,1.2-5.2,1.2s-4.9-0.8-5.2-1.2C16.7,24.9,18.5,24.1,21.6,24.1z M21.6,29
		c-3.1,0-4.9-0.8-5.2-1.2c0.2-0.2,0.8-0.5,1.7-0.8c1,0.2,2.2,0.4,3.5,0.4s2.5-0.1,3.5-0.4c1,0.2,1.5,0.6,1.7,0.8
		C26.5,28.2,24.7,29,21.6,29z"/>
	<path id="XMLID_259_" class="st0" d="M14.7,22.7c0-0.5-0.5-0.9-1.2-1.3c0.8-0.4,1.2-0.8,1.2-1.3c0-1.2-2.8-2.2-6.3-2.2
		s-6.3,1-6.3,2.2c0,0.5,0.5,0.9,1.2,1.3c-0.8,0.4-1.2,0.8-1.2,1.3c0,0.5,0.5,0.9,1.2,1.3c-0.8,0.4-1.2,0.8-1.2,1.3
		c0,0.5,0.5,0.9,1.2,1.3c-0.8,0.4-1.2,0.8-1.2,1.3C2.1,29,5,30,8.4,30s6.3-1,6.3-2.2c0-0.5-0.5-0.9-1.2-1.3c0.8-0.4,1.2-0.8,1.2-1.3
		c0-0.5-0.5-0.9-1.2-1.3C14.2,23.6,14.7,23.2,14.7,22.7z M8.4,18.9c3.1,0,4.9,0.8,5.2,1.2c-0.4,0.4-2.1,1.2-5.2,1.2
		s-4.9-0.8-5.2-1.2C3.5,19.7,5.3,18.9,8.4,18.9z M13.7,27.8c-0.4,0.4-2.1,1.2-5.2,1.2s-4.9-0.8-5.2-1.2c0.2-0.2,0.8-0.5,1.7-0.8
		c1,0.2,2.2,0.4,3.5,0.4c1.3,0,2.5-0.1,3.5-0.4C12.9,27.3,13.5,27.6,13.7,27.8z M13.7,25.3c-0.4,0.4-2.1,1.2-5.2,1.2
		s-4.9-0.8-5.2-1.2C3.4,25,4,24.7,4.9,24.5c1,0.2,2.2,0.4,3.5,0.4s2.5-0.1,3.5-0.4C12.9,24.7,13.5,25,13.7,25.3z M8.4,23.9
		c-3.1,0-4.9-0.8-5.2-1.2c0.2-0.2,0.8-0.5,1.7-0.8c1,0.2,2.2,0.4,3.5,0.4c1.3,0,2.5-0.1,3.5-0.4c1,0.2,1.5,0.6,1.7,0.8
		C13.3,23.1,11.5,23.9,8.4,23.9z"/>
</g>
</svg>
