<?xml version="1.0" encoding="utf-8"?>
<!-- Generator: Adobe Illustrator 19.0.0, SVG Export Plug-In . SVG Version: 6.00 Build 0)  -->
<svg version="1.1" id="图层_1" xmlns="http://www.w3.org/2000/svg" xmlns:xlink="http://www.w3.org/1999/xlink" x="0px" y="0px"
	 viewBox="0 0 30 30" style="enable-background:new 0 0 30 30;" xml:space="preserve">
<style type="text/css">
	.st0{fill:#FF973A;}
</style>
<g id="XMLID_286_">
	<path id="XMLID_302_" class="st0" d="M28.1,3.8c0.5,0,0.9,0.4,0.9,0.9v20.7c0,0.5-0.4,0.9-0.9,0.9H1.9c-0.5,0-0.9-0.4-0.9-0.9V4.6
		c0-0.5,0.4-0.9,0.9-0.9H28.1 M28.1,2.8H1.9C0.8,2.8,0,3.6,0,4.6v20.7c0,1,0.8,1.9,1.9,1.9h26.3c1,0,1.9-0.8,1.9-1.9V4.6
		C30,3.6,29.2,2.8,28.1,2.8L28.1,2.8z"/>
	<polygon id="XMLID_305_" class="st0" points="27.4,21.9 21.7,12.1 27.2,9.3 26.8,8.4 15,14.4 3.2,8.4 2.8,9.3 8.3,12.1 2.6,21.9
		3.4,22.4 9.2,12.6 15,15.6 20.8,12.6 26.6,22.4 	"/>
</g>
</svg>
