<?xml version="1.0" standalone="no"?><!DOCTYPE svg PUBLIC "-//W3C//DTD SVG 1.1//EN" "http://www.w3.org/Graphics/SVG/1.1/DTD/svg11.dtd"><svg width="200" height="200" viewBox="0 0 200 200" version="1.1" xmlns="http://www.w3.org/2000/svg" xmlns:xlink="http://www.w3.org/1999/xlink"><defs><style type="text/css"><![CDATA[
@font-face { font-family: ifont; src: url("//at.alicdn.com/t/font_1442373896_4754455.eot?#iefix") format("embedded-opentype"), url("//at.alicdn.com/t/font_1442373896_4754455.woff") format("woff"), url("//at.alicdn.com/t/font_1442373896_4754455.ttf") format("truetype"), url("//at.alicdn.com/t/font_1442373896_4754455.svg#ifont") format("svg"); }

]]></style></defs><g class="transform-group"><g transform="scale(0.1953125, 0.1953125)"><path d="M822.80448 493.73184c-4.23936-38.23616-16.0768-76.24704-36.16768-111.8208-0.08192-0.1024-0.16384-0.18432-0.2048-0.3072-0.04096-0.04096-0.04096-0.1024-0.08192-0.16384-3.19488-5.65248-6.59456-11.03872-10.15808-16.36352-2.43712-3.74784-4.99712-7.29088-7.59808-10.91584-0.43008-0.53248-0.79872-1.16736-1.20832-1.69984l-0.06144 0.02048c-30.65856-41.82016-70.77888-73.728-115.77344-93.98272l22.3232-46.16192-174.51008 52.18304 104.96 143.58528 11.53024-48.59904c24.18688 12.32896 45.83424 29.98272 63.11936 52.44928 0 0 9.54368 14.49984 13.94688 22.26176 51.28192 90.89024 19.21024 206.1312-71.68 257.41312-90.89024 51.32288-206.17216 19.21024-257.45408-71.68-51.28192-90.86976-19.21024-206.11072 71.70048-257.4336 7.94624-4.46464 16.09728-8.0896 24.33024-11.30496l-17.44896-106.16832c-19.51744 6.10304-38.7072 14.19264-57.2416 24.65792-141.68064 79.95392-191.71328 259.62496-111.75936 401.26464 79.95392 141.68064 259.60448 191.71328 401.24416 111.75936 105.55392-59.55584 160.07168-174.40768 148.11136-287.66208C822.72256 494.57152 822.8864 494.16192 822.80448 493.73184z" fill="#ccc"></path></g></g></svg>
