<?xml version="1.0" encoding="utf-8"?>
<!-- Generator: Adobe Illustrator 19.0.0, SVG Export Plug-In . SVG Version: 6.00 Build 0)  -->
<svg version="1.1" id="图层_1" xmlns="http://www.w3.org/2000/svg" xmlns:xlink="http://www.w3.org/1999/xlink" x="0px" y="0px"
	 viewBox="0 0 458.6 389" style="enable-background:new 0 0 458.6 389;" xml:space="preserve">
<style type="text/css">
	.st0{fill:#999999;}
	.st1{fill:#969696;}
</style>
<g id="XMLID_473_">
	<g id="XMLID_705_">
		<g id="XMLID_708_">
			<path id="XMLID_770_" class="st0" d="M312.7,45.7c-2.2-0.3-4.1-2.1-4.4-4.4l-2.7-18.1c-0.4-2.9,1.6-5.5,4.4-5.9
				c2.9-0.4,5.5,1.6,5.9,4.4l2.7,18.1c0.4,2.9-1.5,5.5-4.4,5.9C313.7,45.8,313.2,45.8,312.7,45.7L312.7,45.7z M312.7,45.7"/>
			<path id="XMLID_765_" class="st0" d="M374.7,113.9c-0.2,0-0.5-0.1-0.7-0.1l-17.6-5.1c-2.8-0.8-4.4-3.7-3.6-6.5
				c0.8-2.8,3.7-4.4,6.5-3.6l17.6,5.1c2.8,0.8,4.4,3.7,3.6,6.5C379.8,112.7,377.3,114.3,374.7,113.9L374.7,113.9z M374.7,113.9"/>
			<path id="XMLID_761_" class="st0" d="M348.4,61.6c-1.4-0.2-2.7-1-3.5-2.2c-1.7-2.4-1.1-5.6,1.3-7.3l16.4-11.4
				c2.4-1.7,5.6-1.1,7.3,1.3c1.7,2.4,1.1,5.6-1.3,7.3l-16.4,11.4C351,61.5,349.7,61.8,348.4,61.6L348.4,61.6z M348.4,61.6"/>
			<g id="XMLID_719_">
				<path id="XMLID_759_" class="st1" d="M0,254.9c0,5.4,1.7,11.2,4.4,16.6l6.1-3.5c-2.1-4.3-3.5-8.9-3.5-13v-25.5l-7,1.9V254.9z"/>
				<polygon id="XMLID_758_" class="st1" points="0,181 7,181 7,144.5 0,142.6 				"/>
				<path id="XMLID_756_" class="st1" d="M0,109.9v25.4l7,1.9v-27.3c0-3.6,1-7.6,2.7-11.5l-6.1-3.5C1.3,99.8,0,105,0,109.9z"/>
				<path id="XMLID_755_" class="st1" d="M19.1,76.8c-4.6,2.7-8.8,6.9-12,11.9l6.1,3.5c2.6-3.9,5.9-7.3,9.4-9.3L44.9,70l-5.2-5.2
					L19.1,76.8z"/>
				<polygon id="XMLID_753_" class="st1" points="46.1,61.2 51.3,66.4 81.3,49.1 77.7,43 				"/>
				<polygon id="XMLID_752_" class="st1" points="83.8,39.5 87.4,45.6 117.3,28.3 115.4,21.3 				"/>
				<path id="XMLID_751_" class="st1" d="M159,7.1v-7.2c-5,0.6-10,2-13.9,4.3l-23.2,13.4l1.9,7.1l24.9-14.3
					C151.5,8.7,155,7.6,159,7.1z"/>
				<polygon id="XMLID_750_" class="st1" points="0,224 7,222.2 7,188 0,188 				"/>
				<path id="XMLID_749_" class="st1" d="M202.9,23.8l1.9-7.1L183.2,4.2C178.3,1.4,172,0,166-0.3v7.1c5,0.2,9.9,1.4,13.7,3.5
					L202.9,23.8z"/>
				<polygon id="XMLID_748_" class="st1" points="243.1,38.8 211.2,20.4 209.3,27.5 239.6,44.9 				"/>
				<polygon id="XMLID_747_" class="st1" points="249.2,42.4 245.7,48.5 276.1,66 281.3,60.9 				"/>
				<path id="XMLID_746_" class="st1" d="M309,76.8l-21.3-12.3l-5.2,5.2l23,13.2c3.5,2,6.8,5.4,9.4,9.3l6.1-3.5
					C317.8,83.8,313.6,79.5,309,76.8z"/>
				<polygon id="XMLID_745_" class="st1" points="79.3,322.7 82.8,316.5 52.9,299.3 47.7,304.5 				"/>
				<path id="XMLID_744_" class="st1" d="M22.6,281.9c-3.1-1.8-6-4.6-8.4-7.9L8,277.6c3.1,4.3,6.9,8,11.1,10.4l22.3,12.8l5.2-5.2
					L22.6,281.9z"/>
				<polygon id="XMLID_742_" class="st1" points="85.4,326.2 117,344.4 118.9,337.4 88.9,320.1 				"/>
				<path id="XMLID_741_" class="st1" d="M148.6,354.4L125.3,341l-1.9,7.1l21.7,12.5c4,2.3,8.9,3.7,13.9,4.3v-7.2
					C155,357.1,151.5,356.1,148.6,354.4z"/>
				<path id="XMLID_739_" class="st1" d="M324.4,94.8l-6.1,3.5c1.7,3.8,2.7,7.8,2.7,11.5V138l7-1.9v-26.3
					C328,105,326.7,99.8,324.4,94.8z"/>
				<polygon id="XMLID_738_" class="st1" points="328,143.4 321,145.3 321,181 328,181 				"/>
				<path id="XMLID_737_" class="st1" d="M321,228.6v26.4c0,4.1-1.3,8.7-3.5,13l6.1,3.5c2.7-5.4,4.4-11.2,4.4-16.6v-24.5L321,228.6z
					"/>
				<path id="XMLID_735_" class="st1" d="M179.7,354.4c-3.8,2.2-8.7,3.3-13.7,3.5v7.1c6-0.2,12.3-1.7,17.2-4.5l20.1-11.6l-1.9-7.1
					L179.7,354.4z"/>
				<polygon id="XMLID_734_" class="st1" points="241.6,326.8 238.1,320.7 207.7,338.2 209.6,345.3 				"/>
				<polygon id="XMLID_732_" class="st1" points="279.7,304.8 274.6,299.7 244.2,317.2 247.7,323.3 				"/>
				<path id="XMLID_731_" class="st1" d="M309,288c4.2-2.4,8-6.1,11.1-10.4l-6.2-3.6c-2.5,3.3-5.3,6.1-8.4,7.9L280.9,296l5.2,5.2
					L309,288z"/>
				<polygon id="XMLID_720_" class="st1" points="328,188 321,188 321,221.3 328,223.2 				"/>
			</g>
			<g id="XMLID_713_">
				<path id="XMLID_3_" class="st1" d="M458.6,360.5c0,1.9-2.2,3.5-5,3.5H174.3c-2.7,0-5-1.6-5-3.5c0-1.9,2.2-3.5,5-3.5h279.3
					C456.4,357,458.6,358.6,458.6,360.5z"/>
			</g>
			<g id="XMLID_710_">
				<path id="XMLID_4_" class="st1" d="M377.5,387c0,1-1.1,1.8-2.5,1.8H161.2c-1.4,0-2.5-0.8-2.5-1.8c0-1,1.1-1.8,2.5-1.8H375
					C376.3,385.2,377.5,386,377.5,387z"/>
			</g>
		</g>
	</g>
	<g id="XMLID_827_">
		<path id="XMLID_828_" class="st0" d="M247.8,204.2c-2.8-14-28.5-21.3-54-21.3c-0.4,0-0.7,0-1.1,0v-11.4v-21.2v-21.2
			c0-15.7-27.3-23.9-54.3-23.9c-27,0-54.3,8.2-54.3,23.9v21.2v21.2v21.2v21.2c0,15.7,27.3,23.9,54.3,23.9c0.4,0,0.7,0,1.1,0v11.4
			c0,15.7,27.3,23.9,54.3,23.9c27,0,54.3-8.2,54.3-23.9v-21.2v-21.2v-2.5H247.8L247.8,204.2z M193.8,263.7c-27.5,0-45-8.6-45-14.6
			c0-1.6,1.3-3.4,3.7-5.2c10.5,5.2,25.9,7.8,41.3,7.8c15.4,0,30.8-2.7,41.3-7.8c2.4,1.8,3.7,3.6,3.7,5.2
			C238.8,255,221.3,263.7,193.8,263.7L193.8,263.7z M93.5,213.9c0-1.6,1.3-3.4,3.7-5.2c10.5,5.2,25.9,7.8,41.3,7.8
			c0.4,0,0.7,0,1.1,0v11.4v0.5c-0.4,0-0.7,0-1.1,0C111,228.5,93.5,219.8,93.5,213.9L93.5,213.9z M230,236c-1.9,0.9-4.1,1.7-6.6,2.5
			c-7.6,2.3-17.7,4-29.6,4c-12,0-22-1.6-29.6-4c-2.3-0.7-4.3-1.5-6.1-2.3c-0.2-0.1-0.4-0.2-0.5-0.3c-2-0.9-3.7-1.9-5.1-2.9
			c-0.3-0.2-0.6-0.5-0.9-0.7c-1.8-1.5-2.8-3-2.8-4.4c0,0,0-0.1,0-0.1c0-1.6,1.3-3.4,3.7-5.2c2.7,1.3,5.6,2.5,8.9,3.5
			c2.1,0.6,4.3,1.2,6.5,1.7c0.9,0.2,1.8,0.4,2.8,0.6c3,0.6,6,1,9.2,1.4c1.5,0.2,2.9,0.3,4.4,0.4c3.2,0.2,6.3,0.3,9.5,0.3
			c3.2,0,6.4-0.1,9.5-0.3c5.7-0.4,11.2-1.2,16.4-2.3c5.8-1.3,11-3,15.4-5.2c2.4,1.8,3.7,3.6,3.7,5.2c0,1.6-1.3,3.4-3.7,5.2
			C233.7,234.1,232,235.1,230,236L230,236z M102.2,200.8c-2-0.9-3.7-1.9-5.1-2.9c-2.4-1.8-3.7-3.6-3.7-5.2c0-1.6,1.3-3.4,3.7-5.2
			c4.4,2.2,9.6,3.9,15.4,5.2c5.1,1.1,10.7,1.9,16.4,2.3c3.1,0.2,6.3,0.3,9.5,0.3c2.4,0,4.7-0.1,7.1-0.2c-1.5,1.3-2.8,2.7-3.7,4.2
			c-1.5,2.2-2.3,4.7-2.3,7.3v0v0.5c-0.4,0-0.7,0-1.1,0c-12,0-22.1-1.6-29.6-4C106.3,202.5,104.1,201.7,102.2,200.8L102.2,200.8z
			 M93.5,171.5c0-1.6,1.3-3.4,3.7-5.2c4.4,2.2,9.6,3.9,15.4,5.2c5.1,1.1,10.7,1.9,16.4,2.3c3.1,0.2,6.3,0.3,9.5,0.3
			c3.2,0,6.4-0.1,9.5-0.3c5.7-0.4,11.2-1.2,16.4-2.3c5.8-1.3,11-3,15.4-5.2c2.4,1.8,3.7,3.6,3.7,5.2c0,1.6-1.3,3.4-3.7,5.2
			c-1.3,1-3,2-5.1,2.9c-1.9,0.9-4.1,1.7-6.6,2.5c-7.6,2.3-17.7,4-29.6,4c-12,0-22.1-1.6-29.6-4c-2.5-0.8-4.7-1.6-6.6-2.5
			c-2-0.9-3.7-1.9-5.1-2.9C94.8,174.9,93.5,173.1,93.5,171.5L93.5,171.5z M93.5,150.3c0-1.6,1.3-3.4,3.7-5.2
			c4.4,2.2,9.6,3.9,15.4,5.2c5.2,1.1,10.7,1.9,16.4,2.3c3.1,0.2,6.3,0.3,9.5,0.3c3.2,0,6.3-0.1,9.5-0.3c5.7-0.4,11.2-1.2,16.4-2.3
			c5.8-1.3,11-3,15.4-5.2c2.4,1.8,3.7,3.6,3.7,5.2c0,1.6-1.3,3.4-3.7,5.2c-1.3,1-3,2-5.1,2.9c-1.9,0.9-4.1,1.7-6.6,2.5
			c-7.6,2.3-17.6,4-29.6,4c-12,0-22.1-1.6-29.6-4c-2.5-0.8-4.7-1.6-6.6-2.5c-2-0.9-3.7-1.9-5.1-2.9
			C94.8,153.7,93.5,151.9,93.5,150.3L93.5,150.3z M93.5,150.3"/>
	</g>
</g>
</svg>
