<?xml version="1.0" encoding="utf-8"?>
<!-- Generator: Adobe Illustrator 19.0.0, SVG Export Plug-In . SVG Version: 6.00 Build 0)  -->
<svg version="1.1" id="图层_1" xmlns="http://www.w3.org/2000/svg" xmlns:xlink="http://www.w3.org/1999/xlink" x="0px" y="0px"
	 viewBox="0 0 458.6 389" style="enable-background:new 0 0 458.6 389;" xml:space="preserve">
<style type="text/css">
	.st0{fill:#999999;}
	.st1{fill:#969696;}
</style>
<g id="XMLID_27_">
	<g id="XMLID_28_">
		<g id="XMLID_31_">
			<path id="XMLID_494_" class="st0" d="M312.9,45.7c-2.2-0.3-4.1-2.1-4.4-4.4l-2.7-18.1c-0.4-2.9,1.6-5.5,4.4-5.9
				c2.9-0.4,5.5,1.6,5.9,4.4l2.7,18.1c0.4,2.9-1.6,5.5-4.4,5.9C313.9,45.8,313.4,45.8,312.9,45.7L312.9,45.7z M312.9,45.7"/>
			<path id="XMLID_491_" class="st0" d="M374.9,113.9c-0.2,0-0.5-0.1-0.7-0.1l-17.6-5.1c-2.8-0.8-4.4-3.7-3.6-6.5
				c0.8-2.8,3.7-4.4,6.5-3.6l17.6,5.1c2.8,0.8,4.4,3.7,3.6,6.5C380,112.8,377.5,114.3,374.9,113.9L374.9,113.9z M374.9,113.9"/>
			<path id="XMLID_453_" class="st0" d="M348.6,61.7c-1.4-0.2-2.7-1-3.5-2.2c-1.7-2.4-1.1-5.6,1.3-7.3l16.4-11.4
				c2.4-1.7,5.6-1.1,7.3,1.3c1.7,2.4,1.1,5.6-1.3,7.3l-16.4,11.4C351.3,61.6,349.9,61.9,348.6,61.7L348.6,61.7z M348.6,61.7"/>
			<g id="XMLID_32_">
				<path id="XMLID_452_" class="st1" d="M0,255.1c0,5.4,1.7,11.2,4.4,16.6l6.1-3.5c-2.1-4.3-3.5-8.9-3.5-13v-25.5l-7,1.9V255.1z"/>
				<polygon id="XMLID_450_" class="st1" points="0,181 7,181 7,144.5 0,142.6 				"/>
				<path id="XMLID_448_" class="st1" d="M0,109.9v25.4l7,1.9v-27.3c0-3.6,1-7.6,2.7-11.5l-6.1-3.5C1.3,99.8,0,105,0,109.9z"/>
				<path id="XMLID_447_" class="st1" d="M19.1,76.9c-4.6,2.7-8.8,7-12,11.9l6.1,3.5c2.6-3.9,5.9-7.3,9.4-9.3L45,70.1l-5.2-5.2
					L19.1,76.9z"/>
				<polygon id="XMLID_443_" class="st1" points="46.1,61.3 51.3,66.4 81.3,49.1 77.8,43 				"/>
				<polygon id="XMLID_442_" class="st1" points="83.9,39.5 87.4,45.6 117.4,28.3 115.5,21.3 				"/>
				<path id="XMLID_440_" class="st1" d="M159,7.1v-7.2c-5,0.6-9.9,2-13.9,4.3l-23.2,13.4l1.9,7.1l24.9-14.3
					C151.5,8.7,155,7.6,159,7.1z"/>
				<polygon id="XMLID_437_" class="st1" points="0,224.2 7,222.3 7,188 0,188 				"/>
				<path id="XMLID_436_" class="st1" d="M203.1,23.8l1.9-7.1L183.3,4.2C178.4,1.4,172,0,166-0.3v7.1c5,0.2,10,1.4,13.8,3.6
					L203.1,23.8z"/>
				<polygon id="XMLID_435_" class="st1" points="243.3,38.9 211.3,20.4 209.4,27.5 239.7,45 				"/>
				<polygon id="XMLID_434_" class="st1" points="249.4,42.4 245.9,48.5 276.3,66.1 281.5,60.9 				"/>
				<path id="XMLID_429_" class="st1" d="M309.2,76.9l-21.4-12.3l-5.2,5.2l23,13.3c3.5,2,6.8,5.4,9.4,9.3l6.1-3.5
					C318,83.8,313.8,79.5,309.2,76.9z"/>
				<polygon id="XMLID_428_" class="st1" points="79.3,322.9 82.8,316.7 52.9,299.5 47.7,304.6 				"/>
				<path id="XMLID_427_" class="st1" d="M22.6,282c-3.1-1.8-6-4.6-8.4-7.9L8,277.7c3.1,4.3,6.9,8,11.1,10.4L41.4,301l5.2-5.2
					L22.6,282z"/>
				<polygon id="XMLID_426_" class="st1" points="85.4,326.4 117.1,344.6 119,337.6 88.9,320.3 				"/>
				<path id="XMLID_425_" class="st1" d="M148.6,354.6l-23.3-13.4l-1.9,7.1l21.7,12.5c4,2.3,8.9,3.7,13.9,4.3v-7.2
					C155,357.4,151.5,356.3,148.6,354.6z"/>
				<path id="XMLID_424_" class="st1" d="M324.5,94.9l-6.2,3.5c1.7,3.8,2.6,7.8,2.6,11.5v28.2l7-1.9v-26.3
					C328,105,326.8,99.8,324.5,94.9z"/>
				<polygon id="XMLID_422_" class="st1" points="328,143.5 321,145.4 321,181 328,181 				"/>
				<path id="XMLID_36_" class="st1" d="M321,228.7v26.4c0,4.1-1.2,8.7-3.4,13l6.1,3.5c2.7-5.4,4.3-11.2,4.3-16.6v-24.5L321,228.7z"
					/>
				<path id="XMLID_35_" class="st1" d="M179.8,354.6c-3.8,2.2-8.8,3.3-13.8,3.6v7.1c6-0.2,12.4-1.7,17.3-4.5l20.1-11.6l-1.9-7.1
					L179.8,354.6z"/>
				<polygon id="XMLID_34_" class="st1" points="241.7,327 238.2,320.9 207.8,338.4 209.7,345.5 				"/>
				<polygon id="XMLID_33_" class="st1" points="279.9,305 274.7,299.9 244.3,317.4 247.9,323.5 				"/>
				<path id="XMLID_454_" class="st1" d="M309.2,288.2c4.2-2.4,8-6.1,11.1-10.4l-6.2-3.6c-2.5,3.3-5.4,6.1-8.4,7.9l-24.6,14.2
					l5.2,5.2L309.2,288.2z"/>
				<polygon id="XMLID_455_" class="st1" points="328,188 321,188 321,221.4 328,223.3 				"/>
			</g>
			<g id="XMLID_457_">
				<path id="XMLID_3_" class="st1" d="M458.9,360.8c0,1.9-2.3,3.5-5,3.5H174.4c-2.8,0-5-1.6-5-3.5s2.3-3.5,5-3.5h279.4
					C456.6,357.2,458.9,358.8,458.9,360.8z"/>
			</g>
			<g id="XMLID_498_">
				<path id="XMLID_4_" class="st1" d="M377.7,387.2c0,1-1.1,1.8-2.5,1.8H161.3c-1.4,0-2.5-0.8-2.5-1.8c0-1,1.1-1.8,2.5-1.8h213.8
					C376.6,385.5,377.7,386.3,377.7,387.2z"/>
			</g>
		</g>
	</g>
	<g id="XMLID_458_">
		<path id="XMLID_459_" class="st0" d="M172,138.4h-62.3c-3.4,0-6.2-2.7-6.2-6.1c0-3.3,2.8-6.1,6.2-6.1H172c3.4,0,6.2,2.7,6.2,6.1
			C178.3,135.7,175.5,138.4,172,138.4L172,138.4L172,138.4z M122.2,199h-12.5c-3.4,0-6.2,2.7-6.2,6.1c0,3.3,2.8,6.1,6.2,6.1h12.5
			c3.4,0,6.2-2.7,6.2-6.1C128.4,201.7,125.7,199,122.2,199L122.2,199L122.2,199z M147.5,253.5c0,3.3-2.8,6.1-6.2,6.1H141h-12.1H84.1
			c-3,0-5.5-2.4-5.5-5.3v-159c0-2.9,2.5-5.3,6.1-5.3h118.8l37.1,36.3v8.3v7.8v2.5c0,3.3-2.8,6.1-6.2,6.1c-3.4,0-6.2-2.7-6.2-6.1
			v-2.5v-4H191v-36.3h-100v145.4h37.8H141h0.3C144.7,247.4,147.5,250.2,147.5,253.5L147.5,253.5L147.5,253.5z M203.2,126.3h24.9
			l-24.9-24.2V126.3L203.2,126.3L203.2,126.3z M122.2,174.8h-12.5c-3.4,0-6.2,2.7-6.2,6.1c0,3.3,2.8,6.1,6.2,6.1h12.5
			c3.4,0,6.2-2.7,6.2-6.1C128.4,177.5,125.7,174.8,122.2,174.8L122.2,174.8L122.2,174.8z M137.8,156.6c0-3.3-2.8-6.1-6.2-6.1h-21.8
			c-3.4,0-6.2,2.7-6.2,6.1c0,3.3,2.8,6.1,6.2,6.1h21.8C135,162.7,137.8,159.9,137.8,156.6L137.8,156.6L137.8,156.6z M257.7,269.9
			c-3.1,2.6-7.7,2.3-10.4-0.7L220.2,239c-8.1,5.3-17.8,8.4-28.3,8.4c-28.2,0-51-22.2-51-49.6c0-27.4,22.8-49.6,51-49.6
			c28.2,0,51,22.2,51,49.6c0,12-4.6,22.9-11.9,31.4l27.4,30.5C261.2,262.7,260.9,267.3,257.7,269.9L257.7,269.9L257.7,269.9z
			 M191.9,233.8c20.5,0,37.1-16.2,37.1-36.1c0-19.9-16.6-36.1-37.1-36.1c-20.5,0-37.1,16.2-37.1,36.1
			C154.8,217.7,171.5,233.8,191.9,233.8L191.9,233.8L191.9,233.8z M191.9,233.8"/>
	</g>
</g>
</svg>
