<?xml version="1.0" encoding="utf-8"?>
<!-- Generator: Adobe Illustrator 19.0.0, SVG Export Plug-In . SVG Version: 6.00 Build 0)  -->
<svg version="1.1" id="图层_1" xmlns="http://www.w3.org/2000/svg" xmlns:xlink="http://www.w3.org/1999/xlink" x="0px" y="0px"
	 viewBox="0 0 44 44" style="enable-background:new 0 0 44 44;" xml:space="preserve">
<style type="text/css">
	.st0{fill:#FF6B6C;}
	.st1{fill:#FFFFFF;}
</style>
<g id="XMLID_449_">
	<path id="XMLID_499_" class="st0" d="M42.3,22.6H35v19.8c0,0.9-0.7,1.5-1.5,1.5H10.6C9.7,44,9,43.3,9,42.5V22.6H1.7
		c-1,0-1.5-1.2-0.8-2L21.2,0.3c0.4-0.4,1.2-0.4,1.6,0l20.3,20.3C43.9,21.4,43.4,22.6,42.3,22.6z"/>
	<path id="XMLID_496_" class="st1" d="M22,23.3c1.5-2.7,3-5.3,4.5-8c0.1-0.3,0.3-0.3,0.6-0.3c0.7,0,1.3,0,2,0c0.1,0,0.2,0,0.4,0
		c-1.8,3-3.7,5.9-5.5,8.9c0.4,0,0.6,0,0.9,0c1,0,2,0,3,0c0.3,0,0.4,0.1,0.4,0.4c0,0.5,0,1.1,0,1.7h-5v2.7l5,0v2h-5
		c0,0.2,0,0.3,0,0.4c0,1.1,0,2.1,0,3.2c0,0.3-0.1,0.4-0.4,0.4c-0.6,0-1.3,0-1.9,0c-0.3,0-0.4-0.1-0.4-0.4c0-1.1,0-2.1,0-3.2v-0.4
		h-5.2v-2.1l5.2,0V26h-5.2c0-0.7,0-1.3,0-1.9c0-0.1,0.2-0.2,0.4-0.2c1.2,0,2.4,0,3.6,0c0.1,0,0.3,0,0.5,0c-1.8-3-3.6-5.9-5.5-8.9
		c0.2,0,0.3,0,0.5,0c0.7,0,1.4,0,2.1,0c0.3,0,0.5,0.1,0.7,0.4C19.1,18,20.5,20.6,22,23.3C22,23.3,22,23.3,22,23.3L22,23.3z"/>
</g>
</svg>
