<?xml version="1.0" encoding="utf-8"?>
<!-- Generator: Adobe Illustrator 21.0.0, SVG Export Plug-In . SVG Version: 6.00 Build 0)  -->
<svg version="1.1" id="图层_1" xmlns="http://www.w3.org/2000/svg" xmlns:xlink="http://www.w3.org/1999/xlink" x="0px" y="0px"
	 viewBox="0 0 32 38.1" style="enable-background:new 0 0 32 38.1;" xml:space="preserve">
<style type="text/css">
	.st0{fill-rule:evenodd;clip-rule:evenodd;}
</style>
<g id="XMLID_2031_">
	<path id="XMLID_2032_" class="st0" d="M11.8,7.1l-3.6,4.5C-0.6,17.9-3,33.2,4.5,36.9c2.6,1.3,17.7,1.6,21.9,0.6
		c9.4-2.1,5-17.5,1.9-22.3c-5.1-8-10.8-4-5.7-14.5C14.1-1.3,18,2,13.7,2c-1.1,0-1.6-2-2.7-2c-2.3,0-2,1-1.2,2.4
		C9.8,4.7,11.1,6,11.8,7.1L11.8,7.1z M16.1,22.2c0,0,0.1,0,0.1,0c1.4,0.3,2.4,0.8,3.1,1.5c0.7,0.7,1,1.6,1,2.8
		c0,1.2-0.4,2.2-1.1,3.1c-0.8,0.9-1.8,1.3-3.2,1.4v1.8H15v-1.8c-1.4-0.2-2.4-0.6-3.2-1.3c-0.7-0.7-1.2-1.8-1.2-3.1l1.8-0.3
		c0.1,1,0.4,1.8,0.9,2.3c0.4,0.5,1,0.9,1.7,0.9v-5.8c-1.4-0.3-2.4-0.8-3.1-1.5c-0.7-0.7-1-1.6-1-2.7c0-1.1,0.3-2,1-2.8
		c0.7-0.8,1.7-1.2,3.1-1.3v-0.9h1.1v0.9c1.1,0.1,2,0.5,2.7,1.1c0.7,0.6,1.1,1.5,1.2,2.6l-1.9,0.3c-0.1-0.7-0.3-1.2-0.7-1.6
		c-0.3-0.4-0.8-0.7-1.4-0.8V22.2L16.1,22.2z M15,22v-5c-0.7,0.1-1.3,0.4-1.7,0.9c-0.4,0.5-0.6,1-0.6,1.6c0,0.7,0.2,1.2,0.6,1.6
		C13.8,21.5,14.3,21.8,15,22L15,22z M16.1,29.5c0.7-0.1,1.3-0.4,1.7-0.9c0.5-0.5,0.7-1.2,0.7-1.9c0-0.7-0.2-1.2-0.5-1.6
		c-0.3-0.4-1-0.8-1.9-1.1V29.5L16.1,29.5z"/>
</g>
</svg>
