<?xml version="1.0" encoding="utf-8"?>
<!-- Generator: Adobe Illustrator 19.0.0, SVG Export Plug-In . SVG Version: 6.00 Build 0)  -->
<svg version="1.1" id="图层_1" xmlns="http://www.w3.org/2000/svg" xmlns:xlink="http://www.w3.org/1999/xlink" x="0px" y="0px"
	 viewBox="0 0 39.2 41.4" style="enable-background:new 0 0 39.2 41.4;" xml:space="preserve">
<style type="text/css">
	.st0{fill:#FF6B6C;}
	.st1{fill-rule:evenodd;clip-rule:evenodd;fill:#FF6B6C;}
</style>
<g id="XMLID_337_">
	<path id="XMLID_1540_" class="st0" d="M38.7,30h-3.2v8.7c0,0.4-0.3,0.7-0.7,0.7h-10c-0.4,0-0.7-0.3-0.7-0.7V30h-3.2
		c-0.5,0-0.7-0.5-0.4-0.9l9-9c0.2-0.2,0.5-0.2,0.7,0l9,9C39.4,29.5,39.2,30,38.7,30z"/>
	<path id="XMLID_1539_" class="st1" d="M13,25.5c0.7-1.8,1.7-3.5,3.1-4.9C7.1,20.3,0,17.7,0,13.7v4.4C0,21.6,5.5,24.5,13,25.5
		L13,25.5z"/>
	<path id="XMLID_1538_" class="st1" d="M18.2,18.1c0.4,0,0.8,0,1.1,0c2.7-1.6,5.9-2.5,9.5-2.5c0.8,0,1.6,0.1,2.4,0.2
		c3.2-1.4,5.1-3.3,5.1-5.4V7.8c0-4.3-8.1-7.8-18.2-7.8C8.1,0,0,3.5,0,7.8v2.6C0,14.6,8.1,18.1,18.2,18.1L18.2,18.1z"/>
	<path id="XMLID_1534_" class="st1" d="M12.7,33.2c-0.3-1.1-0.6-2.3-0.6-3.5c0-0.6,0.1-1.1,0.2-1.6C5.2,27.3,0,24.9,0,21.5v4.4
		C0,29.3,5.3,32.2,12.7,33.2L12.7,33.2z"/>
	<path id="XMLID_1531_" class="st1" d="M14.4,36.8c-0.2-0.3-0.3-0.5-0.5-0.8C5.9,35.4,0,32.9,0,29.3v4.4c0,1.1,0.6,2.2,1.6,3.2
		c2.9,2.7,9.2,4.6,16.6,4.6c0.3,0,0.7,0,1,0C17.2,40.2,15.6,38.6,14.4,36.8L14.4,36.8z"/>
</g>
</svg>
