<?xml version="1.0" standalone="no"?><!DOCTYPE svg PUBLIC "-//W3C//DTD SVG 1.1//EN" "http://www.w3.org/Graphics/SVG/1.1/DTD/svg11.dtd"><svg width="200" height="200" viewBox="0 0 200 200" version="1.1" xmlns="http://www.w3.org/2000/svg" xmlns:xlink="http://www.w3.org/1999/xlink"><defs><style type="text/css"><![CDATA[
@font-face { font-family: ifont; src: url("//at.alicdn.com/t/font_1442373896_4754455.eot?#iefix") format("embedded-opentype"), url("//at.alicdn.com/t/font_1442373896_4754455.woff") format("woff"), url("//at.alicdn.com/t/font_1442373896_4754455.ttf") format("truetype"), url("//at.alicdn.com/t/font_1442373896_4754455.svg#ifont") format("svg"); }

]]></style></defs><g class="transform-group"><g transform="scale(0.1953125, 0.1953125)"><path d="M511.429507 63.971987c-247.402693 0-447.969685 200.568015-447.969685 447.969685 0 247.402693 200.566992 447.969685 447.969685 447.969685s447.969685-200.566992 447.969685-447.969685C959.399191 264.538979 758.8322 63.971987 511.429507 63.971987zM511.429507 896.360971c-211.984019 0-384.418276-172.457794-384.418276-384.4193 0-211.982996 172.452677-384.418276 384.418276-384.418276 211.959459 0 384.418276 172.4537 384.418276 384.418276C895.847783 723.926714 723.412502 896.360971 511.429507 896.360971zM563.33569 488.152872c48.394197-49.315172 102.688777-98.131995 160.681586-141.015687 0 0 12.845563-11.958356 7.365758-22.330588-6.848988-12.976546-23.153326-6.915503-23.153326-6.915503-65.783239 32.446993-128.266315 80.597643-184.482665 131.854027-56.714699-53.210899-120.914884-104.174618-189.280948-139.869584 0 0-17.711384-8.108678-31.445176 2.877537-15.609513 13.992689-4.541433 27.097148-4.541433 27.097148 64.164369 47.410799 123.983779 101.913111 176.416965 156.545382-80.46973 80.43596-150.435221 153.651472-176.709631 191.334723-7.592932 10.92277-12.895705 29.697369 9.759271 52.241828 23.140023 23.023366 55.151088 9.402137 64.004733-2.345418 38.992059-51.692313 72.116481-118.602212 142.986575-197.877743 70.952982 79.757508 111.965048 163.737178 148.562571 206.052936 10.373255 12.007475 35.080983 24.545022 67.396993-2.438539 22.735817-18.97005 10.260691-50.090838 5.39794-57.088206C715.778638 656.752802 647.830083 573.842487 563.33569 488.152872z" fill="#999"></path></g></g></svg>
