<?xml version="1.0" standalone="no"?><!DOCTYPE svg PUBLIC "-//W3C//DTD SVG 1.1//EN" "http://www.w3.org/Graphics/SVG/1.1/DTD/svg11.dtd"><svg width="200" height="200" viewBox="0 0 200 200" version="1.1" xmlns="http://www.w3.org/2000/svg" xmlns:xlink="http://www.w3.org/1999/xlink"><defs><style type="text/css"><![CDATA[
@font-face { font-family: ifont; src: url("//at.alicdn.com/t/font_1442373896_4754455.eot?#iefix") format("embedded-opentype"), url("//at.alicdn.com/t/font_1442373896_4754455.woff") format("woff"), url("//at.alicdn.com/t/font_1442373896_4754455.ttf") format("truetype"), url("//at.alicdn.com/t/font_1442373896_4754455.svg#ifont") format("svg"); }

]]></style></defs><g class="transform-group"><g transform="scale(0.1953125, 0.1953125)"><path d="M511.429507 63.971987c-247.402693 0-447.969685 200.568015-447.969685 447.969685 0 247.402693 200.566992 447.969685 447.969685 447.969685s447.969685-200.566992 447.969685-447.969685C959.399191 264.538979 758.8322 63.971987 511.429507 63.971987L511.429507 63.971987zM511.429507 896.360971c-211.984019 0-384.418276-172.457794-384.418276-384.4193 0-211.982996 172.452677-384.418276 384.418276-384.418276 211.959459 0 384.418276 172.4537 384.418276 384.418276C895.847783 723.926714 723.412502 896.360971 511.429507 896.360971L511.429507 896.360971zM438.360328 610.43387l-127.078257-101.659331-57.193607 38.127366 216.041428 222.404346c0 0 127.078257-279.574417 298.639634-413.027871l-19.061125-25.423019C749.709425 330.856383 482.845495 521.465582 438.360328 610.43387L438.360328 610.43387zM438.360328 610.43387" fill="#ff973a"></path></g></g></svg>
