<?xml version="1.0" encoding="utf-8"?>
<!-- Generator: Adobe Illustrator 19.0.0, SVG Export Plug-In . SVG Version: 6.00 Build 0)  -->
<svg version="1.1" id="图层_1" xmlns="http://www.w3.org/2000/svg" xmlns:xlink="http://www.w3.org/1999/xlink" x="0px" y="0px"
	 viewBox="0 0 44 44" style="enable-background:new 0 0 44 44;" xml:space="preserve">
<style type="text/css">
	.st0{fill:#FF973A;}
</style>
<g id="XMLID_335_">
	<path id="XMLID_89_" class="st0" d="M17.5,21.5H1.3c-0.7,0-1.3-0.6-1.3-1.3V4c0-0.7,0.6-1.3,1.3-1.3h16.2c0.7,0,1.3,0.6,1.3,1.3
		v16.2C18.8,20.9,18.2,21.5,17.5,21.5z"/>
	<path id="XMLID_324_" class="st0" d="M43.6,13L32.8,23.8c-0.5,0.5-1.3,0.5-1.8,0L20.2,13c-0.5-0.5-0.5-1.3,0-1.8L31,0.4
		c0.5-0.5,1.3-0.5,1.8,0l10.8,10.8C44.1,11.7,44.1,12.5,43.6,13z"/>
	<path id="XMLID_333_" class="st0" d="M17.5,44H1.3C0.6,44,0,43.4,0,42.7V26.5c0-0.7,0.6-1.3,1.3-1.3h16.2c0.7,0,1.3,0.6,1.3,1.3
		v16.2C18.8,43.4,18.2,44,17.5,44z"/>
	<path id="XMLID_332_" class="st0" d="M40,44H23.8c-0.7,0-1.3-0.6-1.3-1.3V26.5c0-0.7,0.6-1.3,1.3-1.3H40c0.7,0,1.3,0.6,1.3,1.3
		v16.2C41.3,43.4,40.7,44,40,44z"/>
</g>
</svg>
