<?xml version="1.0" standalone="no"?><!DOCTYPE svg PUBLIC "-//W3C//DTD SVG 1.1//EN" "http://www.w3.org/Graphics/SVG/1.1/DTD/svg11.dtd"><svg width="200" height="200" viewBox="0 0 200 200" version="1.1" xmlns="http://www.w3.org/2000/svg" xmlns:xlink="http://www.w3.org/1999/xlink"><defs><style type="text/css"><![CDATA[
@font-face { font-family: ifont; src: url("//at.alicdn.com/t/font_1442373896_4754455.eot?#iefix") format("embedded-opentype"), url("//at.alicdn.com/t/font_1442373896_4754455.woff") format("woff"), url("//at.alicdn.com/t/font_1442373896_4754455.ttf") format("truetype"), url("//at.alicdn.com/t/font_1442373896_4754455.svg#ifont") format("svg"); }

]]></style></defs><g class="transform-group"><g transform="scale(0.1953125, 0.1953125)"><path d="M953.0624 494.6688 529.8176 494.6688 529.8176 71.424c0-10.5984-8.6016-19.2-19.2-19.2s-19.2 8.6016-19.2 19.2l0 423.2448L68.1728 494.6688c-10.5984 0-19.2 8.6016-19.2 19.2s8.6016 19.2 19.2 19.2l423.2448 0 0 423.2448c0 10.5984 8.6016 19.2 19.2 19.2s19.2-8.6016 19.2-19.2L529.8176 533.0688l423.2448 0c10.5984 0 19.2-8.6016 19.2-19.2S963.6608 494.6688 953.0624 494.6688z" fill="#ccc"></path></g></g></svg>
