<?xml version="1.0" encoding="utf-8"?>
<!-- Generator: Adobe Illustrator 19.0.0, SVG Export Plug-In . SVG Version: 6.00 Build 0)  -->
<svg version="1.1" id="图层_1" xmlns="http://www.w3.org/2000/svg" xmlns:xlink="http://www.w3.org/1999/xlink" x="0px" y="0px"
	 viewBox="0 0 44 44" style="enable-background:new 0 0 44 44;" xml:space="preserve">
<style type="text/css">
	.st0{fill:#FF973A;}
</style>
<g id="XMLID_236_">
	<g id="XMLID_240_" transform="scale(0.1953125, 0.1953125)">
		<path id="XMLID_242_" class="st0" d="M36.4,134.2v34.3c0,1.7,1,3.2,2.6,3.8l68.7,26.3c3.4,1.3,7.2,1.3,10.6,0l69-27.1
			c1.5-0.6,2.6-2.1,2.6-3.8v-34.5l33-13.6c2.7-1.1,3.4-4.6,1.3-6.6l-34.6-34.4l33.2-31.1c2.4-2.2,1.3-6.2-1.9-6.9L153,26
			c-1.2-0.3-2.4,0-3.4,0.8l-34.3,27.4L78,26.6c-0.9-0.7-2.1-0.9-3.2-0.7L5.1,39.1c-3.2,0.6-4.4,4.6-2.1,6.9l34,32.8h5.1l70.7-22
			l71,22l-66.7,28.2L42.2,80.1v-3.6l-5.5,3.2L1.3,113.1c-2.1,2-1.5,5.5,1.2,6.7L36.4,134.2z"/>
	</g>
</g>
</svg>
