<?xml version="1.0" encoding="utf-8"?>
<!-- Generator: Adobe Illustrator 19.0.0, SVG Export Plug-In . SVG Version: 6.00 Build 0)  -->
<svg version="1.1" id="图层_1" xmlns="http://www.w3.org/2000/svg" xmlns:xlink="http://www.w3.org/1999/xlink" x="0px" y="0px"
	 viewBox="0 0 560 560" style="enable-background:new 0 0 560 560;" xml:space="preserve">
<style type="text/css">
	.st0{fill:#666666;}
	.st1{fill:#FF973A;}
</style>
<g id="XMLID_1_">
	<path id="XMLID_897_" class="st0" d="M70.1,160.4c4.7,0,8.8,2.5,8.8,5.5s-4,5.5-8.8,5.5s-8.8-2.5-8.8-5.5S65.3,160.4,70.1,160.4
		 M70.1,158.4c-5.9,0-10.8,3.4-10.8,7.5s4.8,7.5,10.8,7.5c5.9,0,10.8-3.4,10.8-7.5S76,158.4,70.1,158.4L70.1,158.4z"/>
	<path id="XMLID_1909_" class="st0" d="M490.2,160.4c4.7,0,8.8,2.5,8.8,5.5s-4,5.5-8.8,5.5s-8.8-2.5-8.8-5.5
		S485.5,160.4,490.2,160.4 M490.2,158.4c-5.9,0-10.8,3.4-10.8,7.5s4.8,7.5,10.8,7.5s10.8-3.4,10.8-7.5S496.1,158.4,490.2,158.4
		L490.2,158.4z"/>
	<path id="XMLID_941_" class="st1" d="M510,163.1H50l-50,50v162l50,50h460l50-50v-162L510,163.1z M69.8,191.8c-5,0-9-4-9-9s4-9,9-9
		c5,0,9,4,9,9S74.8,191.8,69.8,191.8z M490.2,191.8c-5,0-9-4-9-9s4-9,9-9c5,0,9,4,9,9S495.2,191.8,490.2,191.8z"/>
	<g id="XMLID_925_">
		<polygon id="XMLID_4_" class="st0" points="72.1,175.6 68,175.6 63.9,135.2 65.9,134.9 69.8,173.6 70.3,173.6 74.2,134.9
			76.2,135.2 		"/>
	</g>
	<g id="XMLID_895_">
		<polygon id="XMLID_5_" class="st0" points="492.2,175.6 488.2,175.6 484.1,135.2 486.1,134.9 490,173.6 490.4,173.6 494.3,134.9
			496.3,135.2 		"/>
	</g>
</g>
</svg>
