<?xml version="1.0" encoding="utf-8"?>
<!-- Generator: Adobe Illustrator 19.0.0, SVG Export Plug-In . SVG Version: 6.00 Build 0)  -->
<svg version="1.1" id="图层_1" xmlns="http://www.w3.org/2000/svg" xmlns:xlink="http://www.w3.org/1999/xlink" x="0px" y="0px"
	 viewBox="0 0 132 130.1" style="enable-background:new 0 0 132 130.1;" xml:space="preserve">
<style type="text/css">
	.st0{fill:#FF973A;}
</style>
<g id="XMLID_467_">
	<path id="XMLID_470_" class="st0" d="M68,49.9c-0.4-0.4-1.4-0.3-2,0.4L45.7,70.6L33.7,58.5c-0.4-0.4-1.2-0.4-1.6,0l-1.6,1.6
		c-0.4,0.4-0.4,1.2,0,1.6L45,76.3c0.4,0.4,1.2,0.4,1.6,0l1.6-1.6c0.1-0.1,0.1-0.2,0.2-0.3l0,0l20.8-20.8c0.7-0.7,0.9-1.6,0.4-2
		L68,49.9L68,49.9z"/>
	<g id="XMLID_475_">
		<g id="XMLID_477_">
			<path id="XMLID_579_" class="st0" d="M89.6,21.7c-0.6-0.1-1.1-0.6-1.2-1.3l-0.8-5.1c-0.1-0.8,0.4-1.6,1.3-1.7
				c0.8-0.1,1.6,0.4,1.7,1.3l0.8,5.1c0.1,0.8-0.4,1.6-1.2,1.7C89.9,21.8,89.8,21.8,89.6,21.7L89.6,21.7z M89.6,21.7"/>
			<path id="XMLID_576_" class="st0" d="M107.2,41.1c-0.1,0-0.1,0-0.2,0l-5-1.4c-0.8-0.2-1.2-1-1-1.8c0.2-0.8,1-1.2,1.8-1l5,1.4
				c0.8,0.2,1.2,1,1,1.8C108.7,40.7,107.9,41.2,107.2,41.1L107.2,41.1z M107.2,41.1"/>
			<path id="XMLID_573_" class="st0" d="M99.8,26.3c-0.4-0.1-0.8-0.3-1-0.6c-0.5-0.7-0.3-1.6,0.4-2.1l4.6-3.2
				c0.7-0.5,1.6-0.3,2.1,0.4c0.5,0.7,0.3,1.6-0.4,2.1l-4.6,3.2C100.5,26.2,100.1,26.3,99.8,26.3L99.8,26.3z M99.8,26.3"/>
			<g id="XMLID_482_">
				<path id="XMLID_572_" class="st0" d="M1,81.1c0,1.5,0.5,3.2,1.2,4.7l1.7-1c-0.6-1.2-1-2.5-1-3.7v-7.2l-2,0.5V81.1z"/>
				<polygon id="XMLID_565_" class="st0" points="1,60.1 3,60.1 3,49.7 1,49.2 				"/>
				<path id="XMLID_564_" class="st0" d="M1,39.9v7.2l2,0.5v-7.7c0-1,0.3-2.2,0.8-3.2l-1.7-1C1.4,37.1,1,38.6,1,39.9z"/>
				<path id="XMLID_563_" class="st0" d="M6.4,30.6c-1.3,0.8-2.5,2-3.4,3.4l1.7,1c0.7-1.1,1.7-2.1,2.7-2.6l6.3-3.6l-1.5-1.5
					L6.4,30.6z"/>
				<polygon id="XMLID_560_" class="st0" points="14.1,26.2 15.5,27.6 24,22.7 23,21 				"/>
				<polygon id="XMLID_555_" class="st0" points="24.8,20 25.8,21.7 34.3,16.8 33.7,14.8 				"/>
				<path id="XMLID_554_" class="st0" d="M46,10.8v-2c-1.4,0.2-2.8,0.6-3.9,1.2l-6.6,3.8l0.5,2l7-4.1C43.9,11.3,44.9,11,46,10.8z"/>
				<polygon id="XMLID_553_" class="st0" points="1,72.3 3,71.8 3,62.1 1,62.1 				"/>
				<path id="XMLID_550_" class="st0" d="M58.5,15.5l0.5-2L52.9,10c-1.4-0.8-3.1-1.2-4.9-1.3v2c1.4,0.1,2.8,0.4,3.9,1L58.5,15.5z"/>
				<polygon id="XMLID_548_" class="st0" points="69.9,19.8 60.9,14.6 60.3,16.6 68.9,21.5 				"/>
				<polygon id="XMLID_546_" class="st0" points="71.6,20.8 70.7,22.5 79.3,27.5 80.7,26 				"/>
				<path id="XMLID_544_" class="st0" d="M88.6,30.6l-6-3.5l-1.5,1.5l6.5,3.8c1,0.6,1.9,1.5,2.7,2.6l1.7-1
					C91.1,32.5,89.9,31.3,88.6,30.6z"/>
				<polygon id="XMLID_542_" class="st0" points="23.5,100.3 24.5,98.5 16,93.6 14.5,95.1 				"/>
				<path id="XMLID_541_" class="st0" d="M7.4,88.7c-0.9-0.5-1.7-1.3-2.4-2.2l-1.7,1c0.9,1.2,2,2.3,3.1,3l6.3,3.6l1.5-1.5L7.4,88.7z
					"/>
				<polygon id="XMLID_540_" class="st0" points="25.2,101.3 34.2,106.4 34.7,104.4 26.2,99.5 				"/>
				<path id="XMLID_505_" class="st0" d="M43.1,109.3l-6.6-3.8l-0.5,2l6.1,3.5c1.1,0.6,2.5,1.1,3.9,1.2v-2
					C44.9,110,43.9,109.7,43.1,109.3z"/>
				<path id="XMLID_503_" class="st0" d="M93,35.7l-1.7,1c0.5,1.1,0.8,2.2,0.8,3.2v8l2-0.5v-7.5C94,38.6,93.6,37.1,93,35.7z"/>
				<polygon id="XMLID_500_" class="st0" points="94,49.5 92,50 92,60.1 94,60.1 				"/>
				<path id="XMLID_488_" class="st0" d="M92,73.6v7.5c0,1.2-0.4,2.5-1,3.7l1.7,1c0.8-1.5,1.2-3.2,1.2-4.7v-6.9L92,73.6z"/>
				<path id="XMLID_487_" class="st0" d="M51.9,109.3c-1.1,0.6-2.5,0.9-3.9,1v2c1.8-0.1,3.5-0.5,4.9-1.3l5.7-3.3l-0.5-2L51.9,109.3z
					"/>
				<polygon id="XMLID_486_" class="st0" points="69.5,101.4 68.5,99.7 59.9,104.7 60.4,106.7 				"/>
				<polygon id="XMLID_485_" class="st0" points="80.3,95.2 78.8,93.7 70.2,98.7 71.2,100.4 				"/>
				<path id="XMLID_484_" class="st0" d="M88.6,90.4c1.2-0.7,2.3-1.7,3.1-3l-1.7-1c-0.7,0.9-1.5,1.7-2.4,2.2l-7,4l1.5,1.5L88.6,90.4
					z"/>
				<polygon id="XMLID_483_" class="st0" points="94,62.1 92,62.1 92,71.5 94,72.1 				"/>
			</g>
			<g id="XMLID_480_">
				<g id="XMLID_53_">
					<g id="XMLID_54_">
						<path id="XMLID_55_" class="st0" d="M131,111.1c0,0.5-0.6,1-1.4,1H50.4c-0.8,0-1.4-0.5-1.4-1c0-0.6,0.6-1,1.4-1h79.2
							C130.4,110.1,131,110.5,131,111.1z"/>
					</g>
				</g>
			</g>
			<g id="XMLID_478_">
				<g id="XMLID_50_">
					<g id="XMLID_51_">
						<path id="XMLID_52_" class="st0" d="M108,118.6c0,0.3-0.3,0.5-0.7,0.5H46.7c-0.4,0-0.7-0.2-0.7-0.5s0.3-0.5,0.7-0.5h60.6
							C107.7,118.1,108,118.3,108,118.6z"/>
					</g>
				</g>
			</g>
		</g>
	</g>
</g>
</svg>
