<?xml version="1.0" encoding="utf-8"?>
<!-- Generator: Adobe Illustrator 19.0.0, SVG Export Plug-In . SVG Version: 6.00 Build 0)  -->
<svg version="1.1" id="图层_1" xmlns="http://www.w3.org/2000/svg" xmlns:xlink="http://www.w3.org/1999/xlink" x="0px" y="0px"
	 viewBox="0 0 132 130.1" style="enable-background:new 0 0 132 130.1;" xml:space="preserve">
<style type="text/css">
	.st0{fill:#FF973A;}
</style>
<g id="XMLID_545_">
	<path id="XMLID_852_" class="st0" d="M62.8,47.6c-0.4-0.4-1.4-0.3-2,0.4L49,59.8L36.9,47.8c-0.4-0.4-1.2-0.4-1.6,0l-1.6,1.6
		c-0.4,0.4-0.4,1.2,0,1.6l14.5,14.5c0.4,0.4,1.2,0.4,1.6,0l1.6-1.6c0.1-0.1,0.1-0.2,0.2-0.3l0,0L64,51.2c0.7-0.7,0.9-1.6,0.4-2
		L62.8,47.6L62.8,47.6z"/>
	<path id="XMLID_908_" class="st0" d="M35.2,78.5c0.4,0.4,1.4,0.3,2-0.4L49,66.3l12.1,12.1c0.4,0.4,1.2,0.4,1.6,0l1.6-1.6
		c0.4-0.4,0.4-1.2,0-1.6L49.8,60.6c-0.4-0.4-1.2-0.4-1.6,0l-1.6,1.6c-0.1,0.1-0.1,0.2-0.2,0.3l0,0L34,74.9c-0.7,0.7-0.9,1.6-0.4,2
		L35.2,78.5L35.2,78.5z"/>
	<g id="XMLID_547_">
		<g id="XMLID_549_">
			<path id="XMLID_849_" class="st0" d="M89.6,22.8c-0.6-0.1-1.1-0.6-1.2-1.3l-0.8-5.1c-0.1-0.8,0.4-1.6,1.3-1.7
				c0.8-0.1,1.6,0.4,1.7,1.3l0.8,5.1c0.1,0.8-0.4,1.6-1.2,1.7C89.9,22.8,89.8,22.8,89.6,22.8L89.6,22.8z M89.6,22.8"/>
			<path id="XMLID_846_" class="st0" d="M107.2,42.1c-0.1,0-0.1,0-0.2,0l-5-1.4c-0.8-0.2-1.2-1-1-1.8c0.2-0.8,1-1.2,1.8-1l5,1.4
				c0.8,0.2,1.2,1,1,1.8C108.7,41.8,107.9,42.2,107.2,42.1L107.2,42.1z M107.2,42.1"/>
			<path id="XMLID_843_" class="st0" d="M99.8,27.3c-0.4-0.1-0.8-0.3-1-0.6c-0.5-0.7-0.3-1.6,0.4-2.1l4.6-3.2
				c0.7-0.5,1.6-0.3,2.1,0.4c0.5,0.7,0.3,1.6-0.4,2.1l-4.6,3.2C100.5,27.3,100.1,27.4,99.8,27.3L99.8,27.3z M99.8,27.3"/>
			<g id="XMLID_593_">
				<path id="XMLID_842_" class="st0" d="M1,82.1c0,1.5,0.5,3.2,1.2,4.7l1.7-1c-0.6-1.2-1-2.5-1-3.7v-7.2l-2,0.5V82.1z"/>
				<polygon id="XMLID_825_" class="st0" points="1,61.1 3,61.1 3,50.8 1,50.3 				"/>
				<path id="XMLID_824_" class="st0" d="M1,41v7.2l2,0.5V41c0-1,0.3-2.2,0.8-3.2l-1.7-1C1.4,38.1,1,39.6,1,41z"/>
				<path id="XMLID_822_" class="st0" d="M6.4,31.6c-1.3,0.8-2.5,2-3.4,3.4l1.7,1c0.7-1.1,1.7-2.1,2.7-2.6l6.3-3.6l-1.5-1.5
					L6.4,31.6z"/>
				<polygon id="XMLID_821_" class="st0" points="14.1,27.2 15.5,28.7 24,23.8 23,22 				"/>
				<polygon id="XMLID_819_" class="st0" points="24.8,21.1 25.8,22.8 34.3,17.9 33.7,15.9 				"/>
				<path id="XMLID_818_" class="st0" d="M46,11.9v-2c-1.4,0.2-2.8,0.6-3.9,1.2l-6.6,3.8l0.5,2l7-4.1C43.9,12.3,44.9,12,46,11.9z"/>
				<polygon id="XMLID_807_" class="st0" points="1,73.4 3,72.8 3,63.1 1,63.1 				"/>
				<path id="XMLID_794_" class="st0" d="M58.5,16.6l0.5-2l-6.2-3.5c-1.4-0.8-3.1-1.2-4.9-1.3v2c1.4,0.1,2.8,0.4,3.9,1L58.5,16.6z"
					/>
				<polygon id="XMLID_789_" class="st0" points="69.9,20.9 60.9,15.6 60.3,17.6 68.9,22.6 				"/>
				<polygon id="XMLID_783_" class="st0" points="71.6,21.9 70.7,23.6 79.3,28.6 80.7,27.1 				"/>
				<path id="XMLID_780_" class="st0" d="M88.6,31.6l-6-3.5l-1.5,1.5l6.5,3.8c1,0.6,1.9,1.5,2.7,2.6l1.7-1
					C91.1,33.6,89.9,32.4,88.6,31.6z"/>
				<polygon id="XMLID_779_" class="st0" points="23.5,101.3 24.5,99.6 16,94.7 14.5,96.2 				"/>
				<path id="XMLID_777_" class="st0" d="M7.4,89.8c-0.9-0.5-1.7-1.3-2.4-2.2l-1.7,1c0.9,1.2,2,2.3,3.1,3l6.3,3.6l1.5-1.5L7.4,89.8z
					"/>
				<polygon id="XMLID_774_" class="st0" points="25.2,102.3 34.2,107.5 34.7,105.5 26.2,100.6 				"/>
				<path id="XMLID_701_" class="st0" d="M43.1,110.3l-6.6-3.8l-0.5,2l6.1,3.5c1.1,0.6,2.5,1.1,3.9,1.2v-2
					C44.9,111.1,43.9,110.8,43.1,110.3z"/>
				<path id="XMLID_693_" class="st0" d="M93,36.7l-1.7,1C91.7,38.8,92,40,92,41v8l2-0.5V41C94,39.6,93.6,38.1,93,36.7z"/>
				<polygon id="XMLID_692_" class="st0" points="94,50.5 92,51.1 92,61.1 94,61.1 				"/>
				<path id="XMLID_684_" class="st0" d="M92,74.7v7.5c0,1.2-0.4,2.5-1,3.7l1.7,1c0.8-1.5,1.2-3.2,1.2-4.7v-6.9L92,74.7z"/>
				<path id="XMLID_683_" class="st0" d="M51.9,110.3c-1.1,0.6-2.5,0.9-3.9,1v2c1.8-0.1,3.5-0.5,4.9-1.3l5.7-3.3l-0.5-2L51.9,110.3z
					"/>
				<polygon id="XMLID_681_" class="st0" points="69.5,102.5 68.5,100.8 59.9,105.7 60.4,107.7 				"/>
				<polygon id="XMLID_610_" class="st0" points="80.3,96.3 78.8,94.8 70.2,99.8 71.2,101.5 				"/>
				<path id="XMLID_601_" class="st0" d="M88.6,91.5c1.2-0.7,2.3-1.7,3.1-3l-1.7-1c-0.7,0.9-1.5,1.7-2.4,2.2l-7,4l1.5,1.5L88.6,91.5
					z"/>
				<polygon id="XMLID_596_" class="st0" points="94,63.1 92,63.1 92,72.6 94,73.1 				"/>
			</g>
			<g id="XMLID_566_">
				<g id="XMLID_50_">
					<g id="XMLID_51_">
						<path id="XMLID_52_" class="st0" d="M131,112.1c0,0.5-0.6,1-1.4,1H50.4c-0.8,0-1.4-0.5-1.4-1c0-0.6,0.6-1,1.4-1h79.2
							C130.4,111.1,131,111.5,131,112.1z"/>
					</g>
				</g>
			</g>
			<g id="XMLID_551_">
				<g id="XMLID_53_">
					<g id="XMLID_54_">
						<path id="XMLID_55_" class="st0" d="M108,119.6c0,0.3-0.3,0.5-0.7,0.5H46.7c-0.4,0-0.7-0.2-0.7-0.5s0.3-0.5,0.7-0.5h60.6
							C107.7,119.1,108,119.3,108,119.6z"/>
					</g>
				</g>
			</g>
		</g>
	</g>
</g>
</svg>
