<?xml version="1.0" encoding="utf-8"?>
<!-- Generator: Adobe Illustrator 19.0.0, SVG Export Plug-In . SVG Version: 6.00 Build 0)  -->
<svg version="1.1" id="图层_1" xmlns="http://www.w3.org/2000/svg" xmlns:xlink="http://www.w3.org/1999/xlink" x="0px" y="0px"
	 viewBox="0 0 132 130.1" style="enable-background:new 0 0 132 130.1;" xml:space="preserve">
<style type="text/css">
	.st0{fill:#FF973A;}
</style>
<g id="XMLID_970_">
	<g id="XMLID_975_">
		<g id="XMLID_976_">
			<path id="XMLID_1036_" class="st0" d="M89.6,23.7c-0.6-0.1-1.1-0.6-1.2-1.3l-0.8-5.1c-0.1-0.8,0.4-1.6,1.3-1.7
				c0.8-0.1,1.6,0.4,1.7,1.3l0.8,5.1c0.1,0.8-0.4,1.6-1.2,1.7C89.9,23.8,89.8,23.8,89.6,23.7L89.6,23.7z M89.6,23.7"/>
			<path id="XMLID_1033_" class="st0" d="M107.2,43.1c-0.1,0-0.1,0-0.2,0l-5-1.4c-0.8-0.2-1.2-1-1-1.8c0.2-0.8,1-1.2,1.8-1l5,1.4
				c0.8,0.2,1.2,1,1,1.8C108.7,42.7,107.9,43.2,107.2,43.1L107.2,43.1z M107.2,43.1"/>
			<path id="XMLID_1030_" class="st0" d="M99.8,28.3c-0.4-0.1-0.8-0.3-1-0.6c-0.5-0.7-0.3-1.6,0.4-2.1l4.6-3.2
				c0.7-0.5,1.6-0.3,2.1,0.4c0.5,0.7,0.3,1.6-0.4,2.1l-4.6,3.2C100.5,28.2,100.1,28.3,99.8,28.3L99.8,28.3z M99.8,28.3"/>
			<g id="XMLID_1005_">
				<path id="XMLID_1029_" class="st0" d="M1,83.1c0,1.5,0.5,3.2,1.2,4.7l1.7-1c-0.6-1.2-1-2.5-1-3.7v-7.2l-2,0.5V83.1z"/>
				<polygon id="XMLID_1028_" class="st0" points="1,62.1 3,62.1 3,51.7 1,51.2 				"/>
				<path id="XMLID_1027_" class="st0" d="M1,41.9v7.2l2,0.5v-7.7c0-1,0.3-2.2,0.8-3.2l-1.7-1C1.4,39.1,1,40.6,1,41.9z"/>
				<path id="XMLID_1026_" class="st0" d="M6.4,32.6c-1.3,0.8-2.5,2-3.4,3.4l1.7,1c0.7-1.1,1.7-2.1,2.7-2.6l6.3-3.6l-1.5-1.5
					L6.4,32.6z"/>
				<polygon id="XMLID_1025_" class="st0" points="14.1,28.2 15.5,29.6 24,24.7 23,23 				"/>
				<polygon id="XMLID_1024_" class="st0" points="24.8,22 25.8,23.7 34.3,18.8 33.7,16.8 				"/>
				<path id="XMLID_1023_" class="st0" d="M46,12.8v-2c-1.4,0.2-2.8,0.6-3.9,1.2l-6.6,3.8l0.5,2l7-4.1C43.9,13.3,44.9,13,46,12.8z"
					/>
				<polygon id="XMLID_1022_" class="st0" points="1,74.3 3,73.8 3,64.1 1,64.1 				"/>
				<path id="XMLID_1021_" class="st0" d="M58.5,17.5l0.5-2L52.9,12c-1.4-0.8-3.1-1.2-4.9-1.3v2c1.4,0.1,2.8,0.4,3.9,1L58.5,17.5z"
					/>
				<polygon id="XMLID_1020_" class="st0" points="69.9,21.8 60.9,16.6 60.3,18.6 68.9,23.5 				"/>
				<polygon id="XMLID_1019_" class="st0" points="71.6,22.8 70.7,24.5 79.3,29.5 80.7,28 				"/>
				<path id="XMLID_1018_" class="st0" d="M88.6,32.6l-6-3.5l-1.5,1.5l6.5,3.8c1,0.6,1.9,1.5,2.7,2.6l1.7-1
					C91.1,34.5,89.9,33.3,88.6,32.6z"/>
				<polygon id="XMLID_1017_" class="st0" points="23.5,102.3 24.5,100.5 16,95.6 14.5,97.1 				"/>
				<path id="XMLID_1016_" class="st0" d="M7.4,90.7c-0.9-0.5-1.7-1.3-2.4-2.2l-1.7,1c0.9,1.2,2,2.3,3.1,3l6.3,3.6l1.5-1.5L7.4,90.7
					z"/>
				<polygon id="XMLID_1015_" class="st0" points="25.2,103.3 34.2,108.4 34.7,106.4 26.2,101.5 				"/>
				<path id="XMLID_1014_" class="st0" d="M43.1,111.3l-6.6-3.8l-0.5,2l6.1,3.5c1.1,0.6,2.5,1.1,3.9,1.2v-2
					C44.9,112,43.9,111.7,43.1,111.3z"/>
				<path id="XMLID_1013_" class="st0" d="M93,37.7l-1.7,1c0.5,1.1,0.8,2.2,0.8,3.2v8l2-0.5v-7.5C94,40.6,93.6,39.1,93,37.7z"/>
				<polygon id="XMLID_1012_" class="st0" points="94,51.5 92,52 92,62.1 94,62.1 				"/>
				<path id="XMLID_1011_" class="st0" d="M92,75.6v7.5c0,1.2-0.4,2.5-1,3.7l1.7,1c0.8-1.5,1.2-3.2,1.2-4.7v-6.9L92,75.6z"/>
				<path id="XMLID_1010_" class="st0" d="M51.9,111.3c-1.1,0.6-2.5,0.9-3.9,1v2c1.8-0.1,3.5-0.5,4.9-1.3l5.7-3.3l-0.5-2L51.9,111.3
					z"/>
				<polygon id="XMLID_1009_" class="st0" points="69.5,103.4 68.5,101.7 59.9,106.7 60.4,108.7 				"/>
				<polygon id="XMLID_1008_" class="st0" points="80.3,97.2 78.8,95.7 70.2,100.7 71.2,102.4 				"/>
				<path id="XMLID_1007_" class="st0" d="M88.6,92.4c1.2-0.7,2.3-1.7,3.1-3l-1.7-1c-0.7,0.9-1.5,1.7-2.4,2.2l-7,4l1.5,1.5
					L88.6,92.4z"/>
				<polygon id="XMLID_1006_" class="st0" points="94,64.1 92,64.1 92,73.5 94,74.1 				"/>
			</g>
			<g id="XMLID_991_">
				<g id="XMLID_53_">
					<g id="XMLID_54_">
						<path id="XMLID_55_" class="st0" d="M131,113.1c0,0.5-0.6,1-1.4,1H50.4c-0.8,0-1.4-0.5-1.4-1c0-0.6,0.6-1,1.4-1h79.2
							C130.4,112.1,131,112.5,131,113.1z"/>
					</g>
				</g>
			</g>
			<g id="XMLID_977_">
				<g id="XMLID_50_">
					<g id="XMLID_51_">
						<path id="XMLID_52_" class="st0" d="M108,120.6c0,0.3-0.3,0.5-0.7,0.5H46.7c-0.4,0-0.7-0.2-0.7-0.5s0.3-0.5,0.7-0.5h60.6
							C107.7,120.1,108,120.3,108,120.6z"/>
					</g>
				</g>
			</g>
		</g>
	</g>
	<g id="XMLID_973_">
		<circle id="XMLID_898_" class="st0" cx="35.1" cy="62.5" r="3.3"/>
		<circle id="XMLID_971_" class="st0" cx="47.1" cy="62.5" r="3.3"/>
		<circle id="XMLID_972_" class="st0" cx="59.1" cy="62.5" r="3.3"/>
	</g>
</g>
</svg>
