<?xml version="1.0" encoding="utf-8"?>
<!-- Generator: Adobe Illustrator 21.0.0, SVG Export Plug-In . SVG Version: 6.00 Build 0)  -->
<svg version="1.1" id="图层_1" xmlns="http://www.w3.org/2000/svg" xmlns:xlink="http://www.w3.org/1999/xlink" x="0px" y="0px"
	 viewBox="0 0 35.5 42" style="enable-background:new 0 0 35.5 42;" xml:space="preserve">
<style type="text/css">
	.st0{fill-rule:evenodd;clip-rule:evenodd;}
</style>
<path id="XMLID_2040_" class="st0" d="M35.2,6.1l-1.7,0c0,0-3.9-0.1-7.9-1.7c-4.1-1.7-6.8-3.6-6.8-3.6l-1-0.8l-1,0.8
	c0,0-2.7,1.9-6.8,3.6C5.9,6,2,6.1,2,6.1l-1.7,0v17.6C0.2,32.6,11.6,42,17.7,42c6.1,0,17.5-9.4,17.5-18.2L35.2,6.1z M20.3,31.2h-4.6
	v-3.5h4.6V31.2z M20.3,25.4h-4.6V11.4h4.6V25.4z"/>
</svg>
