<?xml version="1.0" encoding="utf-8"?>
<!-- Generator: Adobe Illustrator 19.0.0, SVG Export Plug-In . SVG Version: 6.00 Build 0)  -->
<svg version="1.1" id="图层_1" xmlns="http://www.w3.org/2000/svg" xmlns:xlink="http://www.w3.org/1999/xlink" x="0px" y="0px"
	 viewBox="0 0 44 44" style="enable-background:new 0 0 44 44;" xml:space="preserve">
<style type="text/css">
	.st0{fill:#FF6B6C;}
</style>
<g id="XMLID_1158_">
	<path id="XMLID_1160_" class="st0" d="M9.8,8.1c-0.4,2.4-1.4,9.9,2.3,16.6L31.4,8.1H9.8z"/>
	<path id="XMLID_1169_" class="st0" d="M13.2,26.4c1.9,2.8,4.7,5.3,8.8,7.2C36.4,27,34.9,12.3,34.2,8.3L13.2,26.4z"/>
	<path id="XMLID_1374_" class="st0" d="M42.6,0H22H1.4c0,0-7.7,31.5,20.6,44C50.3,31.5,42.6,0,42.6,0z M22.4,35.7L22,35.8l-0.4-0.2
		C3.2,27.5,8,7,8.1,6.8l0.2-0.8h27.5l0.2,0.8C36,7,40.8,27.5,22.4,35.7z"/>
</g>
</svg>
