<?xml version="1.0" encoding="utf-8"?>
<!-- Generator: Adobe Illustrator 19.0.0, SVG Export Plug-In . SVG Version: 6.00 Build 0)  -->
<svg version="1.1" id="图层_1" xmlns="http://www.w3.org/2000/svg" xmlns:xlink="http://www.w3.org/1999/xlink" x="0px" y="0px"
	 viewBox="5 -5 30 30" style="enable-background:new 5 -5 30 30;" xml:space="preserve">
<style type="text/css">
	.st0{fill:#999999;}
</style>
<path id="XMLID_318_" class="st0" d="M20-5C11.7-5,5,1.7,5,10c0,8.3,6.7,15,15,15c8.2,0,15-6.7,15-15C35,1.7,28.3-5,20-5z M22.4,9.1
	c0.8,0,1.6,0,2.4,0c0.2,0,0.3,0.1,0.3,0.3c0,0.4,0,0.7,0,1.1c0,0.1-0.1,0.3-0.3,0.3h-3.7V13h3.7c0.1,0,0.3,0.1,0.3,0.3v1.2
	c0,0.1-0.1,0.3-0.3,0.3h-3.7c0,0.1,0,0.3,0,0.4c0,0.9,0,1.8,0,2.6c0,0.2-0.1,0.3-0.3,0.3c-0.5,0-1,0-1.5,0c-0.2,0-0.3-0.1-0.3-0.3
	c0-0.9,0-1.8,0-2.6v-0.4h-3.9c-0.1,0-0.3-0.1-0.3-0.3v-1.2c0-0.1,0.1-0.3,0.3-0.3h3.9v-2.2H15c-0.1,0-0.3-0.1-0.3-0.3
	c0-0.4,0-0.9,0-1.3c0-0.1,0.2-0.1,0.3-0.1c0.9,0,1.9,0,2.8,0c0.1,0,0.2,0,0.4,0c-1.5-2.5-2.9-4.9-4.3-7.4c0.2,0,0.3,0,0.4,0
	c0.5,0,1.1,0,1.6,0c0.2,0,0.5,0.1,0.6,0.3c1.2,2.2,2.3,4.4,3.5,6.6c0,0,0,0,0,0c1.2-2.2,2.4-4.5,3.6-6.7c0.1-0.2,0.3-0.3,0.5-0.3
	c0.5,0,1.1,0,1.6,0c0.1,0,0.2,0,0.3,0c-1.5,2.5-2.9,4.9-4.4,7.4C22,9.1,22.2,9.1,22.4,9.1z"/>
</svg>
