<?xml version="1.0" encoding="utf-8"?>
<!-- Generator: Adobe Illustrator 21.0.0, SVG Export Plug-In . SVG Version: 6.00 Build 0)  -->
<svg version="1.1" id="图层_1" xmlns="http://www.w3.org/2000/svg" xmlns:xlink="http://www.w3.org/1999/xlink" x="0px" y="0px"
	 viewBox="0 0 35.5 42" style="enable-background:new 0 0 35.5 42;" xml:space="preserve">
<style type="text/css">
	.st0{fill-rule:evenodd;clip-rule:evenodd;}
</style>
<g id="XMLID_2027_">
	<path id="XMLID_2028_" class="st0" d="M35.5,6.1l-1.7,0c0,0-3.9-0.1-7.9-1.7c-4.1-1.7-6.8-3.6-6.8-3.6L18,0l-1,0.8
		c0,0-2.7,1.9-6.8,3.6C6.2,6,2.3,6.1,2.2,6.1l-1.7,0v17.6C0.5,32.6,11.9,42,18,42c6.1,0,17.5-9.4,17.5-18.2L35.5,6.1L35.5,6.1
		L35.5,6.1z M16,28.7l-7.4-6.3l2.3-2.7l4.8,4.1l9-10.4l2.7,2.3L16,28.7L16,28.7L16,28.7z"/>
</g>
</svg>
