<?xml version="1.0" encoding="utf-8"?>
<!-- Generator: Adobe Illustrator 19.0.0, SVG Export Plug-In . SVG Version: 6.00 Build 0)  -->
<svg version="1.1" id="图层_1" xmlns="http://www.w3.org/2000/svg" xmlns:xlink="http://www.w3.org/1999/xlink" x="0px" y="0px"
	 viewBox="0 0 59.5 54.2" style="enable-background:new 0 0 59.5 54.2;" xml:space="preserve">
<style type="text/css">
	.st0{fill-rule:evenodd;clip-rule:evenodd;fill:#040000;}
</style>
<path id="XMLID_1626_" class="st0" d="M58.9,18.1h-2.5H33.1V3V0H30H3.1H0.6H0v54.2h1.7h1.4H30h3.1h23.3h1.4h1.7V18.1H58.9z M8.3,7.5
	h5V12h-5V7.5z M8.3,16.6h5v4.5h-5V16.6z M13.2,48.2h-5v-4.5h5V48.2z M13.2,39.1h-5v-4.5h5V39.1z M13.2,30.1h-5v-4.5h5V30.1z
	 M24.8,48.2h-5v-4.5h5V48.2z M24.8,39.1h-5v-4.5h5V39.1z M24.8,30.1h-5v-4.5h5V30.1z M24.8,21.1h-5v-4.5h5V21.1z M24.8,12h-5V7.5h5
	V12z M41.3,48.2h-5v-4.5h5V48.2z M41.3,39.1h-5v-4.5h5V39.1z M41.3,30.1h-5v-4.5h5V30.1z M52.9,48.2h-5v-4.5h5V48.2z M52.9,39.1h-5
	v-4.5h5V39.1z M52.9,30.1h-5v-4.5h5V30.1z"/>
</svg>
