<?xml version="1.0" standalone="no"?><!DOCTYPE svg PUBLIC "-//W3C//DTD SVG 1.1//EN" "http://www.w3.org/Graphics/SVG/1.1/DTD/svg11.dtd"><svg width="200" height="200" viewBox="0 0 200 200" version="1.1" xmlns="http://www.w3.org/2000/svg" xmlns:xlink="http://www.w3.org/1999/xlink"><defs><style type="text/css"><![CDATA[
@font-face { font-family: ifont; src: url("//at.alicdn.com/t/font_1442373896_4754455.eot?#iefix") format("embedded-opentype"), url("//at.alicdn.com/t/font_1442373896_4754455.woff") format("woff"), url("//at.alicdn.com/t/font_1442373896_4754455.ttf") format("truetype"), url("//at.alicdn.com/t/font_1442373896_4754455.svg#ifont") format("svg"); }

]]></style></defs><g class="transform-group"><g transform="scale(0.1953125, 0.1953125)"><path d="M801.852504 466.544739c-0.016373-182.64583-148.606573-331.23603-331.244216-331.23603-88.478124 0-171.654498 34.452673-234.231719 97.027847-62.559824 62.569034-97.012498 145.738245-97.012498 234.208183 0 88.478124 34.452673 171.656545 97.020684 234.223532 62.569034 62.559824 145.745409 97.020684 234.223532 97.020684 82.280981 0 159.744237-30.126134 220.551138-84.620259l24.11728 24.11728-1.411139 1.411139c-6.236028 6.235005-6.236028 16.34527 0 22.580275L834.270844 881.68369c6.235005 6.235005 16.34527 6.235005 22.580275 0l25.394367-25.402553c6.237051-6.227842 6.237051-16.337083 0-22.574135L761.841232 713.301725c-6.235005-6.235005-16.34527-6.235005-22.580275 0l-1.411139 1.411139-23.945365-23.953551C770.509658 629.438713 801.852504 550.486546 801.852504 466.544739zM270.252097 666.900929c-53.526077-53.517891-82.998319-124.669394-82.998319-200.355167 0-75.67861 29.472242-146.828067 82.990133-200.348004 53.519937-53.517891 124.685767-82.998319 200.363354-83.005482 156.229181 0.008186 283.3453 127.124306 283.353486 283.353486 0 75.67861-29.487591 146.845463-83.005482 200.363354-53.519937 53.517891-124.669394 82.990133-200.348004 82.998319C394.921491 749.906411 323.772035 720.41882 270.252097 666.900929z" fill="#999"></path></g></g></svg>
