<?xml version="1.0" encoding="utf-8"?>
<!-- Generator: Adobe Illustrator 19.0.0, SVG Export Plug-In . SVG Version: 6.00 Build 0)  -->
<svg version="1.1" id="图层_1" xmlns="http://www.w3.org/2000/svg" xmlns:xlink="http://www.w3.org/1999/xlink" x="0px" y="0px"
	 viewBox="0 0 200 200" style="enable-background:new 0 0 200 200;" xml:space="preserve">
<style type="text/css">
	.st0{opacity:0.4;fill:#FF973A;}
	.st1{fill:#FFF576;}
	.st2{fill:#264D70;}
	.st3{fill:#FFFFFF;}
	.st4{fill:#6798CC;}
</style>
<circle id="XMLID_1502_" class="st0" cx="100" cy="100" r="90"/>
<g id="XMLID_1365_">
	<polyline id="XMLID_221_" class="st1" points="180.4,136.7 186.2,136.7 186.2,33.9 129.5,33.9 129.5,37.8 	"/>
	<polygon id="XMLID_684_" class="st2" points="187.5,138 180.4,138 180.4,135.4 184.9,135.4 184.9,35.2 130.8,35.2 130.8,37.8
		128.2,37.8 128.2,32.6 187.5,32.6 	"/>
	<rect id="XMLID_1266_" x="125.5" y="38.3" class="st1" width="56.5" height="103.3"/>
	<path id="XMLID_1267_" class="st2" d="M183.3,142.8h-59.1V37h59.1V142.8z M126.7,140.3h53.9V39.6h-53.9V140.3z"/>
	<polygon id="XMLID_1262_" class="st1" points="133.9,125.4 133.9,54.9 141.8,47.2 166.4,47.2 173.5,54.9 173.5,123.8 166.2,132.6
		141.3,132.6 	"/>
	<path id="XMLID_1263_" class="st2" d="M166.8,133.9h-26l-8.2-7.9V54.3l8.7-8.4h25.6l7.9,8.4v69.9L166.8,133.9z M141.9,131.3h23.7
		l6.6-7.9v-68l-6.4-6.9h-23.4l-7.1,6.9v69.4L141.9,131.3z"/>
	<circle id="XMLID_1275_" class="st2" cx="153.7" cy="58.2" r="2.7"/>
	<circle id="XMLID_1274_" class="st2" cx="153.7" cy="121.5" r="2.7"/>
	<ellipse id="XMLID_1330_" class="st1" cx="153.7" cy="89.9" rx="13.8" ry="13.8"/>
	<path id="XMLID_1331_" class="st2" d="M153.7,105c-8.3,0-15.1-6.8-15.1-15.1s6.8-15.1,15.1-15.1c8.3,0,15.1,6.8,15.1,15.1
		S162,105,153.7,105z M153.7,77.4c-6.9,0-12.5,5.6-12.5,12.5c0,6.9,5.6,12.5,12.5,12.5c6.9,0,12.5-5.6,12.5-12.5
		C166.2,83,160.6,77.4,153.7,77.4z"/>
	<g id="XMLID_1337_">
		<path id="XMLID_1338_" class="st2" d="M150.9,90.8v4.2c0,0.6-0.3,0.8-0.8,0.8c-0.5,0-0.8-0.3-0.8-0.8v-4.2h-3.5
			c-0.4,0-0.7-0.1-0.8-0.2c-0.1-0.1-0.2-0.4-0.2-0.7c0-0.3,0.1-0.6,0.2-0.7c0.1-0.1,0.4-0.2,0.8-0.2h3.5v-4.1c0-0.6,0.3-0.8,0.8-0.8
			c0.6,0,0.8,0.3,0.8,0.8v4.2h2.5v-4.1c0-0.6,0.3-0.8,0.8-0.8c0.6,0,0.8,0.3,0.8,0.8v3c1-0.6,2-1.2,3-1.8c1-0.6,2-1.2,3-1.8
			c0.6-0.3,1-0.2,1.3,0.2c0.2,0.2,0.2,0.4,0.2,0.6c0,0.2-0.2,0.4-0.5,0.6l-6.9,4.1v0.5c1.1,0.7,2.2,1.3,3.4,2c1.1,0.7,2.3,1.3,3.4,2
			c0.4,0.2,0.6,0.4,0.6,0.6c0,0.2-0.1,0.4-0.2,0.6c-0.2,0.2-0.3,0.4-0.5,0.4c-0.2,0-0.4-0.1-0.7-0.3L155,92v3c0,0.6-0.3,0.8-0.8,0.8
			c-0.5,0-0.8-0.3-0.8-0.8v-4.2H150.9z"/>
	</g>
	<rect id="XMLID_1322_" x="48.9" y="115.1" class="st1" width="35.1" height="15.6"/>
	<path id="XMLID_1323_" class="st2" d="M85.3,132.1H47.6v-18.2h37.7V132.1z M50.2,129.5h32.5v-13.1H50.2V129.5z"/>
	<rect id="XMLID_1318_" x="13.8" y="124.1" class="st1" width="35.1" height="15.6"/>
	<path id="XMLID_1319_" class="st2" d="M50.2,141H12.5v-18.2h37.7V141z M15.1,138.4h32.5v-13.1H15.1V138.4z"/>
	<rect id="XMLID_1314_" x="48.9" y="139" class="st1" width="35.1" height="15.6"/>
	<path id="XMLID_1315_" class="st2" d="M85.3,155.9H47.6v-18.2h37.7V155.9z M50.2,153.3h32.5v-13.1H50.2V153.3z"/>
	<rect id="XMLID_1310_" x="13.8" y="139" class="st1" width="35.1" height="15.6"/>
	<path id="XMLID_1311_" class="st2" d="M50.2,155.9H12.5v-18.2h37.7V155.9z M15.1,153.3h32.5v-13.1H15.1V153.3z"/>
	<rect id="XMLID_1306_" x="84" y="123.4" class="st1" width="35.1" height="15.6"/>
	<path id="XMLID_1307_" class="st2" d="M120.4,140.3H82.7v-18.2h37.7V140.3z M85.3,137.7h32.5v-13.1H85.3V137.7z"/>
	<rect id="XMLID_1302_" x="119.4" y="107.8" class="st1" width="35.1" height="15.6"/>
	<path id="XMLID_1303_" class="st2" d="M155.8,124.7h-37.7v-18.2h37.7V124.7z M120.7,122.1h32.5V109h-32.5V122.1z"/>
	<rect id="XMLID_1298_" x="84" y="139" class="st1" width="35.1" height="15.6"/>
	<path id="XMLID_1299_" class="st2" d="M120.4,155.9H82.7v-18.2h37.7V155.9z M85.3,153.3h32.5v-13.1H85.3V153.3z"/>
	<rect id="XMLID_1261_" x="119.4" y="123.4" class="st1" width="35.1" height="15.6"/>
	<path id="XMLID_1295_" class="st2" d="M155.8,140.3h-37.7v-18.2h37.7V140.3z M120.7,137.7h32.5v-13.1h-32.5V137.7z"/>
	<rect id="XMLID_1023_" x="119.4" y="139" class="st1" width="35.1" height="15.6"/>
	<path id="XMLID_1024_" class="st2" d="M155.8,155.9h-37.7v-18.2h37.7V155.9z M120.7,153.3h32.5v-13.1h-32.5V153.3z"/>
	<path id="XMLID_1326_" class="st1" d="M72.4,30.9c5.6-3.3,12.8-1.4,16.1,4.4c3.3,5.8,1.4,13.1-4.3,16.5c-5.6,3.3-12.8,1.4-16.1-4.4
		S66.7,34.3,72.4,30.9z"/>
	<path id="XMLID_1327_" class="st2" d="M78.3,54.4c-1.1,0-2.2-0.1-3.3-0.4c-3.3-0.9-6.1-3.1-7.9-6.1c-3.5-6.2-1.5-14.2,4.7-17.9
		c2.9-1.7,6.4-2.2,9.7-1.3c3.3,0.9,6.1,3.1,7.9,6.1c3.5,6.2,1.4,14.2-4.7,17.9C82.7,53.8,80.5,54.4,78.3,54.4z M78.3,30.3
		c-1.9,0-3.7,0.5-5.4,1.5l0,0c-5.1,3-6.9,9.8-3.9,15.1c1.5,2.6,3.8,4.4,6.6,5.1c2.8,0.7,5.6,0.3,8.1-1.1c5.1-3.1,6.9-9.8,3.9-15.1
		c-1.5-2.6-3.8-4.4-6.6-5.1C80.1,30.4,79.2,30.3,78.3,30.3z"/>
	<g id="XMLID_1334_">
		<path id="XMLID_1335_" class="st2" d="M79.3,39.7L77.7,37c-0.2-0.4-0.1-0.6,0.2-0.8c0.3-0.2,0.6-0.1,0.8,0.2l1.5,2.7l2.2-1.3
			c0.3-0.2,0.5-0.2,0.6-0.2c0.1,0,0.3,0.1,0.4,0.4c0.1,0.2,0.2,0.4,0.1,0.5c0,0.1-0.2,0.3-0.5,0.5L81,40.2l1.5,2.6
			c0.2,0.4,0.1,0.6-0.2,0.8c-0.4,0.2-0.6,0.1-0.8-0.2l-1.5-2.7l-1.5,0.9l1.5,2.6c0.2,0.4,0.1,0.6-0.2,0.8c-0.4,0.2-0.6,0.1-0.8-0.2
			l-1.1-2c-0.4,0.8-0.8,1.5-1.2,2.3c-0.4,0.8-0.8,1.5-1.2,2.3c-0.2,0.4-0.5,0.5-0.9,0.4c-0.2-0.1-0.3-0.2-0.3-0.3
			c0-0.1,0-0.3,0.1-0.5l2.8-5.2l-0.2-0.3c-0.9,0-1.9,0-2.9,0c-1,0-1.9,0-2.9,0c-0.3,0-0.5-0.1-0.6-0.2c-0.1-0.1-0.1-0.3-0.1-0.5
			c0-0.2,0.1-0.4,0.2-0.4s0.3-0.1,0.6-0.1l5,0.1l-1.1-1.9c-0.2-0.4-0.1-0.6,0.2-0.8c0.3-0.2,0.6-0.1,0.8,0.2l1.5,2.7L79.3,39.7z"/>
	</g>
	<path id="XMLID_1270_" class="st1" d="M57.4,75.9c4,8.6,0.4,18.9-8,23C41,103,31,99.3,27,90.7s-0.4-18.9,8-23S53.4,67.3,57.4,75.9z
		"/>
	<path id="XMLID_1271_" class="st2" d="M42.2,101.6c-2,0-4-0.3-5.9-1c-4.6-1.6-8.2-5-10.3-9.4c-4.2-9.1-0.4-20,8.4-24.3
		c4.3-2.1,9.1-2.4,13.6-0.8c4.6,1.6,8.2,5,10.3,9.4c4.2,9.1,0.5,20-8.4,24.3C47.4,101,44.8,101.6,42.2,101.6z M42.2,67.1
		c-2.3,0-4.6,0.5-6.8,1.6c-7.9,3.8-11.3,13.6-7.5,21.6c1.8,3.9,5.1,6.9,9.1,8.3c4,1.4,8.2,1.2,12-0.7c7.9-3.8,11.3-13.6,7.5-21.6
		l0,0c-1.8-3.9-5.1-6.9-9.1-8.3C45.7,67.4,43.9,67.1,42.2,67.1z"/>
	<g id="XMLID_379_">
		<path id="XMLID_1021_" class="st2" d="M44.8,85.4l3.9-1.9c0.5-0.3,0.9-0.1,1.2,0.4c0.2,0.5,0.1,0.9-0.4,1.2l-3.9,1.9l1.6,3.4
			c0.2,0.4,0.3,0.7,0.2,0.9c0,0.2-0.2,0.4-0.6,0.5c-0.3,0.2-0.6,0.2-0.8,0.1c-0.2-0.1-0.4-0.3-0.6-0.7l-1.6-3.4l-3.8,1.9
			c-0.5,0.3-0.9,0.1-1.1-0.4c-0.2-0.5-0.1-0.9,0.4-1.2l3.9-1.9L42,83.9l-3.8,1.9c-0.5,0.3-0.9,0.1-1.1-0.4c-0.2-0.5-0.1-0.9,0.4-1.2
			l2.8-1.4c-1-0.7-2-1.3-3-2c-1-0.7-2-1.3-3-2c-0.5-0.4-0.7-0.8-0.4-1.3c0.1-0.2,0.3-0.4,0.5-0.4c0.2-0.1,0.4,0,0.7,0.2l6.9,4.7
			l0.4-0.2c0.1-1.4,0.2-2.8,0.4-4.2c0.1-1.4,0.2-2.8,0.4-4.2c0-0.5,0.2-0.8,0.3-0.8c0.2-0.1,0.4-0.1,0.7-0.1c0.3,0,0.5,0.1,0.6,0.3
			c0.1,0.2,0.1,0.4,0.1,0.8l-0.7,7.3l2.8-1.4c0.5-0.3,0.9-0.1,1.2,0.4c0.2,0.5,0.1,0.9-0.4,1.2L43.7,83L44.8,85.4z"/>
	</g>
	<g id="XMLID_1022_">
		<path id="XMLID_1291_" class="st3" d="M112.6,142.6l-9.6,5.9c-1.4,0.9-3,1.3-4.7,1.3h-1.6c-3.2,0-6.2-1.7-7.8-4.5l-1.5-2.6
			c-1.8-2.9-1.9-6.6-0.3-9.7l14.6-27.8c1.4-2.7,4.2-4.5,7.3-4.5h5.2c2,0,4,0.8,5.5,2.1l30.1,30.8h6.8v28.7h-7.2
			c0,0-6.4-3.9-10.1-3.9h-4.6c-4.7,0-9.1-2-12.4-5.5l-12.8-14.8c-2.4-2.8-2.6-6.9-0.5-9.9l4.1-7.7"/>
		<path id="XMLID_1292_" class="st2" d="M156.5,163.7h-7.2c-0.2,0-0.5-0.1-0.7-0.2c-1.7-1-6.7-3.7-9.4-3.7h-4.6
			c-5,0-9.9-2.1-13.3-5.9l-8.5-9.9l-9.1,5.5c-1.6,1-3.5,1.5-5.4,1.5h-1.6c-3.6,0-7.1-2-8.9-5.1l-1.5-2.6c-2-3.3-2.1-7.5-0.3-10.9
			l14.6-27.8c1.7-3.2,4.9-5.1,8.4-5.1h5.2c2.3,0,4.6,0.9,6.3,2.5l29.7,30.5h6.3c0.7,0,1.3,0.6,1.3,1.3v28.7
			C157.7,163.1,157.2,163.7,156.5,163.7z M149.6,161.1h5.6V135h-5.5c-0.3,0-0.7-0.1-0.9-0.4l-30.1-30.8c-1.2-1.1-2.9-1.7-4.5-1.7
			h-5.2c-2.6,0-4.9,1.4-6.1,3.8l-14.6,27.8c-1.4,2.6-1.3,5.9,0.2,8.4l1.5,2.6c1.5,2.4,4,3.9,6.7,3.9h1.6c1.4,0,2.8-0.4,4-1.1
			l8.7-5.3l-2.5-2.9c-2.8-3.2-3-7.9-0.6-11.4l4.1-7.7c0.3-0.6,1.1-0.9,1.7-0.5c0.6,0.3,0.9,1.1,0.5,1.7l-4.1,7.7
			c0,0-0.1,0.1-0.1,0.1c-1.8,2.6-1.6,6,0.4,8.4l12.8,14.8c2.9,3.2,7.1,5,11.4,5h4.6C142.8,157.2,148.2,160.3,149.6,161.1z"/>
		<path id="XMLID_1287_" class="st3" d="M33.3,127h17l57.1-64.7c0,0,12.5-6.6,10.8,7.8l-23.9,47.5L50,159.3H33.3V127z"/>
		<path id="XMLID_1288_" class="st2" d="M50.5,160.6H32v-34.9h17.8l56.9-64.4l0.2-0.1c0.3-0.1,6.2-3.2,10-0.6
			c2.3,1.6,3.2,4.9,2.7,9.7l0,0.2l-0.1,0.2l-24,47.7L50.5,160.6z M34.5,158h15l43.8-41.2L117,69.7c0.3-2.6,0.2-5.8-1.6-7
			c-2-1.4-5.7-0.1-7.1,0.7l-57.3,64.9H34.5V158z"/>
		<rect id="XMLID_1283_" x="151.7" y="119.5" class="st4" width="19.7" height="50.9"/>
		<path id="XMLID_1284_" class="st2" d="M171.4,171.7h-19.7c-0.7,0-1.3-0.6-1.3-1.3v-50.9c0-0.7,0.6-1.3,1.3-1.3h19.7
			c0.7,0,1.3,0.6,1.3,1.3v50.9C172.7,171.2,172.1,171.7,171.4,171.7z M153,169.2h17.2v-48.4H153V169.2z"/>
		<path id="XMLID_1281_" class="st3" d="M33.3,161.1h17.1c10.5-0.8,21.4-9.3,25.4-13.8L95.4,128c1.4-1.4,1.9-3.5,1.2-5.4
			c-1.2-3.2-4-7.1-9.6-3.9l-20.2,19.8"/>
		<path id="XMLID_1282_" class="st2" d="M33.3,162.4c-0.7,0-1.3-0.6-1.3-1.3c0-0.7,0.6-1.3,1.3-1.3h17.1c9.6-0.7,20.1-8.6,24.5-13.4
			l19.6-19.4c1.1-1,1.4-2.6,0.9-4c-0.6-1.5-1.6-3.4-3.3-4.1c-1.2-0.4-2.6-0.2-4.3,0.7l-20,19.7c-0.5,0.5-1.3,0.5-1.8,0
			c-0.5-0.5-0.5-1.3,0-1.8l20.3-20l0.2-0.1c2.4-1.3,4.6-1.7,6.6-1c2.1,0.7,3.7,2.7,4.9,5.5c0.9,2.3,0.3,5-1.5,6.8l-19.6,19.4
			c-3.3,3.6-14.5,13.3-26.3,14.2L33.3,162.4z"/>
		<rect id="XMLID_16_" x="23.4" y="119.5" class="st4" width="19.7" height="50.9"/>
		<path id="XMLID_201_" class="st2" d="M43.1,171.7H23.4c-0.7,0-1.3-0.6-1.3-1.3v-50.9c0-0.7,0.6-1.3,1.3-1.3h19.7
			c0.7,0,1.3,0.6,1.3,1.3v50.9C44.4,171.2,43.8,171.7,43.1,171.7z M24.7,169.2h17.2v-48.4H24.7V169.2z"/>
	</g>
</g>
</svg>
