<?xml version="1.0" encoding="utf-8"?>
<!-- Generator: Adobe Illustrator 19.0.0, SVG Export Plug-In . SVG Version: 6.00 Build 0)  -->
<svg version="1.1" id="图层_1" xmlns="http://www.w3.org/2000/svg" xmlns:xlink="http://www.w3.org/1999/xlink" x="0px" y="0px"
	 viewBox="0 0 44 44" style="enable-background:new 0 0 44 44;" xml:space="preserve">
<style type="text/css">
	.st0{fill:#82ADE4;}
</style>
<path id="XMLID_912_" class="st0" d="M37.7,22.1c0-0.8-0.1-1.6-0.2-2.4l4.7-4.7c0.5-0.5,0.6-1.3,0.3-2l-2.3-4
	c-0.4-0.6-1.1-1-1.8-0.8L32.3,10c-1.3-1.2-2.9-2.2-4.5-2.9l-1.5-5.9C26.1,0.5,25.4,0,24.7,0l-4.6,0c-0.7,0-1.4,0.5-1.6,1.2l-1.4,5.3
	c-2.2,0.6-4.3,1.8-6,3.2L5.6,8.2C4.9,8,4.1,8.3,3.8,8.9l-2.3,3.9c-0.4,0.6-0.3,1.4,0.3,2l4.1,4.1c-0.2,1-0.3,2-0.3,3
	c0,1.2,0.1,2.4,0.4,3.6L2.4,29c-0.5,0.5-0.6,1.3-0.3,2l2.3,4c0.4,0.6,1.1,1,1.8,0.8l5-1.3c1.7,1.4,3.7,2.5,5.8,3.1l1.4,5.3
	c0.2,0.7,0.8,1.2,1.6,1.2l4.6,0c0.7,0,1.4-0.5,1.6-1.2l1.6-5.9c1.6-0.7,3.1-1.6,4.4-2.7l5.5,1.5c0.7,0.2,1.5-0.1,1.8-0.8l2.3-3.9
	c0.4-0.6,0.3-1.4-0.3-2l-4.1-4.1C37.6,24.1,37.7,23.1,37.7,22.1z M21.9,29c-3.8,0-7-3.1-6.9-7c0-3.8,3.1-7,7-6.9c3.8,0,7,3.1,6.9,7
	C28.9,25.9,25.8,29,21.9,29z"/>
</svg>
