<?xml version="1.0" encoding="utf-8"?>
<!-- Generator: Adobe Illustrator 19.0.0, SVG Export Plug-In . SVG Version: 6.00 Build 0)  -->
<svg version="1.1" id="图层_1" xmlns="http://www.w3.org/2000/svg" xmlns:xlink="http://www.w3.org/1999/xlink" x="0px" y="0px"
	 viewBox="0 0 30 30" style="enable-background:new 0 0 30 30;" xml:space="preserve">
<style type="text/css">
	.st0{fill:#FF973A;}
</style>
<path id="XMLID_1793_" class="st0" d="M15,0C6.7,0,0,6.7,0,15c0,8.3,6.7,15,15,15c8.3,0,15-6.7,15-15C30,6.7,23.3,0,15,0z
	 M12.2,14.9c0,0.4-0.1,0.8-0.2,1.1l4.8,3.2c0.6-0.6,1.4-1,2.3-1c1.8,0,3.2,1.5,3.2,3.4S20.9,25,19.1,25s-3.2-1.5-3.2-3.4
	c0-0.4,0.1-0.7,0.2-1.1l-4.9-3.2c-0.6,0.6-1.4,1-2.2,1c-1.8,0-3.2-1.5-3.2-3.4s1.5-3.4,3.2-3.4c0.9,0,1.7,0.4,2.2,0.9l4.9-3
	c-0.1-0.4-0.2-0.7-0.2-1.2c0-1.9,1.5-3.4,3.2-3.4s3.2,1.5,3.2,3.4s-1.5,3.4-3.2,3.4c-0.9,0-1.6-0.4-2.2-0.9l-4.9,3
	C12.1,14.1,12.2,14.5,12.2,14.9z"/>
</svg>
