<?xml version="1.0" encoding="utf-8"?>
<!-- Generator: Adobe Illustrator 19.0.0, SVG Export Plug-In . SVG Version: 6.00 Build 0)  -->
<svg version="1.1" id="图层_1" xmlns="http://www.w3.org/2000/svg" xmlns:xlink="http://www.w3.org/1999/xlink" x="0px" y="0px"
	 viewBox="0 0 44 44" style="enable-background:new 0 0 44 44;" xml:space="preserve">
<style type="text/css">
	.st0{fill:#FF973A;}
</style>
<g id="XMLID_4_">
	<g id="XMLID_52_">
		<path id="XMLID_53_" class="st0" d="M41.4,7.5c-2.4,0.2-11.4-4.2-16.3-6.7c-1.9-1-4.3-1-6.2,0c-4.8,2.5-13.8,7-16.3,6.7
			c0,0-1.2,27.7,19.4,36.5v0c0,0,0,0,0,0c0,0,0,0,0,0v0C42.5,35.2,41.4,7.5,41.4,7.5z M24.4,32.5h-4.8v-3.7h4.8V32.5z M24.4,26h-4.8
			V9.5h4.8V26z"/>
	</g>
</g>
</svg>
