<?xml version="1.0" encoding="utf-8"?>
<!-- Generator: Adobe Illustrator 19.0.0, SVG Export Plug-In . SVG Version: 6.00 Build 0)  -->
<svg version="1.1" id="图层_1" xmlns="http://www.w3.org/2000/svg" xmlns:xlink="http://www.w3.org/1999/xlink" x="0px" y="0px"
	 viewBox="0 0 44 44" style="enable-background:new 0 0 44 44;" xml:space="preserve">
<style type="text/css">
	.st0{fill:#7DCDB4;}
</style>
<g id="XMLID_1457_">
	<path id="XMLID_1598_" class="st0" d="M32.7,20.4c3.6,0,6.6,3,6.6,6.6s-3,6.6-6.6,6.6c-3.6,0-6.6-3-6.6-6.6S29.1,20.4,32.7,20.4
		 M32.7,18.2c-4.9,0-8.8,3.9-8.8,8.8s3.9,8.8,8.8,8.8s8.8-3.9,8.8-8.8S37.6,18.2,32.7,18.2L32.7,18.2z"/>
	<g id="XMLID_1545_">
		<polygon id="XMLID_1596_" class="st0" points="37.3,28.1 31.6,28.1 31.6,21.5 33.8,21.5 33.8,25.9 37.3,25.9 		"/>
	</g>
	<path id="XMLID_1460_" class="st0" d="M32.7,38c-3.4,0-6.4-1.5-8.4-3.9H9.6v-2.2h13.3c-0.7-1.5-1.2-3.1-1.2-4.9
		c0-0.7,0.1-1.5,0.2-2.2H9.6v-2.2h13c1.7-3.9,5.6-6.6,10.1-6.6c0.4,0,0.7,0,1.1,0.1v-4.4L22.2,0H3.8C3.1,0,2.5,0.6,2.5,1.3v41.4
		c0,0.7,0.6,1.3,1.3,1.3h28.7c0.7,0,1.3-0.6,1.3-1.3v-4.8C33.5,37.9,33.1,38,32.7,38z M24.1,4l5.7,5.7c0.2,0.2,0,0.5-0.2,0.5h-5.7
		c-0.1,0-0.3-0.1-0.3-0.3V4.2C23.6,3.9,23.9,3.8,24.1,4z M9.6,13.4h14v2.2h-14V13.4z"/>
</g>
</svg>
