<?xml version="1.0" encoding="utf-8"?>
<!-- Generator: Adobe Illustrator 19.0.0, SVG Export Plug-In . SVG Version: 6.00 Build 0)  -->
<svg version="1.1" id="图层_1" xmlns="http://www.w3.org/2000/svg" xmlns:xlink="http://www.w3.org/1999/xlink" x="0px" y="0px"
	 viewBox="0 0 30 30" style="enable-background:new 0 0 30 30;" xml:space="preserve">
<style type="text/css">
	.st0{fill:#999999;}
</style>
<path id="XMLID_1388_" class="st0" d="M15,0C6.7,0,0,6.7,0,15c0,8.3,6.7,15,15,15c8.3,0,15-6.7,15-15C30,6.7,23.3,0,15,0z
	 M20.5,15.9c0,0.2-0.1,0.4-0.2,0.5l-1.4,1.4c0,0-0.1,0.1-0.1,0.1l-5.1,4.9c-0.3,0.3-0.7,0.3-0.9,0c-0.1-0.1-0.2-0.3-0.2-0.5
	c0-0.1-0.1-0.3,0-0.4l1.3-5.7l-2.2-2c0,0,0,0,0,0L11,13.7c-0.1-0.1-0.2-0.2-0.2-0.4c-0.1-0.3-0.1-0.6,0.1-0.8l5-4.9
	c0.1-0.3,0.4-0.4,0.7-0.3c0.3,0.1,0.5,0.4,0.5,0.7c0,0.1,0,0.2,0,0.2l-1.1,4.5l2.4,1.5l0.1,0c0,0,0,0,0,0l1.5,0.9
	C20.4,15.4,20.5,15.7,20.5,15.9z"/>
</svg>
