<?xml version="1.0" encoding="utf-8"?>
<!-- Generator: Adobe Illustrator 19.0.0, SVG Export Plug-In . SVG Version: 6.00 Build 0)  -->
<svg version="1.1" id="图层_1" xmlns="http://www.w3.org/2000/svg" xmlns:xlink="http://www.w3.org/1999/xlink" x="0px" y="0px"
	 viewBox="0 0 30 30" style="enable-background:new 0 0 30 30;" xml:space="preserve">
<style type="text/css">
	.st0{fill:#fff;}
</style>
<g id="XMLID_282_">
	<g id="XMLID_309_" transform="scale(0.1953125, 0.1953125)">
		<path id="XMLID_1473_" class="st0" d="M153.6,47.9c0-3.5-2.9-6.4-6.4-6.4l-140.8,0c-3.5,0-6.4,2.9-6.4,6.4v95.4
			c0,3.5,2.9,6.4,6.4,6.4h140.8c3.5,0,6.4-2.9,6.4-6.4V119h-40.3v0c-0.1,0-0.2,0-0.3,0c-12.9,0-23.4-10.5-23.4-23.4
			s10.5-23.4,23.4-23.4c0.1,0,0.2,0,0.3,0v0h40.3L153.6,47.9z M99.2,95.6c0,7.6,6.2,13.8,13.8,13.8s13.8-6.2,13.8-13.8
			s-6.2-13.8-13.8-13.8S99.2,88,99.2,95.6z M138.2,35.6l-7.9-27.8c-0.8-2.8-3.7-4.4-6.5-3.6L12.8,35.6H138.2z"/>
	</g>
</g>
</svg>
