<?xml version="1.0" standalone="no"?><!DOCTYPE svg PUBLIC "-//W3C//DTD SVG 1.1//EN" "http://www.w3.org/Graphics/SVG/1.1/DTD/svg11.dtd"><svg width="200" height="200" viewBox="0 0 200 200" version="1.1" xmlns="http://www.w3.org/2000/svg" xmlns:xlink="http://www.w3.org/1999/xlink"><defs><style type="text/css"><![CDATA[
@font-face { font-family: ifont; src: url("//at.alicdn.com/t/font_1442373896_4754455.eot?#iefix") format("embedded-opentype"), url("//at.alicdn.com/t/font_1442373896_4754455.woff") format("woff"), url("//at.alicdn.com/t/font_1442373896_4754455.ttf") format("truetype"), url("//at.alicdn.com/t/font_1442373896_4754455.svg#ifont") format("svg"); }

]]></style></defs><g class="transform-group"><g transform="scale(0.1953125, 0.1953125)"><path d="M512 463.181131c-26.850531 0-48.818869 21.968337-48.818869 48.818869s21.968337 48.818869 48.818869 48.818869c27.072589 0 48.818869-21.968337 48.818869-48.818869S539.072589 463.181131 512 463.181131zM512 68.191078c-245.204631 0-443.808922 198.60429-443.808922 443.808922 0 244.982574 198.60429 443.808922 443.808922 443.808922s443.808922-198.826348 443.808922-443.808922C955.808922 266.795369 757.203608 68.191078 512 68.191078zM609.193623 609.193623l-363.479385 169.091116 169.091116-363.479385 363.479385-169.091116L609.193623 609.193623z" fill="#7DCDB4"></path></g></g></svg>
