<?xml version="1.0" encoding="utf-8"?>
<!-- Generator: Adobe Illustrator 19.0.0, SVG Export Plug-In . SVG Version: 6.00 Build 0)  -->
<svg version="1.1" id="图层_1" xmlns="http://www.w3.org/2000/svg" xmlns:xlink="http://www.w3.org/1999/xlink" x="0px" y="0px"
	 viewBox="0 0 1000 1000" style="enable-background:new 0 0 1000 1000;" xml:space="preserve">
<style type="text/css">
	.st0{fill:#FF973A;}
	.st1{fill:#FFFFFF;}
</style>
<g id="XMLID_37_">
	<path id="XMLID_36_" class="st0" d="M500,1000L500,1000C223.9,1000,0,776.1,0,500v0C0,223.9,223.9,0,500,0h0
		c276.1,0,500,223.9,500,500v0C1000,776.1,776.1,1000,500,1000z"/>
	<g id="XMLID_14_">
		<path id="XMLID_34_" class="st1" d="M768.5,539.5c14.3,0,26.3,8.3,33,21c5.3,12.8,2.2,27-6,37.5
			C728,697.9,652.2,799.9,565.1,884.8H427.8c84.1-84.1,172.6-186.1,231.9-278.4c3-5.3,4.5-10.5,1.5-15.8c-1.5-5.3-6.8-8.3-12.8-8.3
			H195.9v-42.8"/>
		<path id="XMLID_32_" class="st1" d="M89,485.2c141.3-130.7,243.7-244.6,339.1-370H572c96.2,125.4,197.8,239.3,339.1,370H753
			c-97.1-85.6-175.7-170.4-252.5-272.8C422.7,314.8,344.2,399.6,247,485.2H89z"/>
		<path id="XMLID_29_" class="st1" d="M500,336.3c-51,0-92.4,41.4-92.4,92.4c0,51,41.4,92.4,92.4,92.4c51,0,92.4-41.4,92.4-92.4
			C592.4,377.7,551,336.3,500,336.3z M538.6,409.3c5.6,0.6,8.7,3.1,9.2,7.6c-0.6,4.5-3.6,6.7-9.2,6.7h-29.4v15.1h29.4
			c5.6,0.6,8.7,3.1,9.2,7.6c-0.6,4.5-3.6,6.7-9.2,6.7h-29.4v33.6c-0.6,5.6-3.6,8.4-9.2,8.4c-6.2,0-9.2-2.8-9.2-8.4V453h-29.4
			c-6.2,0-9.2-2.2-9.2-6.7c0-4.5,3.1-7,9.2-7.6h29.4v-15.1h-29.4c-6.2,0-9.2-2.2-9.2-6.7c0-4.5,3.1-7,9.2-7.6h20.1l-26.2-30.9
			c-0.6,0-1.1-0.6-1.7-1.7c-1.1-1.7-1.7-3.9-1.7-6.7c0-3.9,2.5-6.4,7.6-7.6c3.9,0.6,7.3,2.5,10.1,5.9l30.4,36l30.4-36
			c2.2-3.4,5.6-5.3,10.1-5.9c4.5,1.1,7,3.6,7.6,7.6c0,1.7-0.8,3.9-2.5,6.7c-0.6,0.6-0.8,1.1-0.8,1.7l-26.2,30.9H538.6z"/>
	</g>
</g>
</svg>
