<?xml version="1.0" encoding="utf-8"?>
<!-- Generator: Adobe Illustrator 19.0.0, SVG Export Plug-In . SVG Version: 6.00 Build 0)  -->
<svg version="1.1" id="图层_1" xmlns="http://www.w3.org/2000/svg" xmlns:xlink="http://www.w3.org/1999/xlink" x="0px" y="0px"
	 viewBox="0 0 235 235" style="enable-background:new 0 0 235 235;" xml:space="preserve">
<style type="text/css">
	.st0{fill:#E15441;}
	.st1{fill:#F8F8F8;}
</style>
<g id="XMLID_12_">
	<polygon id="XMLID_3_" class="st0" points="6.7,211.3 117.5,23.7 228.3,211.3 	"/>
	<path id="XMLID_19_" class="st0" d="M228.3,218H6.7c-2.4,0-4.6-1.3-5.8-3.4s-1.2-4.7,0-6.7L111.7,20.3c1.2-2,3.4-3.3,5.8-3.3
		s4.6,1.3,5.8,3.3l110.8,187.7c1.2,2.1,1.2,4.6,0,6.7C232.9,216.7,230.7,218,228.3,218z M18.5,204.6h198.1l-99-167.7L18.5,204.6z"/>
	<path id="XMLID_10_" class="st1" d="M113.4,154.5c-0.4-6.3-1.2-12.6-2.4-19.1c-1.2-6.5-2.4-12.9-3.7-19.2
		c-1.3-6.3-2.4-12.5-3.5-18.4c-1-6-1.6-11.7-1.6-17.1c0-2.1,0.4-3.9,1.3-5.6c0.9-1.7,2-3.1,3.4-4.2c1.4-1.2,3-2.1,4.9-2.7
		c1.9-0.6,3.7-0.9,5.6-0.9c4.3,0,7.9,1.2,10.9,3.6c2.9,2.4,4.4,5.7,4.4,9.9c0,5.4-0.5,11.1-1.6,17.1c-1,6-2.2,12.1-3.5,18.4
		c-1.3,6.3-2.6,12.7-3.8,19.2c-1.2,6.5-2,12.8-2.4,19.1H113.4z"/>
	<path id="XMLID_9_" class="st1" d="M117.6,168.7c2.1,0,4.1,0.4,5.9,1.2c1.8,0.8,3.4,1.9,4.8,3.3c1.4,1.4,2.5,3,3.3,4.9
		c0.8,1.9,1.2,3.8,1.2,6c0,2.1-0.4,4.1-1.2,6c-0.8,1.9-1.9,3.5-3.3,4.9c-1.4,1.4-3,2.5-4.8,3.3c-1.8,0.8-3.8,1.2-5.9,1.2
		c-2.1,0-4.1-0.4-6-1.2c-1.9-0.8-3.5-1.9-4.9-3.3c-1.4-1.4-2.5-3-3.3-4.9c-0.8-1.9-1.2-3.9-1.2-6c0-2.1,0.4-4.1,1.2-6
		c0.8-1.8,1.9-3.5,3.3-4.9c1.4-1.4,3-2.5,4.9-3.3C113.4,169.1,115.4,168.7,117.6,168.7z"/>
</g>
</svg>
