<?xml version="1.0" encoding="utf-8"?>
<!-- Generator: Adobe Illustrator 19.0.0, SVG Export Plug-In . SVG Version: 6.00 Build 0)  -->
<svg version="1.1" id="图层_1" xmlns="http://www.w3.org/2000/svg" xmlns:xlink="http://www.w3.org/1999/xlink" x="0px" y="0px"
	 viewBox="0 0 44 44" style="enable-background:new 0 0 44 44;" xml:space="preserve">
<style type="text/css">
	.st0{fill:#82ADE4;}
</style>
<g id="XMLID_1141_">
	<path id="XMLID_1143_" class="st0" d="M43.4,11.2l-21-10.6c-0.3-0.1-0.6-0.1-0.9,0l-21,10.6c-0.8,0.4-0.8,1.5,0,1.8l21.1,10.6
		c0.3,0.1,0.6,0.1,0.9,0L43.4,13C44.2,12.7,44.2,11.6,43.4,11.2z M22.5,43.3L38,35.2c0.4-0.2,0.7-0.7,0.5-1.2l-3.9-12.7
		c-0.2-0.6-0.9-0.9-1.4-0.6l-10.7,5.4c-0.3,0.1-0.6,0.1-0.9,0L11,20.7c-0.6-0.3-1.3,0-1.4,0.6L5.6,34c-0.1,0.5,0.1,1,0.5,1.2
		l15.5,8.2C21.9,43.5,22.2,43.5,22.5,43.3z"/>
	<path id="XMLID_1142_" class="st0" d="M41.7,13.6v13.2c0,0.8,0.8,1.3,1.5,0.9l0,0c0.4-0.2,0.6-0.6,0.6-1.1L41.7,13.6L41.7,13.6z"/>
</g>
</svg>
