<?xml version="1.0" encoding="utf-8"?>
<!-- Generator: Adobe Illustrator 19.0.0, SVG Export Plug-In . SVG Version: 6.00 Build 0)  -->
<svg version="1.1" id="图层_1" xmlns="http://www.w3.org/2000/svg" xmlns:xlink="http://www.w3.org/1999/xlink" x="0px" y="0px"
	 viewBox="-5.3 -9.3 40.3 47" style="enable-background:new -5.3 -9.3 40.3 47;" xml:space="preserve">
<style type="text/css">
	.st0{fill:#3D827A;}
	.st1{fill:#7DCDB4;}
</style>
<g id="XMLID_27_">
	<path id="XMLID_28_" class="st0" d="M6.4-1c0,0-1.7,5.4,3.8,11.7c0,0-12.7,7.2-5.8,16.1c0,0-5.7-3.9-5-11.4C-1,5.4,6.4-1,6.4-1z"/>
	<path id="XMLID_35_" class="st1" d="M32.6,8.9C32.1,7.5,28.2-2.6,20.3-6.3C9.9-11.2,6.5-1.8,6.5-1.8C-0.4,3.8-1.8,8.5-2.4,9.4
		c-1,1.8-2.9,10.9,1.4,18.2c4,6.8,10.3,8.1,11.6,8.4c5.3,1.1,13.4-0.4,18.3-6.6C34,23.1,34.6,14.4,32.6,8.9z M17.7,23.2
		c-0.7,2.3-2.7,5.6-6.5,6.1c-4.7,0.7-8.4-3.8-9.1-4.7c-0.7-1-2.6-4.7-2.7-8.1c0-3.6,0.5-7,1.7-9.5s1.8-4.6,5.1-7.8
		c0,0-1.8,6.4,5.8,13.4C18.3,17.4,18.4,20.7,17.7,23.2z"/>
</g>
</svg>
