<?xml version="1.0" encoding="utf-8"?>
<!-- Generator: Adobe Illustrator 19.0.0, SVG Export Plug-In . SVG Version: 6.00 Build 0)  -->
<svg version="1.1" id="图层_1" xmlns="http://www.w3.org/2000/svg" xmlns:xlink="http://www.w3.org/1999/xlink" x="0px" y="0px"
	 viewBox="-5 -10 39.8 46" style="enable-background:new -5 -10 39.8 46;" xml:space="preserve">
<style type="text/css">
	.st0{fill:#E0E0E0;}
	.st1{fill:#FFFFFF;}
</style>
<g id="XMLID_93_">
	<path id="XMLID_97_" class="st0" d="M6.4-2.4c0,0-1.7,5.4,3.8,11.7c0,0-12.7,7.2-5.8,16.1c0,0-5.7-3.9-5-11.4
		C-1,4.1,6.4-2.4,6.4-2.4z"/>
	<path id="XMLID_94_" class="st1" d="M32.6,7.5C32.1,6.2,28.2-4,20.3-7.7C9.9-12.5,6.5-3.2,6.5-3.2C-0.4,2.4-1.8,7.1-2.4,8
		c-1,1.8-2.9,10.9,1.4,18.2c4,6.8,10.3,8.1,11.6,8.4C16,35.7,24.1,34.2,29,28C34,21.7,34.6,13,32.6,7.5z M17.7,21.8
		c-0.7,2.3-2.7,5.6-6.5,6.1c-4.7,0.7-8.4-3.8-9.1-4.7c-0.7-1-2.6-4.7-2.7-8.1C-0.7,11.7-0.2,8.2,1,5.7C2.2,3.1,2.9,1,6.2-2.2
		c0,0-1.8,6.4,5.8,13.4C18.3,16,18.4,19.3,17.7,21.8z"/>
</g>
</svg>
