<?xml version="1.0" encoding="utf-8"?>
<!-- Generator: Adobe Illustrator 19.0.0, SVG Export Plug-In . SVG Version: 6.00 Build 0)  -->
<svg version="1.1" id="图层_1" xmlns="http://www.w3.org/2000/svg" xmlns:xlink="http://www.w3.org/1999/xlink" x="0px" y="0px"
	 viewBox="8.5 8.5 13 13" style="enable-background:new 8.5 8.5 13 13;" xml:space="preserve">
<style type="text/css">
	.st0{fill:#FF973A;}
	.st1{fill:#FFFFFF;}
</style>
<g id="XMLID_37_">
	<path id="XMLID_36_" class="st0" d="M18.6,21.4h-7.2c-1.6,0-2.9-1.3-2.9-2.9v-7.1c0-1.6,1.3-2.9,2.9-2.9h7.1c1.6,0,2.9,1.3,2.9,2.9
		v7.1C21.4,20.2,20.2,21.4,18.6,21.4z"/>
	<g id="XMLID_14_">
		<path id="XMLID_34_" class="st1" d="M18.4,15.5c0.2,0,0.3,0.1,0.4,0.3c0.1,0.2,0,0.3-0.1,0.5c-0.9,1.3-1.9,2.6-3,3.7H14
			c1.1-1.1,2.2-2.4,3-3.6c0-0.1,0.1-0.1,0-0.2c0-0.1-0.1-0.1-0.2-0.1H11v-0.6"/>
		<path id="XMLID_32_" class="st1" d="M9.6,14.8c1.8-1.7,3.2-3.2,4.4-4.8h1.9c1.3,1.6,2.6,3.1,4.4,4.8h-2.1C17,13.7,16,12.6,15,11.2
			c-1,1.3-2,2.4-3.3,3.5H9.6z"/>
		<path id="XMLID_29_" class="st1" d="M15,12.8c-0.7,0-1.2,0.5-1.2,1.2s0.5,1.2,1.2,1.2s1.2-0.5,1.2-1.2S15.6,12.8,15,12.8z
			 M15.5,13.8c0.1,0,0.1,0,0.1,0.1c0,0.1-0.1,0.1-0.1,0.1h-0.4v0.2h0.4c0.1,0,0.1,0,0.1,0.1c0,0.1-0.1,0.1-0.1,0.1h-0.4v0.4
			c0,0.1-0.1,0.1-0.1,0.1c-0.1,0-0.1,0-0.1-0.1v-0.4h-0.4c-0.1,0-0.1,0-0.1-0.1s0-0.1,0.1-0.1h0.4V14h-0.4c-0.1,0-0.1,0-0.1-0.1
			s0-0.1,0.1-0.1h0.3l-0.3-0.4c0,0,0,0,0,0c0,0,0-0.1,0-0.1c0-0.1,0-0.1,0.1-0.1c0.1,0,0.1,0,0.1,0.1l0.4,0.5l0.4-0.5
			c0-0.1,0.1-0.1,0.1-0.1c0.1,0,0.1,0.1,0.1,0.1c0,0,0,0.1,0,0.1v0l-0.3,0.4H15.5z"/>
	</g>
</g>
</svg>
