<?xml version="1.0" encoding="utf-8"?>
<!-- Generator: Adobe Illustrator 19.0.0, SVG Export Plug-In . SVG Version: 6.00 Build 0)  -->
<svg version="1.1" id="图层_1" xmlns="http://www.w3.org/2000/svg" xmlns:xlink="http://www.w3.org/1999/xlink" x="0px" y="0px"
	 viewBox="0 0 370 370" style="enable-background:new 0 0 370 370;" xml:space="preserve">
<style type="text/css">
	.st0{fill:#4D4F61;}
</style>
<g id="XMLID_1_">
	<path id="XMLID_3_" class="st0" d="M18.6,295.7c0.3-0.1,0.5-0.3,0.7-0.5c0.4-0.4,0.8-0.8,0.8-1.2c0-0.1,0-0.2-0.1-0.3c0,0,0,0,0,0
		c0,0,0,0,0,0c0,0,0,0,0,0c0,0,0,0,0,0c-0.1-0.1-0.2-0.1-0.3-0.1c-0.4,0-0.8,0.4-1.2,0.8c-0.1,0.1-0.3,0.3-0.4,0.6l0,0
		c0.1,0,0.1,0,0.2,0c0.2,0,0.3,0.1,0.4,0.2c0.1,0.1,0.1,0.3,0.1,0.5L18.6,295.7z"/>
	<path id="XMLID_12_" class="st0" d="M18.2,75.2c-0.1,0-0.1,0-0.2,0l0,0c0.1,0.2,0.3,0.4,0.4,0.6c0.4,0.4,0.8,0.8,1.2,0.8
		c0.1,0,0.2,0,0.3-0.1c0,0,0,0,0,0c0,0,0,0,0,0c0,0,0,0,0,0c0,0,0,0,0,0c0.1-0.1,0.1-0.2,0.1-0.3c0-0.4-0.4-0.8-0.8-1.2
		c-0.2-0.1-0.4-0.3-0.7-0.5l0.1,0.2c0.1,0.3,0,0.4-0.1,0.5C18.5,75.1,18.3,75.2,18.2,75.2z"/>
	<path id="XMLID_15_" class="st0" d="M17.6,71.5l0.2,0.5c0.2-0.2,0.5-0.5,0.9-0.7c2.2-1.3,4.2,0.6,5.2,1.7c1,1.1,2.5,1.9,4.3,2
		c1.2,0.1,2.4-0.1,3.3-0.5c0,0,0.1,0,0.1,0c0,0,0.1,0,0.1,0c0.1,0,0.1,0.1,0.2,0.1c0,0,0,0,0,0c0,0,0,0.1,0,0.1
		c-0.3,0.1-0.7,0.3-1.1,0.4c-0.9,0.2-1.6,0.3-2.5,0.3c-1.8,0-3.6-0.9-4.8-2.2c-1.1-0.9-2-1.9-3.3-1.9c-0.9,0-1.8,0.3-2.2,1.3
		l0.3,0.8c0.1-0.1,0.1-0.2,0.2-0.4c0.4-0.6,1.3-0.5,1.9-0.2c-0.4,0.6,0,1.3,0.2,1.5c0.4,0.4,1.4,0.2,1.9-0.2
		c-0.1,0.5,0.1,1.2,0.6,1.4c0.5,0.3,1,0.4,2-0.3c-0.2,0.3,0,0.8,0.5,1.1c0.6,0.3,1.3,0.1,1.8-0.4c-0.2,0.6,0.3,0.9,0.8,1
		c0.6,0.1,0.9-0.3,1.2-0.7c-0.2,0.5,0.4,0.7,0.9,0.6c0.5-0.1,1.2-0.5,1.6-0.7c0.5-0.3,0.9-0.6,1.1-1c0,0,0,0,0,0c0,0,0,0,0,0
		c0-0.1,0.1-0.2,0.1-0.3c0.2-0.7,0.6-1.4,1.2-2.3c0.9-1.1,2.1-1.4,3-0.9c0.4,0.2,0.8,0.5,1,0.9h-1.8c-0.1,0-0.1,0-0.2,0.1
		c-0.6,0.1-1.3,0.7-1.1,1.6c0.2,1.1,1.9,2,3.1,1.1c0.6-0.5,1-1.2,1-2.1h291.6c0,0.8,0.4,1.6,1,2.1c1.2,0.9,2.9,0,3.1-1.1
		c0.2-0.9-0.5-1.5-1.1-1.6c-0.1,0-0.1-0.1-0.2-0.1h-1.8c0.2-0.4,0.6-0.7,1-0.9c0.9-0.4,2.1-0.2,3,0.9c0.7,0.8,1,1.6,1.2,2.3
		c0,0.1,0,0.2,0.1,0.3c0,0,0,0,0,0c0,0,0,0,0,0c0.2,0.3,0.6,0.7,1.1,1c0.4,0.2,1.1,0.6,1.6,0.7c0.5,0.1,1.1-0.1,0.9-0.6
		c0.2,0.4,0.6,0.7,1.2,0.7c0.4,0,1-0.3,0.8-1c0.5,0.5,1.2,0.8,1.8,0.4c0.5-0.3,0.6-0.7,0.5-1.1c1,0.6,1.6,0.5,2,0.3
		c0.5-0.3,0.7-1,0.6-1.4c0.4,0.4,1.4,0.6,1.9,0.2c0.2-0.2,0.5-0.8,0.2-1.5c0.6-0.3,1.5-0.4,1.9,0.2c0.1,0.1,0.1,0.3,0.2,0.4l0.3-0.8
		c-0.5-1-1.3-1.3-2.2-1.3c-1.3,0-2.2,1-3.3,1.9c-1.2,1.3-3.1,2.3-4.8,2.2c-0.8,0-1.6-0.1-2.5-0.3c-0.4-0.1-0.8-0.3-1.1-0.4
		c0,0,0-0.1,0-0.1c0,0,0,0,0,0c0.1,0,0.1-0.1,0.2-0.1c0,0,0.1,0,0.1,0c0,0,0.1,0,0.1,0c0.9,0.4,2.1,0.5,3.3,0.5
		c1.9-0.1,3.3-0.9,4.3-2c1-1.1,3-3,5.2-1.7c0.4,0.2,0.7,0.5,0.9,0.7l0.2-0.5c0.1-0.3,0.4-0.6,0.7-0.7l0.5-0.2
		c-0.2-0.2-0.4-0.3-0.7-0.3c0,0-0.1-1.2-1.4-1.1c-0.3,0-0.6,0-0.4-0.3c0.2-0.3,0.3-0.8,0.2-1.2c-0.1-0.4-0.3-0.6-0.4-1.1
		c0-0.1-0.8-0.1-1.2,0.1c-0.6,0.4-1,1-1.1,1.2c-0.1,0.2-0.2,0.1-0.2-0.2c0-0.2-0.3-0.6-0.4-0.7c0-0.1-0.2,0-0.5,0.2
		c-0.3,0.3-1.1,0.4-1.4,1.2c-0.3,0.9-0.2,2.2-0.5,3.2c-0.3,1-1.1,1.9-2,2.4c-0.3,0.2-0.3,0,0-0.2c0.3-0.2,1.1-0.9,1.5-1.6
		c0.2-0.3,0.2-0.9-0.2-0.7c-0.4,0.1-0.6,0-0.8,0c-0.2,0-0.1,0,0-0.2c0.1-0.2,0.1-0.5,0.1-1c0-0.5,0.1-1.2,0.4-1.4
		c0.3-0.2,0.2-0.4-0.3-0.2c-0.8,0.3-1.9,1.2-2.1,1.9c-0.1,0.3-0.2,0.2-0.2,0c0-0.2,0-0.5-0.1-0.7c-0.1-0.2-0.3-0.3-0.4,0
		c-0.1,0.3-0.4,0.6-0.8,0.7c-0.4,0.1-1.1,0.6-1.3,1.2c-0.1,0.4-0.6,0.6-1,0.6c-0.8-1-1.7-1.6-2.2-1.9c-0.5-0.3-1.2-0.5-2-0.6
		c-0.1,0-0.1-0.1-0.2-0.1H166.6H36c-0.1,0-0.1,0-0.2,0.1c-0.8,0-1.5,0.3-2,0.6c-0.5,0.3-1.4,0.9-2.2,1.9c-0.4,0-0.8-0.2-1-0.6
		c-0.2-0.7-0.9-1.1-1.3-1.2c-0.4-0.1-0.7-0.4-0.8-0.7c-0.1-0.3-0.3-0.2-0.4,0c-0.1,0.2-0.1,0.5-0.1,0.7c0,0.2-0.2,0.3-0.2,0
		c-0.1-0.7-1.3-1.6-2.1-1.9c-0.5-0.2-0.6,0-0.3,0.2c0.3,0.2,0.4,0.9,0.4,1.4c0,0.5,0,0.8,0.1,1c0.1,0.2,0.2,0.2,0,0.2
		c-0.2,0-0.4,0.1-0.8,0c-0.4-0.1-0.4,0.4-0.2,0.7c0.4,0.7,1.2,1.4,1.5,1.6c0.3,0.2,0.3,0.4,0,0.2c-0.9-0.5-1.7-1.5-2-2.4
		c-0.3-1-0.3-2.3-0.5-3.2c-0.3-0.9-1.1-1-1.4-1.2C22.2,67,22,66.9,22,67c0,0.1-0.4,0.5-0.4,0.7c0,0.2,0,0.4-0.2,0.2
		c-0.1-0.2-0.5-0.8-1.1-1.2c-0.4-0.3-1.2-0.3-1.2-0.1c-0.1,0.4-0.3,0.7-0.4,1.1c-0.1,0.4,0,1,0.2,1.2c0.2,0.3-0.1,0.3-0.4,0.3
		c-1.3,0-1.4,1.1-1.4,1.1c-0.3,0.1-0.5,0.2-0.7,0.3l0.5,0.2C17.2,70.9,17.5,71.2,17.6,71.5z M348.7,69.1c1-0.3,1.8-1.3,1.8-1.3
		c-0.3,0.9-0.9,1.6-2.2,2.1c-1.3,0.5-1.9,1.8-1.9,1.8C346.5,70.2,347.7,69.3,348.7,69.1z M340.6,73.5c1.2-0.3,1.7-1.4,2.2-1.9
		c0.1-0.2,0.3-0.2,0.3-0.2s0.1,0.1,0,0.4c-0.2,0.5-0.8,1.3-1.7,1.9c-0.5,0.4-1.3,0.5-2,0.5c-0.1-0.2-0.2-0.3-0.3-0.5
		C339.5,73.7,340,73.7,340.6,73.5z M334.1,70.8c1.5,0.2,2.6,0.8,3.5,2.3c0,0,0,0,0,0c-0.1,0-0.1,0-0.2,0
		C336.5,71.4,335,71,334.1,70.8C334.1,70.8,334.1,70.8,334.1,70.8z M38.2,74.2c-0.2,0.4-0.6,0.8-1.1,0.8c-0.5,0-0.8-0.4-0.8-0.4
		s1,0.2,1.3-0.6c0.1-0.2,0.1-0.5,0-0.7h0.8C38.4,73.6,38.4,73.9,38.2,74.2z M332.4,73.3c-0.1,0.2-0.1,0.4,0,0.7
		c0.3,0.8,1.3,0.6,1.3,0.6s-0.3,0.5-0.8,0.4c-0.5,0-0.9-0.3-1.1-0.8c-0.2-0.3-0.2-0.6-0.2-0.9H332.4z M332.1,70.9
		c-0.2,0.2-0.4,0.4-0.6,0.6c-0.3,0.4-0.5,0.7-0.6,1.1H39.1c-0.1-0.4-0.3-0.7-0.6-1.1c-0.2-0.2-0.4-0.4-0.6-0.6H332.1z M35.9,70.8
		C35.9,70.8,35.9,70.8,35.9,70.8c-0.8,0.2-2.3,0.6-3.3,2.3c-0.1,0-0.1,0-0.2,0c0,0,0,0,0,0C33.3,71.6,34.3,71,35.9,70.8z M27,71.4
		c0,0,0.2,0,0.3,0.2c0.4,0.5,0.9,1.6,2.2,1.9c0.6,0.2,1.1,0.2,1.6,0.2c-0.1,0.2-0.2,0.3-0.3,0.5c-0.7,0-1.5-0.1-2-0.5
		c-0.9-0.6-1.5-1.4-1.7-1.9C26.9,71.5,27,71.4,27,71.4z M21.3,69.1c1,0.3,2.2,1.1,2.3,2.6c0,0-0.6-1.2-1.9-1.8
		c-1.3-0.5-1.9-1.2-2.2-2.1C19.5,67.8,20.3,68.8,21.3,69.1z"/>
	<path id="XMLID_68_" class="st0" d="M14.3,72.7l0.2,0.6c0.1,0.2,0.3,0.4,0.5,0.5l0.7,0.2l0.8,0.3l0.9,0.3l0.4,0.1l0.3,0.1
		c0,0,0.1,0,0.1,0c0.1,0,0.2-0.1,0.1-0.3l-0.1-0.4l0-0.1l-0.4-1.2l-0.2-0.6l-0.2-0.7c-0.1-0.2-0.3-0.4-0.5-0.5l-0.6-0.2l-2.4-0.8
		c0,0-0.1,0-0.1,0c-0.1,0-0.2,0.1-0.1,0.3L14.3,72.7z"/>
	<path id="XMLID_71_" class="st0" d="M14.1,297l0.2-0.4c0.1-0.3,0.4-0.6,0.7-0.7l0.5-0.2c-0.2-0.2-0.4-0.5-0.6-0.8
		c-1.3-2.2,0.6-4.2,1.7-5.2c1.1-1,1.9-2.5,2-4.3c0.1-1.2-0.1-2.4-0.5-3.3c0,0,0-0.1,0-0.1c0,0,0-0.1,0-0.1c0-0.1,0.1-0.1,0.1-0.2
		c0,0,0,0,0,0c0,0,0.1,0,0.1,0c0.1,0.3,0.3,0.7,0.4,1.1c0.2,0.9,0.3,1.6,0.3,2.5c0,1.8-0.9,3.6-2.2,4.8c-0.9,1.1-1.9,2-1.9,3.3
		c0,0.8,0.3,1.7,1.2,2.1l0.8-0.3c-0.1,0-0.2-0.1-0.2-0.1c-0.6-0.4-0.5-1.3-0.2-1.9c0.6,0.4,1.3,0,1.5-0.2c0.4-0.4,0.2-1.4-0.2-1.9
		c0.5,0.1,1.2-0.1,1.4-0.6c0.3-0.5,0.4-1-0.3-2c0.3,0.2,0.8,0,1.1-0.5c0.3-0.6,0.1-1.3-0.4-1.8c0.6,0.2,0.9-0.3,1-0.8
		c0.1-0.6-0.3-0.9-0.7-1.2c0.5,0.2,0.7-0.4,0.6-0.9c-0.1-0.5-0.5-1.2-0.7-1.6c-0.3-0.5-0.6-0.9-1-1.1c0,0,0,0,0,0c0,0,0,0,0,0
		c-0.1,0-0.2-0.1-0.3-0.1c-0.7-0.2-1.4-0.6-2.3-1.2c-1.1-0.9-1.4-2.1-0.9-3c0.2-0.4,0.5-0.8,0.9-1v1.7c0,0.1,0,0.2,0.1,0.2
		c0.1,0.6,0.7,1.3,1.6,1.1c1.1-0.2,2-1.9,1.1-3.1c-0.5-0.6-1.2-1.1-2.1-1V95.7c0.8,0,1.6-0.4,2.1-1c0.9-1.2,0-2.9-1.1-3.1
		c-0.9-0.2-1.5,0.5-1.6,1.1c0,0.1-0.1,0.1-0.1,0.2v1.7c-0.4-0.2-0.7-0.6-0.9-1c-0.4-0.9-0.2-2.1,0.9-3c0.8-0.7,1.6-1,2.3-1.2
		c0.1,0,0.2,0,0.3-0.1c0,0,0,0,0,0c0,0,0,0,0,0c0.3-0.2,0.7-0.6,1-1.1c0.2-0.4,0.6-1.1,0.7-1.6c0.1-0.5-0.1-1.1-0.6-0.9
		c0.4-0.2,0.7-0.6,0.7-1.2c0-0.4-0.3-1-1-0.8c0.5-0.5,0.8-1.2,0.4-1.8c-0.3-0.5-0.7-0.6-1.1-0.5c0.6-1,0.5-1.6,0.3-2
		c-0.3-0.5-1-0.7-1.4-0.6c0.4-0.4,0.6-1.4,0.2-1.9c-0.2-0.2-0.8-0.5-1.5-0.2c-0.3-0.6-0.4-1.5,0.2-1.9c0.1-0.1,0.2-0.1,0.2-0.1
		L16,74.5c-0.9,0.5-1.2,1.3-1.2,2.1c0,1.3,1,2.2,1.9,3.3c1.3,1.2,2.3,3.1,2.2,4.8c0,0.8-0.1,1.6-0.3,2.5c-0.1,0.4-0.3,0.8-0.4,1.1
		c0,0-0.1,0-0.1,0c0,0,0,0,0,0c0-0.1-0.1-0.1-0.1-0.2c0,0,0-0.1,0-0.1c0,0,0-0.1,0-0.1c0.4-0.9,0.5-2.1,0.5-3.3
		c-0.1-1.9-0.9-3.3-2-4.3c-1.1-1-3-3-1.7-5.2c0.2-0.3,0.4-0.6,0.6-0.8l-0.5-0.2c-0.3-0.1-0.6-0.4-0.7-0.7L14.1,73
		c-0.1,0.2-0.2,0.3-0.2,0.6c0,0-1.2,0.1-1.1,1.4c0,0.3,0,0.6-0.3,0.4c-0.3-0.2-0.8-0.3-1.2-0.2c-0.4,0.1-0.6,0.3-1.1,0.4
		c-0.1,0-0.1,0.8,0.1,1.2c0.4,0.6,1,1,1.2,1.1c0.2,0.1,0.1,0.2-0.2,0.2c-0.2,0-0.6,0.3-0.7,0.4c-0.1,0,0,0.2,0.2,0.5
		c0.3,0.3,0.4,1.1,1.2,1.4c0.9,0.3,2.2,0.2,3.2,0.5c1,0.3,1.9,1.1,2.4,2c0.2,0.3,0,0.3-0.2,0c-0.2-0.3-0.9-1.1-1.6-1.5
		c-0.3-0.2-0.9-0.2-0.7,0.2c0.1,0.4,0,0.6,0,0.8c0,0.2,0,0.1-0.2,0c-0.2-0.1-0.5-0.1-1-0.1c-0.5,0-1.2-0.1-1.4-0.4
		c-0.2-0.3-0.4-0.2-0.2,0.3c0.3,0.8,1.2,1.9,1.9,2.1c0.3,0.1,0.2,0.2,0,0.2c-0.2,0-0.5,0-0.7,0.1c-0.2,0.1-0.3,0.3,0,0.4
		c0.3,0.1,0.6,0.4,0.7,0.8c0.1,0.4,0.6,1.1,1.2,1.3c0.4,0.1,0.6,0.6,0.6,1c-1,0.8-1.6,1.7-1.9,2.2c-0.3,0.5-0.6,1.3-0.6,2.1
		c0,0,0,0.1,0,0.1v184.9c0,0,0,0.1,0,0.1c0,0.8,0.3,1.6,0.6,2.1c0.3,0.5,0.9,1.4,1.9,2.2c0,0.4-0.2,0.8-0.6,1
		c-0.7,0.2-1.1,0.9-1.2,1.3c-0.1,0.4-0.4,0.7-0.7,0.8c-0.3,0.1-0.2,0.3,0,0.4c0.2,0.1,0.5,0.1,0.7,0.1c0.2,0,0.3,0.2,0,0.2
		c-0.7,0.1-1.6,1.3-1.9,2.1c-0.2,0.5,0,0.6,0.2,0.3c0.2-0.3,0.9-0.4,1.4-0.4c0.5,0,0.8,0,1-0.1c0.2-0.1,0.2-0.2,0.2,0
		c0,0.2,0.1,0.4,0,0.8c-0.1,0.4,0.4,0.4,0.7,0.2c0.7-0.4,1.4-1.2,1.6-1.5c0.2-0.3,0.4-0.3,0.2,0c-0.5,0.9-1.5,1.7-2.4,2
		c-1,0.3-2.3,0.3-3.2,0.5c-0.9,0.3-1,1.1-1.2,1.4c-0.2,0.2-0.3,0.4-0.2,0.5c0.1,0,0.5,0.4,0.7,0.4c0.2,0,0.4,0,0.2,0.2
		c-0.2,0.1-0.8,0.5-1.2,1.1c-0.3,0.4-0.3,1.2-0.1,1.2c0.4,0.1,0.7,0.3,1.1,0.4c0.4,0.1,1,0,1.2-0.2c0.3-0.2,0.3,0.1,0.3,0.4
		c0,1.3,1.1,1.4,1.1,1.4C13.9,296.6,13.9,296.8,14.1,297z M16.8,94c0.2,0.1,0.4,0.1,0.7,0c0.8-0.3,0.6-1.3,0.6-1.3s0.5,0.3,0.4,0.8
		c0,0.5-0.3,0.9-0.8,1.1c-0.3,0.2-0.6,0.2-0.9,0.2V94z M16.8,275.1c0.3,0,0.6,0,0.9,0.2c0.4,0.2,0.8,0.6,0.8,1.1
		c0,0.5-0.4,0.8-0.4,0.8s0.2-1-0.6-1.3c-0.2-0.1-0.5-0.1-0.7,0V275.1z M12.6,77.8c-0.3-1-1.3-1.8-1.3-1.8c0.9,0.3,1.6,0.9,2.1,2.2
		c0.5,1.3,1.8,1.9,1.8,1.9C13.7,79.9,12.8,78.7,12.6,77.8z M16,95.6v178.9c-0.3,0.1-0.7,0.3-1.1,0.6c-0.2,0.2-0.4,0.4-0.5,0.5V94.4
		c0.2,0.2,0.3,0.4,0.5,0.5C15.3,95.2,15.7,95.4,16,95.6z M15.1,83.7c-0.2-0.1-0.2-0.3-0.2-0.3s0.1-0.1,0.4,0
		c0.5,0.2,1.3,0.8,1.9,1.7c0.4,0.5,0.5,1.3,0.5,2c-0.2,0.1-0.3,0.2-0.5,0.3c0-0.5,0-1-0.2-1.6C16.7,84.7,15.6,84.2,15.1,83.7z
		 M16.6,88.9c0.1,0,0.2,0,0.3,0c0,0,0,0,0,0c0,0,0,0,0,0c0,0,0.1,0,0.1,0c0,0,0,0,0,0c-0.1,0-0.2,0.1-0.2,0.1
		c-1.9,0.9-2.3,2.5-2.5,3.4c0,0,0,0,0,0C14.5,90.8,15.2,89.7,16.6,88.9z M14.3,277.7C14.3,277.7,14.3,277.7,14.3,277.7
		c0.2,0.9,0.7,2.4,2.5,3.3c0.1,0,0.1,0.1,0.2,0.1c0,0,0,0,0,0c0,0-0.1,0-0.1,0c0,0,0,0,0,0c0,0-0.1,0,0,0c-0.1,0-0.2-0.1-0.3,0
		C15.2,280.3,14.5,279.2,14.3,277.7z M17.2,284.8c-0.6,0.9-1.4,1.5-1.9,1.7c-0.2,0.1-0.4,0-0.4,0s0-0.2,0.2-0.3
		c0.5-0.4,1.6-0.9,1.9-2.2c0.2-0.6,0.2-1.1,0.2-1.6c0.2,0.1,0.3,0.2,0.5,0.3C17.7,283.6,17.6,284.3,17.2,284.8z M11.3,294
		c0,0,1-0.8,1.3-1.8c0.3-1,1.1-2.2,2.6-2.3c0,0-1.2,0.6-1.8,1.9C12.9,293.1,12.2,293.7,11.3,294z"/>
	<path id="XMLID_80_" class="st0" d="M17.3,298.4l0.2-0.7l0.2-0.6l0.4-1.2l0-0.1l0.1-0.4c0.1-0.2,0-0.3-0.1-0.3c0,0-0.1,0-0.1,0
		l-0.3,0.1l-0.4,0.1l-0.9,0.3l-0.8,0.3l-0.7,0.2c-0.2,0.1-0.4,0.3-0.5,0.5l-0.2,0.6l-0.8,2.4c-0.1,0.2,0,0.3,0.1,0.3
		c0,0,0.1,0,0.1,0l2.4-0.8l0.6-0.2C17,298.8,17.2,298.6,17.3,298.4z"/>
	<path id="XMLID_81_" class="st0" d="M351.4,74.3c-0.3,0.1-0.5,0.3-0.7,0.5c-0.4,0.4-0.8,0.8-0.8,1.2c0,0.1,0,0.2,0.1,0.3
		c0,0,0,0,0,0c0,0,0,0,0,0c0,0,0,0,0,0c0,0,0,0,0,0c0.1,0.1,0.2,0.1,0.3,0.1c0.4,0,0.8-0.4,1.2-0.8c0.1-0.1,0.3-0.3,0.4-0.6l0,0
		c-0.1,0-0.1,0-0.2,0c-0.2,0-0.3-0.1-0.4-0.2c-0.1-0.1-0.1-0.3-0.1-0.5L351.4,74.3z"/>
	<path id="XMLID_82_" class="st0" d="M352.7,71.6l-0.2,0.7l-0.2,0.6l-0.4,1.2l0,0.1l-0.1,0.4c-0.1,0.2,0,0.3,0.1,0.3
		c0,0,0.1,0,0.1,0l0.3-0.1l0.4-0.1l0.9-0.3l0.8-0.3l0.7-0.2c0.2-0.1,0.4-0.3,0.5-0.5l0.2-0.6l0.8-2.4c0.1-0.2,0-0.3-0.1-0.3
		c0,0-0.1,0-0.1,0l-2.4,0.8l-0.6,0.2C353,71.2,352.8,71.4,352.7,71.6z"/>
	<path id="XMLID_83_" class="st0" d="M351.8,294.8c0.1,0,0.1,0,0.2,0l0,0c-0.1-0.2-0.3-0.4-0.4-0.6c-0.4-0.4-0.8-0.8-1.2-0.8
		c-0.1,0-0.2,0-0.3,0.1c0,0,0,0,0,0c0,0,0,0,0,0c0,0,0,0,0,0c0,0,0,0,0,0c-0.1,0.1-0.1,0.2-0.1,0.3c0,0.4,0.4,0.8,0.8,1.2
		c0.2,0.1,0.4,0.3,0.7,0.5l-0.1-0.2c-0.1-0.3,0-0.4,0.1-0.5C351.5,294.9,351.7,294.8,351.8,294.8z"/>
	<path id="XMLID_86_" class="st0" d="M358.6,292.1c-0.2-0.1-0.1-0.2,0.2-0.2c0.2,0,0.6-0.3,0.7-0.4c0.1,0,0-0.2-0.2-0.5
		c-0.3-0.3-0.4-1.1-1.2-1.4c-0.9-0.3-2.2-0.2-3.2-0.5c-1-0.3-1.9-1.1-2.4-2c-0.2-0.3,0-0.3,0.2,0c0.2,0.3,0.9,1.1,1.6,1.5
		c0.3,0.2,0.9,0.2,0.7-0.2c-0.1-0.4,0-0.6,0-0.8c0-0.2,0-0.1,0.2,0c0.2,0.1,0.5,0.1,1,0.1c0.5,0,1.2,0.1,1.4,0.4
		c0.2,0.3,0.4,0.2,0.2-0.3c-0.3-0.8-1.2-1.9-1.9-2.1c-0.3-0.1-0.2-0.2,0-0.2c0.2,0,0.5,0,0.7-0.1c0.2-0.1,0.3-0.3,0-0.4
		c-0.3-0.1-0.6-0.4-0.7-0.8c-0.1-0.4-0.6-1.1-1.2-1.3c-0.4-0.1-0.6-0.6-0.6-1c1-0.8,1.6-1.7,1.9-2.2c0.3-0.5,0.6-1.3,0.6-2.1
		c0,0,0-0.1,0-0.1V92.6c0,0,0-0.1,0-0.1c0-0.8-0.3-1.6-0.6-2.1c-0.3-0.5-0.9-1.4-1.9-2.2c0-0.4,0.2-0.8,0.6-1
		c0.7-0.2,1.1-0.9,1.2-1.3c0.1-0.4,0.4-0.7,0.7-0.8c0.3-0.1,0.2-0.3,0-0.4c-0.2-0.1-0.5-0.1-0.7-0.1c-0.2,0-0.3-0.2,0-0.2
		c0.7-0.1,1.6-1.3,1.9-2.1c0.2-0.5,0-0.6-0.2-0.3c-0.2,0.3-0.9,0.4-1.4,0.4c-0.5,0-0.8,0-1,0.1c-0.2,0.1-0.2,0.2-0.2,0
		c0-0.2-0.1-0.4,0-0.8c0.1-0.4-0.4-0.4-0.7-0.2c-0.7,0.4-1.4,1.2-1.6,1.5c-0.2,0.3-0.4,0.3-0.2,0c0.5-0.9,1.5-1.7,2.4-2
		c1-0.3,2.3-0.3,3.2-0.5c0.9-0.3,1-1.1,1.2-1.4c0.2-0.2,0.3-0.4,0.2-0.5c-0.1,0-0.5-0.4-0.7-0.4c-0.2,0-0.4,0-0.2-0.2
		c0.2-0.1,0.8-0.5,1.2-1.1c0.3-0.4,0.3-1.2,0.1-1.2c-0.4-0.1-0.7-0.3-1.1-0.4c-0.4-0.1-1,0-1.2,0.2c-0.3,0.2-0.3-0.1-0.3-0.4
		c0-1.3-1.1-1.4-1.1-1.4c0-0.2-0.1-0.4-0.2-0.6l-0.2,0.4c-0.1,0.3-0.4,0.6-0.7,0.7l-0.5,0.2c0.2,0.2,0.4,0.5,0.6,0.8
		c1.3,2.2-0.6,4.2-1.7,5.2c-1.1,1-1.9,2.5-2,4.3c-0.1,1.2,0.1,2.4,0.5,3.3c0,0,0,0.1,0,0.1c0,0,0,0.1,0,0.1c0,0.1-0.1,0.1-0.1,0.2
		c0,0,0,0,0,0c0,0-0.1,0-0.1,0c-0.1-0.3-0.3-0.7-0.4-1.1c-0.2-0.9-0.3-1.6-0.3-2.5c0-1.8,0.9-3.6,2.2-4.8c0.9-1.1,1.9-2,1.9-3.3
		c0-0.8-0.3-1.7-1.2-2.1l-0.8,0.3c0.1,0,0.2,0.1,0.2,0.1c0.6,0.4,0.5,1.3,0.2,1.9c-0.6-0.4-1.3,0-1.5,0.2c-0.4,0.4-0.2,1.4,0.2,1.9
		c-0.5-0.1-1.2,0.1-1.4,0.6c-0.3,0.5-0.4,1,0.3,2c-0.3-0.2-0.8,0-1.1,0.5c-0.3,0.6-0.1,1.3,0.4,1.8c-0.6-0.2-0.9,0.3-1,0.8
		c-0.1,0.6,0.3,0.9,0.7,1.2c-0.5-0.2-0.7,0.4-0.6,0.9c0.1,0.5,0.5,1.2,0.7,1.6c0.3,0.5,0.6,0.9,1,1.1c0,0,0,0,0,0c0,0,0,0,0,0
		c0.1,0,0.2,0.1,0.3,0.1c0.7,0.2,1.4,0.6,2.3,1.2c1.1,0.9,1.4,2.1,0.9,3c-0.2,0.4-0.5,0.8-0.9,1v-1.7c0-0.1,0-0.2-0.1-0.2
		c-0.1-0.6-0.7-1.3-1.6-1.1c-1.1,0.2-2,1.9-1.1,3.1c0.5,0.6,1.2,1.1,2.1,1v178.6c-0.8,0-1.6,0.4-2.1,1c-0.9,1.2,0,2.9,1.1,3.1
		c0.9,0.2,1.5-0.5,1.6-1.1c0-0.1,0.1-0.1,0.1-0.2v-1.7c0.4,0.2,0.7,0.6,0.9,1c0.4,0.9,0.2,2.1-0.9,3c-0.8,0.7-1.6,1-2.3,1.2
		c-0.1,0-0.2,0-0.3,0.1c0,0,0,0,0,0c0,0,0,0,0,0c-0.3,0.2-0.7,0.6-1,1.1c-0.2,0.4-0.6,1.1-0.7,1.6c-0.1,0.5,0.1,1.1,0.6,0.9
		c-0.4,0.2-0.7,0.6-0.7,1.2c0,0.4,0.3,1,1,0.8c-0.5,0.5-0.8,1.2-0.4,1.8c0.3,0.5,0.7,0.6,1.1,0.5c-0.6,1-0.5,1.6-0.3,2
		c0.3,0.5,1,0.7,1.4,0.6c-0.4,0.4-0.6,1.4-0.2,1.9c0.2,0.2,0.8,0.5,1.5,0.2c0.3,0.6,0.4,1.5-0.2,1.9c-0.1,0.1-0.2,0.1-0.2,0.1
		l0.8,0.3c0.9-0.5,1.2-1.3,1.2-2.1c0-1.3-1-2.2-1.9-3.3c-1.3-1.2-2.3-3.1-2.2-4.8c0-0.8,0.1-1.6,0.3-2.5c0.1-0.4,0.3-0.8,0.4-1.1
		c0,0,0.1,0,0.1,0c0,0,0,0,0,0c0,0.1,0.1,0.1,0.1,0.2c0,0,0,0.1,0,0.1c0,0,0,0.1,0,0.1c-0.4,0.9-0.5,2.1-0.5,3.3
		c0.1,1.9,0.9,3.3,2,4.3c1.1,1,3,3,1.7,5.2c-0.2,0.3-0.4,0.6-0.6,0.8l0.5,0.2c0.3,0.1,0.6,0.4,0.7,0.7l0.2,0.4
		c0.1-0.2,0.2-0.3,0.2-0.6c0,0,1.2-0.1,1.1-1.4c0-0.3,0-0.6,0.3-0.4c0.3,0.2,0.8,0.3,1.2,0.2c0.4-0.1,0.6-0.3,1.1-0.4
		c0.1,0,0.1-0.8-0.1-1.2C359.4,292.5,358.8,292.2,358.6,292.1z M356.6,78.2c0.5-1.3,1.2-1.9,2.1-2.2c0,0-1,0.8-1.3,1.8
		c-0.3,1-1.1,2.2-2.6,2.3C354.8,80.1,356.1,79.5,356.6,78.2z M353.2,276c-0.2-0.1-0.4-0.1-0.7,0c-0.8,0.3-0.6,1.3-0.6,1.3
		s-0.5-0.3-0.4-0.8c0-0.5,0.3-0.9,0.8-1.1c0.3-0.2,0.6-0.2,0.9-0.2V276z M353.2,94.9c-0.3,0-0.6,0-0.9-0.2c-0.4-0.2-0.8-0.6-0.8-1.1
		c0-0.5,0.4-0.8,0.4-0.8s-0.2,1,0.6,1.3c0.2,0.1,0.5,0.1,0.7,0V94.9z M352.3,87.2c0-0.7,0.1-1.5,0.5-2c0.6-0.9,1.4-1.5,1.9-1.7
		c0.2-0.1,0.4,0,0.4,0s0,0.2-0.2,0.3c-0.5,0.4-1.6,0.9-1.9,2.2c-0.2,0.6-0.2,1.1-0.2,1.6C352.6,87.4,352.5,87.3,352.3,87.2z
		 M353.2,89c-0.1,0-0.1-0.1-0.2-0.1c0,0,0,0,0,0c0,0,0.1,0,0.1,0c0,0,0,0,0,0c0,0,0.1,0,0,0c0.1,0,0.2,0.1,0.3,0
		c1.5,0.9,2.1,1.9,2.3,3.4c0,0,0,0,0,0C355.4,91.5,355,89.9,353.2,89z M354,274.4V95.6c0.3-0.1,0.7-0.3,1.1-0.6
		c0.2-0.2,0.4-0.4,0.5-0.5v181.2c-0.2-0.2-0.3-0.4-0.5-0.5C354.7,274.8,354.3,274.6,354,274.4z M353.2,281c1.9-0.9,2.3-2.5,2.5-3.4
		c0,0,0,0,0,0c-0.2,1.5-0.8,2.6-2.3,3.4c-0.1,0-0.2,0-0.3,0c0,0,0,0,0,0c0,0,0,0,0,0c0,0-0.1,0-0.1,0c0,0,0,0,0,0
		C353,281.1,353.1,281,353.2,281z M352.8,282.6c0,0.5,0,1,0.2,1.6c0.3,1.2,1.4,1.7,1.9,2.2c0.2,0.1,0.2,0.3,0.2,0.3s-0.1,0.1-0.4,0
		c-0.5-0.2-1.3-0.8-1.9-1.7c-0.4-0.5-0.5-1.3-0.5-2C352.5,282.7,352.6,282.6,352.8,282.6z M356.6,291.8c-0.5-1.3-1.8-1.9-1.8-1.9
		c1.5,0.2,2.3,1.4,2.6,2.3c0.3,1,1.3,1.8,1.3,1.8C357.8,293.7,357.1,293.1,356.6,291.8z"/>
	<path id="XMLID_97_" class="st0" d="M352.4,298.5l-0.2-0.5c-0.2,0.2-0.5,0.5-0.9,0.7c-2.2,1.3-4.2-0.6-5.2-1.7
		c-1-1.1-2.5-1.9-4.3-2c-1.2-0.1-2.4,0.1-3.3,0.5c0,0-0.1,0-0.1,0c0,0-0.1,0-0.1,0c-0.1,0-0.1-0.1-0.2-0.1c0,0,0,0,0,0
		c0,0,0-0.1,0-0.1c0.3-0.1,0.7-0.3,1.1-0.4c0.9-0.2,1.6-0.3,2.5-0.3c1.8,0,3.6,0.9,4.8,2.2c1.1,0.9,2,1.9,3.3,1.9
		c0.9,0,1.8-0.3,2.2-1.3l-0.3-0.8c-0.1,0.1-0.1,0.2-0.2,0.4c-0.4,0.6-1.3,0.5-1.9,0.2c0.4-0.6,0-1.3-0.2-1.5
		c-0.4-0.4-1.4-0.2-1.9,0.2c0.1-0.5-0.1-1.2-0.6-1.4c-0.5-0.3-1-0.4-2,0.3c0.2-0.3,0-0.8-0.5-1.1c-0.6-0.3-1.3-0.1-1.8,0.4
		c0.2-0.6-0.3-0.9-0.8-1c-0.6-0.1-0.9,0.3-1.2,0.7c0.2-0.5-0.4-0.7-0.9-0.6c-0.5,0.1-1.2,0.5-1.6,0.7c-0.5,0.3-0.9,0.6-1.1,1
		c0,0,0,0,0,0c0,0,0,0,0,0c0,0.1-0.1,0.2-0.1,0.3c-0.2,0.7-0.6,1.4-1.2,2.3c-0.9,1.1-2.1,1.4-3,0.9c-0.4-0.2-0.8-0.5-1-0.9h1.8
		c0.1,0,0.1,0,0.2-0.1c0.6-0.1,1.3-0.7,1.1-1.6c-0.2-1.1-1.9-2-3.1-1.1c-0.6,0.5-1,1.2-1,2.1H39.2c0-0.8-0.4-1.6-1-2.1
		c-1.2-0.9-2.9,0-3.1,1.1c-0.2,0.9,0.5,1.5,1.1,1.6c0.1,0,0.1,0.1,0.2,0.1h1.8c-0.2,0.4-0.6,0.7-1,0.9c-0.9,0.4-2.1,0.2-3-0.9
		c-0.7-0.8-1-1.6-1.2-2.3c0-0.1,0-0.2-0.1-0.3c0,0,0,0,0,0c0,0,0,0,0,0c-0.2-0.3-0.6-0.7-1.1-1c-0.4-0.2-1.1-0.6-1.6-0.7
		c-0.5-0.1-1.1,0.1-0.9,0.6c-0.2-0.4-0.6-0.7-1.2-0.7c-0.4,0-1,0.3-0.8,1c-0.5-0.5-1.2-0.8-1.8-0.4c-0.5,0.3-0.6,0.7-0.5,1.1
		c-1-0.6-1.6-0.5-2-0.3c-0.5,0.3-0.7,1-0.6,1.4c-0.4-0.4-1.4-0.6-1.9-0.2c-0.2,0.2-0.5,0.8-0.2,1.5c-0.6,0.3-1.5,0.4-1.9-0.2
		c-0.1-0.1-0.1-0.3-0.2-0.4l-0.3,0.8c0.5,1,1.3,1.3,2.2,1.3c1.3,0,2.2-1,3.3-1.9c1.2-1.3,3.1-2.3,4.8-2.2c0.8,0,1.6,0.1,2.5,0.3
		c0.4,0.1,0.8,0.3,1.1,0.4c0,0,0,0.1,0,0.1c0,0,0,0,0,0c-0.1,0-0.1,0.1-0.2,0.1c0,0-0.1,0-0.1,0c0,0-0.1,0-0.1,0
		c-0.9-0.4-2.1-0.5-3.3-0.5c-1.9,0.1-3.3,0.9-4.3,2c-1,1.1-3,3-5.2,1.7c-0.4-0.2-0.7-0.5-0.9-0.7l-0.2,0.5c-0.1,0.3-0.4,0.6-0.7,0.7
		l-0.5,0.2c0.2,0.2,0.4,0.3,0.7,0.3c0,0,0.1,1.2,1.4,1.1c0.3,0,0.6,0,0.4,0.3c-0.2,0.3-0.3,0.8-0.2,1.2c0.1,0.4,0.3,0.6,0.4,1.1
		c0,0.1,0.8,0.1,1.2-0.1c0.6-0.4,1-1,1.1-1.2c0.1-0.2,0.2-0.1,0.2,0.2c0,0.2,0.3,0.6,0.4,0.7c0,0.1,0.2,0,0.5-0.2
		c0.3-0.3,1.1-0.4,1.4-1.2c0.3-0.9,0.2-2.2,0.5-3.2c0.3-1,1.1-1.9,2-2.4c0.3-0.2,0.3,0,0,0.2c-0.3,0.2-1.1,0.9-1.5,1.6
		c-0.2,0.3-0.2,0.9,0.2,0.7c0.4-0.1,0.6,0,0.8,0c0.2,0,0.1,0,0,0.2c-0.1,0.2-0.1,0.5-0.1,1c0,0.5-0.1,1.2-0.4,1.4
		c-0.3,0.2-0.2,0.4,0.3,0.2c0.8-0.3,1.9-1.2,2.1-1.9c0.1-0.3,0.2-0.2,0.2,0c0,0.2,0,0.5,0.1,0.7c0.1,0.2,0.3,0.3,0.4,0
		c0.1-0.3,0.4-0.6,0.8-0.7c0.4-0.1,1.1-0.6,1.3-1.2c0.1-0.4,0.6-0.6,1-0.6c0.8,1,1.7,1.6,2.2,1.9c0.5,0.3,1.2,0.5,2,0.6
		c0.1,0,0.1,0.1,0.2,0.1H334c0.1,0,0.1,0,0.2-0.1c0.8,0,1.5-0.3,2-0.6c0.5-0.3,1.4-0.9,2.2-1.9c0.4,0,0.8,0.2,1,0.6
		c0.2,0.7,0.9,1.1,1.3,1.2c0.4,0.1,0.7,0.4,0.8,0.7c0.1,0.3,0.3,0.2,0.4,0c0.1-0.2,0.1-0.5,0.1-0.7c0-0.2,0.2-0.3,0.2,0
		c0.1,0.7,1.3,1.6,2.1,1.9c0.5,0.2,0.6,0,0.3-0.2c-0.3-0.2-0.4-0.9-0.4-1.4c0-0.5,0-0.8-0.1-1c-0.1-0.2-0.2-0.2,0-0.2
		c0.2,0,0.4-0.1,0.8,0c0.4,0.1,0.4-0.4,0.2-0.7c-0.4-0.7-1.2-1.4-1.5-1.6c-0.3-0.2-0.3-0.4,0-0.2c0.9,0.5,1.7,1.5,2,2.4
		c0.3,1,0.3,2.3,0.5,3.2c0.3,0.9,1.1,1,1.4,1.2c0.2,0.2,0.4,0.3,0.5,0.2c0-0.1,0.4-0.5,0.4-0.7c0-0.2,0-0.4,0.2-0.2
		c0.1,0.2,0.5,0.8,1.1,1.2c0.4,0.3,1.2,0.3,1.2,0.1c0.1-0.4,0.3-0.7,0.4-1.1c0.1-0.4,0-1-0.2-1.2c-0.2-0.3,0.1-0.3,0.4-0.3
		c1.3,0,1.4-1.1,1.4-1.1c0.3-0.1,0.5-0.2,0.7-0.3l-0.5-0.2C352.8,299.1,352.5,298.8,352.4,298.5z M21.3,300.9
		c-1,0.3-1.8,1.3-1.8,1.3c0.3-0.9,0.9-1.6,2.2-2.1c1.3-0.5,1.9-1.8,1.9-1.8C23.5,299.8,22.3,300.7,21.3,300.9z M29.4,296.5
		c-1.2,0.3-1.7,1.4-2.2,1.9c-0.1,0.2-0.3,0.2-0.3,0.2s-0.1-0.1,0-0.4c0.2-0.5,0.8-1.3,1.7-1.9c0.5-0.4,1.3-0.5,2-0.5
		c0.1,0.2,0.2,0.3,0.3,0.5C30.5,296.3,30,296.3,29.4,296.5z M35.9,299.2c-1.5-0.2-2.6-0.8-3.5-2.3c0,0,0,0,0,0c0.1,0,0.1,0,0.2,0
		C33.5,298.6,35,299,35.9,299.2C35.9,299.2,35.9,299.2,35.9,299.2z M331.8,295.8c0.2-0.4,0.6-0.8,1.1-0.8c0.5,0,0.8,0.4,0.8,0.4
		s-1-0.2-1.3,0.6c-0.1,0.2-0.1,0.5,0,0.7h-0.8C331.6,296.4,331.6,296.1,331.8,295.8z M37.6,296.7c0.1-0.2,0.1-0.4,0-0.7
		c-0.3-0.8-1.3-0.6-1.3-0.6s0.3-0.5,0.8-0.4c0.5,0,0.9,0.3,1.1,0.8c0.2,0.3,0.2,0.6,0.2,0.9H37.6z M37.9,299.1
		c0.2-0.2,0.4-0.4,0.6-0.6c0.3-0.4,0.5-0.7,0.6-1.1h291.9c0.1,0.4,0.3,0.7,0.6,1.1c0.2,0.2,0.4,0.4,0.6,0.6H37.9z M334.1,299.2
		C334.1,299.2,334.1,299.2,334.1,299.2c0.8-0.2,2.3-0.6,3.3-2.3c0.1,0,0.1,0,0.2,0c0,0,0,0,0,0C336.7,298.4,335.7,299,334.1,299.2z
		 M343,298.6c0,0-0.2,0-0.3-0.2c-0.4-0.5-0.9-1.6-2.2-1.9c-0.6-0.2-1.1-0.2-1.6-0.2c0.1-0.2,0.2-0.3,0.3-0.5c0.7,0,1.5,0.1,2,0.5
		c0.9,0.6,1.5,1.4,1.7,1.9C343.1,298.5,343,298.6,343,298.6z M348.7,300.9c-1-0.3-2.2-1.1-2.3-2.6c0,0,0.6,1.2,1.9,1.8
		c1.3,0.5,1.9,1.2,2.2,2.1C350.5,302.2,349.7,301.2,348.7,300.9z"/>
	<path id="XMLID_106_" class="st0" d="M355.7,297.3l-0.2-0.6c-0.1-0.2-0.3-0.4-0.5-0.5l-0.7-0.2l-0.8-0.3l-0.9-0.3l-0.4-0.1
		l-0.3-0.1c0,0-0.1,0-0.1,0c-0.1,0-0.2,0.1-0.1,0.3l0.1,0.4l0,0.1l0.4,1.2l0.2,0.6l0.2,0.7c0.1,0.2,0.3,0.4,0.5,0.5l0.6,0.2l2.4,0.8
		c0,0,0.1,0,0.1,0c0.1,0,0.2-0.1,0.1-0.3L355.7,297.3z"/>
</g>
</svg>
