<?xml version="1.0" encoding="utf-8"?>
<!-- Generator: Adobe Illustrator 19.0.0, SVG Export Plug-In . SVG Version: 6.00 Build 0)  -->
<svg version="1.1" id="图层_1" xmlns="http://www.w3.org/2000/svg" xmlns:xlink="http://www.w3.org/1999/xlink" x="0px" y="0px"
	 viewBox="127 -126.5 283.5 283.5" style="enable-background:new 127 -126.5 283.5 283.5;" xml:space="preserve">
<style type="text/css">
	.st0{fill:#5979B2;}
	.st1{opacity:0.3;}
	.st2{fill:#FFFFFF;}
	.st3{opacity:0.3;clip-path:url(#XMLID_12_);}
	.st4{fill:none;stroke:#FFFFFF;stroke-miterlimit:10;}
	.st5{font-family:'Jxixinkai';}
	.st6{font-size:19.3037px;}
	.st7{letter-spacing:3;}
	.st8{font-family:'STYuanti-SC-Regular';}
	.st9{font-size:14px;}
	.st10{font-size:24px;}
</style>
<g>
	<g id="XMLID_310_">
		<path class="st0" d="M396.3,157H141.2c-7.8,0-14.2-6.3-14.2-14.2v-255.1c0-7.8,6.3-14.2,14.2-14.2h255.1c7.8,0,14.2,6.3,14.2,14.2
			v255.1C410.5,150.6,404.1,157,396.3,157z"/>
	</g>
	<g id="XMLID_288_" class="st1">
		<path class="st2" d="M396.3,157H141.2c-7.8,0-14.2-6.3-14.2-14.2v-255.1c0-7.8,6.3-14.2,14.2-14.2h255.1c7.8,0,14.2,6.3,14.2,14.2
			v255.1C410.5,150.6,404.1,157,396.3,157z"/>
	</g>
	<g id="XMLID_93_">
		<path class="st0" d="M388.8,149.4H148.7c-7.8,0-14.1-6.3-14.1-14.1v-240.1c0-7.8,6.3-14.1,14.1-14.1h240.1
			c7.8,0,14.1,6.3,14.1,14.1v240.1C402.9,143.1,396.6,149.4,388.8,149.4z"/>
		<g>
			<path class="st2" d="M388.8-118.9h-8v1.5h8V-118.9L388.8-118.9L388.8-118.9z M372.8-118.9h-8v1.5h8V-118.9L372.8-118.9z
				 M356.8-118.9h-8v1.5h8V-118.9L356.8-118.9z M340.8-118.9h-8v1.5h8V-118.9L340.8-118.9z M324.8-118.9h-8v1.5h8V-118.9
				L324.8-118.9z M308.8-118.9h-8v1.5h8V-118.9L308.8-118.9z M292.8-118.9h-8v1.5h8V-118.9L292.8-118.9z M276.8-118.9h-8v1.5h8
				V-118.9L276.8-118.9z M260.8-118.9h-8v1.5h8V-118.9L260.8-118.9z M244.8-118.9h-8v1.5h8V-118.9L244.8-118.9z M228.8-118.9h-8v1.5
				h8V-118.9L228.8-118.9z M212.8-118.9h-8v1.5h8V-118.9L212.8-118.9z M196.8-118.9h-8v1.5h8V-118.9L196.8-118.9z M180.8-118.9h-8
				v1.5h8V-118.9L180.8-118.9z M164.8-118.9h-8v1.5h8V-118.9L164.8-118.9z M148.8-118.9L148.8-118.9
				C148.7-118.9,148.7-118.9,148.8-118.9C148.7-118.9,148.7-118.9,148.8-118.9C148.7-118.9,148.7-118.9,148.8-118.9
				C148.7-118.9,148.7-118.9,148.8-118.9c-0.1,0-0.1,0-0.1,0c0,0,0,0,0,0c0,0,0,0,0,0c0,0,0,0,0,0c0,0,0,0,0,0c0,0,0,0,0,0
				c0,0,0,0,0,0c0,0,0,0,0,0c0,0,0,0,0,0c0,0,0,0,0,0c0,0,0,0,0,0c0,0,0,0,0,0c0,0,0,0,0,0c0,0,0,0,0,0c0,0,0,0,0,0c0,0,0,0,0,0
				c0,0,0,0,0,0c0,0,0,0,0,0c0,0,0,0,0,0c0,0,0,0,0,0c0,0,0,0,0,0c0,0,0,0,0,0c0,0,0,0,0,0c0,0,0,0,0,0c0,0,0,0,0,0c0,0,0,0,0,0
				c0,0,0,0,0,0c0,0,0,0,0,0c0,0,0,0,0,0c0,0,0,0,0,0c0,0,0,0,0,0c0,0,0,0,0,0c0,0,0,0,0,0c0,0,0,0,0,0c0,0,0,0,0,0c0,0,0,0,0,0
				c0,0,0,0,0,0c0,0,0,0,0,0c0,0,0,0,0,0c0,0,0,0,0,0c0,0,0,0,0,0c0,0,0,0,0,0c0,0,0,0,0,0c0,0,0,0,0,0c0,0,0,0,0,0c0,0,0,0,0,0
				c0,0,0,0,0,0c0,0,0,0,0,0c0,0,0,0,0,0c0,0,0,0,0,0c0,0,0,0,0,0c0,0,0,0,0,0c0,0,0,0,0,0c0,0,0,0,0,0c0,0,0,0,0,0c0,0,0,0,0,0
				c0,0,0,0,0,0c0,0,0,0,0,0c0,0,0,0,0,0c0,0,0,0,0,0c0,0,0,0,0,0c0,0,0,0,0,0c0,0,0,0,0,0c0,0,0,0,0,0c0,0,0,0,0,0c0,0,0,0,0,0
				c0,0,0,0,0,0c0,0,0,0,0,0c0,0,0,0,0,0c0,0,0,0,0,0c0,0,0,0,0,0c0,0,0,0,0,0c0,0,0,0,0,0c0,0,0,0,0,0c0,0,0,0,0,0c0,0,0,0,0,0
				c0,0,0,0,0,0c0,0,0,0,0,0c0,0,0,0,0,0c0,0,0,0,0,0c0,0,0,0,0,0c0,0,0,0,0,0c0,0,0,0,0,0c0,0,0,0,0,0c0,0,0,0,0,0c0,0,0,0,0,0
				c0,0,0,0,0,0c0,0,0,0,0,0c0,0,0,0,0,0c0,0,0,0,0,0c0,0,0,0,0,0c0,0,0,0,0,0c0,0,0,0,0,0c0,0,0,0,0,0c0,0,0,0,0,0c0,0,0,0,0,0
				c0,0,0,0,0,0c0,0,0,0,0,0c0,0,0,0,0,0c0,0,0,0,0,0c0,0,0,0,0,0c0,0,0,0,0,0c0,0,0,0,0,0c0,0,0,0,0,0c0,0,0,0,0,0c0,0,0,0,0,0
				c0,0,0,0,0,0c0,0,0,0,0,0c0,0,0,0,0,0c0,0,0,0,0,0c0,0,0,0,0,0c0,0,0,0,0,0c0,0,0,0,0,0c0,0,0,0,0,0c0,0,0,0,0,0c0,0,0,0,0,0
				c0,0,0,0,0,0c0,0,0,0,0,0c0,0,0,0,0,0c0,0,0,0,0,0c0,0,0,0,0,0c0,0,0,0,0,0c0,0,0,0,0,0c0,0,0,0,0,0c0,0,0,0,0,0c0,0,0,0,0,0
				c0,0,0,0,0,0c0,0,0,0,0,0c0,0,0,0,0,0c0,0,0,0,0,0c0,0,0,0,0,0c0,0,0,0,0,0c0,0,0,0,0,0c0,0,0,0,0,0c0,0,0,0,0,0c0,0,0,0,0,0
				c0,0,0,0,0,0c0,0,0,0,0,0c0,0,0,0,0,0c0,0,0,0,0,0c0,0,0,0,0,0c0,0,0,0,0,0c0,0,0,0,0,0c0,0,0,0,0,0c0,0,0,0,0,0c0,0,0,0,0,0
				c0,0,0,0,0,0c0,0,0,0,0,0c0,0,0,0,0,0c0,0,0,0,0,0c0,0,0,0,0,0c0,0,0,0,0,0c0,0,0,0,0,0c0,0,0,0,0,0c0,0,0,0,0,0c0,0,0,0,0,0
				c0,0,0,0,0,0c0,0,0,0,0,0c0,0,0,0,0,0c0,0,0,0,0,0c0,0,0,0,0,0c0,0,0,0,0,0c0,0,0,0,0,0c0,0,0,0,0,0c0,0,0,0,0,0c0,0,0,0,0,0
				c0,0,0,0,0,0c0,0,0,0,0,0c0,0,0,0,0,0c0,0,0,0,0,0c0,0,0,0,0,0c0,0,0,0,0,0c0,0,0,0,0,0c0,0,0,0,0,0c0,0,0,0,0,0h0c0,0,0,0,0,0
				c0,0,0,0,0,0c0,0,0,0,0,0c0,0,0,0,0,0c0,0,0,0,0,0c0,0,0,0,0,0c0,0,0,0,0,0c0,0,0,0,0,0c0,0,0,0,0,0c0,0,0,0,0,0c0,0,0,0,0,0
				c0,0,0,0,0,0c0,0,0,0,0,0c0,0,0,0,0,0c0,0,0,0,0,0c0,0,0,0,0,0c0,0,0,0,0,0c0,0,0,0,0,0c0,0,0,0,0,0c0,0,0,0,0,0c0,0,0,0,0,0
				c0,0,0,0,0,0c0,0,0,0,0,0c0,0,0,0,0,0c0,0,0,0,0,0c0,0,0,0,0,0c0,0,0,0,0,0c0,0,0,0,0,0c0,0,0,0,0,0c0,0,0,0,0,0c0,0,0,0,0,0
				c0,0,0,0,0,0c0,0,0,0,0,0c0,0,0,0,0,0c0,0,0,0,0,0c0,0,0,0,0,0c0,0,0,0,0,0c0,0,0,0,0,0c0,0,0,0,0,0c0,0,0,0,0,0c0,0,0,0,0,0
				c0,0,0,0,0,0c0,0,0,0,0,0h0c0,0,0,0,0,0l0,0c0,0,0,0,0,0l0,0c-1.5,0.3-2.9,0.9-4.2,1.7c0,0,0,0,0,0c0,0,0,0-0.1,0c0,0,0,0,0,0
				c0,0,0,0,0,0c0,0,0,0,0,0c0,0,0,0,0,0c0,0,0,0,0,0c0,0,0,0,0,0c0,0,0,0,0,0c0,0,0,0,0,0c0,0,0,0,0,0c0,0,0,0,0,0c0,0,0,0,0,0
				c0,0,0,0,0,0c0,0,0,0,0,0c0,0,0,0,0,0c0,0,0,0,0,0c0,0,0,0,0,0c0,0,0,0,0,0c0,0,0,0,0,0c0,0,0,0,0,0c0,0,0,0,0,0c0,0,0,0,0,0
				c0,0,0,0,0,0l0.8,1.3c2-1.3,4.3-1.9,6.7-1.9h0.1V-118.9L148.8-118.9z M136-110.8L136-110.8C135.9-110.8,135.9-110.8,136-110.8
				C135.9-110.7,135.9-110.7,136-110.8C135.9-110.7,135.9-110.7,136-110.8C135.9-110.7,135.9-110.7,136-110.8c0,0.1-0.1,0.1-0.1,0.1
				c0,0,0,0,0,0c0,0,0,0,0,0c0,0,0,0,0,0c0,0,0,0,0,0c0,0,0,0,0,0c0,0,0,0,0,0c0,0,0,0,0,0c0,0,0,0,0,0c0,0,0,0,0,0c0,0,0,0,0,0
				c0,0,0,0,0,0c0,0,0,0,0,0c0,0,0,0,0,0c0,0,0,0,0,0c0,0,0,0,0,0c0,0,0,0,0,0c0,0,0,0,0,0c0,0,0,0,0,0c0,0,0,0,0,0c0,0,0,0,0,0
				c0,0,0,0,0,0c0,0,0,0,0,0c0,0,0,0,0,0c0,0,0,0,0,0c0,0,0,0,0,0c0,0,0,0,0,0c0,0,0,0,0,0c0,0,0,0,0,0c0,0,0,0,0,0c0,0,0,0,0,0
				c0,0,0,0,0,0c0,0,0,0,0,0c0,0,0,0,0,0c0,0,0,0,0,0c0,0,0,0,0,0c0,0,0,0,0,0c0,0,0,0,0,0c0,0,0,0,0,0c0,0,0,0,0,0c0,0,0,0,0,0
				c0,0,0,0,0,0c0,0,0,0,0,0c0,0,0,0,0,0c0,0,0,0,0,0c0,0,0,0,0,0c0,0,0,0,0,0c0,0,0,0,0,0c0,0,0,0,0,0c0,0,0,0,0,0c0,0,0,0,0,0
				c0,0,0,0,0,0c0,0,0,0,0,0c0,0,0,0.1,0,0.1c0,0,0,0,0,0c0,0,0,0.1,0,0.1c0,0,0,0,0,0c-0.4,1.1-0.7,2.2-0.9,3.4c0,0,0,0,0,0
				c0,0.1,0,0.1,0,0.2c0,0,0,0,0,0c0,0,0,0,0,0c0,0,0,0,0,0c0,0,0,0,0,0.1c0,0,0,0,0,0c0,0,0,0,0,0c0,0,0,0,0,0c0,0,0,0,0,0
				c0,0,0,0,0,0c0,0,0,0.1,0,0.1c0,0,0,0,0,0c0,0,0,0,0,0c0,0,0,0,0,0c0,0,0,0,0,0c0,0,0,0,0,0c0,0,0,0,0,0c0,0,0,0,0,0c0,0,0,0,0,0
				c0,0,0,0,0,0c0,0,0,0,0,0c0,0,0,0,0,0c0,0,0,0.1,0,0.1c0,0,0,0,0,0c0,0,0,0,0,0c0,0,0,0,0,0c0,0,0,0,0,0c0,0,0,0,0,0
				c0,0,0,0,0,0.1c0,0,0,0,0,0c0,0,0,0,0,0c0,0,0,0,0,0c0,0,0,0,0,0c0,0,0,0,0,0c0,0,0,0,0,0l0,0c0,0,0,0,0,0c0,0,0,0,0,0
				c0,0,0,0,0,0c0,0,0,0,0,0c0,0,0,0,0,0c0,0,0,0,0,0c0,0,0,0,0,0c0,0,0,0,0,0c0,0,0,0,0,0c0,0,0,0,0,0c0,0,0,0,0,0c0,0,0,0,0,0
				c0,0,0,0,0,0c0,0,0,0,0,0c0,0,0,0,0,0c0,0,0,0,0,0c0,0,0,0,0,0c0,0,0,0,0,0c0,0,0,0,0,0c0,0,0,0,0,0c0,0,0,0,0,0c0,0,0,0,0,0
				c0,0,0,0,0,0c0,0,0,0,0,0c0,0,0,0,0,0v0c0,0,0,0,0,0c0,0,0,0,0,0c0,0,0,0,0,0c0,0,0,0,0,0c0,0,0,0,0,0c0,0,0,0,0,0c0,0,0,0,0,0
				c0,0,0,0,0,0c0,0,0,0,0,0c0,0,0,0,0,0c0,0,0,0,0,0c0,0,0,0,0,0c0,0,0,0,0,0c0,0,0,0,0,0c0,0,0,0,0,0c0,0,0,0,0,0c0,0,0,0,0,0
				c0,0,0,0,0,0c0,0,0,0,0,0c0,0,0,0,0,0c0,0,0,0,0,0c0,0,0,0,0,0c0,0,0,0,0,0c0,0,0,0,0,0c0,0,0,0,0,0c0,0,0,0,0,0c0,0,0,0,0,0
				c0,0,0,0,0,0c0,0,0,0,0,0c0,0,0,0,0,0c0,0,0,0,0,0c0,0,0,0,0,0c0,0,0,0,0,0c0,0,0,0,0,0c0,0,0,0,0,0c0,0,0,0,0,0c0,0,0,0,0,0
				c0,0,0,0,0,0c0,0,0,0,0,0c0,0,0,0,0,0c0,0,0,0,0,0c0,0,0,0,0,0c0,0,0,0,0,0c0,0,0,0,0,0c0,0,0,0,0,0c0,0,0,0,0,0c0,0,0,0,0,0
				c0,0,0,0,0,0c0,0,0,0,0,0v1.8h1.5v-1.8c0-1.9,0.4-3.7,1.2-5.4L136-110.8L136-110.8z M136.1-95h-1.5v8h1.5V-95L136.1-95z
				 M136.1-79h-1.5v8h1.5V-79L136.1-79z M136.1-63h-1.5v8h1.5V-63L136.1-63z M136.1-47h-1.5v8h1.5V-47L136.1-47z M136.1-31h-1.5v8
				h1.5V-31L136.1-31z M136.1-15h-1.5v8h1.5V-15L136.1-15z M136.1,1h-1.5v8h1.5V1L136.1,1z M136.1,17h-1.5v8h1.5V17L136.1,17z
				 M136.1,33h-1.5v8h1.5V33L136.1,33z M136.1,49h-1.5v8h1.5V49L136.1,49z M136.1,65h-1.5v8h1.5V65L136.1,65z M136.1,81h-1.5v8h1.5
				V81L136.1,81z M136.1,97h-1.5v8h1.5V97L136.1,97z M136.1,113h-1.5v8h1.5V113L136.1,113z M136.1,129h-1.5v6.3l0,0c0,0,0,0,0,0
				c0,0,0,0,0,0c0,0,0,0,0,0c0,0,0,0,0,0c0,0,0,0,0,0c0,0,0,0,0,0c0,0,0,0,0,0c0,0,0,0,0,0c0,0,0,0,0,0c0,0,0,0,0,0c0,0,0,0,0,0
				c0,0,0,0,0,0c0,0,0,0,0,0c0,0,0,0,0,0c0,0,0,0,0,0c0,0,0,0,0,0c0,0,0,0,0,0c0,0,0,0,0,0c0,0,0,0,0,0c0,0,0,0,0,0c0,0,0,0,0,0
				c0,0,0,0,0,0c0,0,0,0,0,0c0,0,0,0,0,0c0,0,0,0,0,0c0,0,0,0,0,0c0,0,0,0,0,0c0,0,0,0,0,0c0,0,0,0,0,0c0,0,0,0,0,0c0,0,0,0,0,0
				c0,0,0,0,0,0c0,0,0,0,0,0c0,0,0,0,0,0c0,0,0,0,0,0c0,0,0,0,0,0c0,0.2,0,0.5,0,0.7c0,0,0,0,0,0c0,0,0,0,0,0c0,0,0,0,0,0
				c0,0,0,0,0,0c0,0,0,0,0,0c0,0,0,0,0,0c0,0,0,0,0,0c0,0,0,0,0,0c0,0,0,0,0,0c0,0,0,0,0,0c0,0,0,0,0,0c0,0,0,0,0,0c0,0,0,0,0,0
				c0,0,0,0,0,0c0,0,0,0,0,0c0,0,0,0,0,0c0,0,0,0,0,0c0,0,0,0,0,0c0,0,0,0,0,0c0,0,0,0,0,0c0,0,0,0,0,0c0,0,0,0,0,0c0,0,0,0,0,0
				c0,0,0,0,0,0c0,0,0,0,0,0c0,0,0,0,0,0c0,0,0,0,0,0c0,0,0,0,0,0c0,0,0,0,0,0c0,0,0,0,0,0c0,0,0,0,0,0c0,0,0,0,0,0c0,0,0,0,0,0
				c0,0,0,0,0,0c0,0,0,0,0,0l0,0c0,0,0,0.1,0,0.1l1.5-0.2c-0.1-0.5-0.1-1-0.1-1.5V129L136.1,129z M139,143.3l-1.2,1
				c0.2,0.2,0.3,0.4,0.5,0.6c0,0,0,0,0,0c0,0,0,0,0,0c0,0,0,0,0,0c0,0,0,0,0,0c0,0,0,0,0,0c0,0,0,0,0,0c0,0,0,0,0,0c0,0,0,0,0,0
				c0,0,0,0,0,0c0,0,0,0,0,0c0,0,0,0,0,0c0,0,0,0,0,0c0,0,0,0,0,0c0,0,0,0,0,0c0,0,0,0,0,0c0,0,0,0,0,0c0,0,0,0,0,0c0,0,0,0,0,0
				c0,0,0,0,0,0c0,0,0,0,0,0c0,0,0,0,0,0c0,0,0,0,0,0c0,0,0,0,0,0c0,0,0,0,0,0c0,0,0,0,0,0c0,0,0,0,0,0c0,0,0,0,0,0c0,0,0,0,0,0
				c0,0,0,0,0,0c0,0,0,0,0,0c0,0,0,0,0,0c0,0,0,0,0,0c0,0,0,0,0,0c0,0,0,0,0,0c0,0,0,0,0,0c0,0,0,0,0,0c0,0,0,0,0,0c0,0,0,0,0,0
				c0,0,0,0,0,0c0,0,0,0,0,0c0,0,0,0,0,0c0,0,0,0,0,0c0,0,0,0,0,0c0,0,0,0,0,0c0,0,0,0,0,0c0,0,0,0,0,0c0,0,0,0,0,0c0,0,0,0,0,0
				c0,0,0,0,0,0c0,0,0,0,0,0c0,0,0,0,0,0c0,0,0,0,0,0c0,0,0,0,0,0c0,0,0,0,0,0c0,0,0,0,0,0c0,0,0,0,0,0c0,0,0,0,0,0c0,0,0,0,0,0
				c0,0,0,0,0,0c0,0,0,0,0,0c0,0,0,0,0,0c0,0,0,0,0,0c0,0,0,0,0,0c0,0,0,0,0,0c0,0,0,0,0,0c0,0,0,0,0,0c0,0,0,0,0,0c0,0,0,0,0,0
				c0,0,0,0,0,0c0,0,0,0,0,0c1.5,1.4,3.3,2.5,5.3,3.2l0.5-1.4C142.5,146.5,140.5,145.2,139,143.3L139,143.3z M160.3,147.9h-8v1.5h8
				V147.9L160.3,147.9z M176.3,147.9h-8v1.5h8V147.9L176.3,147.9z M192.3,147.9h-8v1.5h8V147.9L192.3,147.9z M208.3,147.9h-8v1.5h8
				V147.9L208.3,147.9z M224.3,147.9h-8v1.5h8V147.9L224.3,147.9z M240.3,147.9h-8v1.5h8V147.9L240.3,147.9z M256.3,147.9h-8v1.5h8
				V147.9L256.3,147.9z M272.3,147.9h-8v1.5h8V147.9L272.3,147.9z M288.3,147.9h-8v1.5h8V147.9L288.3,147.9z M304.3,147.9h-8v1.5h8
				V147.9L304.3,147.9z M320.3,147.9h-8v1.5h8V147.9L320.3,147.9z M336.3,147.9h-8v1.5h8V147.9L336.3,147.9z M352.3,147.9h-8v1.5h8
				V147.9L352.3,147.9z M368.3,147.9h-8v1.5h8V147.9L368.3,147.9z M384.3,147.9h-8v1.5h8V147.9L384.3,147.9z M397.9,143.9
				c-1.7,1.8-3.8,3-6.1,3.6l0.4,1.5c0.9-0.2,1.8-0.6,2.7-1l0,0c0,0,0,0,0.1,0c0,0,0,0,0,0c0,0,0,0,0,0c0,0,0,0,0,0c0,0,0,0,0,0
				c0,0,0,0,0,0c0,0,0,0,0,0c0,0,0,0,0,0c0,0,0,0,0,0c0,0,0,0,0,0c0,0,0,0,0,0c0,0,0,0,0,0c0,0,0,0,0,0c0,0,0,0,0,0c0,0,0,0,0,0
				c0,0,0,0,0,0c0,0,0,0,0,0c0,0,0,0,0,0c0,0,0,0,0,0c0,0,0,0,0,0c0,0,0,0,0,0c0,0,0,0,0,0c0,0,0,0,0,0c0,0,0,0,0,0c0,0,0,0,0,0
				c0,0,0,0,0,0c0,0,0,0,0,0c0,0,0,0,0,0c0,0,0,0,0,0c0,0,0,0,0,0c0,0,0,0,0,0c0,0,0,0,0,0c0,0,0,0,0,0c0,0,0,0,0,0c0,0,0,0,0,0
				c0,0,0,0,0,0c0,0,0,0,0,0c0,0,0,0,0,0c0,0,0,0,0,0c0,0,0,0,0,0c0,0,0,0,0,0c0,0,0,0,0,0c0,0,0,0,0,0c0,0,0,0,0,0c0,0,0,0,0,0
				c0,0,0,0,0,0c0,0,0,0,0,0c0,0,0,0,0,0c0,0,0,0,0,0c0,0,0,0,0,0c0,0,0,0,0,0c0,0,0,0,0,0c0,0,0,0,0,0c0,0,0,0,0,0c0,0,0,0,0,0
				c0,0,0,0,0,0c0,0,0,0,0,0c0,0,0,0,0,0c0,0,0,0,0,0c0,0,0,0,0,0c0,0,0,0,0,0c0,0,0,0,0,0c0,0,0,0,0,0c0,0,0,0,0,0c0,0,0,0,0,0
				c0,0,0,0,0,0c0,0,0,0,0,0c0,0,0,0,0,0c0,0,0,0,0,0c0,0,0,0,0,0c0,0,0,0,0,0c0,0,0,0,0,0c0,0,0,0,0,0c0,0,0,0,0,0c0,0,0,0,0,0
				c0,0,0,0,0,0c0,0,0,0,0,0c0,0,0,0,0,0c0,0,0,0,0,0c0,0,0,0,0,0c0,0,0,0,0,0c0,0,0,0,0,0c0,0,0,0,0,0c0,0,0,0,0,0c0,0,0,0,0,0
				c0,0,0,0,0,0c0,0,0,0,0,0c0,0,0,0,0,0c0,0,0,0,0,0c0,0,0,0,0,0c0,0,0,0,0,0c0,0,0,0,0,0c0,0,0,0,0,0c0,0,0,0,0,0c0,0,0,0,0,0
				c0,0,0,0,0,0c0,0,0,0,0,0c0,0,0,0,0,0c0,0,0,0,0,0c0,0,0,0,0,0c0,0,0,0,0,0c0,0,0,0,0,0c0,0,0,0,0,0c0,0,0,0,0,0c0,0,0,0,0,0
				c0,0,0,0,0,0c0,0,0,0,0,0c0,0,0,0,0,0c0,0,0,0,0,0c0,0,0,0,0,0c0,0,0,0,0,0c0,0,0,0,0,0c0,0,0,0,0,0c0,0,0,0,0,0c0,0,0,0,0,0
				c0,0,0,0,0,0c0,0,0,0,0,0c0,0,0,0,0,0c0,0,0,0,0,0c0,0,0,0,0,0c0,0,0,0,0,0c0,0,0,0,0,0c0,0,0,0,0,0c0,0,0,0,0,0c0,0,0,0,0,0
				c0,0,0,0,0,0c0,0,0,0,0,0c0,0,0,0,0,0c0,0,0,0,0,0c0,0,0,0,0,0c0,0,0,0,0,0c0,0,0,0,0,0c0,0,0,0,0,0c0,0,0,0,0,0c0,0,0,0,0,0
				c0,0,0,0,0,0c0,0,0,0,0,0c0,0,0,0,0,0c0,0,0,0,0,0c0,0,0,0,0,0c0,0,0,0,0,0c0,0,0,0,0,0c0,0,0,0,0,0c0,0,0,0,0,0c0,0,0,0,0,0
				c0,0,0,0,0,0c0,0,0,0,0,0c0,0,0,0,0,0c0,0,0,0,0,0c0,0,0,0,0,0c0,0,0,0,0,0c0,0,0,0,0,0c0,0,0,0,0,0c0,0,0,0,0,0c0,0,0,0,0,0
				c0,0,0,0,0,0c0,0,0,0,0,0c0,0,0,0,0,0c0,0,0,0,0,0c0,0,0,0,0,0c0,0,0,0,0,0c0,0,0,0,0,0c0,0,0,0,0,0c0,0,0,0,0,0c0,0,0,0,0,0
				c0,0,0,0,0,0c0,0,0,0,0,0c0,0,0,0,0,0c0,0,0,0,0,0c0,0,0,0,0,0c0,0,0,0,0,0c0,0,0,0,0,0c0,0,0,0,0,0c0,0,0,0,0,0c0,0,0,0,0,0
				c0,0,0,0,0,0c0,0,0,0,0,0c0,0,0,0,0,0c0,0,0,0,0,0c0,0,0,0,0,0c0,0,0,0,0,0c0,0,0,0,0,0c0,0,0,0,0,0c0,0,0,0,0,0c0,0,0,0,0,0
				c0,0,0,0,0,0c0,0,0,0,0,0c0,0,0,0,0,0c0,0,0,0,0,0c0,0,0,0,0,0c0,0,0,0,0,0c0,0,0,0,0,0c0,0,0,0,0,0c0,0,0,0,0,0c0,0,0,0,0,0
				c0,0,0,0,0,0c0,0,0,0,0,0c0,0,0,0,0,0c0,0,0,0,0,0c0,0,0,0,0,0c0,0,0,0,0,0c0,0,0,0,0,0c0,0,0,0,0,0c0,0,0,0,0,0c0,0,0,0,0,0
				c0,0,0,0,0,0c0,0,0,0,0,0c0,0,0,0,0,0c0,0,0,0,0,0c0,0,0,0,0,0c0,0,0,0,0,0c0,0,0,0,0,0c0,0,0,0,0,0c0,0,0,0,0,0c0,0,0,0,0,0
				c0,0,0,0,0,0c0,0,0,0,0,0c0,0,0,0,0,0c0,0,0,0,0,0c0,0,0,0,0,0c0,0,0,0,0,0c0,0,0,0,0,0c0,0,0,0,0,0c0,0,0,0,0,0c0,0,0,0,0,0
				c0,0,0,0,0,0c0,0,0,0,0,0c0,0,0,0,0,0c0,0,0,0,0,0c0,0,0,0,0,0c0,0,0,0,0,0c0,0,0,0,0,0c0,0,0,0,0,0c0,0,0,0,0,0c0,0,0,0,0,0
				c0,0,0,0,0,0c0,0,0,0,0,0c0,0,0,0,0,0c0,0,0,0,0,0c0,0,0,0,0,0c0,0,0,0,0,0c0,0,0,0,0,0c0,0,0,0,0,0c0,0,0,0,0,0c0,0,0,0,0,0
				c0,0,0,0,0,0c0,0,0,0,0,0c0,0,0,0,0,0c0,0,0,0,0,0c0,0,0,0,0,0c0,0,0,0,0,0c0,0,0,0,0,0c0,0,0,0,0,0c0,0,0,0,0,0c0,0,0,0,0,0
				c0,0,0,0,0,0c0,0,0,0,0,0c0,0,0,0,0,0c0,0,0,0,0,0c0,0,0,0,0,0c0,0,0,0,0,0c0,0,0,0,0,0c0,0,0,0,0,0c0,0,0,0,0,0c0,0,0,0,0,0
				c0,0,0,0,0,0c0,0,0,0,0,0c0,0,0,0,0,0c0,0,0,0,0,0c0,0,0,0,0,0c0,0,0,0,0,0c0,0,0,0,0,0c0,0,0,0,0,0c0,0,0,0,0,0c0,0,0,0,0,0
				c0,0,0,0,0,0c0,0,0,0,0,0c0,0,0,0,0,0c0,0,0,0,0,0c0,0,0,0,0,0c0,0,0,0,0,0c0,0,0,0,0,0c0,0,0,0,0,0c0,0,0,0,0,0c0,0,0,0,0,0
				c0,0,0,0,0,0c0,0,0,0,0,0c0,0,0,0,0,0c0,0,0,0,0,0c0,0,0,0,0,0c0,0,0,0,0,0c0,0,0,0,0,0c0,0,0,0,0,0c0,0,0,0,0,0c0,0,0,0,0,0
				c0,0,0,0,0,0c0,0,0,0,0,0c0,0,0,0,0,0c0,0,0,0,0,0c0,0,0,0,0,0c0,0,0,0,0,0c0,0,0,0,0,0c0,0,0,0,0,0c0,0,0,0,0,0c0,0,0,0,0,0
				c0,0,0,0,0,0c0,0,0,0,0,0c0,0,0,0,0,0c0,0,0,0,0,0c0,0,0,0,0,0l0,0c0,0,0,0,0,0c0,0,0,0,0,0c0,0,0,0,0,0c0,0,0,0,0,0c0,0,0,0,0,0
				c0,0,0,0,0,0c0,0,0,0,0,0c0,0,0,0,0,0c0,0,0,0,0,0c0,0,0,0,0,0c0,0,0,0,0,0c0,0,0,0,0,0c0,0,0,0,0,0c0,0,0,0,0,0c0,0,0,0,0,0
				c0,0,0,0,0,0c0,0,0,0,0,0c0,0,0,0,0,0c0,0,0,0,0,0c0,0,0,0,0,0c0,0,0,0,0,0c0,0,0,0,0,0c0,0,0,0,0,0c0,0,0,0,0,0c0,0,0,0,0,0
				c0,0,0,0,0,0c0,0,0,0,0,0c0,0,0,0,0,0c0,0,0,0,0,0c0,0,0,0,0,0c0,0,0,0,0,0c0,0,0,0,0,0c0,0,0,0,0,0c0,0,0,0,0,0c0,0,0,0,0,0
				c0,0,0,0,0,0c0,0,0,0,0,0c0,0,0,0,0,0c0,0,0,0,0,0c0,0,0,0,0,0c0,0,0,0,0,0c0,0,0,0,0,0c0,0,0,0,0,0c0,0,0,0,0,0c0,0,0,0,0,0
				c0,0,0,0,0,0c0,0,0,0,0,0c0,0,0,0,0,0c0,0,0,0,0,0c0,0,0,0,0,0c0,0,0,0,0,0c0,0,0,0,0,0c0,0,0,0,0,0c0,0,0,0,0,0c0,0,0,0,0,0
				c0,0,0,0,0,0c0,0,0,0,0,0c0,0,0,0,0,0c0,0,0,0,0,0c0,0,0,0,0,0c0,0,0,0,0,0c0,0,0,0,0,0c0,0,0,0,0,0c0,0,0,0,0,0c0,0,0,0,0,0
				c0,0,0,0,0,0c0,0,0,0,0,0c0,0,0,0,0,0c0,0,0,0,0,0c0,0,0,0,0,0c0,0,0,0,0,0c0,0,0,0,0,0c0,0,0,0,0,0c0,0,0,0,0,0c0,0,0,0,0,0
				c0,0,0,0,0,0c0,0,0,0,0,0c0,0,0,0,0,0c0,0,0,0,0,0c0,0,0,0,0,0c0,0,0,0,0,0c0,0,0,0,0,0c0,0,0,0,0,0c0,0,0,0,0,0c0,0,0,0,0,0
				c0,0,0,0,0,0c0,0,0,0,0,0c0,0,0,0,0,0c0,0,0,0,0,0c0,0,0,0,0,0c0,0,0,0,0,0c0,0,0,0,0,0l0,0c0,0,0,0,0,0c0,0,0,0,0,0c0,0,0,0,0,0
				c0,0,0,0,0,0c0,0,0,0,0,0c0,0,0,0,0,0c0,0,0,0,0,0c0,0,0,0,0,0c0,0,0,0,0,0c0,0,0,0,0,0c0,0,0,0,0,0c0,0,0,0,0,0L397.9,143.9
				L397.9,143.9z M402.9,130h-1.5v5.3c0,0.8-0.1,1.6-0.2,2.4l1.5,0.3c0-0.1,0.1-0.3,0.1-0.4l0,0c0,0,0,0,0,0v0c0,0,0-0.1,0-0.1
				c0,0,0,0,0,0c0,0,0,0,0,0c0,0,0,0,0,0c0,0,0,0,0,0c0,0,0,0,0,0c0,0,0,0,0,0c0,0,0,0,0,0c0,0,0,0,0,0c0,0,0,0,0,0c0,0,0,0,0,0
				c0,0,0,0,0,0c0,0,0,0,0,0c0,0,0,0,0,0c0,0,0,0,0,0c0,0,0,0,0,0c0,0,0,0,0,0c0,0,0,0,0,0c0,0,0,0,0,0c0,0,0,0,0,0c0,0,0,0,0,0
				c0,0,0,0,0,0c0,0,0,0,0,0c0,0,0,0,0,0c0,0,0,0,0,0c0,0,0-0.1,0-0.1c0,0,0,0,0,0c0,0,0,0,0,0c0,0,0,0,0,0c0,0,0,0,0,0c0,0,0,0,0,0
				c0,0,0,0,0,0c0,0,0,0,0,0c0,0,0,0,0,0c0,0,0,0,0,0c0,0,0,0,0,0c0,0,0,0,0,0c0,0,0,0,0,0c0,0,0,0,0,0c0,0,0,0,0,0c0,0,0,0,0,0
				c0,0,0,0,0,0c0,0,0,0,0,0c0-0.1,0-0.2,0-0.2c0,0,0,0,0,0c0,0,0,0,0,0c0,0,0,0,0,0c0,0,0,0,0,0c0,0,0,0,0,0c0,0,0,0,0,0
				c0,0,0,0,0,0c0,0,0,0,0,0c0,0,0,0,0,0c0-0.1,0-0.1,0-0.2c0,0,0,0,0,0c0,0,0,0,0,0c0,0,0,0,0,0c0,0,0,0,0,0c0,0,0,0,0,0
				c0,0,0,0,0,0c0,0,0,0,0,0c0,0,0,0,0,0c0,0,0,0,0,0c0,0,0,0,0,0c0,0,0,0,0,0c0,0,0,0,0,0c0,0,0,0,0,0c0,0,0,0,0,0c0,0,0,0,0,0
				c0,0,0,0,0,0c0,0,0,0,0,0c0,0,0,0,0,0c0,0,0,0,0,0c0,0,0-0.1,0-0.1c0,0,0,0,0,0c0,0,0,0,0,0c0,0,0,0,0,0c0,0,0,0,0,0c0,0,0,0,0,0
				c0,0,0,0,0,0c0,0,0,0,0,0c0,0,0,0,0,0c0,0,0,0,0,0c0,0,0,0,0,0c0,0,0,0,0,0c0,0,0,0,0,0c0,0,0,0,0,0c0,0,0,0,0,0c0,0,0,0,0,0
				c0,0,0,0,0,0c0,0,0,0,0,0c0,0,0,0,0,0c0,0,0,0,0,0c0,0,0,0,0,0c0,0,0,0,0,0c0,0,0,0,0,0c0,0,0,0,0,0c0,0,0,0,0,0c0,0,0,0,0,0
				c0,0,0,0,0,0c0,0,0,0,0,0c0,0,0,0,0,0c0,0,0,0,0,0c0,0,0,0,0,0c0,0,0,0,0,0c0,0,0,0,0,0c0,0,0,0,0,0c0,0,0,0,0,0c0,0,0,0,0,0
				c0,0,0,0,0,0c0,0,0,0,0,0c0,0,0,0,0,0c0,0,0,0,0,0c0,0,0,0,0,0c0,0,0,0,0,0c0,0,0,0,0,0c0,0,0,0,0,0c0,0,0,0,0,0c0,0,0,0,0,0
				c0,0,0,0,0,0c0,0,0,0,0,0c0,0,0,0,0,0c0,0,0,0,0,0c0,0,0,0,0,0c0,0,0,0,0,0c0,0,0,0,0,0c0,0,0,0,0,0c0,0,0,0,0,0c0,0,0,0,0,0
				c0,0,0,0,0,0c0,0,0,0,0,0c0,0,0,0,0,0l0,0V130L402.9,130z M402.9,114h-1.5v8h1.5V114L402.9,114z M402.9,98h-1.5v8h1.5V98
				L402.9,98z M402.9,82h-1.5v8h1.5V82L402.9,82z M402.9,66h-1.5v8h1.5V66L402.9,66z M402.9,50h-1.5v8h1.5V50L402.9,50z M402.9,34
				h-1.5v8h1.5V34L402.9,34z M402.9,18h-1.5v8h1.5V18L402.9,18z M402.9,2h-1.5v8h1.5V2L402.9,2z M402.9-14h-1.5v8h1.5V-14L402.9-14z
				 M402.9-30h-1.5v8h1.5V-30L402.9-30z M402.9-46h-1.5v8h1.5V-46L402.9-46z M402.9-62h-1.5v8h1.5V-62L402.9-62z M402.9-78h-1.5v8
				h1.5V-78L402.9-78z M402.9-94h-1.5v8h1.5V-94L402.9-94z M401.9-109.9l-1.4,0.5c0.6,1.5,0.9,3,0.9,4.6v2.8h1.5v-2.8c0,0,0,0,0,0
				c0,0,0,0,0,0c0,0,0,0,0,0c0,0,0,0,0,0c0,0,0,0,0,0c0,0,0,0,0,0c0,0,0,0,0,0c0,0,0,0,0,0c0,0,0,0,0,0c0,0,0,0,0,0c0,0,0,0,0,0
				c0,0,0,0,0,0c0,0,0,0,0,0c0,0,0,0,0,0c0,0,0,0,0,0c0,0,0,0,0,0c0,0,0,0,0,0c0,0,0,0,0,0c0,0,0,0,0,0c0,0,0,0,0,0c0,0,0,0,0,0
				c0,0,0,0,0,0c0,0,0,0,0,0c0,0,0,0,0,0c0,0,0,0,0,0c0,0,0,0,0,0c0,0,0,0,0,0c0,0,0,0,0,0c0,0,0,0,0,0c0,0,0,0,0,0c0,0,0,0,0,0
				c0,0,0,0,0,0c0,0,0,0,0,0c0,0,0,0,0,0c0,0,0,0,0,0c0,0,0,0,0,0c0,0,0,0,0,0c0,0,0,0,0,0c0,0,0,0,0,0c0,0,0,0,0,0c0,0,0,0,0,0
				c0,0,0,0,0,0c0,0,0,0,0,0c0,0,0,0,0,0c0,0,0,0,0,0c0,0,0,0,0,0c0,0,0,0,0,0c0,0,0,0,0,0c0,0,0,0,0,0c0,0,0,0,0,0c0,0,0,0,0,0
				c0,0,0,0,0,0c0,0,0,0,0,0c0,0,0,0,0,0c0,0,0,0,0,0c0,0,0,0,0,0c0,0,0,0,0,0c0,0,0,0,0,0c0,0,0,0,0,0c0,0,0,0,0,0c0,0,0,0,0,0
				c0,0,0,0,0,0c0,0,0,0,0,0c0,0,0,0,0,0c0,0,0,0,0,0c0,0,0,0,0,0c0,0,0,0,0,0c0,0,0,0,0,0c0,0,0,0,0,0c0,0,0,0,0,0c0,0,0,0,0,0
				c0,0,0,0,0,0c0,0,0,0,0,0c0,0,0,0,0-0.1c0,0,0,0,0,0c0,0,0,0,0,0c0,0,0,0,0,0c0,0,0,0,0,0c0,0,0,0,0,0c0,0,0,0,0,0c0,0,0,0,0,0
				c0,0,0,0,0,0c0,0,0,0,0,0c0,0,0,0,0,0c0,0,0,0,0,0c0,0,0,0,0,0c0,0,0,0,0,0c0,0,0,0,0,0c0,0,0,0,0,0c0,0,0,0,0,0c0,0,0,0,0,0
				c0,0,0,0,0,0c0,0,0,0,0,0c0,0,0,0,0,0l0,0c0,0,0-0.1,0-0.1c0,0,0,0,0,0c0,0,0,0,0,0c0,0,0,0,0,0c0,0,0,0,0,0c0,0,0,0,0,0
				c0,0,0,0,0,0c0,0,0,0,0,0c0,0,0,0,0,0c0,0,0,0,0,0c0,0,0,0,0,0c0,0,0,0,0,0c0,0,0,0,0,0c0,0,0,0,0,0c0,0,0,0,0,0c0,0,0,0,0,0
				c0,0,0,0,0,0c0,0,0,0,0,0c0,0,0,0,0,0v0c0,0,0-0.1,0-0.1c0,0,0,0,0,0c0,0,0,0,0,0c0,0,0,0,0,0c0,0,0,0,0,0c0,0,0,0,0,0
				c0,0,0,0,0,0c0,0,0,0,0,0c0,0,0,0,0,0c0,0,0,0,0,0c0,0,0,0,0,0c0,0,0,0,0,0c0,0,0,0,0,0v0C402.7-107.7,402.4-108.8,401.9-109.9
				L401.9-109.9z M389.7-118.9l-0.1,1.5c2.4,0.2,4.7,1,6.6,2.4l0.9-1.2c0,0,0,0,0,0c0,0,0,0,0,0c0,0,0,0,0,0c0,0,0,0,0,0
				c0,0,0,0,0,0c0,0,0,0,0,0c0,0,0,0,0,0c0,0,0,0,0,0c0,0,0,0,0,0c0,0,0,0,0,0c0,0,0,0,0,0c0,0,0,0,0,0c0,0,0,0,0,0c0,0,0,0,0,0
				c0,0,0,0,0,0c0,0,0,0,0,0c0,0,0,0,0,0c0,0,0,0,0,0c0,0,0,0,0,0c0,0,0,0,0,0c0,0,0,0,0,0c0,0,0,0,0,0c0,0,0,0,0,0c0,0,0,0,0,0
				c0,0,0,0,0,0c0,0,0,0,0,0c0,0,0,0,0,0c0,0,0,0,0,0c0,0,0,0,0,0c0,0,0,0,0,0c0,0,0,0,0,0c0,0,0,0,0,0c0,0,0,0,0,0c0,0,0,0,0,0
				c0,0,0,0,0,0c0,0,0,0,0,0c0,0,0,0,0,0c0,0,0,0,0,0c0,0,0,0,0,0c0,0,0,0,0,0l0,0c0,0,0,0,0,0c0,0,0,0,0,0c0,0,0,0,0,0c0,0,0,0,0,0
				c0,0,0,0,0,0c0,0,0,0,0,0c0,0,0,0,0,0c0,0,0,0,0,0c0,0,0,0,0,0l0,0c0,0,0,0,0,0c0,0,0,0,0,0c0,0,0,0,0,0c0,0,0,0,0,0
				c0,0,0,0-0.1,0c0,0,0,0,0,0c-1.2-0.8-2.6-1.4-4-1.8l0,0c0,0,0,0-0.1,0c0,0,0,0,0,0c0,0,0,0,0,0l0,0c0,0,0,0,0,0l0,0c0,0,0,0,0,0
				c0,0,0,0,0,0c0,0,0,0,0,0c0,0,0,0,0,0c0,0,0,0,0,0c0,0,0,0,0,0c0,0,0,0,0,0c0,0,0,0,0,0c0,0,0,0,0,0c0,0,0,0,0,0c0,0,0,0,0,0
				c0,0,0,0,0,0c0,0,0,0,0,0c0,0,0,0,0,0c0,0,0,0,0,0c0,0,0,0,0,0c0,0,0,0,0,0c0,0,0,0,0,0c0,0,0,0,0,0c0,0,0,0,0,0c0,0,0,0,0,0
				c0,0,0,0,0,0c0,0,0,0,0,0c0,0,0,0,0,0c0,0,0,0,0,0c0,0,0,0,0,0c0,0,0,0,0,0c0,0,0,0,0,0c0,0,0,0,0,0c0,0,0,0,0,0c0,0,0,0,0,0
				c0,0,0,0,0,0c0,0,0,0,0,0c0,0,0,0,0,0c0,0,0,0,0,0c0,0,0,0,0,0c0,0,0,0,0,0c0,0,0,0,0,0c0,0,0,0,0,0c0,0,0,0,0,0c0,0,0,0,0,0
				c0,0,0,0,0,0c0,0,0,0,0,0c0,0,0,0,0,0c0,0,0,0,0,0c0,0,0,0,0,0c0,0,0,0,0,0c0,0,0,0,0,0c0,0,0,0,0,0c0,0,0,0,0,0c0,0,0,0,0,0
				c0,0,0,0,0,0c0,0,0,0,0,0c0,0,0,0,0,0c0,0,0,0,0,0c0,0,0,0,0,0c0,0,0,0,0,0c0,0,0,0,0,0c0,0,0,0,0,0c0,0,0,0,0,0c0,0,0,0,0,0
				c0,0,0,0,0,0c0,0,0,0,0,0c0,0,0,0,0,0c0,0,0,0,0,0c0,0,0,0,0,0c0,0,0,0,0,0c0,0,0,0,0,0c0,0,0,0,0,0c0,0,0,0,0,0c0,0,0,0,0,0
				c0,0,0,0,0,0c0,0,0,0,0,0c0,0,0,0,0,0c0,0,0,0,0,0c0,0,0,0,0,0c0,0,0,0,0,0c0,0,0,0,0,0c0,0,0,0,0,0c0,0,0,0,0,0c0,0,0,0,0,0
				c0,0,0,0,0,0l0,0c0,0,0,0,0,0c0,0,0,0,0,0c0,0,0,0,0,0l0,0c0,0,0,0,0,0l0,0C390.8-118.8,390.2-118.8,389.7-118.9L389.7-118.9z"/>
		</g>
	</g>
	<g id="XMLID_130_">
		<defs>
			<path id="XMLID_98_" d="M388.8,149.4H148.7c-7.8,0-14.1-6.3-14.1-14.1v-240.1c0-7.8,6.3-14.1,14.1-14.1h240.1
				c7.8,0,14.1,6.3,14.1,14.1v240.1C402.9,143.1,396.6,149.4,388.8,149.4z"/>
		</defs>
		<clipPath id="XMLID_12_">
			<use xlink:href="#XMLID_98_"  style="overflow:visible;"/>
		</clipPath>
		<g id="XMLID_178_" class="st3">
			<path id="XMLID_10_" class="st4" d="M-60.7,218.7c43.3-38.2,101.3-64.3,171.3-57.9c30.9,2.8,8.7-1.3,92.1,21.7
				c55.6,15.3,94.2-21.1,190.4-80.1c22.3-13.7,42.3-26.4,72.6-30.6c33.9-4.7,63.2,3.7,82.3,11.4"/>
			<path class="st4" d="M-59.5,221.3c42.2-38.8,100.5-67.2,170.6-62.1c7.8,0.6,12.3,0.8,16,1.1c10.9,0.9,15.3,2.8,77.1,19.7
				c57.1,15.6,95.4-18.8,189.7-74.8c10.7-6.4,21-12.4,32.1-17.5c11.9-5.5,24.8-9.8,40.3-12c33.6-4.8,62.5,2.9,81.4,9.5"/>
			<path class="st4" d="M-58.4,223.9c41.1-39.5,99.8-70.4,170-66.3c7.7,0.4,12.3,0.6,16.1,0.8c11.2,0.7,16.6,2.4,77.9,19.1
				c58.7,16,96.6-16.6,189.1-69.5c10.7-6.1,21-11.8,32.1-16.8c11.9-5.3,24.8-9.6,40.1-11.8c33.2-4.8,61.8,2,80.4,7.5"/>
			<path class="st4" d="M-57.3,226.5c40.1-40.2,99.1-73.4,169.4-70.5c7.7,0.3,12.3,0.4,16.3,0.5c11.5,0.6,17.9,2,78.7,18.6
				c60.2,16.3,97.8-14.3,188.4-64.2c10.6-5.8,20.9-11.2,32.1-16c11.9-5.1,24.7-9.3,39.9-11.6c32.8-4.9,61.1,1.1,79.5,5.6"/>
			<path class="st4" d="M-56.2,229.1c39-40.9,98.3-76.4,168.7-74.7c7.6,0.2,12.4,0.2,16.5,0.3c11.8,0.3,19.2,1.6,79.5,18
				c61.8,16.7,99-12,187.7-58.9c10.5-5.6,20.9-10.7,32-15.3c11.9-5,24.7-9,39.7-11.3c32.4-5,60.5,0.3,78.5,3.6"/>
			<path class="st4" d="M-55.1,231.7c37.9-41.5,97.6-79.5,168.1-78.9c7.6,0.1,12.4-0.1,16.6,0c12.1,0.1,20.6,1.2,80.3,17.4
				c63.3,17,100.3-9.7,187-53.7c10.5-5.3,20.8-10.1,32-14.5c11.9-4.8,24.7-8.7,39.5-11.1c32.1-5.1,59.8-0.6,77.5,1.7"/>
			<path class="st4" d="M-54,234.4c36.8-42.2,96.8-82.5,167.5-83.1c7.5-0.1,12.5-0.3,16.8-0.3c12.4,0,21.9,0.8,81.1,16.8
				c64.9,17.4,101.6-7.3,186.3-48.4c10.4-5.1,20.8-9.5,32-13.8c11.9-4.6,24.7-8.5,39.3-10.9c31.7-5.1,59.1-1.5,76.6-0.3"/>
			<path class="st4" d="M-52.8,237c35.8-42.9,96.1-85.5,166.8-87.3c7.5-0.2,12.5-0.5,16.9-0.5c12.7-0.2,23.2,0.4,81.9,16.2
				c66.4,17.7,103-4.9,185.7-43.1c10.4-4.8,20.8-8.9,31.9-13c12-4.4,24.6-8.2,39.1-10.6c31.3-5.2,58.4-2.3,75.6-2.2"/>
			<path class="st4" d="M-51.7,239.6C-17,196,43.6,151.1,114.5,148c7.4-0.3,12.6-0.7,17.1-0.8c12.9-0.4,24.5,0,82.7,15.6
				c67.9,18.1,104.3-2.5,185-37.8c10.3-4.5,20.7-8.3,31.9-12.3c12-4.3,24.6-7.9,38.9-10.4c30.9-5.3,57.7-3.2,74.6-4.2"/>
			<path class="st4" d="M-50.6,242.2c33.6-44.2,94.6-91.5,165.6-95.7c7.4-0.4,12.6-0.9,17.3-1.1c13.2-0.6,25.9-0.4,83.5,15
				c69.5,18.4,105.8-0.1,184.3-32.5c10.3-4.3,20.7-7.7,31.9-11.5c12-4.1,24.6-7.6,38.7-10.1c30.6-5.4,57-4.1,73.7-6.1"/>
			<path class="st4" d="M-49.5,244.8c32.5-44.9,93.8-94.4,164.9-99.9c7.3-0.6,12.6-1.1,17.4-1.4c13.5-0.8,27.2-0.8,84.3,14.5
				c71,18.8,107.2,2.4,183.6-27.2c10.3-4,20.7-7.2,31.8-10.8c12-3.9,24.5-7.4,38.5-9.9c30.2-5.5,56.3-5,72.7-8.1"/>
			<path class="st4" d="M-48.4,247.4c31.5-45.6,93-97.4,164.3-104.1c7.3-0.7,12.7-1.3,17.6-1.6c13.8-1,28.5-1.2,85.1,13.9
				c72.6,19.1,108.7,5,182.9-22c10.2-3.7,20.6-6.6,31.8-10c12-3.7,24.5-7.1,38.3-9.7c29.8-5.5,55.6-5.8,71.8-10"/>
			<path class="st4" d="M-47.3,250c30.4-46.3,92.3-100.3,163.7-108.3c7.3-0.8,12.7-1.5,17.7-1.9c14.1-1.2,29.8-1.6,85.9,13.3
				c74.1,19.5,110.2,7.6,182.3-16.7c10.2-3.4,20.6-6,31.8-9.3c12-3.5,24.5-6.8,38.2-9.4c29.4-5.6,55-6.7,70.8-12"/>
			<path class="st4" d="M-46.1,252.6c29.3-46.9,91.5-103.3,163-112.6c7.2-0.9,12.8-1.7,17.9-2.2c14.4-1.4,31.2-2,86.7,12.7
				c75.7,19.8,111.7,10.2,181.6-11.4c10.2-3.1,20.5-5.4,31.7-8.6c12-3.4,24.5-6.6,38-9.2c29.1-5.7,54.3-7.6,69.8-13.9"/>
			<path class="st4" d="M-45,255.2c28.2-47.6,90.8-106.2,162.4-116.8c7.2-1.1,12.8-1.9,18.1-2.5c14.7-1.6,32.5-2.4,87.5,12.1
				c77.2,20.1,113.3,12.9,180.9-6.1c10.1-2.9,20.5-4.8,31.7-7.8c12-3.2,24.4-6.3,37.8-9c28.7-5.8,53.6-8.4,68.9-15.9"/>
			<path class="st4" d="M-43.9,257.8c27.2-48.3,90-109.2,161.8-121c7.1-1.2,12.8-2.1,18.2-2.7c15-1.7,33.8-2.9,88.3,11.5
				c78.8,20.5,114.9,15.7,180.2-0.8c10.1-2.6,20.5-4.2,31.7-7.1c12-3,24.4-6,37.6-8.7c28.3-5.9,52.9-9.3,67.9-17.8"/>
			<path class="st4" d="M-42.8,260.4c26.1-49,89.3-112.1,161.1-125.2c7.1-1.3,12.9-2.3,18.4-3c15.3-1.9,35.1-3.3,89.1,11
				c80.3,20.8,116.5,18.5,179.5,4.5c10.1-2.2,20.4-3.7,31.7-6.3c12-2.8,24.4-5.7,37.4-8.5c28-5.9,52.2-10.2,66.9-19.8"/>
			<path class="st4" d="M-41.7,263c25-49.6,88.5-115,160.5-129.4c7-1.4,12.9-2.5,18.5-3.3c15.6-2.1,36.4-3.7,89.9,10.4
				c81.8,21.2,118.1,21.4,178.9,9.8c10.1-1.9,20.4-3.1,31.6-5.6c12-2.6,24.4-5.5,37.2-8.3c27.6-6,51.5-11,66-21.7"/>
			<path class="st4" d="M-40.6,265.6c23.9-50.3,87.8-117.9,159.9-133.6c7-1.5,13-2.7,18.7-3.5c15.9-2.3,37.8-4.1,90.7,9.8
				c83.4,21.5,119.8,24.3,178.2,15c10.1-1.6,20.4-2.5,31.6-4.8c12-2.5,24.3-5.2,37-8c27.2-6.1,50.8-11.9,65-23.7"/>
			<path class="st4" d="M-39.5,268.2c22.9-51,87-120.8,159.2-137.8c6.9-1.6,13-2.9,18.9-3.8c16.2-2.5,39.1-4.5,91.5,9.2
				c84.9,21.9,121.4,27.4,177.5,20.3c10.1-1.3,20.3-1.9,31.6-4.1c12-2.3,24.3-4.9,36.8-7.8c26.8-6.2,50.1-12.8,64-25.6"/>
			<path class="st4" d="M-38.3,270.8c21.8-51.7,86.3-123.6,158.6-142c6.9-1.7,13.1-3.1,19-4.1c16.5-2.6,40.4-4.9,92.3,8.6
				c86.5,22.2,123.1,30.5,176.8,25.6c10.1-0.9,20.3-1.3,31.5-3.3c12-2.1,24.3-4.6,36.6-7.6c26.5-6.3,49.5-13.7,63.1-27.6"/>
			<path class="st4" d="M-37.2,273.4c20.7-52.3,85.6-126.5,158-146.2c6.8-1.9,13.1-3.3,19.2-4.4c16.8-2.8,41.7-5.3,93.1,8
				c88,22.6,124.8,27.4,176.1,30.9c10.1,0.7,20.2-0.7,31.5-2.6c12.1-1.9,24.2-4.4,36.4-7.3c26.1-6.3,48.8-14.5,62.1-29.5"/>
			<path class="st4" d="M-36.1,276c19.6-53,84.9-129.4,157.3-150.4c6.8-2,13.1-3.5,19.4-4.6c17.1-3,43.1-5.7,93.9,7.4
				C324,151.3,361,160,409.9,164.5c10,0.9,20.2-0.2,31.5-1.8c12.1-1.8,24.2-4.1,36.2-7.1c25.7-6.4,48.1-15.4,61.2-31.5"/>
			<path class="st4" d="M-35,278.6c18.6-53.7,84.1-132.2,156.7-154.6c6.8-2.1,13.2-3.7,19.5-4.9c17.4-3.2,44.4-6.1,94.7,6.9
				c91.1,23.3,128.2,36.1,174.8,41.5c10,1.1,20.2,0.4,31.4-1.1c12.1-1.6,24.2-3.8,36-6.9c25.3-6.5,47.4-16.3,60.2-33.4"/>
			<path class="st4" d="M-33.9,281.2c17.5-54.4,83.4-135,156.1-158.8c6.7-2.2,13.2-3.9,19.7-5.2c17.7-3.4,45.7-6.5,95.5,6.3
				c92.7,23.6,129.5,43.6,174.1,46.7c10,0.7,20.1,1,31.4-0.3c12.1-1.4,24.2-3.5,35.8-6.6c25-6.6,46.7-17.1,59.2-35.4"/>
			<path class="st4" d="M-32.8,283.8c16.4-55,82.8-137.7,155.4-163c6.7-2.3,13.3-4.1,19.8-5.5c18-3.6,47-6.9,96.3,5.7
				c94.2,24,130.9,47,173.4,52c10,1.2,20.1,1.6,31.4,0.4c12.1-1.2,24.1-3.3,35.6-6.4c24.6-6.6,46-18,58.3-37.3"/>
			<path id="XMLID_9_" class="st4" d="M-31.6,286.4c16.7-60.8,94.6-156.4,174.8-173c18.2-3.8,48.4-7.3,97.1,5.1
				C359.4,148.8,386.9,182,444.3,177c37.9-3.3,75.2-15.5,92.7-45.4"/>
		</g>
		<g id="XMLID_209_" class="st3">
			<path id="XMLID_8_" class="st4" d="M-208.7-137.5c53,31.9,122.1,55.8,195.7,33.9c46.4-13.8,25.4-9.2,112.9-39.5
				c33.4-11.6,90.4,13.4,204.3,58.7c26.5,10.5,50.2,20.3,83.9,20.3c37.7,0,68.4-12.4,88.2-22.6"/>
			<path class="st4" d="M-207.1-140.1c52.2,32.4,120.9,58.3,194.6,37.5c9-2.5,15.5-4.4,20.8-6.1c21.7-6.7,22.7-8.7,92.7-32.9
				c35.3-12.3,91.4,11.7,203.4,55.1c12.1,4.7,23.7,9.2,36,12.7c14.3,4.2,29.5,6.9,47.6,7c37.3,0.1,67.8-11.7,87.8-21.2"/>
			<path class="st4" d="M-205.5-142.6c51.4,33,119.7,60.9,193.4,41.2c9-2.4,15.5-4.2,20.9-5.8c21.6-6.4,23.7-8.6,93.1-32.7
				c37.2-13,92.4,10,202.5,51.4c12,4.5,23.6,8.8,35.9,12.2c14.2,4,29.4,6.7,47.4,6.9c36.8,0.2,67.2-11,87.4-19.9"/>
			<path class="st4" d="M-203.8-145.2c50.7,33.6,118.5,63.4,192.3,44.8c8.9-2.2,15.6-3.9,21-5.5c21.6-6.1,24.7-8.5,93.6-32.5
				c39.1-13.7,93.3,8.2,201.6,47.8c11.9,4.4,23.5,8.4,35.8,11.8c14.1,3.9,29.2,6.6,47.2,6.8c36.3,0.4,66.6-10.4,87-18.5"/>
			<path class="st4" d="M-202.2-147.8C-152.3-113.6-84.9-81.9-11-99.3c8.9-2.1,15.6-3.7,21.1-5.2c21.6-5.8,25.6-8.4,94-32.3
				c40.9-14.4,94.3,6.4,200.6,44.2c11.9,4.2,23.4,8,35.7,11.3c14,3.7,29.1,6.4,47.1,6.7c35.9,0.5,65.9-9.7,86.6-17.1"/>
			<path class="st4" d="M-200.5-150.4c49.1,34.7,116,68.4,190,52.1c8.9-2,15.6-3.4,21.3-4.9c21.6-5.6,26.7-8.2,94.5-32
				c42.8-15.1,95.3,4.7,199.7,40.5c11.8,4.1,23.3,7.6,35.6,10.8c13.9,3.6,29,6.2,46.9,6.6c35.4,0.6,65.3-9.1,86.2-15.8"/>
			<path class="st4" d="M-198.9-152.9C-150.6-117.6-84.1-82-10-97.2c8.9-1.8,15.6-3.2,21.4-4.6c21.6-5.3,27.7-8.1,95-31.8
				c44.7-15.8,96.4,2.9,198.8,36.9c11.7,3.9,23.2,7.3,35.5,10.3c13.8,3.4,28.8,6,46.7,6.4c34.9,0.8,64.7-8.4,85.8-14.4"/>
			<path class="st4" d="M-197.2-155.5C-149.7-119.6-83.7-82-9.5-96.1c8.8-1.7,15.7-3,21.5-4.3c21.5-5,28.7-8,95.4-31.6
				c46.6-16.5,97.4,1,197.9,33.3c11.6,3.7,23.1,6.9,35.4,9.8c13.7,3.3,28.7,5.9,46.5,6.3c34.5,0.9,64.1-7.7,85.5-13.1"/>
			<path class="st4" d="M-195.6-158.1c46.8,36.4,112.3,76,186.5,63c8.8-1.5,15.7-2.7,21.6-4c21.5-4.7,29.7-7.9,95.9-31.3
				c48.5-17.2,98.4-0.8,196.9,29.6c11.6,3.6,23,6.5,35.3,9.3c13.6,3.2,28.6,5.7,46.3,6.2c34,1,63.4-7.1,85.1-11.7"/>
			<path class="st4" d="M-194-160.7c46,37,111.1,78.5,185.4,66.7c8.8-1.4,15.7-2.5,21.7-3.7c21.5-4.5,30.6-7.9,96.3-31.1
				c50.4-17.9,99.5-2.6,196,26c11.5,3.4,22.9,6.1,35.2,8.9c13.6,3,28.4,5.5,46.1,6.1c33.5,1.1,62.8-6.4,84.7-10.3"/>
			<path class="st4" d="M-192.3-163.2c45.2,37.6,109.9,81,184.3,70.3c8.7-1.3,15.7-2.2,21.8-3.4c21.4-4.2,31.6-7.8,96.8-30.9
				c52.3-18.6,100.6-4.5,195.1,22.3c11.4,3.2,22.9,5.8,35.1,8.4c13.5,2.9,28.3,5.3,45.9,6c33.1,1.3,62.2-5.8,84.3-9"/>
			<path class="st4" d="M-190.7-165.8C-146.3-127.6-82-82.3-7.6-91.9c8.7-1.1,15.7-2,22-3.2c21.4-4,32.6-7.7,97.2-30.7
				c54.2-19.3,101.6-6.4,194.2,18.7c11.4,3.1,22.8,5.4,35,7.9c13.4,2.7,28.1,5.1,45.7,5.9c32.6,1.4,61.5-5.1,83.9-7.6"/>
			<path class="st4" d="M-189-168.4c43.6,38.7,107.4,85.9,182,77.6c8.7-1,15.8-1.8,22.1-2.9c21.4-3.7,33.6-7.6,97.7-30.4
				c56.1-20,102.7-8.3,193.2,15.1c11.3,2.9,22.7,5,34.9,7.4c13.3,2.6,28,4.9,45.5,5.7c32.1,1.5,60.9-4.4,83.5-6.3"/>
			<path class="st4" d="M-187.4-171c42.8,39.3,106.2,88.4,180.8,81.2c8.7-0.8,15.8-1.5,22.2-2.6c21.3-3.5,34.6-7.5,98.1-30.2
				c57.9-20.7,103.8-10.2,192.3,11.4c11.2,2.7,22.6,4.6,34.8,6.9c13.2,2.5,27.9,4.7,45.3,5.6c31.7,1.6,60.3-3.8,83.1-4.9"/>
			<path class="st4" d="M-185.7-173.5c42.1,39.9,104.9,90.9,179.7,84.9c8.6-0.7,15.8-1.3,22.3-2.3c21.3-3.3,35.6-7.5,98.6-30
				c59.8-21.4,104.9-12.2,191.4,7.8c11.2,2.6,22.5,4.3,34.7,6.5c13.1,2.3,27.7,4.6,45.1,5.5c31.2,1.7,59.7-3.1,82.7-3.5"/>
			<path class="st4" d="M-184.1-176.1c41.3,40.4,103.7,93.4,178.5,88.5c8.6-0.6,15.8-1.1,22.4-2c21.3-3,36.6-7.4,99-29.7
				c61.7-22.1,106.1-14.2,190.5,4.2c11.1,2.4,22.4,3.9,34.7,6c13,2.2,27.6,4.4,44.9,5.4c30.7,1.8,59-2.5,82.3-2.2"/>
			<path class="st4" d="M-182.5-178.7C-142-137.7-80-82.8-5.1-86.5c8.6-0.4,15.9-0.8,22.5-1.7c21.2-2.8,37.6-7.3,99.5-29.5
				c63.6-22.8,107.2-16.2,189.5,0.5c11,2.2,22.3,3.5,34.6,5.5c12.9,2.1,27.5,4.2,44.8,5.3c30.2,1.9,58.4-1.8,81.9-0.8"/>
			<path class="st4" d="M-180.8-181.2c39.7,41.6,101.2,98.3,176.2,95.8C3.9-85.7,11.3-86,18-86.9c21.2-2.6,38.5-7.2,99.9-29.3
				c65.5-23.5,108.4-18.2,188.6-3.1c11,2.1,22.2,3.2,34.5,5c12.8,1.9,27.3,4,44.6,5.2c29.8,2,57.8-1.2,81.6,0.6"/>
			<path class="st4" d="M-179.2-183.8c38.9,42.2,100,100.8,175.1,99.4c8.5-0.2,15.9-0.4,22.8-1.1c21.1-2.3,39.5-7.2,100.4-29.1
				c67.4-24.2,109.5-20.2,187.7-6.8c10.9,1.9,22.1,2.8,34.4,4.5c12.7,1.8,27.2,3.8,44.4,5c29.3,2.1,57.2-0.5,81.2,1.9"/>
			<path class="st4" d="M-177.5-186.4C-139.4-143.7-78.8-81.5-3.6-83.3c8.5-0.2,15.9-0.1,22.9-0.8c21.1-2.1,40.5-7.1,100.8-28.8
				c69.2-24.9,110.7-22.3,186.8-10.4c10.9,1.7,22,2.4,34.3,4.1c12.6,1.7,27.1,3.6,44.2,4.9c28.8,2.2,56.5,0.2,80.8,3.3"/>
			<path class="st4" d="M-175.9-189C-138.5-145.7-78.4-83.3-3.1-82.3c8.5,0.1,15.9,0.1,23-0.5c21.1-1.9,41.5-7,101.3-28.6
				c71.1-25.6,111.9-24.4,185.8-14c10.8,1.5,21.9,2,34.2,3.6c12.5,1.6,26.9,3.4,44,4.8c28.4,2.3,55.9,0.8,80.4,4.6"/>
			<path class="st4" d="M-174.2-191.5C-137.7-147.7-78-83.4-2.6-81.2c8.4,0.3,16,0.3,23.1-0.2c21-1.7,42.5-7,101.7-28.4
				c73-26.4,113-26.6,184.9-17.7c10.7,1.3,21.8,1.7,34.1,3.1c12.4,1.4,26.8,3.2,43.8,4.7c27.9,2.4,55.3,1.5,80,6"/>
			<path class="st4" d="M-172.6-194.1c35.8,44.4,95,110.5,170.5,114c8.4,0.4,16,0.6,23.2,0c21-1.5,43.5-6.9,102.2-28.1
				c74.9-27.1,114.2-28.7,184-21.3c10.7,1.1,21.7,1.3,34,2.6c12.3,1.3,26.6,3,43.6,4.6c27.4,2.5,54.7,2.1,79.6,7.4"/>
			<path class="st4" d="M-171-196.7c35,45,93.7,113,169.3,117.6c8.4,0.5,16,0.8,23.3,0.3c20.9-1.3,44.4-6.8,102.6-27.9
				c76.8-27.8,115.4-30.9,183.1-24.9c10.6,0.9,21.6,0.9,33.9,2.1c12.2,1.2,26.5,2.8,43.4,4.5c27,2.6,54,2.8,79.2,8.7"/>
			<path class="st4" d="M-169.3-199.3C-135.1-153.7-76.8-83.9-1.1-78c8.3,0.6,16,1,23.4,0.6c20.9-1.1,45.4-6.8,103.1-27.7
				c78.7-28.5,116.6-33.2,182.1-28.6c10.6,0.7,21.5,0.6,33.8,1.7c12.1,1.1,26.4,2.6,43.2,4.3c26.5,2.7,53.4,3.5,78.8,10.1"/>
			<path class="st4" d="M-167.7-201.8C-134.2-155.7-76.4-84-0.6-76.9c8.3,0.8,16,1.2,23.6,0.9c20.9-0.9,46.4-6.7,103.5-27.5
				c80.5-29.2,117.9-27.5,181.2-32.2c10.5-0.8,21.4,0.2,33.7,1.2c12,0.9,26.2,2.4,43,4.2c26,2.8,52.8,4.1,78.4,11.4"/>
			<path class="st4" d="M-166-204.4C-133.4-157.7-76-84.2-0.1-75.9c8.3,0.9,16.1,1.4,23.7,1.2c20.8-0.7,47.4-6.6,104-27.2
				c82.4-30,119.3-30.2,180.3-35.9c10.4-1,21.3-0.1,33.6,0.7c11.9,0.8,26.1,2.2,42.8,4.1c25.6,2.9,52.1,4.8,78,12.8"/>
			<path class="st4" d="M-164.4-207C-132.5-159.7-75.6-84.4,0.4-74.8c8.3,1,16.1,1.7,23.8,1.5c20.8-0.5,48.4-6.6,104.4-27
				c84.3-30.7,120.6-33,179.4-39.5c10.4-1.1,21.2-0.5,33.5,0.2c11.8,0.7,26,2,42.7,4c25.1,3,51.5,5.4,77.7,14.2"/>
			<path class="st4" d="M-162.7-209.5c31.1,47.9,87.6,125,163.6,135.8c8.2,1.2,16.1,2.1,23.9,1.8c20.7-0.9,49.3-6.6,104.9-26.8
				c86.1-31.6,121.9-35.9,178.4-43.1c10.3-1.3,21.1-0.9,33.4-0.3c11.8,0.6,25.8,1.8,42.5,3.9c24.6,3.1,50.9,6.1,77.3,15.5"/>
			<path class="st4" d="M-161.1-212.1C-130.8-163.7-74.8-84.7,1.3-72.7c8.2,1.3,16.1,2.3,24,2.1c20.7-0.7,50.3-6.5,105.4-26.5
				c88-32.3,123.2-38.9,177.5-46.8c10.2-1.5,21-1.2,33.3-0.8c11.7,0.4,25.7,1.6,42.3,3.8c24.2,3.2,50.3,6.8,76.9,16.9"/>
			<path class="st4" d="M-159.5-214.7c29.5,49,85.1,129.8,161.3,143.1C10-70.2,18-69.1,26-69.2c20.7-0.4,51.3-6.5,105.8-26.3
				c89.9-33,123.8-47.3,176.6-50.4c10.3-0.6,20.9-1.6,33.2-1.2c11.6,0.3,25.6,1.4,42.1,3.6c23.7,3.2,49.6,7.4,76.5,18.3"/>
			<path class="st4" d="M-157.8-217.3C-129.1-167.7-73.9-85.1,2.3-70.5c8.1,1.6,16.2,2.5,24.3,2.7c20.7,0.3,52.3-6.4,106.3-26.1
				c91.8-33.7,125-49.8,175.7-54c10.2-0.9,20.8-1.9,33.1-1.7c11.5,0.2,25.4,1.2,41.9,3.5c23.2,3.3,49,8.1,76.1,19.6"/>
			<path class="st4" d="M-156.2-219.8c28,50.1,82.6,134.6,159,150.4c8.1,1.7,16.2,2.8,24.4,3c20.6,0.5,53.3-6.3,106.7-25.8
				c93.6-34.4,126.1-52.3,174.7-57.7c10.1-1.1,20.7-2.3,33.1-2.2c11.4,0.1,25.3,1,41.7,3.4c22.8,3.4,48.4,8.7,75.7,21"/>
			<path class="st4" d="M-154.5-222.4c27.2,50.7,81.4,136.9,157.9,154c8.1,1.8,16.2,3,24.5,3.2c20.6,0.7,54.3-6.2,107.2-25.6
				c95.5-35.2,127.2-54.8,173.8-61.3c10.1-1.4,20.6-2.7,33-2.7c11.3,0.1,25.2,0.8,41.5,3.3c22.3,3.5,47.8,9.4,75.3,22.3"/>
			<path class="st4" d="M-152.9-225C-126.5-173.7-72.7-85.7,3.8-67.3c8.1,1.9,16.3,3.2,24.6,3.5C49-62.9,83.7-70,136-89.2
				c97.4-35.9,128.3-57.4,172.9-65c10-1.7,20.5-3,32.9-3.2c11.2-0.1,25,0.5,41.3,3.2c21.8,3.6,47.1,10.1,74.9,23.7"/>
			<path class="st4" d="M-151.2-227.6C-125.6-175.7-72.2-86,4.3-66.3c8,2.1,16.3,3.4,24.7,3.8c20.5,1.1,56.2-6.1,108.1-25.2
				c99.3-36.6,129.3-60,172-68.6c9.9-2,20.4-3.3,32.8-3.6c11.1-0.2,24.9,0.3,41.1,3.1c21.4,3.6,46.5,10.7,74.5,25.1"/>
			<path id="XMLID_3_" class="st4" d="M-149.6-230.1c27.4,57.9,89.2,163.6,179.2,169.1c20.5,1.2,57.2-6,108.5-24.9
				c125.6-46.3,140.3-74.2,203.7-76.4c25.2-0.8,65,2.7,115.1,29.4"/>
		</g>
	</g>
	<g id="XMLID_79_">
		<text id="XMLID_266_" transform="matrix(1 0 0 1 210.8391 103.7193)" class="st2 st5 st6 st7">今天就借到</text>
		<g id="XMLID_81_">
			<g>
				<g>
					<g>
						<g>
							<path class="st2" d="M321.8,106.7c0.2,0,0.1-0.1,0.1-0.2C321.6,106.6,321.8,106.8,321.8,106.7z"/>
							<polygon class="st2" points="319.2,107.2 319.2,107.2 318.9,107.3 							"/>
							<path class="st2" d="M316.8,107.3c0.2,0.2,0.9-0.1,1.3,0l0.1,0.1l0.2-0.2C317.8,107.2,317.1,107.4,316.8,107.3z"/>
							<path class="st2" d="M315.4,106.9c0.1,0.1-0.3,0.1,0.3,0c0,0,0,0-0.1,0C315.6,106.9,315.6,106.9,315.4,106.9z"/>
							<path class="st2" d="M315.7,106.9C315.9,106.8,315.5,106.8,315.7,106.9L315.7,106.9z"/>
							<path class="st2" d="M314.5,107l0.3-0.1c-0.1-0.1-0.4-0.1-0.3-0.1C314.2,106.8,314.3,106.9,314.5,107z"/>
							<path class="st2" d="M314.2,107.2l0.2,0C314.3,107.1,314.3,107.1,314.2,107.2z"/>
							<path class="st2" d="M314.7,107l-0.4,0.1c0.1,0,0.1,0.1,0.2,0C314.5,107.2,314.6,107.1,314.7,107z"/>
							<path class="st2" d="M315,107.1c0.2,0,0.4,0.1,0.1,0.2C315.7,107.2,315.6,107,315,107.1z"/>
							<path class="st2" d="M316.7,107.6l0.3,0.1l0.2-0.1C317,107.6,316.6,107.5,316.7,107.6z"/>
							<path class="st2" d="M312.4,107c0,0.1,0.1,0.1,0.2,0.2l0.2-0.1C312.7,107.1,312.4,107,312.4,107z"/>
							<path class="st2" d="M312.6,107.2l-0.4,0.1C312.5,107.3,312.6,107.2,312.6,107.2z"/>
							<polygon class="st2" points="314.2,107.5 314.8,107.2 314,107.5 							"/>
							<polygon class="st2" points="311,107 311.2,106.9 310.8,107.1 							"/>
							<path class="st2" d="M310,107.1c0.2-0.1-0.2-0.2-0.1-0.2c-0.3,0-0.5,0.1-0.7,0.2C309.5,107,309.7,107,310,107.1z"/>
							<path class="st2" d="M309,107.2c0.1,0,0.2-0.1,0.3-0.1C309.2,107.1,309.1,107.2,309,107.2z"/>
							<path class="st2" d="M311.5,107.3c0,0-0.1-0.1-0.3-0.1l0.2,0.1C311.4,107.3,311.5,107.3,311.5,107.3z"/>
							<path class="st2" d="M311.4,107.3L311.4,107.3c-0.2,0-0.3,0-0.3,0C311.1,107.3,311.2,107.3,311.4,107.3z"/>
							<path class="st2" d="M311.6,107.3L311.6,107.3C311.6,107.3,311.6,107.3,311.6,107.3z"/>
							<path class="st2" d="M313.2,107.4c-0.2,0.1-0.7,0.2-0.2,0.3C313.1,107.6,312.9,107.5,313.2,107.4z"/>
							<path class="st2" d="M311.8,107.5l0.4,0c0,0-0.1-0.1,0-0.1L311.8,107.5z"/>
							<polygon class="st2" points="311.6,107.5 311.8,107.5 311.6,107.5 							"/>
							<path class="st2" d="M309.7,107.3c-0.2,0.1-0.4,0.1-0.6,0.1c0.2,0,0.5,0,0.7,0C309.8,107.4,309.9,107.3,309.7,107.3z"/>
							<path class="st2" d="M310.5,107.3L310.5,107.3C310.5,107.4,310.5,107.4,310.5,107.3z"/>
							<polygon class="st2" points="307,107.6 307.1,107.6 307.1,107.6 							"/>
							<path class="st2" d="M309.8,107.5c0.2,0,0.3,0,0.4-0.1C310.1,107.4,309.9,107.5,309.8,107.5
								C309.8,107.5,309.8,107.5,309.8,107.5z"/>
							<path class="st2" d="M308.4,107.4c0.1,0,0.2,0,0.3,0.1C308.6,107.4,308.4,107.3,308.4,107.4z"/>
							<path class="st2" d="M310.4,107.3L310.4,107.3C310.4,107.3,310.4,107.3,310.4,107.3z"/>
							<path class="st2" d="M310.4,107.3c-0.1,0-0.2,0.1-0.2,0.1C310.3,107.4,310.4,107.4,310.4,107.3
								C310.5,107.3,310.4,107.3,310.4,107.3z"/>
							<path class="st2" d="M306.5,108.6c0-0.1,0.5-0.3,0.9-0.2c0.4-0.1,0.1-0.6-0.3-0.8c0,0.1,0,0.1-0.4,0.2
								c0.1,0.1,0.9,0.1,0.6,0.3c-0.5,0.1-0.4,0-0.7-0.1c0.2,0.2-0.6,0.3-0.5,0.6l0.4-0.1C306.5,108.5,306.3,108.6,306.5,108.6z"/>
							<path class="st2" d="M307.8,107.6l0.2,0c-0.2,0-0.3-0.1-0.6-0.2c-0.3,0.1-0.3,0.1-0.3,0.2L307.8,107.6L307.8,107.6z"/>
							<path class="st2" d="M308.7,107.5c-0.1,0.2-0.5,0.3-0.3,0.4c0.5,0,0.3-0.1,0.6-0.2C308.3,107.8,309.3,107.6,308.7,107.5
								c0.2,0,0.3,0,0.4,0C309,107.5,308.8,107.4,308.7,107.5L308.7,107.5L308.7,107.5L308.7,107.5
								C308.8,107.4,308.8,107.5,308.7,107.5L308.7,107.5C308.7,107.5,308.7,107.5,308.7,107.5C308.5,107.5,308.7,107.5,308.7,107.5
								C308.7,107.4,308.7,107.4,308.7,107.5L308.7,107.5l-0.7,0C308.1,107.6,308.3,107.6,308.7,107.5z"/>
							<path class="st2" d="M312.6,108.1C312.5,108.1,312.5,108.1,312.6,108.1C312.5,108.1,312.5,108.1,312.6,108.1z"/>
							<path class="st2" d="M312.2,108c0.1,0,0.1-0.1,0.3-0.1c0.2,0,0,0.1,0,0.1c0.1,0,0.4-0.1,0-0.2l-0.1,0c-0.3,0-0.7-0.2-0.7-0.2
								C312,107.8,312,107.9,312.2,108z"/>
							<path class="st2" d="M310.5,107.8l-0.6,0.1l0.3,0.1l0-0.1C310.5,108,310.4,107.9,310.5,107.8z"/>
							<polygon class="st2" points="306.9,107.5 307,107.3 306.7,107.6 							"/>
							<polygon class="st2" points="306.1,107.6 306.1,107.4 305.9,107.5 							"/>
							<path class="st2" d="M259.7,112.9l-0.2,0.1C259.6,113,259.7,112.9,259.7,112.9z"/>
							<path class="st2" d="M261,112.8L261,112.8C261,112.8,261,112.8,261,112.8z"/>
							<path class="st2" d="M285.8,109c-0.3-0.1-0.6-0.3-0.6-0.1l0.1,0.2C285.6,109,285.7,109,285.8,109z"/>
							<path class="st2" d="M272,111L272,111c0.1,0,0.2-0.1,0.3-0.1C272.2,110.9,272.1,111,272,111z"/>
							<path class="st2" d="M271.9,111.7l-0.4-0.1C271.6,111.6,271.7,111.7,271.9,111.7z"/>
							<path class="st2" d="M252.4,113.8l-0.2,0.2C252.5,113.9,252.3,113.9,252.4,113.8z"/>
							<path class="st2" d="M297.7,108.2c-0.2,0-0.4-0.1-0.6-0.1C297.4,108.2,297.6,108.3,297.7,108.2z"/>
							<path class="st2" d="M260.1,111.2c-0.1,0-0.2,0.1-0.2,0.1C260,111.3,260.1,111.3,260.1,111.2z"/>
							<path class="st2" d="M296.4,108.2c0,0,0.1,0,0.1,0c0.2,0,0.3-0.1,0.6-0.1C296.9,108.1,296.6,108.1,296.4,108.2z"/>
							<path class="st2" d="M225.7,116.4C225.6,116.4,225.6,116.4,225.7,116.4C225.6,116.4,225.6,116.4,225.7,116.4z"/>
							<path class="st2" d="M217.7,115.8c0.1,0,0.2,0,0.3,0C218,115.7,217.9,115.7,217.7,115.8z"/>
							<path class="st2" d="M302.8,107.7C303,107.7,302.8,107.7,302.8,107.7L302.8,107.7z"/>
							<path class="st2" d="M303.7,108.3C303.6,108.3,303.6,108.3,303.7,108.3C303.6,108.3,303.7,108.3,303.7,108.3z"/>
							<path class="st2" d="M294.7,109.3L294.7,109.3C294.8,109.3,294.7,109.3,294.7,109.3z"/>
							<path class="st2" d="M303.1,107.8c-0.1,0-0.1,0-0.2,0C302.9,107.8,302.9,107.8,303.1,107.8z"/>
							<path class="st2" d="M303,107.7c0.1,0,0.1,0,0.2,0C303.2,107.7,303.2,107.7,303,107.7z"/>
							<path class="st2" d="M302.6,107.8c0.1,0,0.2,0,0.3,0c0,0-0.1,0,0,0C302.7,107.7,302.7,107.7,302.6,107.8z"/>
							<path class="st2" d="M239.9,114.5C239.9,114.5,239.9,114.5,239.9,114.5C239.7,114.5,239.8,114.5,239.9,114.5z"/>
							<polygon class="st2" points="281.4,111 281.4,111 281.4,110.9 							"/>
							<path class="st2" d="M280.8,111.1c0.3-0.2,0.4-0.2,0.6-0.2l-0.2-0.4L280.8,111.1z"/>
							<path class="st2" d="M256.5,113.3l0.5,0.1c-0.5,0.3-0.9,0.2-0.5,0.4c0-0.5,1.7-0.2,1.7-0.7l0.3,0.1c-0.1,0-0.1,0-0.2,0
								c0.6,0.2,0.4-0.4,1.1-0.4c0.3,0,0.4,0.1,0.3,0.1l0.6-0.2c0.2,0,0.1,0.1,0,0.1l0.9-0.1l0,0c0.1-0.1,0.4-0.2,0.5-0.3
								c0.2,0.1-0.1,0.1,0,0.1l0.5-0.2c0.2,0.1-0.2,0.3-0.5,0.3c0.5,0.4,0.4-0.2,1.4,0l-0.4,0.1c0.3,0.3,0.7,0.1,1.2,0.2
								c-0.1-0.1-1.1-0.3-0.6-0.5c0.1,0,0.3,0,0.6-0.1c0,0.2,0.3,0.1,0.6,0.1l0,0.2c0.4-0.1,0.3-0.2,0.5-0.3c0.4,0,0.5,0.2,0.6,0.3
								c0.7,0-0.5-0.2,0.3-0.4c0.6,0,0.9-0.1,1.6-0.3c0.4,0-0.1,0.1,0.1,0.2l0.3-0.2c0.1,0,0.1,0.1,0.1,0.1c0.3-0.1,0-0.2,0.4-0.3
								c0.1-0.3,1,0.3,1.5,0c0.1,0.1-0.1,0.1,0,0.2c0.7-0.3,0.6-0.2,1.3-0.5l0.5,0.1c-0.4-0.1,0.1-0.4,0.5-0.6
								c-0.1-0.1-0.3-0.1-0.4-0.2l0.7-0.2c0.1,0,0,0.1-0.1,0.2c0,0,0.1,0,0.1-0.1c0.3,0.1,0.1,0.2,0,0.4c-0.1,0-0.2-0.1-0.3-0.1
								c-0.2,0.2-0.3,0.3-0.3,0.5c0,0,0.1-0.1,0.2-0.1c0,0-0.1,0.1,0,0.1c0,0,0.1,0,0.2-0.1l0.2,0.2l0-0.1l0.9,0.1
								c0.6-0.3,1.2-0.7,2.2-0.9c-0.2,0.2,0,0.3,0,0.5c-0.3-0.2-0.8,0.2-1.3,0.2c0.3,0,0.2,0.1,0.2,0.2l0.9-0.3
								c0,0.2,0.2,0.1,0.5,0.2c-0.2-0.3,0.7-0.3,1.1-0.4c0,0.1-0.1,0.3-0.5,0.3c0.6,0.2,0.6-0.5,1.2-0.3c-0.1,0-0.2,0-0.2,0.1
								c0.3-0.1,0.9-0.1,0.8,0l-0.1,0c0.8,0,2.4-0.2,2.5-0.5c0,0-0.1,0.4-0.1,0.4l1.3-1.1c-0.1,0.3,0.4,0.9-0.2,1.1
								c0.2,0,0.4,0,0.8-0.1c-0.1,0-0.3-0.4-0.2-0.4c0.5,0.3,0.3,0.1,0.9,0.3c-0.2,0,0-0.5,0.3-0.5c0,0.1,0.1,0.4,0,0.5l0.7-0.5
								c-0.2,0.1,0,0.3,0.2,0.4c-0.1-0.1,0.6,0,0.8-0.1l-0.3-0.1c0.8,0,0.8-0.6,1.6-0.7c-0.1,0.1-0.2,0.5,0.2,0.6
								c0.2-0.2,0.8-1.1,1.5-1.3l0.2,0.1l0.6-0.2c-0.3,0.3-1.3,1.1-1.8,1.4c0.3,0.1,0.1,0.1,0.6,0.1c0.2,0.1-0.2,0.2-0.4,0.2l1.1,0
								c-0.1-0.2,0.8-0.3,0.8-0.5l-1.2,0.3c-0.1-0.2,0.6-0.7,1.4-0.8c0.2,0.1-0.1,0.4-0.1,0.5c0.1-0.1,0.7-0.2,0.8-0.2l-0.3,0.2
								c0.4,0.1,0.7-0.4,1.2-0.2c0.2,0,0.6,0.3,0.6,0.1c-0.3-0.3-0.4-1.1-0.3-1.3c0.1,0,1,0.2,1.2,0.3c0.3,0.2-0.4,0.5-0.1,0.7
								c0-0.1,0.2-0.2,0.2-0.2c0.2,0-0.1,0.2,0.3,0.2c0.1-0.3,0.8,0,0.2-0.2c0.4-0.1,0.4,0,0.9,0c-0.2-0.1,0.4-0.6,0.8-0.7
								c0,0.1,0.1,0.1,0.1,0.2c0.8,0,1.3,0,2,0c0.1,0.1,0.4,0.1,0.3,0.2c0.1-0.1,0.2-0.1,0.4-0.2c0.5,0.2-0.5,0.1-0.2,0.3
								c0-0.1,0.6-0.2,0.9-0.4c-0.1-0.2-0.8,0-1.1,0.1c0-0.3,0.5-0.7,1.3-0.9c0.6-0.1,0.3,0.2,0.4,0.1c1.2,0,1-0.6,2-0.4
								c0.4,0.2,0,0.4,0.1,0.5c-0.5,0.1-0.8-0.1-1.2,0l0.4,0.1c-0.2,0.1-0.5,0.1-0.7,0.1c0.3,0.2,2-0.1,3,0c0.2-0.1,0.4-0.2,0.3-0.2
								l-0.3,0c-0.3-0.1,0.5-0.3,0.2-0.3c0.4-0.1,0.8-0.3,1.4-0.3l0.1,0.2c0-0.1-0.4-0.1-0.5,0c0.2-0.1,0.9,0.2,1.1-0.1l-0.4-0.1
								c0.4-0.1,0.9-0.4,1.4-0.4c-0.2-0.2-0.1,0-0.5-0.2c0.3,0.3-1.3,0.1-0.7,0.4c-0.4-0.3-0.6-0.1-1.1-0.3c0,0.1,0.2,0.1-0.2,0.1
								c0,0-0.1,0.1-0.1,0.1c0,0,0,0,0,0l0,0c0,0,0,0,0,0c0.1,0,0.2,0.1,0.2,0.1c-0.2,0.2-0.8,0.2-1.1,0.3c-0.2,0,0.1-0.1,0-0.2
								l-0.3,0.2c0-0.2-0.7-0.2-0.1-0.4l-0.5,0c-0.3-0.1-0.7-0.1-1,0c-0.2,0-0.6,0.2-0.4,0.1l-0.8,0.2l0,0c-0.8,0-1.6,0.4-2.6,0.1
								c-0.3,0.1-0.5,0.1-1,0.1l-0.1-0.1c-0.3,0.1-1-0.1-1.2,0.1c-0.4-0.4-1.7,0-2.3,0l0,0.2c-0.4,0-0.8,0.1-1.3,0.2l0,0.2
								c-0.4,0.2-1.2,0-1.9,0c0-0.1,0.2-0.1,0.4,0c-0.9-0.3-1.8,0.4-2.5,0.2c-0.2,0.1-0.3,0.1-0.5,0c0,0,0,0,0,0c0,0,0,0-0.1,0
								c-0.1,0-0.2,0-0.3-0.1c0.1,0,0.2,0.1,0.2,0.1c-0.1,0-0.4,0.1-0.6,0.1l-0.1-0.2c0,0,0,0-0.1,0c-0.2,0-0.2,0.1,0,0.2
								c-0.1,0-0.2,0.1-0.3,0.1c-0.2-0.3-0.6,0.1-0.8-0.1c-0.1,0.2-1.1,0.2-1.2,0.5c0,0-0.1-0.1,0-0.1c-0.2,0-0.5,0-0.7,0.1
								l-0.1-0.2l-0.5,0.3c-0.3-0.1-0.5-0.2-0.2-0.4c-0.8,0.3-0.6,0.1-1.3,0.5l0-0.1c-0.2,0-0.6,0.2-0.7,0.1c-0.5-0.2-2.6,0.2-4,0
								c0.3,0.4-0.6-0.1-0.7,0.2c-0.1-0.1-0.3-0.1-0.1-0.2c-0.7,0.2-1.1-0.1-1.5,0.2c-0.1-0.1,0.1-0.2,0.1-0.2
								c-0.1,0-0.2,0.1-0.3,0.1c-0.1-0.1,0.1-0.1,0.2-0.1c-0.7,0.1-0.8,0.4-0.8,0.7c-0.4-0.1-0.5-0.1-0.8,0.1
								c-0.1-0.1-0.3-0.2,0.1-0.2c-0.2,0-1.5,0-1.5,0.2c-0.1-0.1-0.3,0-0.4,0c-0.6,0-0.6,0-1.1,0.1l0.2,0c-0.2,0.3-0.4,0.1-0.9,0.2
								l0,0c-1-0.1-0.4,0.1-1.4,0l0.1,0.2c-0.1,0.4-0.9-0.1-1.5,0.1l0.2,0.1c-0.3,0.2-0.9-0.4-1.2-0.4c-0.1,0,0.1-0.1,0.2-0.1
								c-0.8-0.1-0.1,0.2-0.7,0.3c-0.1-0.1,0.1-0.3-0.3-0.3c-0.2-0.1-1.2,0.5-1.8,0.3c0.1,0.1,0.3,0.2,0,0.3
								c-0.4,0.1-1.2-0.2-1.6,0.1c-0.1,0-0.1,0-0.1-0.1c-0.3,0.1-1.1,0.2-1.3,0.4c-0.4-0.6-2.1,0.5-2.1-0.1l-1,0.1l0-0.1
								c-0.7,0-0.9,0.2-1.1,0.3c-0.2,0,0-0.1,0-0.1c-1,0-1.1,0-1.8,0.4l-0.1-0.2c-0.2,0.1-1.4-0.1-2.3,0.2c0,0,0-0.1,0.1-0.1
								c-1,0.3-2.6-0.2-2.9,0.4l-0.7,0.2c0.9,0-0.1,0.3,0.3,0.4c-0.4,0.1-0.9-0.1-0.5-0.2l0.1,0c0.1-0.4-1.1,0-1.1-0.2
								c-1.8,0.2-3.5,0.2-5.2,0.3l0.2,0.2l-0.6,0c-0.2,0-0.2-0.2,0.2-0.2c-0.2-0.1-0.7,0.2-0.7,0.3c-0.8,0,0.3-0.3,0-0.3l-0.3,0.1
								l0.1,0c-0.3,0.1-0.3,0.3-0.8,0.3c-0.3,0-0.2-0.1-0.3-0.1c0,0,0,0-0.2,0l-0.7,0.1l0.3,0.2c-0.3,0.1-0.7,0.1-0.3,0.3
								c-0.5-0.3-2.7,0.2-3.1,0.1c-0.4,0.2-0.9,0.2-1.4,0.3c0.1,0,0.3,0.3-0.2,0.3c0.1-0.5-0.9-0.1-1.3-0.4c0.4,0.2-1.4,0.2-0.8,0.5
								c-0.4,0,0-0.2-0.4-0.3c-0.9,0.3-2.1,0.1-3.3,0.3c0,0.1,0.2,0.1,0,0.3l-0.7-0.2c-0.2,0.1-0.2,0.4-0.6,0.2c0.1,0,0.2,0.1,0,0.2
								c-2.3-0.1-4.7,0.8-7.1,0.5c0.3,0.1,0.1,0.1-0.1,0.2c0.2,0,0,0.2,0.1,0.2l-1-0.1c-0.2,0.3-1,0.1-1.1,0.4l0.3-0.1
								c-0.4,0.3,0.6,0.5,0.6,0.9c0.4-0.4,1.3,0.3,2-0.2c0.2,0.1-0.1,0.1,0,0.2c0.2-0.2,0.4-0.2,0.8-0.2l0,0
								c1.2-0.2,1.7-0.1,3.1-0.2l-0.1-0.2c0.3,0,0.4,0,0.5,0.1c0.3-0.3-0.8,0.1-0.5-0.2c0.4,0.3,2.1-0.2,2.4,0.1
								c0.4,0-0.2-0.2,0.3-0.2l0.1,0.1l0.1-0.2c0.3,0,0.5,0.1,0.5,0.2c-0.1,0-0.2,0-0.3,0.1c0.4,0.1,1.1-0.2,1.2-0.1l-0.4,0
								c1.2-0.2,2.7-0.3,3.9-0.6l-0.1-0.1c0.9-0.2,0.7,0,1.7-0.2l0,0c0.2-0.1,0.5-0.2,0.7-0.2c-0.2,0.1,0.5,0.1,0.2,0.3
								c1-0.3,0.5-0.2,1.1-0.5l0.2,0.1c0.2-0.1,0.2-0.2,0.7-0.3c-0.4,0.2,0.3,0.2-0.1,0.4c1.1,0.2,1.5-0.5,2-0.1
								c0.4-0.4-0.9-0.1-0.7-0.2c-0.2-0.1,0.4-0.3,0.7-0.3c0.3,0,0.6,0.4,1.4,0.3c-0.1,0-0.1,0-0.2,0c0.3,0.1,0.6-0.2,1-0.1
								c0.2-0.2,0.5,0,0.5-0.3l-0.8,0.1c0.4-0.1,0.8-0.5,1.5-0.4c0,0.1-0.3,0.2-0.4,0.2c0.2,0.1,0.4-0.1,0.6,0
								c0,0.3-0.9,0.2-1.4,0.4c0.2,0.1,0.9-0.3,0.7,0c0.3-0.4,0.8,0,1.4-0.4l0,0.2c0.1,0,0.3-0.1,0.4-0.1l-0.3,0.3
								c0.4-0.2,0.9,0.1,1.3-0.1c-0.9,0.1-0.2-0.2-0.6-0.3c1.1-0.3,0.7,0.4,2,0.2c-0.2,0-0.7,0-0.4-0.1c0.2,0,0.6,0,0.7,0.1
								c0.8-0.1-0.1-0.2,0.2-0.3c0.3,0.2,0.4-0.1,0.8-0.2l0,0.2c1,0,0.2-0.4,1.1-0.3l-0.3,0.3l0.4-0.1l-0.1,0.2
								c0.5-0.2,0.6-0.2,1.1-0.2c-0.1-0.1,0-0.3,0.5-0.4c0.3,0.1-0.1,0.2,0.5,0.1c-0.1,0.1-0.3,0.3-0.5,0.1c0,0.1-0.1,0.1-0.1,0.2
								c0.3,0.1,0.8-0.1,1-0.1c-0.1,0-0.2,0-0.2,0l0.8-0.3c0.1,0.1,0,0.1-0.1,0.2c0.2,0,0.3-0.1,0.5-0.2c-0.1,0.1,0,0.3-0.4,0.4
								l0.8-0.2c0.1,0.1,0.4,0.1,0.3,0.2c0.5,0,1.1-0.4,1.7-0.3c0,0,0.1-0.1,0.2-0.1c0.6,0,1.1,0.1,1.8-0.2l0.4,0.2
								c0.5-0.1-0.6-0.3,0.3-0.5c0.6-0.1,0.3,0.2,0.5,0.2c0.3-0.2,0.8-0.5,1.4-0.3C256.8,113.3,256.7,113.2,256.5,113.3z M263,112.6
								c-0.1,0-0.4,0.2-0.5,0.1C262.7,112.4,262.8,112.5,263,112.6z M273,111.3c-0.1,0.1-0.2,0-0.4,0
								C272.7,111.2,272.9,111.2,273,111.3z M300.9,108L300.9,108C300.6,108,300.7,108,300.9,108z M301.5,108
								C301.5,108,301.5,108,301.5,108c0,0-0.1,0-0.3,0C301.2,108.1,301.3,108.1,301.5,108z M237.9,113.5l0.1,0
								C237.8,113.6,237.9,113.6,237.9,113.5z"/>
							<path class="st2" d="M271.9,111.6C271.9,111.6,271.9,111.5,271.9,111.6C271.8,111.6,271.8,111.6,271.9,111.6z"/>
							<path class="st2" d="M252.4,113.7L252.4,113.7C252.4,113.8,252.4,113.8,252.4,113.7L252.4,113.7z"/>
							<path class="st2" d="M292.4,110.1c-0.1,0-0.2,0-0.2-0.1C292.2,110.1,292.2,110.1,292.4,110.1z"/>
							<path class="st2" d="M304.6,107.5l-0.4,0.1c0.2,0,0.3,0,0.3,0C304.6,107.6,304.5,107.5,304.6,107.5z"/>
							<path class="st2" d="M308,108.4c0.1,0,0.1,0,0.2,0l0-0.1C307.9,108.3,307.7,108.4,308,108.4z"/>
							<path class="st2" d="M305,108.1c0,0.1,0.3,0.1,0.5,0l0,0C305.5,107.9,305.3,108,305,108.1z"/>
							<path class="st2" d="M305.6,108.1c0.1,0,0.2,0,0.2,0C305.9,108,305.7,108.1,305.6,108.1z"/>
							<path class="st2" d="M302.2,107.9c0.1,0,0.1-0.2,0.1-0.1C302.5,107.6,301.5,108,302.2,107.9z"/>
							<polygon class="st2" points="305.2,108.6 305.1,108.4 305,108.5 							"/>
							<path class="st2" d="M303.1,108.6l0.4,0c0,0,0-0.1,0.1-0.1C303.4,108.5,303.1,108.5,303.1,108.6z"/>
							<path class="st2" d="M303.7,108.5c0.1,0,0.3,0,0.3-0.1C303.9,108.5,303.8,108.5,303.7,108.5z"/>
							<polygon class="st2" points="304.7,108.7 304.5,108.6 304.2,108.6 							"/>
							<path class="st2" d="M298.6,108.8l-0.5,0.1c0,0.1,0.1,0.1,0.3,0.1C298.5,108.9,298.6,108.9,298.6,108.8z"/>
							<path class="st2" d="M300,109.2c-0.1,0-0.1-0.1-0.2-0.1l0,0.2L300,109.2z"/>
							<path class="st2" d="M298.6,109.4c0,0.1-0.7,0.2-0.1,0.2C298.6,109.5,299.1,109.4,298.6,109.4z"/>
							<polygon class="st2" points="291.6,109.6 291.8,109.6 291.7,109.2 							"/>
							<path class="st2" d="M285.6,110.9c0.6,0,0.1-0.2,0.6-0.2c0.1-0.1-0.4-0.1-0.3-0.1C285.6,110.7,285.4,110.7,285.6,110.9z"/>
							<path class="st2" d="M285.9,110.6c0.1,0,0.1,0,0.2-0.1C286,110.5,285.9,110.6,285.9,110.6z"/>
							<polygon class="st2" points="216.4,115.7 216,115.7 216.3,115.8 							"/>
							<path class="st2" d="M215.8,116.1l-0.1-0.2l-0.2,0.2C215.5,116.1,215.7,116,215.8,116.1z"/>
							<path class="st2" d="M264.1,112.9L264.1,112.9c0-0.1-0.1-0.1-0.3-0.1L264.1,112.9z"/>
							<polygon class="st2" points="259.3,113.2 259.4,113.2 259.2,113 							"/>
							<path class="st2" d="M255.3,113.8c0.2,0,0.4-0.1,0.5-0.1C255.5,113.8,255.2,113.6,255.3,113.8z"/>
						</g>
					</g>
				</g>
			</g>
		</g>
	</g>
	<rect id="XMLID_2_" x="212.1" y="-60.4" class="st2" width="113.4" height="113.4"/>
	<text id="XMLID_97_" transform="matrix(1 0 0 1 197.7501 -73.4429)" class="st2 st8 st9">微信扫一扫  马上就有钱</text>
	<text id="XMLID_125_" transform="matrix(1 0 0 1 232.7502 78.5571)" class="st2 st8 st10">今借到</text>
</g>
</svg>
