<?xml version="1.0" encoding="utf-8"?>
<!-- Generator: Adobe Illustrator 19.0.0, SVG Export Plug-In . SVG Version: 6.00 Build 0)  -->
<svg version="1.1" id="图层_1" xmlns="http://www.w3.org/2000/svg" xmlns:xlink="http://www.w3.org/1999/xlink" x="0px" y="0px"
	 viewBox="0 0 150 150" style="enable-background:new 0 0 150 150;" xml:space="preserve">
<style type="text/css">
	.st0{fill:#F53640;}
	.st1{fill:#F0242D;}
	.st2{fill:#F32B35;}
</style>
<g id="XMLID_27_">
	<g id="XMLID_584_">
		<path id="XMLID_127_" class="st0" d="M75,3c39.7,0,72,32.3,72,72s-32.3,72-72,72S3,114.7,3,75S35.3,3,75,3 M75,0
			C33.6,0,0,33.6,0,75s33.6,75,75,75s75-33.6,75-75S116.4,0,75,0L75,0z"/>
	</g>
	<g id="XMLID_20_">
		<path id="XMLID_22_" class="st1" d="M22.7,82.8c1.3-0.4,2.2-0.8,2.6-1c0.4-0.2,0.6-0.5,0.7-0.8c0-0.1,0.1-0.1,0.1-0.1
			c0.1,0,0.4,0,0.9,0.1c0.5,0.1,0.8,0.2,1,0.4c0.2,0.2,0.4,0.6,0.6,1.1c0.2,0.5,0.4,1.2,0.7,2.1c0.3,0.9,0.4,1.5,0.4,1.8
			c0,0.4-0.1,0.7-0.3,0.9c-0.3,0.2-0.7,0.4-1.5,0.6l-15.6,4.7c-0.9,0.3-1.9,0.6-2.8,0.9l0.5-1.6c0-0.1,0.1-0.2,0.2-0.3
			c0.1,0,0.2,0,0.3,0l0.5,0.3l7.4-2.2c-2.1-1.4-4.2-2.3-6.1-2.8l0.7-1.4c0.1-0.1,0.1-0.2,0.2-0.2c0,0,0.1,0,0.1,0.1
			c0.2,0.5,0.6,0.9,1.3,1.2c1.4,0.7,2.9,1.7,4.4,2.9l8.7-2.7c0.3-0.1,0.6-0.2,0.7-0.4c0.1-0.1,0.1-0.4,0-0.9s-0.3-1.1-0.5-1.8
			c-0.2-0.7-0.4-1.2-0.6-1.4s-0.6-0.2-1.2-0.1c-0.6,0.1-1.7,0.4-3.4,0.9L22.7,82.8z M11.8,95.5l0.5,0.3l13.9-4.2
			c1.5-0.5,2.7-0.8,3.5-1.1s1.2-0.4,1.2-0.4c0.3-0.1,0.5,0,0.8,0.2c0.3,0.2,0.4,0.3,0.4,0.4c0,0.1-0.1,0.1-0.3,0.2l-5.2,1.6L29,95
			c0.5,0.6,1.1,1,1.7,1.2c0.1,0,0.1,0.1,0.1,0.1c0,0,0,0.1-0.1,0.1l-0.9,1.1l-3.8-5l-7.2,2.2l1,3.4c0.1,0.5,0.3,0.8,0.6,1.1
			l-0.7,0.8c-0.1-0.6-0.2-1-0.3-1.3l-1.1-3.8l-4.2,1.3c-1.1,0.3-2.2,0.7-3.4,1.1l0.6-1.7c0-0.1,0.1-0.2,0.2-0.2
			C11.6,95.4,11.7,95.4,11.8,95.5z"/>
		<path id="XMLID_47_" class="st1" d="M7.1,71.6c1-1.7,1.9-2.5,2.8-2.5c0.3,0,0.6,0.1,0.9,0.3c0.3,0.2,0.4,0.3,0.4,0.4
			S11,70,10.9,70.1c-0.1,0-0.3,0.1-0.6,0.2c-0.8,0.2-1.8,0.6-3,1.5L7.1,71.6z M11.9,61.9c0.1-0.1,0.2-0.1,0.3-0.1
			c0.1,0,0.1,0.1,0.1,0.3l-1.1,14.7c0,0.5,0,0.9,0.2,1.3l-0.9,0.5c0.1-0.6,0.2-1,0.2-1.4l1-13.1L10,63L11.9,61.9z M15.3,64.8
			c0.1-0.1,0.2-0.1,0.3-0.1c0.1,0,0.1,0.1,0.2,0.2l0.4,0.6l2.7,0.2c0.4,0,0.9,0.1,1.3,0.1l1,0c0.2,0,0.4,0.2,0.5,0.5
			c0.2,0.3,0.2,0.5,0.2,0.5s-0.1,0.1-0.3,0.1l-0.8-0.1l-0.3,3.4l7.6,0.6c0.4,0,0.8,0.1,1,0.2s0.5,0.4,0.8,0.7
			c0.3,0.3,0.4,0.5,0.4,0.6c0,0-0.1,0.1-0.2,0.1c-0.6,0.1-0.9,0.3-1.2,0.7c-0.2,0.4-0.5,0.9-0.7,1.7l-0.4-0.1
			c0.3-1.1,0.5-1.8,0.6-2.2c0-0.4,0-0.6-0.1-0.7c-0.1-0.1-0.2-0.2-0.5-0.2L20.5,71l-0.3,3.9l0.5,0c0.2,0,0.3,0.1,0.4,0.1
			c0.1,0.1,0.1,0.2,0.2,0.4c0.1,0.2,0.1,0.3,0.1,0.4c0,0.1-0.1,0.1-0.3,0.1c-0.2,0-0.4,0-0.7-0.1c-0.3,0-1-0.1-2-0.2l-2.9-0.2
			c-0.8-0.1-1.7-0.1-2.5-0.1l1.2-1l0.6-7.7l-1-0.7L15.3,64.8z M20.2,66.7l-4.8-0.4l-0.6,8.2l4.8,0.4L20.2,66.7z M23.4,73.6
			c0.1-0.1,0.2-0.1,0.3-0.1c0.1,0,0.1,0.1,0.1,0.2c0,0.2,0.1,0.3,0.2,0.6c0.1,0.2,0.3,0.4,0.4,0.5c2.2,1.9,3.8,3.5,4.8,5L28.8,80
			c-0.8-0.9-1.9-1.9-3.3-3c-1.4-1.1-2.5-1.9-3.4-2.3L23.4,73.6z M22.9,68.3c0.8-1,1.6-1.9,2.3-2.6c0.7-0.7,1.3-1.2,1.7-1.4
			c0.4-0.2,0.8-0.3,1.1-0.3s0.6,0.1,0.8,0.2c0.2,0.1,0.3,0.3,0.3,0.4s-0.2,0.2-0.6,0.3c-0.4,0.1-1.2,0.5-2.4,1.2s-2.2,1.4-3,2.2
			L22.9,68.3z"/>
		<path id="XMLID_54_" class="st1" d="M36.1,46.7c-0.1,0.2-0.3,0.4-0.4,0.7c-0.1,0.2-0.2,0.5-0.2,0.7c0,0.3,0.1,0.5,0.3,0.8
			c0,0.1,0,0.1,0,0.1c-0.1,0.1-0.8,0.4-2.2,0.7c-1.4,0.3-3,0.4-4.8,0.4c-1.7-0.1-3.7-0.4-5.8-1s-4.4-1.4-7-2.6
			c2.7,1.5,4.6,2.7,5.7,3.4c1.2,0.8,2.3,1.6,3.3,2.6c1.1,1,2,2,2.7,3.1c0.7,1.1,1.3,2.2,1.8,3.5c0.4,1.3,0.7,2.7,0.8,4.2l-0.4-0.1
			c-0.2-1.4-0.6-2.8-1.2-4.2c-0.6-1.4-1.5-2.8-2.5-4c-1-1.2-2.6-2.6-4.8-4.1c-2.2-1.5-4.9-3-8.1-4.6l1.4-0.9
			c0.2-0.1,0.4-0.2,0.5-0.2c0.1,0,0.1,0.2,0.2,0.4l0.1,0.3c4.8,2,9,3.1,12.6,3.1c3.6,0.1,6.1-0.8,7.6-2.6L36.1,46.7z"/>
		<path id="XMLID_56_" class="st1" d="M48.9,34.6c-0.2,0.1-0.4,0.3-0.6,0.5c-0.2,0.2-0.3,0.4-0.4,0.6c-0.1,0.2-0.1,0.5-0.1,0.9
			c0,0.1,0,0.1,0,0.1c-0.1,0.1-0.9,0-2.3-0.2c-1.4-0.2-3-0.7-4.6-1.4c-1.6-0.7-3.3-1.7-5.1-3c-1.8-1.3-3.6-2.9-5.6-4.9
			c1.9,2.4,3.3,4.1,4.1,5.3c0.8,1.1,1.5,2.3,2.2,3.6c0.7,1.3,1.1,2.6,1.4,3.8c0.3,1.3,0.4,2.6,0.4,3.9c-0.1,1.3-0.3,2.7-0.8,4.2
			l-0.3-0.2c0.3-1.3,0.5-2.8,0.4-4.4s-0.4-3.1-0.8-4.6c-0.5-1.5-1.5-3.4-3-5.6c-1.5-2.2-3.5-4.6-5.9-7.2l1.6-0.3
			c0.3-0.1,0.4-0.1,0.5,0c0.1,0.1,0.1,0.2,0,0.4l-0.1,0.4c3.7,3.6,7.3,6.1,10.6,7.5c3.3,1.4,6,1.5,8,0.4L48.9,34.6z"/>
		<path id="XMLID_58_" class="st1" d="M45.4,13.7l1.4,0.5c0.2,0.1,0.3,0.1,0.3,0.2c0,0.1,0,0.2-0.1,0.3c-0.1,0.1-0.2,0.3-0.2,0.4
			s0,0.3,0,0.7c0.1,1.5,0.2,3,0.2,4.7l0.5,0c0.1,0,0.2,0,0.2,0.1c0,0.1,0,0.1,0,0.2L47.4,21l3.8,9.5c0.5,1.2,0.9,2.1,1.2,2.8
			c0.3,0.6,0.4,1,0.5,1.1c0.1,0.2,0.1,0.5-0.1,0.8s-0.3,0.4-0.4,0.5c-0.1,0-0.2-0.1-0.3-0.4l-0.7-1.8c-0.3-0.7-0.6-1.6-1-2.5
			L46.9,22c-0.1,2-0.3,3.9-0.6,5.6L46,27.4C46.4,23,46.2,18.5,45.4,13.7z M58.9,12.9c0.2,0.1,0.3,0.2,0.4,0.3c0,0.1,0,0.2-0.2,0.2
			l-9.2,3.7c-0.4,0.2-0.8,0.4-1.1,0.7l-0.8-0.6c0.6-0.2,1-0.3,1.3-0.4l8-3.2l0.1-1.5L58.9,12.9z M58.8,16.7c0.2,0.1,0.3,0.2,0.3,0.3
			c0,0.1,0,0.2-0.2,0.2L52,20c-0.4,0.2-0.8,0.4-1.1,0.7l-0.8-0.6c0.6-0.2,1-0.3,1.3-0.4l5.8-2.4l0.1-1.4L58.8,16.7z M50.7,11.5
			c0.9,0.3,1.5,0.5,1.9,0.8c0.4,0.2,0.7,0.5,0.8,0.8c0.1,0.3,0.2,0.7,0.1,1c-0.1,0.3-0.2,0.5-0.3,0.6c-0.2,0.1-0.3-0.1-0.5-0.5
			c-0.2-0.4-0.5-0.9-0.9-1.3c-0.4-0.5-0.8-0.8-1.3-1.1L50.7,11.5z M60.4,19.5c0.2,0.1,0.3,0.2,0.3,0.3c0,0.1,0,0.2-0.2,0.2l-7.7,3.1
			c-0.4,0.2-0.8,0.4-1.1,0.7l-0.8-0.6c0.6-0.2,1-0.3,1.3-0.4l6.6-2.7l0.1-1.4L60.4,19.5z M61.1,23c0.1,0.1,0.2,0.1,0.2,0.2
			c0,0.1,0,0.2,0,0.3L61,24l1.3,3.3c0.3,0.7,0.5,1.3,0.8,1.8s0.3,0.7,0.3,0.8c0.1,0.2,0.1,0.5-0.1,0.7C63.2,30.8,63.1,31,63,31
			c-0.1,0-0.2-0.1-0.2-0.3L62,28.8l-5.7,2.3l0.6,1.5c0.1,0.2,0,0.4-0.1,0.7c-0.2,0.3-0.3,0.4-0.3,0.4c-0.1,0-0.1-0.1-0.2-0.3
			l-0.5-1.3c-0.2-0.5-0.4-1.1-0.7-1.8l-1.3-3.1c-0.3-0.8-0.7-1.6-1-2.3l1.6,0.7l5.1-2.1l0.2-1.2L61.1,23z M61.8,28.3L60,23.9
			l-5.7,2.3l1.8,4.4L61.8,28.3z"/>
		<path id="XMLID_66_" class="st1" d="M73.3,14.8c0.1,0.1,0.1,0.2,0.1,0.3c0,0.1-0.1,0.1-0.2,0.1l-3.5,0.1l0,1.6
			c0.7,0.3,1.3,0.5,1.7,0.9c0.5,0.3,0.8,0.6,1,0.9c0.2,0.3,0.3,0.6,0.3,0.9c0,0.3,0,0.6-0.1,0.8c-0.1,0.2-0.2,0.3-0.3,0.3
			c-0.1,0-0.3-0.2-0.4-0.6c-0.3-0.9-1-1.8-2.1-2.7l0.1,6.8c0,2,0.1,3.4,0.1,4s0,1,0,1c0,0.3-0.1,0.5-0.4,0.6s-0.4,0.2-0.5,0.2
			c-0.1,0-0.1-0.1-0.1-0.4l0-2.3c0-1,0-2,0-3.1l-0.1-6.3c-0.9,2.7-2.1,5.1-3.5,7.4l-0.2-0.2c1.5-3.1,2.8-6.3,3.7-9.7l-1.8,0
			c-0.5,0-0.9,0.1-1.2,0.3l-0.5-0.9c0.6,0.1,1.1,0.1,1.4,0.1l2.3,0l-0.1-4.4c-1.5,0.3-2.5,0.6-3.1,0.7l0-0.3C68,9.9,70.2,9,72.2,8
			l0.7,1.2C73,9.3,73,9.4,73,9.4c0,0.1-0.1,0.1-0.3,0c-0.2,0-0.3-0.1-0.5-0.1c-0.2,0-0.5,0.1-0.9,0.2c-0.4,0.1-1,0.3-1.7,0.4
			l0.1,4.6l1.8,0l0.8-1.4L73.3,14.8z M82.6,20.1c0.1,0.1,0.1,0.1,0.1,0.2c0,0.1,0,0.1-0.1,0.1l-3.4,0.9l0.1,3.1
			c0,1.6,0.1,2.7,0.1,3.4c0,0.7,0.1,1.1,0.1,1.1c0,0.3-0.1,0.5-0.4,0.6c-0.3,0.1-0.4,0.2-0.5,0.2c-0.1,0-0.2-0.1-0.2-0.4
			c0-0.2,0-0.8,0-1.6s0-1.9,0-3.2l-0.1-3l-4.8,1.3c-0.3,0.1-0.8,0.3-1.3,0.6l-0.6-0.8c0.5,0,1-0.1,1.5-0.3l5.3-1.4l-0.2-10.5
			c0-1.2-0.1-2.4-0.1-3.6l1.4,1.1C79.4,8,79.5,8,79.5,8.1c0,0.1,0,0.1-0.1,0.2l-0.4,0.4l0.2,12.1l1.4-0.4l0.6-1.6L82.6,20.1z
			 M74.1,15.4c1.5,0.9,2.2,1.8,2.2,2.8c0,0.3,0,0.6-0.1,0.8c-0.1,0.2-0.2,0.4-0.3,0.4c-0.1,0-0.2-0.1-0.3-0.2
			c-0.1-0.1-0.1-0.3-0.2-0.7s-0.2-0.8-0.5-1.4c-0.3-0.6-0.6-1.1-1-1.6L74.1,15.4z M74.1,9.9c0.6,0.2,1.1,0.5,1.5,0.8
			s0.7,0.6,0.9,0.9c0.2,0.3,0.2,0.6,0.2,0.8s0,0.5-0.1,0.8c-0.1,0.2-0.2,0.4-0.4,0.4c-0.1,0-0.3-0.2-0.4-0.6
			c-0.1-0.4-0.3-0.9-0.7-1.5c-0.3-0.6-0.7-1-1.1-1.4L74.1,9.9z"/>
		<path id="XMLID_71_" class="st1" d="M93.9,19l-3.8,1.5l-2.8,7.6c-0.2,0.7-0.5,1.1-0.6,1.4c-0.2,0.2-0.5,0.5-0.9,0.6
			c-0.4,0.2-0.7,0.3-0.7,0.2S85,30.2,85,30.1c0.1-0.4,0-0.8-0.2-1.1c-0.2-0.3-0.5-0.7-1.1-1.3l0.2-0.3c0.8,0.6,1.3,0.9,1.6,1
			c0.3,0.1,0.5,0.1,0.6,0.1c0.1,0,0.3-0.2,0.4-0.5l2.6-7.1c-1.5,0.6-2.3,1-2.5,1.2c-0.2,0.2-0.3,0.3-0.4,0.3c0,0-0.1-0.1-0.1-0.2
			l-0.4-1.3l3.8-1l1.8-4.8l-1.3-0.5c-0.5-0.2-0.9-0.2-1.3-0.2l-0.2-1c0.5,0.3,1,0.5,1.2,0.6l1.6,0.6l0.7-1.9c0.4-1,0.8-2.2,1.2-3.4
			l0.9,1.3c0.1,0.1,0.1,0.3,0.1,0.3c0,0.1-0.1,0.1-0.3,0.2l-0.5,0.2l-1.3,3.6l1.1,0.4l1-0.8l0.4,1.3c0.1,0.2,0.1,0.4,0.1,0.5
			c0,0.1-0.1,0.1-0.3,0L92,15.4l-1.5,4.2l3.4-0.9L93.9,19z M99.3,34c-0.4-0.1-0.7-0.2-1.1-0.2c-0.3,0-0.6,0.1-1,0.4
			c-0.1,0.1-0.2,0.1-0.2,0.1c-0.1,0-0.6-0.6-1.3-1.7c-0.8-1.1-1.3-2.2-1.7-3.2c-1.1,0.7-2.3,1.2-3.5,1.5c-1.2,0.3-2.7,0.5-4.5,0.6
			l0-0.3c3-0.4,5.6-1.3,7.7-2.6c-0.5-1.8-0.3-4.2,0.4-7.4c-0.4-0.1-0.8-0.2-1.1-0.1l-0.2-1c0.5,0.3,1,0.5,1.2,0.6l2.5,0.9l1.5-4.1
			l-1.9-0.7c-0.5-0.2-0.9-0.2-1.3-0.2l-0.2-1c0.5,0.3,1,0.5,1.2,0.6l2.3,0.9l0.6-1.7c0.4-1,0.8-2.2,1.2-3.4l1,1.4
			c0.1,0.1,0.1,0.2,0.1,0.3c0,0.1-0.1,0.1-0.2,0.1l-0.6,0.2l-1.3,3.4l3.1,1.1l1.2-1l0.6,1.7c0.1,0.2,0.1,0.4,0.1,0.5
			c0,0.1-0.1,0.1-0.3,0L99,17.6l-1.5,4.1l1.6,0.6l0.9-0.9l0.7,1.3c0.1,0.2,0.1,0.3,0.1,0.4c0,0.1-0.2,0.2-0.3,0.2
			c-0.2,0-0.4,0.1-0.5,0.1s-0.3,0.3-0.5,0.5c-1.7,2.2-3.3,3.8-4.7,4.8c0.8,1.8,2.3,3.5,4.6,4.9L99.3,34z M99,22.9l-4.6-1.7
			C94,24,94,26.3,94.5,28C96,26.9,97.5,25.2,99,22.9z"/>
		<path id="XMLID_75_" class="st1" d="M123.5,32.4c0,0.2-0.1,0.4-0.1,0.5c-0.1,0.1-0.2,0-0.3-0.1l-7.2-6.3c-1.7,0.8-2.9,1.3-3.6,1.6
			l5.3,4.6l1.2-0.5l0.2,1.4c0,0.2,0,0.3,0,0.4c0,0-0.2,0.1-0.3,0.1l-0.7,0l-7.5,8.6c-0.5,0.6-0.9,0.9-1.1,1.1
			c-0.3,0.2-0.6,0.3-1,0.2c-0.4,0-0.6-0.1-0.7-0.1c0,0,0-0.1,0.1-0.3c0.2-0.4,0.3-0.7,0.2-1.1c-0.1-0.4-0.3-0.9-0.7-1.8l0.3-0.2
			c0.7,0.9,1.2,1.4,1.4,1.6c0.2,0.2,0.4,0.3,0.5,0.3c0.1,0,0.3-0.1,0.4-0.3l2.5-2.8l-5.5-4.8l-1.4,1.6l-2.2,2.6
			c-0.2,0.2-0.4,0.3-0.7,0.3c-0.3,0-0.5-0.1-0.5-0.1c-0.1,0,0-0.1,0.1-0.3c0.1-0.1,0.5-0.6,1.2-1.4c0.7-0.8,1.5-1.7,2.4-2.7l4.9-5.6
			c-3.2,1.1-5.9,1.8-8.2,2.1l0.1-0.4c3.8-0.7,8-2.2,12.6-4.6l-3.4-2.9c-0.4-0.3-0.7-0.5-1.1-0.6l0.2-1c0.4,0.4,0.7,0.8,1,1l3.8,3.3
			c1.7-0.9,3-1.6,3.9-2.2l0.3,1.6c0,0.2,0,0.3,0,0.3c0,0-0.2,0-0.4-0.1c-0.2-0.1-0.6-0.1-1,0.2c-0.5,0.2-1.1,0.6-2,0.9l5.5,4.8
			l1.6-0.5L123.5,32.4z M112.7,38.9l2.2-2.5l-5.5-4.8l-2.2,2.5L112.7,38.9z M115.3,36l2.2-2.5l-5.5-4.8l-2.2,2.5L115.3,36z"/>
		<path id="XMLID_79_" class="st1" d="M132.9,42.8c0,0.1-0.1,0.2-0.1,0.2c0,0-0.1,0-0.2,0c-0.3-0.2-0.6-0.3-1-0.4
			c-0.4-0.1-0.9,0-1.6,0l-3.7,0.5c-0.9,1.6-1.7,2.7-2.2,3.3c-0.6,0.6-1.2,1.1-1.8,1.4c-0.6,0.3-1.2,0.5-1.8,0.5
			c-0.6,0-1.1-0.1-1.5-0.3c-0.4-0.2-0.7-0.4-0.7-0.4c0-0.1,0-0.1,0.1-0.2c0.3-0.3,0.5-0.6,0.6-0.9s0.1-0.8,0-1.5l0.3-0.2
			c0.2,0.7,0.4,1.3,0.6,1.7c0.2,0.4,0.5,0.7,0.8,0.7c0.3,0.1,0.7,0,1.2-0.3c0.9-0.5,1.6-1.1,2.2-1.8c0.6-0.8,1.2-1.6,1.7-2.4l6-1.3
			l-1.4-2.7l-13.2,6.9c-1.3,0.7-2.2,1.2-3,1.6c-0.7,0.4-1.1,0.6-1.1,0.6c-0.3,0.1-0.5,0.1-0.7,0s-0.3-0.3-0.3-0.3
			c-0.1-0.1,0-0.2,0.2-0.3c0.2-0.1,0.7-0.4,1.6-0.8c0.9-0.4,1.9-1,3.1-1.6l11.7-6.1c0.9-0.5,1.9-1,3-1.6l-0.4,1.6l1.2,2.3l1.2,0.1
			L132.9,42.8z M120.8,60.9c-0.2-0.4-0.4-0.7-0.6-0.9c-0.2-0.2-0.5-0.3-0.9-0.3c-0.1,0-0.1,0-0.1-0.1c-0.1-0.1,0.1-0.8,0.5-2
			s1.1-2.4,2-3.6c1-1.2,2.5-2.6,4.5-4.1l-0.7-1.4l-8.1,4.2l2.7,1.7l-0.3,0.3c-1.7-0.7-2.9-1.2-3.4-1.4c-0.6-0.2-1.1-0.3-1.5-0.3
			c-0.1,0-0.1,0-0.1-0.1c0,0,0-0.1,0-0.1l0.9-1.4c0.3,0.2,0.7,0.3,1.1,0.4c0.4,0,0.8-0.1,1.2-0.3l12.9-6.7c1.1-0.6,2.4-1.3,3.7-2
			l-0.5,1.8l2.2,4.3l1.3,0.1l-0.6,1.7c0,0.1-0.1,0.2-0.1,0.2c-0.1,0-0.1,0-0.2,0l-0.8-0.3l-4.1,2.2c-0.6,0.3-1.2,0.6-1.6,0.9
			l-1.3,0.7c-0.1,0.1-0.3,0.1-0.4,0.1c-0.1,0-0.2-0.1-0.4-0.2s-0.3-0.2-0.3-0.3c0-0.1,0-0.2,0.2-0.3l0.4-0.2l-1.7-3.2
			c-1.5,1.2-2.7,2.4-3.5,3.5c2.1,0.7,3.8,1.2,5,1.4l-0.8,1.4c-0.1,0.1-0.1,0.2-0.1,0.2c0,0-0.1,0-0.1,0l-0.1-0.2
			c-0.2-0.4-0.8-0.8-1.7-1.2l-2.5-1.2c-1.6,2.3-2,4.4-1.5,6.5L120.8,60.9z M128.5,53.3l3.5-1.8l-2.6-4.9l-3.5,1.8L128.5,53.3z
			 M132.4,51.2l3.3-1.7l-2.6-4.9l-3.3,1.7L132.4,51.2z"/>
		<path id="XMLID_84_" class="st1" d="M128,70.8c-0.6,0.8-1.3,1.6-2,2.4c-0.7,0.7-1.4,1.3-2,1.8c-0.6,0.4-1.3,0.7-2,0.8
			c-0.4,0-0.7,0-0.9-0.2c-0.2-0.1-0.3-0.3-0.3-0.5c0-0.3,0.3-0.6,1.1-0.8c0.5-0.2,0.9-0.3,1.2-0.5l-1.7-6.5
			c-0.3-1.1-0.5-1.8-0.6-2.2c-0.2-0.4-0.3-0.6-0.4-0.7c-0.1-0.1-0.2-0.2-0.2-0.2c0,0,0-0.1,0.1-0.1l1.7-0.9c0.2,0.5,0.4,0.8,0.7,1.1
			c0.2,0.3,0.7,0.5,1.3,0.8c0.6,0.3,1.5,0.6,2.7,0.9c1.2,0.3,2.5,0.6,3.7,0.9c1.3,0.3,2.4,0.4,3.5,0.5l-0.8,1.5
			c-0.1,0.1-0.1,0.2-0.2,0.2c-0.1,0-0.1-0.1-0.3-0.3c-0.1-0.2-0.2-0.3-0.4-0.4c-0.1-0.1-0.3-0.2-0.6-0.2c-3.6-0.8-6.8-2-9.6-3.5
			l1.5,8.9c1.3-0.6,2.7-1.6,4.3-2.9L128,70.8z M140.5,66.5c-0.1,0.1-0.1,0.2-0.2,0.2c-0.1,0-0.1-0.1-0.2-0.2
			c-0.1-0.2-0.2-0.3-0.3-0.4c-0.1-0.1-0.3-0.2-0.5-0.2c-4.3-1.1-7.8-2.9-10.6-5.4l0.3-0.2c4,2.7,8.2,4.3,12.5,4.7L140.5,66.5z
			 M132.4,77.5c0-0.3,0-0.5,0-0.7c-0.1-0.5-0.3-0.9-0.8-1.1c-0.1,0-0.1-0.1-0.1-0.1c0-0.2,0.8-1,2.5-2.5c1.7-1.5,4.5-2.8,8.4-4
			l-0.5,1.5c0,0.1-0.1,0.1-0.1,0.1c-0.1,0-0.1,0-0.2-0.1l-0.6-0.5c-2.1,0.7-3.9,1.7-5.5,3.1c-1.6,1.4-2.5,2.8-2.8,4.3L132.4,77.5z"
			/>
		<path id="XMLID_88_" class="st1" d="M136.9,99.4l-0.3-0.8l-17-4.5c-0.8-0.2-1.3-0.4-1.6-0.5c-0.3-0.2-0.5-0.4-0.7-0.9
			c-0.2-0.4-0.3-0.7-0.3-0.8c0,0,0.1-0.1,0.4-0.1s0.5,0,0.7-0.1c0.2-0.1,0.4-0.3,0.7-0.6c0.2-0.3,0.5-0.7,0.9-1.4L120,90
			c-0.5,1.2-0.8,1.9-0.9,2.3c-0.1,0.4-0.1,0.6,0,0.7s0.3,0.2,0.6,0.3l17.5,4.6l2.9-11.2c0.1-0.5,0.1-0.9,0.1-1.3l1-0.3
			c-0.2,0.4-0.3,0.8-0.4,1.3l-2.9,11.2l1.1,0.9l-1.7,1c-0.1,0.1-0.2,0.1-0.2,0.1C137,99.6,136.9,99.5,136.9,99.4z M129.1,92
			l-0.3-0.7l-4.6-1.2c-0.8-0.2-1.3-0.3-1.6-0.4l-0.8-0.2c-0.2-0.1-0.3-0.2-0.4-0.5c-0.1-0.3-0.1-0.4-0.1-0.5c0-0.1,0.1-0.1,0.4,0
			l1.3,0.3l1.6-6.2l-1.7-0.4c-0.3-0.1-0.4-0.2-0.5-0.5c-0.1-0.2-0.1-0.4-0.1-0.5c0-0.1,0.1-0.1,0.3,0l1.2,0.3c0.5,0.2,1,0.3,1.6,0.5
			l5,1.3c0.9,0.2,1.7,0.4,2.4,0.6l-1.5,0.8l-1.5,5.6l1,0.8l-1.5,0.9c-0.1,0-0.1,0.1-0.2,0S129.2,92,129.1,92z M123.5,89l5.9,1.6
			l1.6-6.2l-5.9-1.6L123.5,89z M133,95.3c-0.1,0-0.2,0.1-0.2,0c0,0-0.1-0.1,0-0.2l2.9-11c0.1-0.5,0.1-0.9,0.1-1.3l1-0.3
			c-0.2,0.6-0.4,1-0.4,1.3l-2.5,9.5l1.1,1.1L133,95.3z"/>
	</g>
	<polygon id="XMLID_581_" class="st2" points="75,54.6 80.1,70.2 96.5,70.2 83.2,79.8 88.3,95.4 75,85.8 61.7,95.4 66.8,79.8
		53.5,70.2 69.9,70.2 	"/>
	<g id="XMLID_1_">
		<g id="XMLID_381_">
			<path id="XMLID_416_" class="st1" d="M21,118.8c-0.1,0.1-0.3,0.1-0.4-0.1c-0.1-0.2-0.1-0.3,0-0.4l3.7-3L24,115
				c-0.1-0.1-0.1-0.1-0.1-0.2c0-0.1,0.1-0.1,0.2-0.2c0.1-0.1,0.2-0.1,0.2-0.1c0.1,0,0.1,0.1,0.2,0.1l0.4,0.5c0.2,0.2,0.2,0.4,0,0.6
				L21,118.8z"/>
			<path id="XMLID_414_" class="st1" d="M26.9,125.2c-0.1,0.1-0.3,0.1-0.4,0c-0.2-0.2-0.2-0.3-0.1-0.4l3.3-3.4l-0.3-0.3
				c-0.1-0.1-0.1-0.1-0.1-0.2s0-0.1,0.1-0.2c0.1-0.1,0.2-0.1,0.2-0.1c0.1,0,0.1,0,0.2,0.1l0.4,0.4c0.2,0.2,0.3,0.4,0.1,0.6
				L26.9,125.2z"/>
			<path id="XMLID_411_" class="st1" d="M37.2,126.8c0.3,0.2,0.5,0.5,0.6,0.8c0.1,0.3,0.2,0.6,0.2,0.9s-0.1,0.6-0.2,1
				c-0.1,0.3-0.3,0.6-0.6,1c-0.2,0.3-0.5,0.6-0.7,0.8c-0.3,0.2-0.6,0.4-0.8,0.5c-0.3,0.1-0.6,0.1-0.9,0.1c-0.3,0-0.6-0.1-0.9-0.4
				c-0.3-0.2-0.5-0.5-0.6-0.7c-0.1-0.3-0.2-0.6-0.2-0.9c0-0.3,0.1-0.6,0.2-1c0.1-0.3,0.3-0.6,0.5-1c0.2-0.3,0.5-0.6,0.7-0.8
				c0.3-0.2,0.5-0.4,0.8-0.5c0.3-0.1,0.6-0.2,0.9-0.1C36.6,126.4,36.9,126.5,37.2,126.8z M34.2,130.9c0.2,0.2,0.4,0.2,0.6,0.2
				c0.2,0,0.4-0.1,0.6-0.2c0.2-0.1,0.4-0.3,0.6-0.4c0.2-0.2,0.4-0.4,0.5-0.6c0.2-0.2,0.3-0.5,0.4-0.7s0.2-0.5,0.2-0.7
				c0-0.2,0-0.5,0-0.7c-0.1-0.2-0.2-0.4-0.4-0.5c-0.2-0.1-0.4-0.2-0.6-0.2c-0.2,0-0.4,0.1-0.7,0.2c-0.2,0.1-0.4,0.3-0.6,0.5
				s-0.4,0.4-0.5,0.6c-0.2,0.2-0.3,0.5-0.4,0.7c-0.1,0.2-0.2,0.5-0.2,0.7c0,0.2,0,0.5,0,0.7S34,130.7,34.2,130.9z"/>
			<path id="XMLID_409_" class="st1" d="M42.8,136.6c-0.1,0.2-0.2,0.2-0.4,0.1c-0.2-0.1-0.3-0.2-0.2-0.4l2.2-4.2l-0.4-0.2
				c-0.1,0-0.1-0.1-0.2-0.2c0-0.1,0-0.1,0.1-0.2c0.1-0.1,0.1-0.2,0.2-0.2c0.1,0,0.1,0,0.2,0l0.5,0.3c0.3,0.1,0.4,0.3,0.3,0.5
				L42.8,136.6z"/>
			<path id="XMLID_406_" class="st1" d="M53.1,135.2c0.4,0.1,0.6,0.3,0.8,0.5c0.2,0.2,0.3,0.5,0.4,0.8c0.1,0.3,0.1,0.6,0,1
				s-0.1,0.7-0.3,1.1c-0.1,0.4-0.3,0.7-0.5,1c-0.2,0.3-0.4,0.5-0.7,0.7c-0.3,0.2-0.5,0.3-0.8,0.4c-0.3,0.1-0.6,0-0.9-0.1
				s-0.6-0.3-0.8-0.5s-0.3-0.5-0.4-0.8c-0.1-0.3-0.1-0.6-0.1-1c0-0.4,0.1-0.7,0.2-1.1c0.1-0.4,0.3-0.7,0.5-1
				c0.2-0.3,0.4-0.6,0.7-0.7c0.2-0.2,0.5-0.3,0.8-0.4C52.5,135.1,52.8,135.1,53.1,135.2z M51.4,140c0.2,0.1,0.5,0.1,0.7,0
				c0.2-0.1,0.4-0.2,0.6-0.3c0.2-0.2,0.3-0.4,0.5-0.6c0.1-0.2,0.2-0.5,0.3-0.7c0.1-0.3,0.2-0.5,0.2-0.8s0.1-0.5,0-0.8
				c0-0.2-0.1-0.5-0.2-0.7c-0.1-0.2-0.3-0.3-0.5-0.4s-0.5-0.1-0.7,0c-0.2,0.1-0.4,0.2-0.6,0.4c-0.2,0.2-0.3,0.4-0.5,0.6
				c-0.1,0.2-0.3,0.5-0.4,0.8c-0.1,0.3-0.2,0.5-0.2,0.8c0,0.3,0,0.5,0,0.7c0,0.2,0.1,0.4,0.2,0.6C51,139.8,51.2,139.9,51.4,140z"/>
			<path id="XMLID_402_" class="st1" d="M63.1,140.6c0.3,0.2,0.5,0.4,0.7,0.7c0.1,0.3,0.2,0.6,0.1,0.9c0,0.2-0.1,0.5-0.3,0.7
				c-0.1,0.2-0.3,0.3-0.5,0.5c-0.2,0.1-0.4,0.2-0.6,0.2c-0.2,0-0.5,0-0.8,0c-0.3-0.1-0.5-0.1-0.7-0.3c-0.2-0.1-0.4-0.3-0.5-0.5
				c-0.1-0.2-0.2-0.4-0.3-0.6c0-0.2,0-0.5,0-0.7c0.1-0.3,0.2-0.5,0.4-0.8c0.2-0.2,0.5-0.4,0.9-0.4c-0.2-0.2-0.4-0.4-0.5-0.6
				c-0.1-0.2-0.1-0.5-0.1-0.7c0-0.2,0.1-0.4,0.2-0.5c0.1-0.2,0.2-0.3,0.4-0.4c0.2-0.1,0.4-0.2,0.6-0.2c0.2,0,0.4,0,0.7,0
				c0.5,0.1,0.8,0.3,1.1,0.6c0.2,0.3,0.3,0.7,0.2,1.1c0,0.2-0.1,0.4-0.3,0.6C63.6,140.4,63.4,140.5,63.1,140.6z M61.8,143
				c0.4,0.1,0.7,0,1-0.2s0.4-0.4,0.5-0.8c0-0.1,0-0.3,0-0.4c0-0.1-0.1-0.3-0.2-0.4c-0.1-0.1-0.2-0.2-0.3-0.3
				c-0.1-0.1-0.3-0.1-0.4-0.2c-0.2,0-0.3,0-0.5,0c-0.2,0-0.3,0.1-0.4,0.2s-0.2,0.2-0.3,0.3c-0.1,0.1-0.2,0.3-0.2,0.4
				c-0.1,0.3,0,0.6,0.2,0.9C61.2,142.7,61.4,142.9,61.8,143z M62.4,140.1c0.3,0.1,0.5,0,0.7-0.1c0.2-0.1,0.3-0.3,0.4-0.6
				c0-0.1,0-0.2,0-0.4c0-0.1-0.1-0.2-0.1-0.3c-0.1-0.1-0.2-0.2-0.3-0.2c-0.1-0.1-0.2-0.1-0.4-0.1c-0.3-0.1-0.5,0-0.7,0.1
				c-0.2,0.1-0.3,0.3-0.4,0.6c0,0.3,0,0.5,0.1,0.7S62.1,140.1,62.4,140.1z"/>
			<path id="XMLID_399_" class="st1" d="M72.7,139c0.4,0,0.7,0.1,1,0.3c0.3,0.2,0.5,0.4,0.6,0.6c0.2,0.3,0.3,0.6,0.3,0.9
				s0.1,0.7,0.1,1.1c0,0.4-0.1,0.7-0.2,1.1c-0.1,0.3-0.2,0.6-0.4,0.9c-0.2,0.3-0.4,0.5-0.7,0.6c-0.3,0.1-0.6,0.2-0.9,0.2
				c-0.4,0-0.7-0.1-0.9-0.3c-0.3-0.2-0.5-0.4-0.6-0.6c-0.2-0.3-0.3-0.6-0.4-0.9s-0.1-0.7-0.1-1.1c0-0.4,0.1-0.7,0.2-1.1
				c0.1-0.3,0.2-0.7,0.4-0.9c0.2-0.3,0.4-0.5,0.7-0.6C72.1,139.1,72.4,139,72.7,139z M72.6,144.1c0.3,0,0.5-0.1,0.7-0.2
				c0.2-0.1,0.3-0.3,0.4-0.5c0.1-0.2,0.2-0.4,0.3-0.7c0.1-0.3,0.1-0.5,0.1-0.8c0-0.3,0-0.5,0-0.8s-0.1-0.5-0.2-0.8s-0.2-0.4-0.4-0.6
				s-0.4-0.2-0.6-0.2c-0.3,0-0.5,0.1-0.7,0.2c-0.2,0.1-0.3,0.3-0.4,0.5c-0.1,0.2-0.2,0.5-0.3,0.7s-0.1,0.6-0.1,0.8
				c0,0.3,0,0.5,0,0.8c0,0.3,0.1,0.5,0.2,0.7c0.1,0.2,0.2,0.4,0.4,0.5S72.3,144.1,72.6,144.1z"/>
			<path id="XMLID_397_" class="st1" d="M82.8,144.1c0,0.1-0.1,0.2-0.2,0.2s-0.2,0.1-0.3,0.1c-0.1,0-0.1,0-0.2,0
				c0,0-0.1-0.1-0.1-0.1c0,0,0-0.1,0-0.1c0,0,0-0.1,0-0.1l1.8-4.8l-2.6,0.3c-0.2,0-0.3-0.1-0.3-0.2c0-0.1,0-0.2,0-0.3
				c0-0.1,0.1-0.1,0.2-0.1l3-0.4c0.2,0,0.4,0,0.4,0.2c0,0,0,0.1,0,0.2c-0.1,0.3-0.2,0.6-0.3,0.9c-0.1,0.3-0.2,0.7-0.4,1.1
				c-0.1,0.4-0.3,0.9-0.5,1.4S83,143.4,82.8,144.1z"/>
			<path id="XMLID_395_" class="st1" d="M91.8,139.1c0.1-0.1,0.3-0.1,0.4-0.2c0.1,0,0.2-0.1,0.4-0.1c0.3-0.1,0.5-0.1,0.8-0.1
				c0.2,0,0.5,0.1,0.7,0.2c0.2,0.1,0.4,0.2,0.5,0.4c0.1,0.2,0.3,0.4,0.3,0.7c0.1,0.2,0.1,0.5,0,0.7c0,0.2-0.1,0.5-0.2,0.7
				s-0.3,0.4-0.5,0.6s-0.5,0.3-0.7,0.4c-0.2,0.1-0.4,0.1-0.5,0.1c-0.2,0-0.3,0-0.4,0c-0.1,0-0.3-0.1-0.4-0.1c-0.1,0-0.2-0.1-0.3-0.2
				c-0.1,0-0.1-0.1-0.2-0.2c0-0.1,0-0.2,0-0.2c0-0.1,0.1-0.1,0.2-0.1c0.1,0,0.1,0,0.2,0c0.2,0.1,0.4,0.2,0.6,0.2s0.4,0,0.6,0
				c0.2,0,0.3-0.1,0.5-0.2c0.1-0.1,0.2-0.2,0.3-0.4c0.1-0.1,0.1-0.3,0.2-0.5s0-0.3,0-0.5c-0.1-0.3-0.3-0.6-0.5-0.7
				c-0.3-0.1-0.6-0.2-1-0.1c-0.2,0-0.3,0.1-0.4,0.1s-0.2,0.1-0.2,0.1c-0.1,0-0.1,0.1-0.2,0.1c-0.1,0-0.1,0.1-0.2,0.1
				c-0.1,0-0.2,0-0.3,0c-0.1-0.1-0.1-0.1-0.1-0.2l-0.2-2c0-0.1,0-0.3,0-0.3c0-0.1,0.1-0.1,0.3-0.2l2-0.6c0.2,0,0.3,0,0.3,0.2
				c0.1,0.2,0,0.3-0.2,0.4l-1.9,0.5L91.8,139.1z"/>
			<path id="XMLID_391_" class="st1" d="M103.1,135.4c0.4,0,0.7,0.1,1,0.2c0.3,0.2,0.5,0.4,0.6,0.7c0.1,0.2,0.2,0.5,0.2,0.7
				c0,0.2,0,0.4-0.1,0.7c-0.1,0.2-0.2,0.4-0.4,0.6c-0.2,0.2-0.4,0.3-0.7,0.4c-0.3,0.1-0.5,0.2-0.8,0.2c-0.2,0-0.5,0-0.7-0.1
				c-0.2-0.1-0.4-0.2-0.6-0.3c-0.2-0.2-0.3-0.4-0.4-0.6c-0.1-0.3-0.2-0.6-0.1-0.9s0.2-0.6,0.5-0.9c-0.3,0-0.5-0.1-0.7-0.2
				c-0.2-0.1-0.4-0.3-0.5-0.5c-0.1-0.2-0.1-0.4-0.1-0.6c0-0.2,0-0.4,0.1-0.5c0.1-0.2,0.2-0.3,0.4-0.5c0.2-0.1,0.3-0.3,0.5-0.4
				c0.4-0.2,0.8-0.2,1.2-0.1c0.4,0.1,0.6,0.4,0.8,0.8c0.1,0.2,0.1,0.4,0.1,0.7C103.3,135,103.2,135.2,103.1,135.4z M102.2,135.5
				c0.3-0.1,0.4-0.3,0.5-0.5c0.1-0.2,0.1-0.5,0-0.7c-0.1-0.1-0.1-0.2-0.2-0.3c-0.1-0.1-0.2-0.1-0.3-0.2c-0.1,0-0.2-0.1-0.4-0.1
				c-0.1,0-0.3,0-0.4,0.1c-0.2,0.1-0.4,0.3-0.5,0.5c-0.1,0.2-0.1,0.5,0,0.7c0.1,0.2,0.3,0.4,0.5,0.5
				C101.7,135.7,101.9,135.6,102.2,135.5z M103.4,138.1c0.3-0.2,0.6-0.4,0.7-0.7c0.1-0.3,0.1-0.6-0.1-0.9c-0.1-0.1-0.2-0.3-0.3-0.3
				c-0.1-0.1-0.3-0.2-0.4-0.2c-0.2,0-0.3-0.1-0.5-0.1c-0.2,0-0.3,0-0.5,0.1c-0.2,0.1-0.3,0.2-0.4,0.3c-0.1,0.1-0.2,0.2-0.2,0.4
				c-0.1,0.1-0.1,0.3-0.1,0.4c0,0.2,0,0.3,0.1,0.5c0.1,0.3,0.4,0.5,0.7,0.6C102.7,138.3,103.1,138.3,103.4,138.1z"/>
			<path id="XMLID_388_" class="st1" d="M110.5,131.1c0-0.1,0.1-0.2,0.1-0.2c0-0.1,0.1-0.1,0.1-0.2c0-0.1,0.1-0.1,0.1-0.1
				s0.1-0.1,0.2-0.2c0.2-0.2,0.5-0.2,0.7-0.3c0.2,0,0.5,0,0.7,0c0.2,0.1,0.4,0.2,0.6,0.3c0.2,0.1,0.4,0.3,0.5,0.5
				c0.1,0.2,0.2,0.4,0.3,0.6c0,0.2,0,0.5,0,0.7s-0.1,0.5-0.3,0.7c-0.1,0.2-0.3,0.4-0.6,0.6c-0.2,0.2-0.5,0.3-0.7,0.3
				c-0.2,0-0.5,0-0.7,0c-0.2-0.1-0.4-0.2-0.6-0.3c-0.2-0.1-0.3-0.3-0.5-0.5c-0.1-0.2-0.3-0.5-0.4-0.8c-0.1-0.3-0.2-0.6-0.2-0.9
				c-0.1-0.3-0.1-0.6-0.1-0.9c0-0.3,0-0.6,0.1-0.9c0.1-0.6,0.3-1,0.4-1.1c0,0,0.1,0,0.2,0c0.1,0,0.1,0,0.2,0c0,0,0.1,0.1,0.1,0.1
				c0,0.1,0,0.1,0,0.2c-0.1,0.2-0.1,0.3-0.1,0.5c0,0.2-0.1,0.4-0.1,0.5s0,0.4,0,0.6C110.5,130.6,110.5,130.9,110.5,131.1z
				 M112.7,133.1c0.2-0.1,0.3-0.2,0.4-0.4c0.1-0.1,0.1-0.3,0.2-0.4c0-0.2,0-0.3,0-0.5s-0.1-0.3-0.2-0.4c-0.2-0.3-0.5-0.5-0.8-0.6
				c-0.3-0.1-0.6,0-0.9,0.2c-0.2,0.1-0.3,0.2-0.4,0.3c-0.1,0.1-0.1,0.3-0.2,0.4c0,0.1,0,0.3,0,0.5c0,0.2,0.1,0.3,0.2,0.5
				c0.1,0.1,0.2,0.2,0.3,0.3c0.1,0.1,0.3,0.2,0.4,0.2c0.1,0,0.3,0.1,0.4,0S112.5,133.2,112.7,133.1z"/>
			<path id="XMLID_384_" class="st1" d="M120,124.1c0.3-0.1,0.7-0.2,1-0.1c0.3,0.1,0.6,0.2,0.8,0.5c0.2,0.2,0.3,0.4,0.4,0.6
				c0.1,0.2,0.1,0.4,0.1,0.7c0,0.2-0.1,0.4-0.2,0.7c-0.1,0.2-0.3,0.4-0.5,0.6c-0.2,0.2-0.4,0.3-0.7,0.4c-0.2,0.1-0.5,0.1-0.7,0.1
				s-0.4-0.1-0.6-0.2c-0.2-0.1-0.4-0.2-0.6-0.4c-0.2-0.2-0.3-0.5-0.4-0.8c0-0.3,0-0.6,0.2-1c-0.3,0.1-0.5,0.1-0.8,0
				s-0.4-0.2-0.6-0.4c-0.1-0.2-0.2-0.3-0.3-0.5c-0.1-0.2-0.1-0.4,0-0.6c0-0.2,0.1-0.4,0.2-0.6c0.1-0.2,0.2-0.4,0.4-0.5
				c0.4-0.3,0.7-0.5,1.1-0.5c0.4,0,0.7,0.2,1,0.5c0.1,0.2,0.2,0.4,0.3,0.6S120.1,123.9,120,124.1z M119.2,124.5
				c0.2-0.2,0.3-0.4,0.3-0.6c0-0.2-0.1-0.5-0.2-0.6c-0.1-0.1-0.2-0.2-0.3-0.2c-0.1,0-0.2-0.1-0.3-0.1c-0.1,0-0.2,0-0.4,0.1
				c-0.1,0-0.2,0.1-0.3,0.2c-0.2,0.2-0.3,0.4-0.3,0.6c0,0.2,0.1,0.5,0.2,0.7c0.2,0.2,0.4,0.3,0.6,0.3
				C118.8,124.8,119,124.7,119.2,124.5z M121.1,126.6c0.3-0.3,0.4-0.5,0.4-0.9c0-0.3-0.1-0.6-0.3-0.9c-0.1-0.1-0.2-0.2-0.4-0.2
				c-0.1-0.1-0.3-0.1-0.4-0.1c-0.2,0-0.3,0-0.5,0.1c-0.2,0.1-0.3,0.1-0.4,0.2c-0.1,0.1-0.2,0.2-0.3,0.4c-0.1,0.1-0.1,0.3-0.1,0.4
				c0,0.2,0,0.3,0.1,0.5c0,0.1,0.1,0.3,0.2,0.4c0.2,0.3,0.5,0.4,0.8,0.4S120.9,126.9,121.1,126.6z"/>
			<path id="XMLID_382_" class="st1" d="M129.8,117.7c0.2,0.1,0.2,0.3,0,0.4l-1.9,2.3c0,0-0.1,0.1-0.1,0.1s-0.1,0-0.2,0
				c-0.1,0-0.1,0-0.2-0.1c-0.1,0-0.1-0.1-0.1-0.2c0,0-0.1-0.1-0.1-0.2c0-0.2,0-0.3,0-0.6c0-0.2,0-0.5,0-0.7c0-0.3,0-0.5-0.1-0.8
				c0-0.3-0.1-0.5-0.1-0.8c-0.1-0.2-0.2-0.5-0.3-0.7s-0.2-0.4-0.4-0.5c-0.2-0.2-0.5-0.3-0.7-0.2c-0.2,0-0.5,0.2-0.7,0.4
				c-0.2,0.3-0.3,0.5-0.2,0.8c0.1,0.3,0.2,0.5,0.5,0.7c0.1,0.1,0.2,0.2,0.2,0.2s0,0.2-0.1,0.3c-0.1,0.1-0.2,0.2-0.2,0.2
				c-0.1,0-0.2,0-0.3-0.1c-0.4-0.3-0.6-0.7-0.7-1.1c-0.1-0.4,0.1-0.9,0.5-1.3c0.2-0.2,0.3-0.4,0.5-0.5c0.2-0.1,0.4-0.2,0.6-0.2
				c0.2,0,0.4,0,0.6,0.1c0.2,0.1,0.4,0.2,0.5,0.3c0.2,0.1,0.3,0.3,0.4,0.5s0.2,0.4,0.3,0.6c0.1,0.2,0.1,0.5,0.2,0.7s0.1,0.5,0.1,0.7
				c0.1,0.5,0.1,1.1,0.1,1.7l1.6-1.9C129.5,117.5,129.6,117.5,129.8,117.7z"/>
		</g>
	</g>
</g>
</svg>
