<?xml version="1.0" encoding="utf-8"?>
<!-- Generator: Adobe Illustrator 19.0.0, SVG Export Plug-In . SVG Version: 6.00 Build 0)  -->
<svg version="1.1" id="图层_1" xmlns="http://www.w3.org/2000/svg" xmlns:xlink="http://www.w3.org/1999/xlink" x="0px" y="0px"
	 viewBox="0 0 448.5 114.5" style="enable-background:new 0 0 448.5 114.5;" xml:space="preserve">
<style type="text/css">
	.st0{fill:#666666;}
	.st1{fill:#767676;}
</style>
<g id="XMLID_1_">
	<path id="XMLID_2_" class="st0" d="M27.3,14c-1.5-0.3-2.1-0.7-1.9-1.3c0.1-0.2,0.6-0.3,1.6-0.4c1-0.1,1.7-0.2,2-0.5
		c0.3-0.2,0.7-0.8,1.3-1.7l1.7-3c0.4-0.8,0.6-1.6,0.6-2.6c0-1-0.3-1.9-0.9-2.8s-0.8-1.5-0.7-1.6s0.5-0.2,1.2-0.1
		c0.3,0.1,0.9,0.4,1.7,1c0.9,0.6,1.5,1.1,1.8,1.4c0.4,0.3,0.7,0.9,1.2,1.7c0.4,0.8,0.6,1.5,0.4,1.9c-0.1,0.2-0.4,0.6-1,1.1
		s-2,2.5-4.3,5.8c3.8,1.9,6.6,3.5,8.6,4.9c2,1.4,4.1,3.3,6.3,5.7c2.2,2.4,4.7,5.2,7.3,8.3s4.8,5.7,6.7,7.6c1.8,1.9,4.2,3.5,7.3,4.7
		c3,1.2,4.4,2,4.3,2.4c-0.2,0.4-0.5,0.6-1,0.7c-0.5,0.1-1.3,0-2.3-0.2c-1-0.2-2.4-0.5-4.2-0.7c-1.7-0.2-2.9-0.4-3.5-0.6
		c-0.6-0.2-1.1-0.5-1.6-0.8c-0.5-0.3-1.5-1.7-3-4.1s-3.9-5.7-7.1-9.9c-3.1-4.2-6.4-7.6-9.7-10.1c-3.3-2.5-6.4-4.5-9.3-5.9
		c-2.4,3.5-5.5,8.1-9.5,13.7c-4,5.6-6.8,9.6-8.7,11.8c-1.8,2.2-3.9,4.4-6.3,6.6c-2.4,2.1-4,3.2-4.8,3.2c-0.8,0-1.3-0.2-1.4-0.4
		c-0.1-0.2,0.2-0.9,1-2.1c0.5-0.7,0.9-1.4,1.1-2.3c0.3-0.9,0.5-1.6,0.8-2C3.4,43.2,3.6,43,3.7,43c0.1,0,0.1,0.4,0,1.1
		c-0.1,0.7-0.1,1.2,0.1,1.3c0.1,0.1,0.6-0.1,1.3-0.7c1.5-1.2,4.3-4.3,8.3-9.4C17.3,30.2,21.9,23.2,27.3,14z M20.2,48.1
		c0.7-0.1,2-0.3,3.8-0.7l6.6-1.8c4-1,6.9-1.9,8.8-2.9c1.9-0.9,3.1-1.4,3.5-1.5c0.5-0.1,1.4,0,2.6,0.2c1.2,0.2,2.1,0.5,2.9,1
		c0.8,0.5,1.1,0.9,0.9,1.3c-0.1,0.3-0.4,0.4-0.9,0.5c-0.5,0.1-1.1,0.2-2,0.3c-0.9,0.1-2.7,0.4-5.3,1c-2.6,0.6-4.7,1.1-6.1,1.6
		c-1.5,0.5-2.3,1-2.6,1.6c-0.2,0.6,0.2,1.5,1.3,2.9c0.5,0.7,1.2,1.4,2.2,2.1c1,0.7,1.6,1.3,1.9,1.7c0.3,0.4,0.6,1.1,0.7,2
		c0.2,1,0.1,2.3-0.3,4.1c-0.5,2.4-1,4.2-1.6,5.3c-0.5,1.2-1.2,2.3-1.9,3.4s-1.3,1.8-1.8,2s-0.9,0.3-1,0.2c-0.2-0.1,0.1-0.7,0.8-1.9
		c0.6-0.9,1.1-2.2,1.4-3.7c0.4-1.6,0.6-3.1,0.6-4.6c0-1.5,0-2.7-0.2-3.5c-0.3-1-0.7-2-1.4-3.1l-1.9-2.6c-0.4-0.7-0.7-1.6-0.8-2.6
		c-0.1-1-0.2-1.6-0.4-1.8c-0.2-0.2-1.1,0-2.6,0.7c-2.9,1.3-5.3,1.9-7.2,1.7c-0.8-0.1-1.6-0.3-2.3-0.6c-0.7-0.4-1.4-1-1.9-2
		c-0.6-1-0.6-2-0.1-3c0.5-1,1-1.3,1.4-0.9l-0.3,1.7c0,0.7,0.3,1.3,0.9,1.6C18.7,48.1,19.4,48.2,20.2,48.1z M24.8,38.5l4.2-2.7
		c1.4-1,2.6-1.7,3.5-2.2c0.9-0.5,1.4-1,1.5-1.5c0.1-0.5-0.8-1-2.6-1.6c-2.9-0.9-4.6-1.7-5.3-2.3c-0.7-0.6-0.9-1-0.7-1.1
		c0.2-0.2,0.8-0.1,2,0.1l4,0.2l4.3,1.4c1.4,0.4,2.2,0.8,2.4,1c0.2,0.3,0.4,0.8,0.6,1.7c0.2,0.8,0.3,1.3,0.3,1.5
		c-0.1,0.7-0.5,1.1-1.1,1.4c-0.6,0.3-1.4,0.5-2.3,0.7c-0.9,0.2-1.7,0.5-2.4,0.8l-2.8,1.5c-1,0.5-2.2,1-3.5,1.2
		C25.5,38.6,24.9,38.7,24.8,38.5z"/>
	<path id="XMLID_6_" class="st0" d="M122.7,26.5c-0.5,0.5-1,1-1.7,1.4c-0.7,0.4-1,0.6-1.1,0.5c-0.1-0.1,0.2-0.6,1-1.5
		c0.7-0.8,1.8-2.2,3.3-4.4c-0.1-0.3-0.3-0.7-0.5-1.3c-0.2-0.5-0.2-0.9,0.1-1.2c0.3-0.2,1,0,2.2,0.8c1.9-2.6,3.8-5.5,6-8.6
		c-4.2,1.4-6.7,2.3-7.4,2.7c-0.7,0.4-1.2,0.6-1.5,0.6c-0.3,0-0.9-0.3-1.8-0.9c-0.9-0.6-1.2-1.2-1.1-1.8c0.1-0.3,1-0.5,2.9-0.6
		c1.9-0.2,4.5-1,7.9-2.4c3.4-1.4,5.7-2.6,7-3.5c1.3-0.9,2.1-1.3,2.5-1.3c0.2,0,0.7,0.3,1.6,0.9c0.9,0.6,1.4,1,1.6,1.3
		c0.1,0.3,0.1,0.6,0,0.8c-0.1,0.1-0.3,0.3-0.5,0.4l-3,1.2c-1,0.4-2.1,1.1-3.3,2c-1.2,0.9-2.3,1.8-3.2,2.6l-3.8,4.4l-3.2,3.6
		c0.4,1,0.7,1.8,0.9,2.4c0.2,0.6,0.4,1.3,0.5,2c0.1,1,0,2.3-0.4,3.9c-0.3,1.7-0.3,2.6,0,2.7s0.9,0,1.7-0.4c0.5-0.2,1.3-0.7,2.5-1.3
		c1.1-0.6,2.4-1.3,3.7-2s2.7-1.5,3.9-2.3c1.2-0.9,2.1-1.3,2.6-1.4c0.4,0,1.1,0.1,2,0.3c0.9,0.2,1.6,0.5,2,0.8c0.5,0.4,0.7,0.7,0.6,1
		c-0.1,0.3-0.3,0.5-0.8,0.7c-0.5,0.2-1.4,0.5-2.7,0.8c-1.3,0.4-3.8,1.3-7.3,2.9l-4.7,2.1c-1.5,0.7-2.3,1.3-2.3,1.7
		c0,0.4,0.6,1.1,1.9,2c0.4,0.3,1.5,1.1,3,2.4c1.6,1.2,2.6,2.1,3.1,2.5c0.5,0.4,2.2,2,5.1,4.8c2.9,2.8,5.4,4.9,7.4,6.4
		c2,1.5,4.2,3,6.5,4.4s4.4,2.6,6.3,3.4s3.2,1.5,3.9,2c0.8,0.5,1.1,1,0.9,1.4c-0.1,0.4-1.4,0.5-3.7,0.3l-4.5-0.3
		c-1.5-0.1-2.7-0.4-3.8-0.9s-2-1-2.7-1.5c-0.7-0.6-1.4-1.4-2.2-2.3l-2.5-3c-0.5-0.6-2.1-2.3-4.8-5.2s-4.4-4.7-5.3-5.6l-6-5.3
		c-2.2-2-3.8-2.9-4.7-2.5c-0.5,0.2-0.9,1.3-1.3,3.2s-0.9,4.2-1.7,6.9c-0.8,2.7-1.6,5-2.4,6.8s-1.7,3.2-2.6,4.1s-1.9,1.4-2.8,1.8
		c-0.9,0.4-2.1,0.8-3.6,1c-1.4,0.3-2.4,0.4-2.7,0.4l-2.5-0.2c-1.9-0.1-2.7-0.4-2.6-0.9c0-0.1,0.2-0.2,0.6-0.4
		c0.4-0.1,1.1-0.2,2.2-0.3s2.3-0.3,3.6-0.8c1.3-0.5,2.5-1.1,3.7-2c1.2-0.9,2.3-2,3.3-3.3c1-1.3,1.9-3.4,2.9-6.3l1.7-5.8
		c0.8-2.7,1.1-4.2,0.7-4.7c-0.4-0.5-1.5-0.2-3.5,0.8l-4.9,2.1c-1.2,0.6-2.1,0.9-2.5,0.8c-0.7-0.1-1.4-0.6-2-1.4
		c-0.6-0.8-0.9-1.6-1-2.4c-0.1-0.8,0.1-1.1,0.6-1.1l0.9,1.1c0.4,0.4,1.3,0.4,2.5,0c0.4-0.1,2.2-0.6,5.2-1.5c3-0.8,4.8-1.7,5.5-2.6
		c0.6-0.9,1.1-2.1,1.3-3.5c0.2-1.4,0.3-2.4,0.2-3l-0.4-3.6C123.8,25.3,123.2,26,122.7,26.5z"/>
	<path id="XMLID_9_" class="st0" d="M225.5,14.8c0.8-0.1,1.5-0.1,2.3,0c0.7,0.1,1.4,0.4,2,0.9c0.6,0.5,0.9,0.8,0.9,1.2
		c0.1,0.3-0.8,0.6-2.5,0.8c-3.2,0.5-7.5,1.4-12.7,2.8c-5.2,1.4-9.3,2.7-12.1,3.8c-2.9,1.1-4.7,1.7-5.5,1.6c-0.5,0-1.3-0.2-2.3-0.5
		s-1.7-0.6-1.9-0.9s-0.4-0.6-0.4-0.7c0-0.2,0.8-0.5,2.5-0.8c1.7-0.3,2.9-0.5,3.6-0.7c0.7-0.2,3.6-0.9,8.6-2.3c5-1.4,8.2-2.3,9.5-2.7
		l4.5-1.6C223.6,15.3,224.8,15,225.5,14.8z M201.2,52.1c0.2,0,0.3,0.5,0.4,1.5c0.1,0.9,0.1,1.9,0,2.9c-0.1,1-0.1,1.5,0.1,1.6
		c0.2,0.1,0.5-0.1,1.1-0.5l2.2-1.8c1-0.7,1.8-1.3,2.3-1.9s0.9-0.6,1-0.2c0.1,0.4-0.1,0.8-0.6,1.2c-0.3,0.2-0.6,0.7-1,1.3l-2.3,3.2
		l-1.6,2.4c-0.3,0.4-0.8,0.9-1.3,1.5c-0.6,0.6-1,0.8-1.2,0.8c-0.3,0-0.7-0.3-1.1-0.8c-0.4-0.5-0.6-1.1-0.8-1.8
		c-0.2-0.7-0.1-1.6,0.2-2.6c0.1-0.4,0.2-0.7,0.4-1.1l0.8-1.6l0.4-1.5C200.6,53,201,52.1,201.2,52.1z M210,29.1
		c1.2-0.7,2.9-1.6,5-2.6c2.1-1,3.5-1.5,4.1-1.6c1.4-0.2,2.6,0.1,3.7,0.7c1.1,0.7,1.8,1.2,2.1,1.6c0.3,0.4,0.5,0.8,0.5,1.4
		c0,0.5-0.1,1.1-0.3,1.7l-1.3,2.9c-0.5,1.3-1,2.3-1.5,3c-0.4,0.7-0.6,1.2-0.4,1.5c0,0.1,0.2,0.2,0.7,0.6c0.5,0.3,0.7,0.6,0.6,0.9
		c-0.1,0.2-0.5,0.4-1.3,0.6c-0.8,0.2-1.8,0.6-3.2,1c-1.3,0.5-2.5,0.9-3.5,1.2c-1,0.3-1.5,0.5-1.6,0.7s0.3,0.7,1,1.8
		c0.2,0.3,0.4,1.2,0.7,2.8l0.3,2.1c-0.1,2-0.1,3.6-0.1,4.6v7.8c-0.1,2.1-0.3,4-0.7,5.9s-0.7,2.9-1.1,3s-0.9-0.4-1.6-1.3
		c-0.3-0.3-0.5-0.6-0.6-0.9l-0.8-1.8c-0.2-0.4-0.6-1.1-1.2-2.3c-0.6-1.1-1.1-2-1.5-2.6s-0.6-1.1-0.7-1.5c-0.1-0.4-0.1-0.7,0-0.8
		c0.1-0.1,0.5,0.4,1.3,1.6c0.2,0.4,0.8,1,1.6,1.8c0.8,0.8,1.4,1.2,1.9,0.9c0.3-0.1,0.5-0.7,0.6-1.7c0.1-1,0.1-2,0.2-3
		c0.1-3.4,0.1-6.1,0-8.3s-0.1-4-0.1-5.7c0-1.6-0.9-1.8-2.7-0.7c-2.2,1.4-3.5,2.2-3.9,2.2c-0.4,0-0.8-0.2-1.2-0.7
		c-0.5-0.5-1-1.5-1.5-3c-0.5-1.5-0.8-2.7-0.9-3.7s-0.1-2.2,0.1-3.7c0.1-1.4,0.3-2.6,0.6-3.7c0.2-1.1,0.7-2,1.5-2.9
		c0.7-0.9,1.3-1.2,1.6-0.9l-0.7,2.4l-0.4,2.3C207.1,30.9,208.8,29.8,210,29.1z M221.4,29.2c-0.2-1.1-1.2-1.5-2.7-1.2
		c-1.2,0.2-3.2,1-6,2.4c-2.8,1.4-4.5,2.3-5.3,2.7c-0.7,0.5-1.3,1-1.6,1.5c-0.3,0.5-0.5,1.2-0.5,2c-0.1,0.8-0.1,1.5,0,2.1
		c0.1,1.1,0.2,2,0.5,2.6c0.3,0.6,0.6,1,0.8,1.2c0.3,0.1,0.8,0,1.7-0.4c2.4-1.2,4.6-2.1,6.4-2.7c1.9-0.7,3.1-1.3,3.7-1.8
		c0.6-0.5,1.2-1.3,1.7-2.4c0.5-1.1,0.9-2.2,1.1-3.3C221.5,30.9,221.5,30,221.4,29.2z M213.8,12l1.5-1c0.3-0.3,0.4-0.6,0.5-1
		c0.1-0.4-0.4-1.2-1.4-2.3l-1.7-2l-2.1-2c-0.3-0.3-0.4-0.5-0.3-0.6c0.1-0.1,0.2-0.1,0.4-0.1l1.5,0.5c4.7,1.7,7.1,3.1,7.5,4.3
		c0.3,1.2,0.4,2.3,0.3,3.3c-0.3,2-0.8,3-1.5,3.2c-0.2,0.1-0.6,0-1.3-0.3c-0.7-0.2-1.5-0.4-2.4-0.4c-0.8,0-1.5,0.1-2.1,0.3
		c-0.6,0.2-1,0.3-1,0.3l-0.7-0.2L213.8,12z M221.3,51.8c1,0.4,1.7,1,2.4,1.7c0.6,0.7,0.9,1.7,0.8,2.9c-0.1,1.2-0.3,1.9-0.5,2
		c-0.3,0.1-0.9-0.5-2-1.9c-1-1.3-2.7-2.8-4.9-4.5c-0.2,0-0.5-0.2-0.9-0.5c-0.4-0.3-0.3-0.4,0.3-0.4l0.9-0.1
		C219,51.2,220.4,51.4,221.3,51.8z M228.1,38.8l-2.7-1.1c0.9-0.1,1.6-0.3,2.1-0.5s2.3-1.2,5.2-3.1l1.5-1c0.9-3,1.7-5.4,2.2-7.2
		c0.5-1.8,1.1-3.7,1.6-5.7c0.5-2,1-3.8,1.5-5.5c0.4-1.7,0.6-2.9,0.4-3.6c-0.2-0.7-0.5-1.1-0.9-1.1c-0.2,0-0.4,0.2-0.8,0.4
		s-0.6,0.6-0.9,1c-0.2,0.4-0.4,1-0.4,1.7c0,0.7-0.2,1.2-0.4,1.5c-0.3,0.3-0.5,0-0.6-0.7c-0.1-0.7-0.2-1.3-0.1-1.7l0.3-1.8
		c0.1-0.7,0.2-1.2,0.2-1.5c0.1-0.3,0.4-0.7,1-1.5c0.6-0.7,1.2-1.1,1.9-1.1c0.7,0,1.4,0.2,2,0.8c0.8,0.7,1.3,1.8,1.6,3.2
		c0.2,1.4,0.3,2.4,0.3,3c-0.1,0.4-0.1,0.8-0.2,1.1c-0.1,0.3-0.5,1.2-1.1,2.9c-0.7,1.6-1.3,3.7-2,6.1c-0.7,2.4-1.1,4-1.4,4.7
		l-1.1,3.3c1.4-1,3.1-2.1,5-3.4c1.9-1.3,3-2,3.3-2.2l1.6-1.2c0.8-0.6,1.5-0.9,2.1-1c0.4,0,1,0.1,1.7,0.3s1.3,0.5,1.7,0.9
		c0.4,0.4,0.6,0.6,0.5,0.8c-0.1,0.2-0.4,0.4-1.1,0.6l-2.1,0.5c-2.2,0.7-6.7,3.5-13.5,8.2c-0.3,0.9-1.1,3.1-2.2,6.4s-2,5.9-2.7,7.9
		c-0.7,2-1.7,4.5-2.9,7.6c-1.2,3.1-2.1,5.2-2.6,6.3l-1,1.9c-0.3,0.6-0.6,1-0.9,1c-0.3,0-0.5-0.2-0.8-0.7c-0.2-0.5-0.3-1.1-0.3-1.7
		s0.1-1.1,0.2-1.6c0.1-0.5,0.4-1.2,0.8-2.3l2.9-6.1c1.5-3.4,3-7.4,4.5-11.9l1.6-5.1C230.6,38.6,228.8,39.3,228.1,38.8z M238.8,38.9
		c-0.1-0.2,0.4-0.5,1.3-0.9c0.9-0.4,1.7-0.5,2.3-0.2c0.4,0.3,0.8,0.8,1.1,1.5s0.5,1.3,0.5,1.6c0,0.5-0.5,1.4-1.5,2.8
		c-1,1.4-1.9,3.3-2.6,5.6c-0.8,2.3-1.4,4.5-1.9,6.5s-0.8,3.5-0.7,4.5c0,3,1,4.8,3,5.3c2,0.5,4,0.7,5.8,0.6c5.7-0.2,8.8-0.8,9.4-1.6
		s0.9-1.8,0.9-2.8s0-2.5-0.3-4.2l-0.9-5c-0.2-1.2-0.3-1.7-0.2-1.7c0.1,0,0.4,0.5,1,1.5s0.9,1.6,1,1.9l1.4,3.1
		c0.7,1.6,1.1,2.6,1.3,3.1c0.2,0.4,0.5,1,0.8,1.7c0.4,0.7,0.6,1.3,0.6,1.7c0,0.4-0.2,1-0.7,1.7c-0.3,0.4-0.6,0.8-1,1.1
		c-0.4,0.3-1.2,0.6-2.6,1c-1.3,0.4-2.8,0.8-4.5,1c-1.6,0.3-4,0.4-7.1,0.4c-2.8,0.1-5.2-0.4-7.1-1.3s-3.1-2.4-3.3-4.5
		c-0.2-2.1-0.2-3.9,0.1-5.3c0.1-0.6,0.3-1.6,0.7-3c0.4-1.5,1-3.5,1.8-6.2c0.8-2.7,1.5-4.7,2.2-6.1c0.6-1.3,0.8-2.3,0.6-3
		c-0.1-0.3-0.3-0.5-0.5-0.5h-0.2H239C238.9,39.2,238.9,39.1,238.8,38.9z M250,14.8c-0.1-0.3,0.4-0.4,1.6-0.2l2,0.1
		c0.1,0,0.4,0.3,1.1,0.7l1.9,1.1c0.5,0.4,0.8,1,1.1,1.6c0.3,0.7,0.4,1.1,0.4,1.4c0,0.3-0.1,0.8-0.3,1.6c-0.2,0.7-0.5,1.2-0.7,1.4
		c-0.2,0.2-0.7,0.1-1.4-0.2l-2-0.9c-0.9-0.4-1.3-0.7-1.3-0.8l1.4-0.8c0.3-0.3,0.3-0.9-0.1-1.6c-0.3-0.6-1-1.3-2.1-2
		C250.6,15.3,250,14.9,250,14.8z"/>
	<path id="XMLID_19_" class="st0" d="M300.1,49.9c0-0.2,0-0.7-0.1-1.3c-0.1-0.7-0.1-1.8,0-3.5c0.1-1.6,0.1-3.5,0-5.7
		c-0.1-1.2-0.1-2.3-0.3-3.2c-0.1-0.9-0.3-1.8-0.7-2.7c-0.3-0.8-0.6-1.3-0.8-1.5c-0.2-0.1-0.8,0.5-1.7,1.8c-0.7,1-1.7,2-2.8,2.8
		c-1.1,0.8-2,1.4-2.5,1.9c-0.5,0.4-0.9,0.6-1.2,0.5c-0.2,0-0.3-0.1-0.5-0.2c-0.1-0.1-0.2-0.3-0.2-0.6l0.5-1.6l0.2-1.2
		c0.1-0.2,0.4-0.5,0.9-1c0.5-0.4,0.8-0.7,0.8-0.7l2.8-1.5c0.4-0.3,1.6-1.9,3.5-4.6c1.9-2.7,3.7-5.6,5.5-8.8s2.9-5.2,3.3-6.2
		c0.4-1,0.6-1.9,0.7-2.9c0.1-0.8,0-1.6-0.2-2.3c-0.2-0.7-0.3-1.1-0.2-1.4c0.1-0.3,0.3-0.6,0.7-0.7c0.4-0.1,1.1,0.6,2,2.2l1.3,2
		c0.2,0.4,0.3,0.8,0.3,1.2c0,0.4-0.2,0.9-0.5,1.6l-0.8,1.1c-0.1,0.1-0.3,0.5-0.5,1.1s-0.8,1.5-1.6,2.7s-1.6,2.7-2.6,4.5
		c-0.9,1.8-1.5,2.8-1.7,3.1l-2.9,4.3l-0.4,0.6l-1.5,1.8c0,0.2,0.2,0.4,0.5,0.9c0.4,0.4,0.8,1.1,1.3,2c0.5,0.9,0.9,1.6,1,2l0.3,1.8
		l0.5,2.4c0.5,5.3,0.8,7.9,0.8,7.8c0,0,0.1-0.2,0.4-0.5c0.2-0.3,0.8-1.8,1.7-4.5l2.8-8.4c0.1-0.4,0.5-0.9,1.1-1.4l-3.5,11.5
		c-1.4,3.9-2.3,6.3-2.5,7.3c-0.2,1-0.3,2.1-0.4,3.2l-0.2,3.8c-0.2,2-0.4,3.8-0.7,5.4c-0.3,1.6-0.5,2.9-0.5,3.7s-0.4,1.2-1,1.1
		c0,0-0.4-0.8-1.1-2.4c-0.7-1.6-1-3.1-0.9-4.5l0.4-3l0.4-4.7L300.1,49.9z M324.7,34.3c-0.1-2.9-0.2-4.8-0.3-5.5L324,25
		c-2.9,1.1-5.2,1.6-6.9,1.5c-0.4,0-1-0.2-1.6-0.5s-0.9-0.7-0.8-1.2c0.1-0.2,0.6-0.5,1.5-0.7l2.4-0.4l5-1.4c-0.2-1.3-0.3-2.6-0.5-3.9
		c-0.1-1.3-0.3-2.4-0.5-3.2s-0.5-1.6-0.7-2.1c-0.3-0.5-0.8-1.1-1.5-1.9c-0.7-0.7-0.9-1.4-0.5-2c0.4-0.6,1.3-0.4,2.8,0.5
		c1.5,0.9,2.4,1.6,2.6,2c0.2,0.4,0.3,1.1,0.4,2.3l0.7,5l0.1,2.3c1.2-0.4,4.8-1.9,10.9-4.4c0.3-2.1,0.6-4.3,0.9-6.5
		c0.2-2.2,0.3-3.7,0.3-4.4c-0.1-0.9-0.2-1.7-0.4-2.3c-0.2-0.6-0.6-1.2-1-1.8c-0.4-0.6-0.6-1-0.5-1.1c0.1-0.2,0.4-0.3,0.8-0.3
		c0.4,0,1,0.3,2,1c1,0.7,1.7,1.2,2.1,1.6c0.4,0.4,0.7,0.8,0.7,1.1c0,0.3-0.1,1-0.5,1.9c-0.3,0.7-0.5,1.8-0.7,3.6l-0.5,3.3l-0.4,3.2
		c1.3-0.3,2.3-0.6,3.1-0.8c0.8-0.3,1.3-0.4,1.5-0.5c0.8-0.1,1.5,0,2.4,0.4c0.8,0.4,1.2,0.8,1.1,1.1c-0.1,0.2-0.3,0.4-0.7,0.6
		c-0.4,0.2-1,0.4-1.9,0.6l-1.9,0.5l-2.4,0.5l-1.6,0.5c-0.8,3-1.4,5.4-2,7.1c-0.5,1.7-1,2.8-1.3,3.5l-1.3,2.5
		c4.8-0.8,7.8-1.2,9.2-1.4c1.4-0.2,2.5-0.4,3.5-0.6c1-0.3,1.7-0.4,2.1-0.4c0.4,0.1,1.3,0.4,2.6,0.9c1.3,0.6,2,1.2,1.9,1.9
		c-0.1,0.3-0.6,0.5-1.6,0.5h-4.5c-0.4,0-1.4,0.2-2.9,0.4c-1.5,0.2-4.5,0.6-8.9,1.1c-4.4,0.5-7.3,1.2-8.5,2.2s-2.1,1.8-2.5,2.5
		s-0.8,1.7-1.2,3.2c-0.4,1.4-0.5,2.2-0.4,2.3c0.2,0.1,0.8-0.3,1.9-1.1c1.2-0.9,3.4-2.1,6.4-3.5c3-1.4,5.3-2,6.8-2
		c1.5,0.1,2.5,0.5,3.2,1.3c0.7,0.8,1.2,1.4,1.4,2c0.2,0.6,0.3,1.5,0.3,2.9l-0.2,4v5.3c0,1.3-0.1,3.1-0.3,5.4c-0.2,2.3-0.3,4-0.5,5.2
		c-0.1,1.2-0.4,2.3-0.6,3.2c-0.3,0.9-0.7,1.7-1.3,2.3c-0.6,0.6-1.1,0.9-1.6,0.8c-0.4-0.1-0.9-0.6-1.6-1.6c-0.7-1-1.3-2.1-1.7-3.1
		c-0.4-1-0.9-1.6-1.2-1.8c-0.4-0.2-1-0.2-1.9,0c-0.9,0.2-1.7,0.4-2.3,0.6c-0.6,0.2-1.5,0.6-2.8,1.1c-1.3,0.5-1.9,1-1.9,1.4l0.3,1.5
		c-0.1,0.5-0.3,0.8-0.7,0.9c-0.4,0.1-0.9-0.3-1.6-1.3c-1-1.4-1.7-2.4-2-3c-0.3-0.6-0.5-1.4-0.8-2.4c-0.2-1-0.4-2.1-0.5-3.3
		c-0.1-1.2-0.2-2.8-0.1-4.8c0-2,0-3.5,0.1-4.6c0.1-1,0.2-2.1,0.4-3.3c0.2-1.1,0.4-2.1,0.7-3c0.3-0.8,0.7-1.8,1.2-2.9
		c0.5-1.1,1-1.9,1.5-2.4l1.7-1.8c0.1-0.2-1.6,0.4-4.9,1.6l-4.1,1.2l-2.9,0.9c-2.1,0.5-3.5,0.5-4.1,0c-0.6-0.5-0.9-0.9-0.8-1.3
		c0.1-0.2,0.4-0.4,1.2-0.7l2.8-0.9c0.9-0.3,2.4-0.7,4.6-1.3C320,35.7,322.3,35.1,324.7,34.3z M340.9,50.2c0-1.4,0-2.7,0-3.8
		c0-1.1-0.1-2-0.3-2.7c-0.2-0.6-0.5-1.2-1-1.6c-0.4-0.4-1.2-0.6-2.4-0.6c-0.9,0-1.9,0.2-3.1,0.6c-1.2,0.4-2.7,1-4.5,2
		c-1.8,0.9-3,1.5-3.8,1.8c-0.8,0.3-1.4,0.7-1.8,1.2c-0.4,0.5-0.6,1.6-0.7,3.5l-0.1,3.2c1.6-0.4,3.6-1,6.1-1.6c2.5-0.6,4-0.9,4.5-0.9
		c0.6,0,1.3,0.2,2.1,0.5s1.2,0.7,1.2,1.1c-0.1,0.3-0.4,0.5-0.9,0.8c-0.5,0.2-1.3,0.5-2.4,0.6c-1.1,0.2-2.6,0.4-4.5,0.9
		c-1.9,0.4-3.4,0.7-4.3,0.8c-0.9,0.1-1.5,0.3-1.8,0.6c-0.2,0.3-0.3,1.1-0.1,2.3c0.3,2.1,0.6,3.6,0.8,4.3c0.2,0.7,0.4,1.1,0.7,1.1
		c0.2,0,0.7-0.2,1.3-0.6c0.6-0.4,1.6-0.8,3-1.3c1.5-0.5,2.5-0.7,3.1-0.8c0.6-0.1,1.2-0.1,1.7,0c1.1,0.3,2.3,1.1,3.5,2.5
		c1.2,1.4,1.9,2.1,2.2,2c0.3-0.1,0.5-0.6,0.6-1.5s0.2-1.9,0.3-3l0.2-7.1C340.8,53.5,340.8,52.1,340.9,50.2z M326.7,24.2
		c0.1,2.1,0.2,3.2,0.2,3.5l0.3,6c2-0.3,3.5-0.8,4.4-1.5c0.9-0.7,1.5-1.4,1.9-2c0.4-0.7,0.8-1.8,1.3-3.2L336,23l0.8-3.1
		C334.6,20.8,331.2,22.2,326.7,24.2z"/>
	<path id="XMLID_25_" class="st0" d="M407,33.6c-1.7,0.6-2.9,1.1-3.7,1.5l-4.2,2.3l-4.9,1.6c-0.4,0.2-0.7,0.2-0.9,0.2
		c-0.6,0-1.1-0.2-1.4-0.7c-0.3-0.5-0.4-1.2-0.3-2c0.1-1.2,0.5-2,1.2-2.6l2.5-1.3c0.9-0.5,2.8-1.9,5.7-4.3c2.9-2.4,5.2-4.5,6.9-6.4
		c1.8-1.8,2.9-3.1,3.5-3.9l1.8-2.6c0.8-0.9,1.1-1.7,1-2.4c-0.1-0.6-0.6-0.9-1.7-0.9c-0.8,0-1.8,0.2-3,0.4c-1.3,0.2-2.6,0.6-3.9,1
		c-1.4,0.4-2.3,0.7-2.8,0.7c-0.6,0.1-1,0.1-1.4-0.1c-0.3-0.1-1-0.6-1.9-1.3s-1.5-1.3-1.7-1.5c-0.2-0.3-0.2-0.5-0.2-0.6
		c0.1-0.1,0.3-0.2,0.8-0.2c0.7,0,1.4,0,2.1,0.2c0.7,0.2,1.2,0.2,1.5,0.2c0.4,0,1-0.1,1.9-0.5c0.9-0.3,2.4-0.7,4.6-1.1
		c2.2-0.4,3.7-0.7,4.5-0.8c0.8-0.1,1.5-0.2,2.1-0.3s0.8-0.2,0.9-0.2c0.4,0,1.1,0.3,2,0.8c0.9,0.5,1.5,1,1.8,1.4
		c0.3,0.4,0.4,1,0.1,1.7c-0.1,0.2-0.3,0.5-0.5,0.9l-1.1,1.7c-0.1,0.2-0.5,0.5-1.2,1.2l-5,6c-0.5,0.5-1.3,1.2-2.4,2.2
		s-2.4,2.1-3.8,3.4c-1.4,1.3-2.6,2.3-3.5,3s-1.6,1.2-1.9,1.5c-0.3,0.4-0.5,0.6-0.5,0.8c0,0.2,0.6,0,1.8-0.4l2.4-0.9
		c0.6-0.2,1.4-0.5,2.6-1s2.4-0.9,3.8-1.4c1.4-0.5,2.4-0.8,3-1.1c0.6-0.3,1.2-0.8,2-1.5c0.7-0.7,1.2-1.1,1.5-1.2
		c0.7-0.1,1.8,0.5,3.3,1.6c1.5,1.2,2.4,2.1,2.6,2.9c0.2,0.8,0.4,1.3,0.6,1.6c0.2,0.3,0.3,0.5,0.3,0.6c0,0.1-0.2,0.3-0.5,0.6
		l-2.9,3.1c-0.3,0.2-0.9,0.7-1.8,1.3c-1,0.7-1.5,0.9-1.6,0.8c-0.1-0.1,0.2-0.5,0.7-1.2l1.1-1.2c0.1-0.2,0.4-0.5,0.8-1.1
		c0.4-0.6,0.6-1,0.6-1.2c0-0.2,0-0.5-0.1-1c-0.1-0.4-0.2-0.7-0.4-0.8c-0.1-0.1-0.4-0.4-1-0.8c-0.5-0.4-1.3-0.5-2.2-0.5
		c-0.3,0-1.5,0.4-3.5,1.2l-4,1.2C408.1,33.1,407.4,33.5,407,33.6z M408.1,37.5c0.6-0.9,1.6-0.8,3,0.2c2.6,0.9,4.1,1.6,4.4,2.2l1,1.5
		c0.3,0.4,0.5,0.7,0.6,0.9l0.9,1.6c0.5,0.8,0.8,1.4,1,1.9c0.1,0.4-0.1,1-0.6,1.6c-0.2,0.2-0.6,0.4-1.3,0.8l-1.2,0.7
		c-1.2,0.7-2.3,1.1-3.4,1.3c-1.1,0.2-1.8,0.4-1.9,0.6c-0.2,0.3-0.3,1.1-0.3,2.6c0,1.5,0,2.8-0.2,4c-0.2,1.2-0.2,2.1,0,2.7
		c0.2,0.6,0.8,0.7,1.9,0.5l3.9-0.9c0.6-0.1,1.2-0.1,1.7,0c0.9,0.1,1.6,0.4,2.3,0.7l1.5,0.9c1,0.5,1.4,0.8,1.4,1
		c0,0.2-0.2,0.4-0.6,0.6c0,0-0.7,0-1.9-0.1c-1.2-0.1-2.1-0.1-2.7,0c-0.5,0.1-1.4,0.2-2.6,0.3c-1.2,0.1-2.6,0.4-4,0.9l-4,1.6
		l-1.6,0.5c-3,1.2-4.7,1.8-5,1.8c-0.3,0.1-1.2,0.1-2.6,0.1c-1.4,0-2.2-0.3-2.5-0.9c-0.3-0.6-0.2-1.2,0.1-1.6
		c0.1-0.1,0.6-0.2,1.8-0.4l2-0.9l3.2-0.6l2.2-1.1c1-0.5,1.7-0.9,2-1.2s0.4-1.3,0.3-3c-0.1-1.7-0.1-3.1,0.1-4.2
		c0.2-1.1,0.2-1.9,0.1-2.3c-0.1-0.4-0.2-0.7-0.4-0.8c-0.1,0-0.5,0.1-1.3,0.2c-0.8,0.1-1.6,0.1-2.4,0c-0.8-0.1-1.7,0-2.6,0.3
		c-1,0.3-1.6,0.4-1.9,0.3c-1.5-0.3-2.1-0.9-2-1.9c0-0.1,0.1-0.2,0.2-0.6l0.5-2.3c0.2-0.3,0.7-0.7,1.5-1.1c0.9-0.4,1.2-0.5,1-0.3
		l-0.8,0.6c-0.3,0.4-0.4,0.9,0,1.3c0.3,0.5,1.2,0.7,2.7,0.7l2.9,0.1l2.6-0.1c0-1.9,0-3.4,0-4.4l-0.1-1.8v-2
		C407.1,39.2,407.5,38.4,408.1,37.5z M410.1,42.8c-0.4,3.4-0.4,5.1,0.1,5.1c0.5,0,1.1-0.1,1.9-0.3l2.6-0.6c1.7-0.7,2.2-1.9,1.6-3.8
		c-0.3-0.7-0.9-1.5-1.8-2.3c-1-0.8-2-1-3.1-0.4c-0.4,0.2-0.6,0.4-0.8,0.7C410.3,41.4,410.2,42,410.1,42.8z M444.4-0.7
		c0.3,0,0.7,0.3,1.3,0.9l0.9,1c0.2,0.3,0.5,0.9,0.8,1.6c0.3,0.7,0.6,1.4,0.8,2c0.2,0.6,0.3,1.1,0.3,1.3c0,0.2-0.1,0.8-0.4,1.8
		c-0.2,0.8-0.4,2.3-0.4,4.6l-0.1,3.8c0,0.2,0,2.2,0,6.1c0,3.9,0,7.6-0.1,11.1c-0.1,3.5-0.1,6.2-0.1,8c0,2.2,0.1,4.3,0.2,6.2l0.5,6.7
		c0.1,1.8,0,3.5,0,5.1c-0.1,1.3-0.2,3.1-0.5,5.2c-0.3,2.1-0.5,3.7-0.8,4.6c-0.3,0.9-0.7,1.7-1.2,2.4c-0.5,0.7-0.9,1-1.1,1
		c-0.2,0-0.4-0.2-0.6-0.6c-0.3-0.4-1-1.2-2.2-2.5s-1.9-2-2.1-2.2l-1.8-1.3l-3.6-3.1c-1.3-1.1-2-1.7-2.1-1.8l-2.7-2.7
		c-0.2-0.1-0.3-0.3-0.3-0.4c0-0.2,0.1-0.3,0.4-0.4c0.3-0.1,0.7,0.1,1.3,0.5c0.3,0.3,2.1,1.4,5.6,3.4c3.4,2,5.4,3,6.1,2.9
		c1.3-0.1,2-1.4,2.2-3.8l0.3-4c0.1-1.8,0.1-4.7-0.1-8.7c-0.1-4-0.2-6.5-0.2-7.7c0-1.2,0-4.1,0.2-8.7c0-1.9,0.1-5.1,0.2-9.7
		c0.1-4.6,0.2-7.8,0.3-9.8s0.1-3.4,0.1-4.3c0-0.3-0.1-0.9-0.2-2c-0.1-1-0.3-1.9-0.5-2.4l-1.1-2C443,0,443.2-0.7,444.4-0.7z
		 M436.8,18.6l-2.4,7.3c-0.2,1-0.4,2.2-0.6,3.5s-0.3,2.8-0.3,4.5c-0.1,1.7,0,3,0.1,3.8l0.5,3.3c0.1,0.9,0.1,1.9,0.1,3.1
		c0,1.1,0,1.9,0,2.4c0,0.4,0,0.8-0.2,1s-0.4,0.2-0.6-0.2c-0.2-0.2-0.4-0.6-0.7-1.4c-0.2-0.7-0.4-1.2-0.6-1.5l-0.8-1
		c-0.2-0.2-0.4-1.3-0.9-3.3l-0.9-3.5c-0.1-0.6-0.1-1.2,0-1.9l0.7-2.6c0.1-0.5,0.3-1.3,0.5-2.6s0.3-1.9,0.3-2.1
		c0-0.2-0.1-1.1-0.3-2.7c-0.2-1.4-0.3-2.2-0.5-2.6l-0.7-1.6c-0.1-0.1-0.1-0.4-0.2-0.7c-0.1-0.3-0.1-0.5,0-0.6c0-0.1,0.3,0.3,0.8,1.1
		l0.9,1.2c0.3,0.4,0.6,1.1,1,2.1c0.4,1,0.8,1.4,1.3,1.2c0.1,0,0.5-0.5,1-1.4l1-2.6C436.1,19.2,436.5,18.5,436.8,18.6z"/>
</g>
<g id="XMLID_22_">
	<g id="XMLID_102_">
		<g id="XMLID_106_">
			<g id="XMLID_107_">
				<g id="XMLID_108_">
					<path id="XMLID_195_" class="st1" d="M456.6,75.2c0.7,0,0.4-0.3,0.5-0.3C456.1,75,456.7,75.3,456.6,75.2z"/>
					<polygon id="XMLID_194_" class="st1" points="445.8,76.3 446,76.2 444.5,76.6 					"/>
					<path id="XMLID_193_" class="st1" d="M435.7,76.9c1,0.4,3.7-0.3,5.5-0.2l0.3,0.1l0.8-0.4C440.1,76.5,437.3,76.9,435.7,76.9z"/>
					<path id="XMLID_192_" class="st1" d="M430.3,76.3c0.3,0.1-1.2,0.2,1.3,0c-0.1,0-0.2,0-0.2,0C431.1,76.2,430.8,76.2,430.3,76.3z
						"/>
					<path id="XMLID_191_" class="st1" d="M431.3,76.2C432.4,76.1,430.6,76.1,431.3,76.2L431.3,76.2z"/>
					<path id="XMLID_190_" class="st1" d="M426.4,76.6l1.4-0.2c-0.3-0.1-1.5,0-1.1-0.1C425.3,76.4,425.6,76.5,426.4,76.6z"/>
					<path id="XMLID_189_" class="st1" d="M425.1,77l0.7-0.1C425.7,76.8,425.5,76.8,425.1,77z"/>
					<path id="XMLID_188_" class="st1" d="M427.3,76.6l-1.5,0.2c0.2,0.1,0.2,0.2,0.7-0.1C426.4,76.9,426.7,76.8,427.3,76.6z"/>
					<path id="XMLID_187_" class="st1" d="M428.2,76.7c0.8,0,1.8,0,0.4,0.3C431.3,76.7,430.9,76.4,428.2,76.7z"/>
					<path id="XMLID_186_" class="st1" d="M435.2,77.4l1.1,0.1l0.9-0.2C436.7,77.3,435.2,77.2,435.2,77.4z"/>
					<path id="XMLID_185_" class="st1" d="M417.6,76.9c-0.1,0.1,0.5,0.2,0.6,0.3l1-0.2C418.7,77,417.7,77,417.6,76.9z"/>
					<path id="XMLID_184_" class="st1" d="M418.2,77.2l-1.5,0.2C418.1,77.4,418.3,77.3,418.2,77.2z"/>
					<polygon id="XMLID_183_" class="st1" points="424.9,77.5 427.4,77 424.4,77.5 					"/>
					<polygon id="XMLID_182_" class="st1" points="411.7,77.2 412.6,76.9 411,77.3 					"/>
					<path id="XMLID_181_" class="st1" d="M407.8,77.5c0.6-0.2-0.9-0.2-0.2-0.4c-1.1,0.1-2,0.3-2.8,0.5
						C405.6,77.4,406.6,77.4,407.8,77.5z"/>
					<path id="XMLID_180_" class="st1" d="M403.4,77.8c0.4-0.1,0.9-0.2,1.4-0.3C404.3,77.6,403.9,77.7,403.4,77.8z"/>
					<path id="XMLID_179_" class="st1" d="M414,77.5c-0.1,0-0.4-0.2-1.2-0.2l0.6,0.2C413.6,77.6,413.8,77.6,414,77.5z"/>
					<path id="XMLID_178_" class="st1" d="M413.5,77.6L413.5,77.6c-0.7,0-1.1,0-1.3,0.1C412.3,77.6,412.7,77.6,413.5,77.6z"/>
					<path id="XMLID_177_" class="st1" d="M414.2,77.5c-0.1,0-0.1,0-0.2,0C414.1,77.6,414.1,77.6,414.2,77.5z"/>
					<path id="XMLID_176_" class="st1" d="M420.8,77.5c-0.9,0.2-2.8,0.5-0.9,0.6C420.5,77.8,419.4,77.8,420.8,77.5z"/>
					<path id="XMLID_175_" class="st1" d="M415,77.8l1.7,0c0-0.1-0.3-0.1,0.1-0.2L415,77.8z"/>
					<polygon id="XMLID_174_" class="st1" points="414.2,77.9 415,77.8 414.4,77.8 					"/>
					<path id="XMLID_173_" class="st1" d="M406.2,77.9c-0.7,0.2-1.5,0.2-2.4,0.3c0.9,0,1.9,0,2.8-0.1
						C406.9,78,407.3,77.8,406.2,77.9z"/>
					<path id="XMLID_172_" class="st1" d="M409.8,77.8c0,0-0.1,0-0.2,0C409.7,77.8,409.8,77.8,409.8,77.8z"/>
					<path id="XMLID_171_" class="st1" d="M395.2,78.7c0,0,0.1,0,0.1,0c0,0,0,0,0,0L395.2,78.7z"/>
					<path id="XMLID_170_" class="st1" d="M406.9,78.1c0.7,0,1.1-0.1,1.5-0.2c-0.5,0.1-1.1,0.1-1.7,0.1
						C406.7,78.1,406.7,78.2,406.9,78.1z"/>
					<path id="XMLID_169_" class="st1" d="M401,78.1c0.4,0,0.8,0.1,1.2,0.1C401.9,78.1,401.1,78,401,78.1z"/>
					<path id="XMLID_168_" class="st1" d="M409.4,77.7c0,0,0.1,0,0.1,0C409.2,77.7,409.3,77.7,409.4,77.7z"/>
					<path id="XMLID_167_" class="st1" d="M409.4,77.7c-0.4,0.1-0.6,0.1-0.9,0.2c0.4,0,0.8-0.1,1.2-0.2
						C409.5,77.8,409.4,77.8,409.4,77.7z"/>
					<path id="XMLID_166_" class="st1" d="M392.7,80.5c0.1-0.2,2-0.6,3.6-0.4c1.6-0.3,0.5-1-0.9-1.3c0,0.1,0,0.2-1.7,0.4
						c0.6,0.1,3.6,0.1,2.3,0.4c-2.1,0.3-1.8,0-2.8,0c0.9,0.2-2.7,0.6-2.2,1l1.9-0.3C392.9,80.3,392.2,80.5,392.7,80.5z"/>
					<path id="XMLID_165_" class="st1" d="M398.5,78.6l0.7-0.1c-0.8,0-1.3-0.1-2.3-0.2c-1.1,0.2-1.3,0.3-1.4,0.4l3.3-0.2L398.5,78.6
						z"/>
					<path id="XMLID_164_" class="st1" d="M402.1,78.3c-0.5,0.3-2.1,0.5-1.1,0.7c2-0.1,1.4-0.3,2.5-0.5
						C400.4,78.8,404.5,78.4,402.1,78.3c0.6-0.1,1.2-0.1,1.7-0.1c-0.6,0-1.1,0-1.6,0c0,0,0,0,0.1,0l0,0l0,0c0.1,0,0.2,0,0,0
						c0,0,0,0-0.1,0C402.3,78.2,402.2,78.3,402.1,78.3c-0.9,0-0.1-0.1,0.1-0.1c0,0,0,0,0,0l0,0l-3.2,0.3
						C399.8,78.5,400.7,78.4,402.1,78.3z"/>
					<path id="XMLID_163_" class="st1" d="M418.2,78.7c-0.1,0-0.1,0-0.1-0.1C417.9,78.7,417.8,78.7,418.2,78.7z"/>
					<path id="XMLID_162_" class="st1" d="M416.9,78.6c0.2,0,0.4-0.2,1.2-0.2c0.7,0,0,0.1,0,0.2c0.4-0.1,1.6-0.3,0.1-0.3l-0.2,0
						c-1.3,0-2.9-0.2-2.7-0.3C415.7,78.3,416,78.4,416.9,78.6z"/>
					<path id="XMLID_161_" class="st1" d="M409.4,78.5l-2.6,0.3l1.4,0.1l-0.1-0.1C409.6,78.8,409.2,78.6,409.4,78.5z"/>
					<polygon id="XMLID_160_" class="st1" points="394.9,78.6 395.2,78.3 393.7,78.8 					"/>
					<polygon id="XMLID_159_" class="st1" points="391.5,78.8 391.6,78.6 390.7,78.8 					"/>
					<path id="XMLID_158_" class="st1" d="M197.9,96.6l-0.8,0.1C197.5,96.7,197.7,96.6,197.9,96.6z"/>
					<path id="XMLID_157_" class="st1" d="M203.5,96.1l0.1-0.1C203.4,96.1,203.3,96.1,203.5,96.1z"/>
					<path id="XMLID_156_" class="st1" d="M307,84.6c-1.1-0.1-2.4-0.4-2.3-0.1l0.4,0.2C305.9,84.6,306.5,84.6,307,84.6z"/>
					<path id="XMLID_155_" class="st1" d="M249.4,90.7c0.1,0,0.2,0,0.3,0.1c0.3-0.1,0.5-0.2,0.7-0.3
						C250.2,90.6,249.8,90.6,249.4,90.7z"/>
					<path id="XMLID_154_" class="st1" d="M248.7,91.9l-1.5,0C247.5,91.9,248,91.9,248.7,91.9z"/>
					<path id="XMLID_153_" class="st1" d="M167.2,99.7l-0.9,0.4C167.8,100,167.1,99.9,167.2,99.7z"/>
					<path id="XMLID_152_" class="st1" d="M356.3,81.2c-1,0-1.8,0-2.4,0C355,81.3,356,81.4,356.3,81.2z"/>
					<path id="XMLID_151_" class="st1" d="M199.8,93.6c-0.5,0.1-0.7,0.2-0.6,0.2C199.7,93.8,199.9,93.7,199.8,93.6z"/>
					<path id="XMLID_150_" class="st1" d="M351,81.4c0.2,0,0.3,0,0.5,0c0.7-0.1,1.4-0.2,2.3-0.2C352.9,81.2,351.9,81.2,351,81.4z"/>
					<path id="XMLID_149_" class="st1" d="M56.2,111.1c-0.1,0-0.2,0-0.3,0C55.9,111.2,56,111.2,56.2,111.1z"/>
					<path id="XMLID_148_" class="st1" d="M23.5,112.3c0.3-0.1,0.8-0.1,1.3-0.2C24.6,112.1,24.2,112.2,23.5,112.3z"/>
					<path id="XMLID_147_" class="st1" d="M377.6,79.6C378.4,79.5,377.7,79.6,377.6,79.6L377.6,79.6z"/>
					<path id="XMLID_146_" class="st1" d="M381.2,80.4c-0.2,0-0.3,0.1-0.3,0.1C381,80.5,381.1,80.4,381.2,80.4z"/>
					<path id="XMLID_145_" class="st1" d="M343.8,83.5C343.8,83.5,343.8,83.5,343.8,83.5C344,83.5,344,83.5,343.8,83.5z"/>
					<path id="XMLID_144_" class="st1" d="M378.7,79.6c-0.3,0-0.6,0-0.9,0C378,79.6,378.2,79.6,378.7,79.6z"/>
					<path id="XMLID_143_" class="st1" d="M378.6,79.5c0.3,0,0.5,0,0.6,0C379.3,79.5,379.2,79.4,378.6,79.5z"/>
					<path id="XMLID_142_" class="st1" d="M376.6,79.7c0.4,0,0.8,0,1.2,0c-0.1,0-0.2,0-0.2,0C377.4,79.6,377.1,79.6,376.6,79.7z"/>
					<path id="XMLID_141_" class="st1" d="M115.6,104c0,0-0.1,0-0.2,0C114.7,104.2,115,104.1,115.6,104z"/>
					<path id="XMLID_140_" class="st1" d="M288.3,88.7C288.3,88.7,288.3,88.7,288.3,88.7C288.3,88.7,288.3,88.7,288.3,88.7
						L288.3,88.7z"/>
					<path id="XMLID_139_" class="st1" d="M285.7,89.1c1.1-0.4,1.7-0.4,2.6-0.4l-0.9-0.7L285.7,89.1z"/>
					<path id="XMLID_132_" class="st1" d="M184.4,97.9l1.9,0.1c-2.2,0.6-3.8,0.6-2,0.8c0.2-0.8,7.1-0.7,7.3-1.6l1.2,0.1
						c-0.3,0-0.4,0.1-0.7,0.1c2.4,0.2,1.7-0.7,4.7-0.9c1.1,0,1.8,0,1.1,0.2l2.3-0.4c0.7,0,0.5,0.1-0.2,0.2l3.6-0.4l0,0
						c0.5-0.2,1.6-0.5,2.2-0.6c0.9,0-0.4,0.1-0.2,0.2l2-0.4c0.8,0.1-0.8,0.5-2.2,0.6c1.9,0.6,1.6-0.4,5.7-0.2l-1.9,0.3
						c1.3,0.4,2.7,0.1,4.8,0.2c-0.5-0.1-4.3-0.4-2.2-0.7c0.6,0,1.4,0,2.6-0.3c0,0.3,1.2,0.1,2.6,0l-0.1,0.4c1.5-0.2,1.4-0.4,2.3-0.7
						c1.7-0.1,2.1,0.2,2.5,0.4c2.7-0.2-1.9-0.3,1.3-0.7c2.3-0.1,3.9-0.4,6.6-0.8c1.6,0-0.3,0.3,0.3,0.3l1.4-0.4
						c0.3,0,0.2,0.1,0.2,0.1c1.2-0.2,0.1-0.4,1.9-0.7c0.5-0.5,3.9,0.3,6.2-0.4c0.6,0.1-0.3,0.3-0.1,0.4c3.2-0.6,2.7-0.5,5.3-1.1
						l2.3,0.1c-1.7-0.2,0.4-0.7,2.2-1.1c-0.6-0.1-1.1-0.2-1.4-0.2l2.9-0.4c0.4,0,0.1,0.2-0.4,0.4c0.2-0.1,0.4-0.1,0.5-0.1
						c1.1,0.1,0.5,0.3-0.2,0.6c-0.4,0-0.7-0.1-1.1-0.1c-0.7,0.3-1.4,0.6-1.2,0.8c0.2-0.1,0.5-0.1,1-0.2c-0.2,0.1-0.3,0.1-0.2,0.2
						c0.1,0,0.4-0.1,0.9-0.2l0.7,0.4l0.1-0.2l3.8-0.1c2.7-0.7,5-1.5,9.4-2c-1.1,0.4-0.2,0.5-0.2,0.9c-1.2-0.3-3.4,0.4-5.6,0.6
						c1.2-0.1,0.9,0.1,0.6,0.2l4-0.7c-0.1,0.3,0.9,0.2,1.9,0.2c-0.8-0.5,3-0.6,4.6-0.9c0.1,0.2-0.3,0.4-2.3,0.5
						c2.2,0.3,2.8-0.9,5-0.7c-0.5,0-0.8,0-0.9,0.2c1.1-0.3,3.9-0.3,3.3-0.1l-0.5,0c3.2-0.2,9.8-0.8,10.3-1.3c0,0.1-0.4,0.6-0.6,0.8
						l5.6-2.2c-0.5,0.5,1.6,1.4-1.1,1.8c0.8,0,1.7,0,3.3-0.3c-0.5,0-1.4-0.5-0.6-0.6c2,0.3,1.4,0.2,3.8,0.4c-0.8,0,0-0.8,1.3-0.9
						c-0.2,0.1,0.2,0.7-0.3,0.8l3-0.9c-0.8,0.2-0.1,0.6,0.6,0.7c-0.3-0.1,2.7-0.2,3.5-0.3l-1.3-0.1c3.5-0.2,3.4-1.2,6.9-1.4
						c-0.4,0.2-1,0.9,0.8,0.9c0.8-0.4,3.5-1.9,6.5-2.4l0.6,0.2l2.3-0.4c-1.4,0.6-5.5,2-7.7,2.6c1.3,0.1,0.4,0.2,2.3,0
						c0.7,0.1-1,0.4-1.6,0.4l4.6-0.2c-0.2-0.4,3.5-0.7,3.3-1l-4.9,0.8c-0.2-0.4,2.8-1.4,6-1.5c0.8,0.1-0.6,0.8-0.5,0.9
						c0.4-0.2,3.1-0.5,3.4-0.4l-1.4,0.3c1.8,0,2.9-0.7,5.1-0.5c0.7,0,2.3,0.4,2.4,0.1c-1.3-0.4-1.6-1.8-0.8-2.2c0.3,0,4,0.2,4.8,0.3
						c1.3,0.3-1.8,1-0.7,1.2c0-0.1,0.7-0.3,1-0.4c0.8,0-0.3,0.4,1.4,0.2c0.3-0.4,3.5-0.2,0.8-0.4c1.7-0.2,1.8,0,3.7-0.2
						c-0.6-0.2,1.7-1,3.4-1.3c-0.1,0.1,0.3,0.2,0.5,0.3c3.4-0.2,5.3-0.1,8.5-0.3c0.3,0.1,1.8,0.1,1.2,0.3c0.5-0.1,0.9-0.3,1.8-0.3
						c1.9,0.2-2.2,0.2-0.7,0.5c0.1-0.2,2.5-0.5,3.9-0.7c-0.5-0.3-3.2,0.1-4.6,0.4c0-0.5,2.4-1.2,5.7-1.7c2.6-0.3,1.2,0.3,1.6,0.1
						c5-0.2,4.2-1.2,8.3-1.1c1.7,0.2,0.1,0.6,0.5,0.8c-2.1,0.3-3.3,0-4.8,0.1l1.8,0c-0.7,0.2-2.1,0.3-2.9,0.3
						c1.4,0.2,8.4-0.5,12.3-0.5c0.7-0.2,1.8-0.3,1.3-0.4l-1.2,0.1c-1.1-0.2,2.3-0.5,0.7-0.5c1.6-0.3,3.4-0.7,5.7-0.7l0.5,0.3
						c-0.1-0.1-1.5-0.1-2.2,0c0.9-0.2,3.5,0.3,4.6-0.3l-1.6-0.2c1.6-0.3,3.6-0.8,5.7-0.8c-0.9-0.3-0.5,0.1-1.9-0.3
						c1.3,0.4-5.2,0.3-3.2,0.7c-1.5-0.4-2.6,0-4.5-0.3c0.1,0.1,0.7,0.2-1,0.2c-0.1,0-0.3,0.1-0.4,0.1c-0.1,0-0.1,0-0.1,0
						c0,0,0.1,0,0.1,0c-0.1,0-0.1,0,0,0c0.4,0,0.7,0.1,0.9,0.1c-0.8,0.3-3.5,0.5-4.5,0.7c-1,0,0.4-0.2-0.1-0.3l-1.4,0.3
						c-0.2-0.3-2.7-0.3-0.3-0.6l-2.1,0.1c-1.3-0.1-3,0-4.1,0.2c-1,0-2.5,0.5-1.7,0.2l-3.4,0.4l0-0.1c-3.3,0.2-6.8,0.9-10.6,0.7
						c-1.1,0.1-2.3,0.3-4.1,0.4l-0.4-0.2c-1.4,0.2-4.3,0.1-4.9,0.4c-1.6-0.5-7,0.4-9.5,0.4l-0.1,0.3c-1.7,0.1-3.4,0.3-5.5,0.6
						l0.2,0.3c-1.8,0.4-4.8,0.1-7.7,0.4c0.2-0.1,0.9-0.1,1.5-0.1c-3.6-0.4-7.4,1-10.6,0.8c-0.8,0.2-1.4,0.2-1.9,0.1
						c0.1,0,0.1,0,0.2,0c-0.1,0-0.2,0-0.3,0c-0.4,0-0.7,0-1.1-0.1c0.3,0,0.7,0.1,0.9,0.1c-0.6,0.1-1.5,0.2-2.4,0.3l-0.4-0.3
						c-0.1,0-0.1,0-0.2,0c-0.9,0-0.7,0.2-0.2,0.4c-0.5,0.1-0.9,0.2-1.2,0.3c-0.8-0.4-2.4,0.3-3.4-0.1c-0.6,0.3-4.6,0.5-5,1.1
						c0-0.1-0.3-0.1,0.2-0.1c-1,0-2,0-2.9,0.2l-0.5-0.3l-2.2,0.7c-1.4-0.1-1.9-0.2-0.6-0.6c-3.2,0.7-2.6,0.4-5.3,1l0.1-0.2
						c-1,0.1-2.5,0.5-3.1,0.4c-2.2-0.3-10.9,0.8-16.5,0.8c1.1,0.6-2.6-0.1-2.8,0.5c-0.3-0.1-1.1-0.2-0.2-0.4
						c-2.9,0.4-4.3,0.1-6.3,0.7c-0.3-0.1,0.6-0.3,0.3-0.4c-0.2,0.1-0.9,0.2-1.2,0.1c-0.3-0.1,0.4-0.2,0.9-0.3
						c-2.9,0.3-3.2,0.8-3.4,1.3c-1.5-0.1-2.2,0-3.3,0.4c-0.5-0.1-1.4-0.2,0.4-0.4c-1,0.1-6.3,0.3-6.4,0.7c-0.3-0.1-1.4,0.1-1.7,0.2
						c-2.3,0.2-2.5,0.2-4.8,0.4l0.6,0c-0.9,0.5-1.9,0.3-3.7,0.5l0-0.1c-4.2,0-1.8,0.3-5.9,0.3l0.2,0.3c-0.3,0.7-3.7,0-6.1,0.4
						l0.9,0.1c-1.3,0.3-3.7-0.5-5-0.5c-0.3,0,0.4-0.1,0.8-0.2c-3.5-0.1-0.4,0.4-3,0.7c-0.5-0.2,0.6-0.6-1.2-0.5
						c-0.9-0.1-4.9,1.1-7.3,0.9c0.5,0.1,1.1,0.2-0.1,0.4c-1.8,0.2-5-0.1-6.6,0.5c-0.2,0-0.3-0.1-0.3-0.1c-1.4,0.3-4.5,0.6-5.3,1
						c-1.4-0.9-8.6,1.3-8.7,0.4l-4.3,0.4l0.1-0.1c-2.7,0.2-3.7,0.5-4.6,0.8c-0.6,0-0.2-0.1-0.1-0.2c-4,0.2-4.4,0.3-7.7,1.1l-0.4-0.3
						c-0.9,0.3-5.8,0.1-9.7,0.8c0,0,0.1-0.1,0.4-0.2c-4.4,0.8-10.6,0.2-12.2,1.5l-2.9,0.6c3.8-0.3-0.5,0.5,1.1,0.5
						c-1.5,0.2-3.9,0.1-2-0.2l0.3,0c0.6-0.6-4.7,0.3-4.6-0.1c-7.4,0.8-14.7,1.2-21.6,1.9l0.8,0.4l-2.4,0.2c-0.6,0-0.9-0.3,0.8-0.4
						c-0.9-0.2-2.9,0.5-2.9,0.6c-3.4,0.2,1.3-0.6,0.2-0.5l-1.4,0.2l0.3,0c-1.1,0.3-1.2,0.5-3.3,0.7c-1.3,0.1-0.7-0.2-1.2-0.2
						c0,0-0.2,0-0.8,0.1l-3.1,0.3l1.3,0.2c-1.3,0.3-2.9,0.3-1.4,0.5c-2.1-0.4-11.4,1-12.7,0.9c-1.9,0.5-3.7,0.7-6,0.9
						c0.6,0,1,0.4-1,0.5c0.6-0.9-3.7,0.1-5.4-0.3c1.5,0.2-5.7,0.7-3.3,1c-1.7,0.1-0.1-0.3-1.4-0.3c-3.9,0.7-8.8,0.8-13.6,1.4
						c-0.1,0.1,0.8,0.2-0.3,0.5l-2.6-0.2c-1,0.2-0.8,0.7-2.6,0.5c0.3,0.1,0.6,0.2,0,0.3c-9.7,0.6-19.5,2.7-29.4,2.8
						c1.3,0,0.5,0.2-0.5,0.3c0.7,0,0,0.3,0.2,0.4l-4.1,0.1c-0.7,0.5-4.4,0.5-4.7,1l1.3-0.2c-1.7,0.6,2.5,0.7,2.3,1.3
						c1.9-0.7,5.2,0.2,8.2-0.9c0.7,0-0.6,0.3-0.2,0.3c0.8-0.3,1.7-0.5,3.5-0.6l-0.2,0.1c5-0.6,7.2-0.7,12.9-1.2l-0.5-0.2
						c1.2-0.1,1.5,0,2.1,0c1.3-0.6-3.4,0.4-2.2-0.3c1.7,0.4,8.6-1,9.7-0.4c1.9-0.2-0.6-0.3,1.3-0.5l0.5,0.1l0.4-0.3
						c1.2-0.1,1.9,0.1,1.9,0.2c-0.3,0-0.8,0.1-1.2,0.2c1.6,0,4.5-0.6,5-0.6l-1.8,0.1c5.1-0.7,11.3-1.2,16.2-2.1l-0.4-0.1
						c3.7-0.7,3-0.2,7.1-0.7l-0.1,0c0.8-0.2,1.9-0.4,3-0.5c-1,0.3,2,0.1,0.6,0.4c4-0.7,2-0.4,4.6-1.2l0.6,0.2c0.9-0.3,1-0.4,3-0.7
						c-1.7,0.4,1.4,0.2-0.5,0.7c4.4,0,6.4-1.2,8.4-0.7c1.9-0.8-3.8,0.1-2.7-0.2c-1-0.1,1.6-0.6,3-0.7c1.4-0.1,2.4,0.5,5.9,0.2
						c-0.3,0-0.4,0.1-0.7,0.1c1.3,0,2.5-0.5,4.2-0.4c0.9-0.5,2.1-0.2,2.3-0.7l-3.2,0.4c1.8-0.3,3.4-1,6.4-1.1
						c-0.2,0.1-1.1,0.3-1.7,0.5c0.9,0,1.7-0.3,2.6-0.2c-0.2,0.5-3.9,0.5-5.8,1.1c1,0.1,3.6-0.7,2.7-0.1c1.3-0.8,3.4-0.3,5.7-1
						l-0.1,0.3c0.4-0.1,1.1-0.3,1.8-0.4l-1.2,0.5c1.9-0.5,3.7-0.1,5.5-0.5c-3.8,0.4-0.9-0.3-2.5-0.3c4.7-0.9,2.8,0.5,8.1-0.2
						c-0.7,0.1-2.7,0.1-1.6-0.1c1,0,2.4-0.1,3,0c3.5-0.4-0.6-0.2,0.9-0.6c1.2,0.2,1.7-0.3,3.2-0.6l0,0.3c4-0.2,1-0.7,4.6-0.8
						l-1.5,0.6l1.9-0.3l-0.4,0.4c2-0.4,2.7-0.4,4.7-0.6c-0.5-0.2,0.2-0.5,2-0.7c1.2,0-0.6,0.3,1.9,0c-0.5,0.2-1.1,0.5-2.3,0.4
						c-0.1,0.1-0.5,0.2-0.6,0.3c1.3,0.1,3.3-0.3,4.2-0.4c-0.4,0-0.8,0.1-1,0l3.6-0.8c0.6,0.1,0.1,0.2-0.3,0.3
						c0.7-0.1,1.2-0.3,2.3-0.4c-0.3,0.3-0.2,0.5-1.7,0.8l3.4-0.6c0.2,0.1,1.8,0.1,1.4,0.2c1.9,0,4.7-0.9,7.2-1
						c0.1-0.1,0.4-0.1,0.9-0.2c2.4-0.2,4.5-0.1,7.4-0.7l1.6,0.3c2.2-0.3-2.2-0.3,1.5-0.8c2.6-0.4,1,0.3,1.9,0.3
						c1.3-0.3,3.5-1,5.9-0.9C185.8,97.8,185.2,97.8,184.4,97.9z M211.8,95.2c-0.5,0.1-1.6,0.4-2,0.3
						C210.4,95.1,210.9,95.2,211.8,95.2z M253.5,90.9c-0.4,0.1-1,0.1-1.7,0.1C252.3,91,252.9,90.9,253.5,90.9z M369.7,80.3
						C369.6,80.3,369.6,80.4,369.7,80.3C368.4,80.3,368.8,80.3,369.7,80.3z M372.1,80.3c0.2-0.1,0.2-0.1,0.1-0.1
						c-0.2,0.1-0.7,0.1-1.4,0.1C371.1,80.4,371.4,80.4,372.1,80.3z M107.6,102.9l0.5,0C107,103.1,107.3,103,107.6,102.9z"/>
					<path id="XMLID_131_" class="st1" d="M248.8,91.7c-0.2,0-0.2-0.1-0.2-0.1C248.3,91.7,248.3,91.7,248.8,91.7z"/>
					<path id="XMLID_130_" class="st1" d="M167.4,99.7L167.4,99.7c-0.1,0-0.2,0-0.2,0.1L167.4,99.7z"/>
					<path id="XMLID_129_" class="st1" d="M334.1,85.3c-0.5,0-0.8,0-1-0.1C333.1,85.3,333.3,85.4,334.1,85.3z"/>
					<path id="XMLID_128_" class="st1" d="M385.2,79l-1.6,0.2c0.8-0.1,1,0,1.4,0C385,79.1,384.7,79,385.2,79z"/>
					<path id="XMLID_127_" class="st1" d="M399,79.9c0.2,0,0.5,0,0.7-0.1l-0.1-0.1C398.7,79.8,398,79.9,399,79.9z"/>
					<path id="XMLID_126_" class="st1" d="M386.7,79.9c0.1,0.2,1.1,0.1,2.2,0l-0.2,0C389,79.5,387.9,79.7,386.7,79.9z"/>
					<path id="XMLID_125_" class="st1" d="M389.2,79.8c0.3,0,0.7-0.1,1-0.1C390.3,79.6,389.8,79.7,389.2,79.8z"/>
					<path id="XMLID_124_" class="st1" d="M375.2,79.9c0.5,0,0.3-0.3,0.6-0.3C376.4,79.3,372.4,80.3,375.2,79.9z"/>
					<polygon id="XMLID_123_" class="st1" points="387.6,80.6 387.2,80.3 386.6,80.6 					"/>
					<path id="XMLID_122_" class="st1" d="M378.9,80.9l1.8,0c0,0,0.2-0.1,0.5-0.1C380,80.8,378.8,80.8,378.9,80.9z"/>
					<path id="XMLID_121_" class="st1" d="M381.1,80.8c0.6,0,1.1-0.1,1.4-0.1C382.2,80.7,381.6,80.7,381.1,80.8z"/>
					<polygon id="XMLID_120_" class="st1" points="385.2,80.8 384.7,80.8 383.5,80.9 					"/>
					<path id="XMLID_119_" class="st1" d="M359.9,82.1l-1.9,0.2c-0.2,0.1,0.3,0.1,1.1,0.1C359.5,82.3,360.2,82.2,359.9,82.1z"/>
					<path id="XMLID_118_" class="st1" d="M365.8,82.5c-0.5,0-0.6-0.1-0.9-0.2l0,0.4L365.8,82.5z"/>
					<path id="XMLID_117_" class="st1" d="M360.1,83c-0.2,0.1-2.8,0.5-0.3,0.3C360,83.2,361.9,83,360.1,83z"/>
					<polygon id="XMLID_116_" class="st1" points="331,84.5 331.5,84.5 331.4,83.9 					"/>
					<path id="XMLID_115_" class="st1" d="M305.5,87.9c2.3,0,0.5-0.4,2.6-0.4c0.5-0.2-1.7,0-1.2-0.2
						C305.6,87.5,304.9,87.5,305.5,87.9z"/>
					<path id="XMLID_114_" class="st1" d="M307,87.3c0.2,0,0.5-0.1,0.7-0.1C307.3,87.2,307.1,87.2,307,87.3z"/>
					<polygon id="XMLID_113_" class="st1" points="18.1,112.6 16.6,112.6 17.6,112.7 					"/>
					<path id="XMLID_112_" class="st1" d="M15.4,113.4L15,113l-0.8,0.5C14.5,113.4,15.1,113.3,15.4,113.4z"/>
					<path id="XMLID_111_" class="st1" d="M216,95.6l0.1-0.1c-0.2-0.1-0.6-0.1-1.3,0L216,95.6z"/>
					<polygon id="XMLID_110_" class="st1" points="196.1,97.2 196.4,97.1 195.7,96.8 					"/>
					<path id="XMLID_109_" class="st1" d="M179.4,99.1c0.7-0.1,1.5-0.2,2.2-0.3C180.1,99.1,179.2,98.7,179.4,99.1z"/>
				</g>
			</g>
		</g>
	</g>
</g>
</svg>
