<?xml version="1.0" encoding="utf-8"?>
<!-- Generator: Adobe Illustrator 19.0.0, SVG Export Plug-In . SVG Version: 6.00 Build 0)  -->
<svg version="1.1" id="图层_1" xmlns="http://www.w3.org/2000/svg" xmlns:xlink="http://www.w3.org/1999/xlink" x="0px" y="0px"
	 viewBox="0 0 200 200" style="enable-background:new 0 0 200 200;" xml:space="preserve">
<style type="text/css">
	.st0{opacity:0.4;fill:#FF973A;}
	.st1{fill:#FFFFFF;}
	.st2{fill:#264D70;}
	.st3{fill:#FFF576;}
	.st4{fill:#6798CC;}
</style>
<circle id="XMLID_1501_" class="st0" cx="100" cy="100" r="90"/>
<rect id="XMLID_1888_" x="151.8" y="148.2" class="st1" width="31.9" height="9"/>
<path id="XMLID_1885_" class="st2" d="M184.8,158.3h-34.2V147h34.2V158.3z M152.9,156h29.7v-6.8h-29.7V156z"/>
<rect id="XMLID_1884_" x="148" y="139.2" class="st1" width="31.9" height="9"/>
<path id="XMLID_1881_" class="st2" d="M181.1,149.3h-34.2V138h34.2V149.3z M149.1,147h29.7v-6.8h-29.7V147z"/>
<rect id="XMLID_1880_" x="157" y="157.2" class="st1" width="31.9" height="9"/>
<path id="XMLID_1877_" class="st2" d="M190,167.3h-34.2V156H190V167.3z M158.1,165h29.7v-6.8h-29.7V165z"/>
<rect id="XMLID_1876_" x="92.7" y="152.1" class="st1" width="43.7" height="9"/>
<path id="XMLID_1873_" class="st2" d="M137.5,162.2H91.6V151h45.9V162.2z M93.8,160h41.5v-6.8H93.8V160z"/>
<rect id="XMLID_1872_" x="92.7" y="143.1" class="st1" width="39.3" height="9"/>
<path id="XMLID_1869_" class="st2" d="M133.1,153.2H91.6V142h41.5V153.2z M93.8,151h37.1v-6.8H93.8V151z"/>
<polygon id="XMLID_1868_" class="st1" points="113.1,161.1 92.7,161.1 92.7,170.1 113.1,170.1 133.4,170.1 133.4,161.1 "/>
<path id="XMLID_1865_" class="st2" d="M134.6,171.2h-43V160h43V171.2z M93.8,169h38.5v-6.8H93.8V169z"/>
<rect id="XMLID_1864_" x="51.8" y="152.1" class="st3" width="20.4" height="9"/>
<path id="XMLID_1861_" class="st2" d="M73.3,162.2H50.7V151h22.6V162.2z M53,160h18.1v-6.8H53V160z"/>
<rect id="XMLID_1860_" x="51.8" y="161.1" class="st3" width="20.4" height="9"/>
<path id="XMLID_1857_" class="st2" d="M73.3,171.2H50.7V160h22.6V171.2z M53,169h18.1v-6.8H53V169z"/>
<rect id="XMLID_1856_" x="51.8" y="116.1" class="st1" width="40.9" height="9"/>
<path id="XMLID_1853_" class="st2" d="M93.8,126.2H50.7V115h43.1V126.2z M53,124h38.6v-6.8H53V124z"/>
<rect id="XMLID_1852_" x="31.5" y="134.1" class="st3" width="20.4" height="9"/>
<path id="XMLID_1849_" class="st2" d="M53,144.2H30.4V133H53V144.2z M32.6,142h18.1v-6.8H32.6V142z"/>
<rect id="XMLID_1848_" x="72.2" y="152.1" class="st3" width="20.4" height="9"/>
<path id="XMLID_1845_" class="st2" d="M93.7,162.2H71.1V151h22.6V162.2z M73.3,160h18.1v-6.8H73.3V160z"/>
<polygon id="XMLID_1844_" class="st1" points="72.2,143.1 51.8,143.1 51.8,152.1 72.2,152.1 92.6,152.1 92.6,143.1 "/>
<path id="XMLID_1841_" class="st2" d="M93.7,153.2h-43V142h43V153.2z M53,151h38.5v-6.8H53V151z"/>
<polygon id="XMLID_1840_" class="st1" points="72.2,134.1 51.8,134.1 51.8,143.1 72.2,143.1 92.6,143.1 92.6,134.1 "/>
<path id="XMLID_1837_" class="st2" d="M93.7,144.2h-43V133h43V144.2z M53,142h38.5v-6.8H53V142z"/>
<polygon id="XMLID_1836_" class="st1" points="72.2,125.1 51.8,125.1 51.8,134.1 72.2,134.1 92.6,134.1 92.6,125.1 "/>
<path id="XMLID_1833_" class="st2" d="M93.7,135.2h-43V124h43V135.2z M53,133h38.5v-6.8H53V133z"/>
<rect id="XMLID_1832_" x="31.5" y="161.1" class="st3" width="20.4" height="9"/>
<path id="XMLID_1829_" class="st2" d="M53,171.2H30.4V160H53V171.2z M32.6,169h18.1v-6.8H32.6V169z"/>
<rect id="XMLID_1828_" x="31.5" y="152.1" class="st3" width="20.4" height="9"/>
<path id="XMLID_1825_" class="st2" d="M53,162.2H30.4V151H53V162.2z M32.6,160h18.1v-6.8H32.6V160z"/>
<rect id="XMLID_1824_" x="31.5" y="143.1" class="st3" width="20.4" height="9"/>
<path id="XMLID_1821_" class="st2" d="M53,153.2H30.4V142H53V153.2z M32.6,151h18.1v-6.8H32.6V151z"/>
<rect id="XMLID_1820_" x="11.1" y="152.1" class="st3" width="20.4" height="9"/>
<path id="XMLID_1817_" class="st2" d="M32.6,162.2H10V151h22.6V162.2z M12.2,160h18.1v-6.8H12.2V160z"/>
<rect id="XMLID_1816_" x="11.1" y="161.1" class="st3" width="20.4" height="9"/>
<path id="XMLID_1813_" class="st2" d="M32.6,171.2H10V160h22.6V171.2z M12.2,169h18.1v-6.8H12.2V169z"/>
<rect id="XMLID_1812_" x="72.2" y="161.1" class="st3" width="20.4" height="9"/>
<path id="XMLID_1809_" class="st2" d="M93.7,171.2H71.1V160h22.6V171.2z M73.3,169h18.1v-6.8H73.3V169z"/>
<path id="XMLID_1808_" class="st1" d="M98.1,81.7v79.6c0,5.6-4.5,10.1-10,10.1h0c-5.5,0-10-4.5-10-10.1V161c0-2.1-1.7-3.8-3.7-3.8h0
	c-2.1,0-3.7,1.7-3.7,3.8v0c0,10,8,18,17.9,18h0c9.4,0,17-7.7,17-17.2V81.7H98.1z"/>
<path id="XMLID_1805_" class="st2" d="M88.5,180.1c-10.5,0-19-8.6-19-19.1c0-2.7,2.2-4.9,4.8-4.9c2.7,0,4.8,2.2,4.8,4.9v0.4
	c0,4.9,4,9,8.9,9s8.9-4,8.9-9V80.6h9.7v81.2C106.7,171.9,98.5,180.1,88.5,180.1z M74.4,158.3c-1.4,0-2.6,1.2-2.6,2.7
	c0,9.3,7.5,16.9,16.7,16.9c8.8,0,15.9-7.2,15.9-16.1V82.9h-5.2v78.5c0,6.2-5,11.2-11.1,11.2s-11.1-5-11.1-11.2V161
	C77,159.5,75.8,158.3,74.4,158.3z"/>
<rect id="XMLID_1804_" x="98.1" y="81.7" class="st3" width="7.5" height="66.7"/>
<path id="XMLID_1801_" class="st2" d="M106.7,149.6H97v-69h9.7V149.6z M99.2,147.4h5.2V82.9h-5.2V147.4z"/>
<rect id="XMLID_1800_" x="98.1" y="81.8" class="st3" width="7.5" height="60"/>
<path id="XMLID_1797_" class="st2" d="M106.7,142.9H97V80.7h9.7V142.9z M99.2,140.6h5.2V82.9h-5.2V140.6z"/>
<path id="XMLID_1796_" class="st3" d="M101.1,37L101.1,37c-3.1,0-5.6-2.5-5.6-5.6v-4.7c0-3.1,2.5-5.6,5.6-5.6h0
	c3.1,0,5.6,2.5,5.6,5.6v4.7C106.7,34.5,104.2,37,101.1,37z"/>
<path id="XMLID_1793_" class="st2" d="M101.1,38.1c-3.7,0-6.8-3-6.8-6.8v-4.7c0-3.7,3-6.8,6.8-6.8s6.8,3,6.8,6.8v4.7
	C107.8,35.1,104.8,38.1,101.1,38.1z M101.1,22.1c-2.5,0-4.5,2-4.5,4.5v4.7c0,2.5,2,4.5,4.5,4.5s4.5-2,4.5-4.5v-4.7
	C105.6,24.1,103.6,22.1,101.1,22.1z"/>
<path id="XMLID_1792_" class="st2" d="M22,62.7L22,62.7c-1.2,0-2.1-0.9-2.1-2.1V41c0-1.2,0.9-2.1,2.1-2.1h0c1.2,0,2.1,0.9,2.1,2.1
	v19.5C24.1,61.7,23.2,62.7,22,62.7z"/>
<path id="XMLID_1791_" class="st2" d="M40.1,45.9L40.1,45.9c-1.2,0-2.1-0.9-2.1-2.1V31.1c0-1.2,0.9-2.1,2.1-2.1h0
	c1.2,0,2.1,0.9,2.1,2.1v12.7C42.2,44.9,41.3,45.9,40.1,45.9z"/>
<path id="XMLID_1790_" class="st2" d="M59.1,35.3L59.1,35.3c-1.2,0-2.1-0.9-2.1-2.1v-6.4c0-1.2,0.9-2.1,2.1-2.1h0
	c1.2,0,2.1,0.9,2.1,2.1v6.4C61.2,34.3,60.2,35.3,59.1,35.3z"/>
<path id="XMLID_1789_" class="st2" d="M179.5,64.3L179.5,64.3c1.2,0,2.1-0.9,2.1-2.1V42.6c0-1.2-0.9-2.1-2.1-2.1l0,0
	c-1.2,0-2.1,0.9-2.1,2.1v19.5C177.4,63.4,178.3,64.3,179.5,64.3z"/>
<path id="XMLID_1788_" class="st2" d="M163.5,47.3L163.5,47.3c1.2,0,2.1-0.9,2.1-2.1V32.5c0-1.2-0.9-2.1-2.1-2.1h0
	c-1.2,0-2.1,0.9-2.1,2.1v12.7C161.4,46.4,162.3,47.3,163.5,47.3z"/>
<path id="XMLID_1787_" class="st2" d="M145.3,35L145.3,35c1.2,0,2.1-0.9,2.1-2.1v-6.4c0-1.2-0.9-2.1-2.1-2.1h0
	c-1.2,0-2.1,0.9-2.1,2.1v6.4C143.2,34,144.1,35,145.3,35z"/>
<path id="XMLID_1786_" class="st4" d="M19.9,98.1C28.3,59.7,62.3,31,102.8,31c40.8,0,74.9,29,83.1,67.7c0.4,1.7-26.7-27.7-34.9,3.5
	c-2-3.1-18.5-34.9-33,0.6c-5.2-16.4-23.2-27.8-33.3-0.1c-2.9-0.8-6-34-33.6-0.9C41.8,71.6,19.5,99.7,19.9,98.1z"/>
<path id="XMLID_1782_" class="st2" d="M118,103.9C118,103.9,118,103.9,118,103.9c-0.5,0-0.9-0.3-1.1-0.8c-2.9-9.2-9.6-16-16-16.1
	c-0.1,0-0.1,0-0.2,0c-5.9,0-11.3,5.7-15,16c-0.2,0.6-0.8,0.9-1.4,0.7c-1.1-0.3-1.7-1.7-2.7-4.3c-1.7-4.1-4.2-10.4-9.2-11.2
	c-5.1-0.8-12,4-20.5,14.2c-0.3,0.3-0.7,0.5-1.1,0.4c-0.4-0.1-0.7-0.4-0.8-0.8c-2.3-7.5-5.6-11.9-9.8-13c-7.1-1.9-15.2,5.8-18.3,8.7
	c-1.4,1.3-1.8,1.7-2.7,1.3c-0.4-0.2-0.7-0.8-0.5-1.3c4.2-19,14.8-36.2,29.8-48.5c15.3-12.5,34.5-19.4,54.2-19.4
	c19.8,0,39.2,7,54.5,19.6c15.1,12.5,25.6,29.9,29.7,49c0.1,0.5-0.1,1-0.5,1.3c-0.8,0.5-1.2,0.1-3.1-1.4c-3.9-3.1-14.1-11.5-22-8.9
	c-4.2,1.4-7.3,5.8-9.3,13.1c-0.1,0.4-0.5,0.7-0.9,0.8c-0.4,0.1-0.9-0.1-1.1-0.5c-0.1-0.2-0.3-0.5-0.6-1c-6-10.1-11.6-15-16.7-14.6
	c-5,0.4-9.6,5.7-13.7,15.9C118.9,103.7,118.4,103.9,118,103.9z M71.4,86c0.5,0,1,0,1.5,0.1c6.3,1,9.2,8.2,10.9,12.5
	c0.2,0.5,0.4,1.1,0.7,1.6c5.2-12.9,11.8-15.6,16.6-15.4c6.7,0.1,13.5,6.2,17.1,15c4.3-9.3,9.1-14.3,14.5-14.7
	c8.3-0.6,15.1,9.5,18,14.4c2.2-6.6,5.5-10.7,10-12.2c8.6-2.8,18.9,5.1,23.5,8.8c-4.4-17.5-14.3-33.4-28.3-44.9
	c-14.9-12.3-33.7-19.1-53-19.1C83.6,32.1,64.9,38.8,50,51C36.3,62.3,26.3,77.8,21.8,95c4-3.6,11.7-9.9,19-8
	c4.6,1.2,8.2,5.4,10.7,12.6C59.4,90.5,65.9,86,71.4,86z M19.9,98.1l1.1,0.2L19.9,98.1z"/>
<g id="XMLID_1779_">
	<g id="XMLID_1780_">
		<path id="XMLID_1781_" class="st2" d="M51.4,101.4c-0.6,0-1.1-0.5-1.1-1c0-0.6-1-14.6,4.5-30.3c5.1-14.6,16.9-33.3,44.1-39.7
			c0.6-0.1,1.2,0.2,1.3,0.8c0.1,0.6-0.2,1.2-0.8,1.3c-21,4.9-35.3,17.8-42.5,38.2c-5.4,15.3-4.5,29.3-4.4,29.5
			C52.5,100.9,52.1,101.4,51.4,101.4C51.4,101.4,51.4,101.4,51.4,101.4z"/>
	</g>
</g>
<g id="XMLID_1776_">
	<g id="XMLID_1777_">
		<path id="XMLID_1778_" class="st2" d="M84.7,102.4c-0.5,0-1-0.4-1.1-0.9c0-0.1-2.5-13.5-1.8-28.8c0.8-20.4,6.8-35,17.2-42.1
			c0.5-0.3,1.2-0.2,1.6,0.3c0.3,0.5,0.2,1.2-0.3,1.6c-23.8,16.4-14.5,68.2-14.4,68.7c0.1,0.6-0.3,1.2-0.9,1.3
			C84.9,102.4,84.8,102.4,84.7,102.4z"/>
	</g>
</g>
<g id="XMLID_1773_">
	<g id="XMLID_1774_">
		<path id="XMLID_1775_" class="st2" d="M118.1,101.4c0,0-0.1,0-0.1,0c-0.6-0.1-1.1-0.6-1-1.2c0.1-0.5,5.3-47.4-16.7-68.4
			c-0.4-0.4-0.5-1.1,0-1.6c0.4-0.4,1.1-0.5,1.6,0c11.9,11.4,16,29.9,17.3,43.4c1.4,14.6,0,26.7,0,26.8
			C119.1,101,118.7,101.4,118.1,101.4z"/>
	</g>
</g>
<g id="XMLID_1771_">
	<path id="XMLID_1772_" class="st2" d="M151.6,101.4c0,0-0.1,0-0.1,0c-0.6-0.1-1.1-0.6-1-1.2c0-0.3,3-29.1-15.1-47
		c-0.4-0.4-0.4-1.1,0-1.6c0.4-0.4,1.1-0.4,1.6,0c18.9,18.6,15.8,48.5,15.8,48.8C152.6,101,152.1,101.4,151.6,101.4z"/>
</g>
<g id="XMLID_1768_">
	<g id="XMLID_1769_">
		<path id="XMLID_1770_" class="st2" d="M126.2,44.7c-0.2,0-0.5-0.1-0.7-0.3c-0.1-0.1-15-12.2-23.7-12.3c-0.6,0-1.1-0.5-1.1-1.1
			c0-0.6,0.5-1.1,1.1-1.1c9.5,0.1,24.4,12.3,25.1,12.8c0.5,0.4,0.5,1.1,0.2,1.6C126.8,44.6,126.5,44.7,126.2,44.7z"/>
	</g>
</g>
<path id="XMLID_1767_" class="st3" d="M175.5,156.8c-2.3,8-10.6,12.7-18.5,10.4c-8-2.3-12.6-10.7-10.3-18.7
	c2.3-8,10.6-12.7,18.5-10.4C173.1,140.4,177.7,148.8,175.5,156.8z"/>
<path id="XMLID_1764_" class="st2" d="M161.1,168.9c-1.5,0-3-0.2-4.4-0.6c-8.5-2.5-13.5-11.5-11.1-20.1c1.2-4.2,3.9-7.7,7.7-9.8
	c3.7-2.1,8.1-2.6,12.2-1.4c8.5,2.5,13.5,11.5,11.1,20.1l0,0c-1.2,4.2-3.9,7.7-7.7,9.8C166.4,168.2,163.8,168.9,161.1,168.9z
	 M161,138.7c-2.3,0-4.6,0.6-6.7,1.7c-3.3,1.8-5.6,4.8-6.6,8.4c-2.1,7.4,2.2,15.2,9.5,17.3c3.5,1,7.3,0.6,10.5-1.2
	c3.3-1.8,5.6-4.8,6.6-8.4l0,0c2.1-7.4-2.2-15.2-9.5-17.3C163.6,138.8,162.3,138.7,161,138.7z"/>
<g id="XMLID_1761_">
	<path id="XMLID_1762_" class="st2" d="M161.8,154.9l3.6,1c0.5,0.1,0.7,0.5,0.5,0.9c-0.1,0.5-0.4,0.6-0.9,0.5l-3.6-1l-0.9,3.1
		c-0.1,0.4-0.2,0.6-0.4,0.7c-0.1,0.1-0.4,0.1-0.7,0c-0.3-0.1-0.5-0.2-0.6-0.4c-0.1-0.2-0.1-0.4,0-0.8l0.9-3.1l-3.6-1
		c-0.5-0.1-0.7-0.4-0.5-0.9c0.1-0.5,0.4-0.7,0.9-0.5l3.6,1l0.6-2.2l-3.6-1c-0.5-0.1-0.7-0.4-0.5-0.9c0.1-0.5,0.4-0.7,0.9-0.5
		l2.7,0.8c-0.3-1-0.6-2.1-0.8-3.1s-0.6-2-0.8-3.1c-0.1-0.6,0-0.9,0.5-1.1c0.2-0.1,0.4-0.1,0.6,0c0.2,0.1,0.3,0.3,0.4,0.6l1.9,7.1
		l0.4,0.1c0.9-0.8,1.7-1.6,2.6-2.5c0.9-0.8,1.7-1.7,2.6-2.5c0.3-0.3,0.5-0.4,0.7-0.3c0.2,0.1,0.3,0.2,0.5,0.3
		c0.2,0.2,0.2,0.4,0.2,0.5c0,0.2-0.2,0.4-0.4,0.6l-4.6,4.3l2.6,0.7c0.5,0.1,0.7,0.5,0.5,0.9c-0.1,0.5-0.4,0.6-0.9,0.5l-3.6-1
		L161.8,154.9z"/>
</g>
<ellipse id="XMLID_1760_" class="st3" cx="134" cy="150.1" rx="20" ry="20.2"/>
<path id="XMLID_1757_" class="st2" d="M134,171.4c-11.6,0-21.1-9.5-21.1-21.3s9.5-21.3,21.1-21.3c11.6,0,21.1,9.5,21.1,21.3
	S145.6,171.4,134,171.4z M134,131.1c-10.4,0-18.9,8.5-18.9,19s8.5,19,18.9,19s18.9-8.5,18.9-19S144.4,131.1,134,131.1z"/>
<g id="XMLID_1746_">
	<path id="XMLID_1747_" class="st2" d="M134,168c-1,0-2.1-0.1-3.1-0.3c-0.5-0.1-0.8-0.5-0.7-1c0.1-0.5,0.5-0.8,1-0.7
		c1.8,0.3,3.7,0.3,5.6,0c0.5-0.1,0.9,0.2,1,0.7c0.1,0.5-0.2,0.9-0.7,1C136.1,167.9,135,168,134,168z M125.6,165.7
		c-0.1,0-0.3,0-0.4-0.1c-1.8-1-3.4-2.4-4.7-4c-0.3-0.4-0.3-0.9,0.1-1.2c0.4-0.3,0.9-0.3,1.2,0.1c1.2,1.4,2.6,2.7,4.2,3.6
		c0.4,0.2,0.6,0.8,0.3,1.2C126.2,165.6,125.9,165.7,125.6,165.7z M142.5,165.7c-0.3,0-0.6-0.2-0.8-0.4c-0.2-0.4-0.1-0.9,0.3-1.2
		c1.6-0.9,3-2.2,4.2-3.6c0.3-0.4,0.9-0.4,1.2-0.1c0.4,0.3,0.4,0.9,0.1,1.2c-1.3,1.6-2.9,3-4.7,4
		C142.8,165.7,142.6,165.7,142.5,165.7z M118.2,156.8c-0.4,0-0.7-0.2-0.8-0.6c-0.7-1.9-1.1-4-1.1-6.1c0-0.5,0.4-0.9,0.9-0.9
		c0,0,0,0,0,0c0.5,0,0.9,0.4,0.9,0.9c0,1.9,0.3,3.7,1,5.5c0.2,0.5-0.1,1-0.5,1.1C118.4,156.8,118.3,156.8,118.2,156.8z M149.8,156.8
		c-0.1,0-0.2,0-0.3-0.1c-0.5-0.2-0.7-0.7-0.5-1.1c0.6-1.8,1-3.6,1-5.5c0-0.5,0.4-0.9,0.9-0.9s0.9,0.4,0.9,0.8v0.1
		c0,2.1-0.4,4.1-1.1,6.1C150.5,156.6,150.2,156.8,149.8,156.8z M118.1,145.2c-0.1,0-0.2,0-0.3-0.1c-0.5-0.2-0.7-0.7-0.5-1.1
		c0.7-2,1.7-3.8,3-5.4c0.3-0.4,0.9-0.4,1.2-0.1c0.4,0.3,0.4,0.9,0.1,1.2c-1.2,1.5-2.1,3.1-2.7,4.8
		C118.8,145,118.5,145.2,118.1,145.2z M149.8,145.1c-0.4,0-0.7-0.2-0.8-0.6c-0.6-1.8-1.6-3.4-2.8-4.8c-0.3-0.4-0.3-0.9,0.1-1.2
		c0.4-0.3,0.9-0.3,1.2,0.1c1.3,1.6,2.4,3.4,3.1,5.4c0.2,0.5-0.1,1-0.5,1.1C150,145.1,149.9,145.1,149.8,145.1z M125.5,136.3
		c-0.3,0-0.6-0.2-0.8-0.4c-0.2-0.4-0.1-0.9,0.3-1.2c1.8-1.1,3.7-1.8,5.8-2.2c0.5-0.1,0.9,0.2,1,0.7c0.1,0.5-0.2,0.9-0.7,1
		c-1.8,0.3-3.6,1-5.2,1.9C125.8,136.3,125.7,136.3,125.5,136.3z M142.4,136.3c-0.1,0-0.3,0-0.4-0.1c-1.6-0.9-3.4-1.6-5.2-1.9
		c-0.5-0.1-0.8-0.5-0.7-1c0.1-0.5,0.5-0.8,1-0.7c2,0.4,4,1.1,5.8,2.1c0.4,0.2,0.6,0.8,0.3,1.2C143,136.1,142.7,136.3,142.4,136.3z"
		/>
</g>
<g id="XMLID_1743_">
	<path id="XMLID_1744_" class="st2" d="M135.5,154.1h4.9c0.7,0,1,0.3,1,1c0,0.6-0.3,1-1,1h-4.9v4.2c0,0.5-0.1,0.8-0.2,1
		c-0.1,0.2-0.4,0.3-0.9,0.3c-0.4,0-0.7-0.1-0.9-0.3c-0.2-0.2-0.3-0.5-0.3-1v-4.2h-4.9c-0.7,0-1-0.3-1-1c0-0.7,0.3-1,0.9-1h4.9v-2.9
		h-4.9c-0.7,0-1-0.3-1-1c0-0.7,0.3-1,0.9-1h3.6c-0.7-1.2-1.4-2.4-2.2-3.6c-0.7-1.2-1.4-2.4-2.2-3.6c-0.4-0.7-0.3-1.2,0.2-1.5
		c0.3-0.2,0.5-0.3,0.7-0.2c0.2,0,0.4,0.2,0.7,0.6l4.9,8.2h0.6c0.8-1.3,1.6-2.7,2.4-4.1c0.8-1.4,1.6-2.7,2.4-4.1
		c0.3-0.5,0.5-0.7,0.8-0.7c0.2,0,0.5,0.1,0.7,0.3c0.3,0.2,0.4,0.4,0.5,0.6c0,0.2-0.1,0.5-0.3,0.9l-4.2,7.1h3.5c0.7,0,1,0.3,1,1
		c0,0.6-0.3,1-1,1h-4.9V154.1z"/>
</g>
</svg>
