<?xml version="1.0" standalone="no"?><!DOCTYPE svg PUBLIC "-//W3C//DTD SVG 1.1//EN" "http://www.w3.org/Graphics/SVG/1.1/DTD/svg11.dtd"><svg class="icon" width="200px" height="200.00px" viewBox="0 0 1024 1024" version="1.1" xmlns="http://www.w3.org/2000/svg"><path fill="#d81e06" d="M512 512m-129.764436 0a129.764436 129.764436 0 1 0 259.528872 0 129.764436 129.764436 0 1 0-259.528872 0Z"  /><path fill="#d81e06" d="M959.696462 510.804778c-17.919115-47.424102-43.852764-91.548042-75.792197-131.34135a490.681462 490.681462 0 0 0-31.773658-36.128849 565.688783 565.688783 0 0 0-31.445176-30.309306l-0.334621 0.344854c-42.302455-36.434817-90.816378-65.526389-143.623071-85.441974l0.858553-0.884137a952.785052 952.785052 0 0 0-27.878954-8.387017 470.663546 470.663546 0 0 0-88.213087-18.256806c-15.553231-1.812275-31.339776-2.813069-47.449685-2.813069-0.682545 0-1.362021 0.017396-2.044566 0.020466-0.682545-0.00307-1.360997-0.020466-2.044566-0.020466-16.109909 0-31.896454 0.99977-47.449685 2.813069a470.565309 470.565309 0 0 0-88.213087 18.256806 960.084295 960.084295 0 0 0-27.878954 8.387017l0.858553 0.884137c-52.807716 19.915585-101.320617 49.007157-143.623071 85.441974l-0.334621-0.344854a566.060243 566.060243 0 0 0-31.445176 30.309306 490.892263 490.892263 0 0 0-31.773658 36.128849c-31.939433 39.793308-57.873082 83.917248-75.792197 131.34135 0.150426 0.400113 0.310062 0.795109 0.461511 1.194199-0.151449 0.399089-0.311085 0.794086-0.461511 1.194198 17.919115 47.425126 43.853787 91.550089 75.79322 131.343397a490.744907 490.744907 0 0 0 31.768541 36.123732 565.852512 565.852512 0 0 0 31.44927 30.3134l0.334621-0.344854c42.302455 36.434817 90.816378 65.526389 143.623071 85.441974l-0.858553 0.884137a952.785052 952.785052 0 0 0 27.878954 8.387017 470.582705 470.582705 0 0 0 88.213087 18.256806c15.553231 1.812275 31.339776 2.813069 47.449685 2.813069 0.682545 0 1.362021-0.017396 2.044566-0.020466 0.682545 0.00307 1.360997 0.020466 2.044566 0.020466 16.109909 0 31.896454-0.99977 47.449685-2.813069a470.565309 470.565309 0 0 0 88.213087-18.256806 960.084295 960.084295 0 0 0 27.878954-8.387017l-0.858553-0.884137c52.807716-19.915585 101.320617-49.007157 143.623071-85.441974l0.334621 0.344854a566.209646 566.209646 0 0 0 31.44927-30.3134 490.744907 490.744907 0 0 0 31.768541-36.123732c31.939433-39.793308 57.874105-83.918271 75.79322-131.343397-0.150426-0.400113-0.310062-0.795109-0.461511-1.194198 0.151449-0.399089 0.311085-0.794086 0.461511-1.194199z m-447.696462 212.809827c-116.871801 0-211.615629-94.742804-211.615629-211.615628S395.128199 300.384371 512 300.384371 723.614605 395.128199 723.614605 512s-94.742804 211.614605-211.614605 211.614605z"  /></svg>